<svg xmlns="http://www.w3.org/2000/svg" viewBox="0 0 20 20"><title>icono ayuda</title><path d="M9,12.89a1.19,1.19,0,0,0-.37.88,1.17,1.17,0,0,0,.39.92,1.28,1.28,0,0,0,.86.32,1.24,1.24,0,0,0,.85-0.32,1.17,1.17,0,0,0,.38-0.91,1.19,1.19,0,0,0-.36-0.88A1.27,1.27,0,0,0,9,12.89Z" fill="#9f1522"/><path d="M12.64,6.21a2.56,2.56,0,0,0-1.05-.9,3.72,3.72,0,0,0-3.15.06,2.86,2.86,0,0,0-1.08,1A2.27,2.27,0,0,0,7,7.56a0.94,0.94,0,0,0,.29.67,1,1,0,0,0,.73.3,1,1,0,0,0,1-.82A2.12,2.12,0,0,1,9.4,6.95a0.88,0.88,0,0,1,.66-0.21A0.88,0.88,0,0,1,10.7,7a0.66,0.66,0,0,1,.23.51,0.53,0.53,0,0,1-.07.27,1.31,1.31,0,0,1-.21.28l-0.49.45a8.6,8.6,0,0,0-.65.62,2.22,2.22,0,0,0-.6,1.58,1,1,0,0,0,.29.76,1,1,0,0,0,.68.27,0.9,0.9,0,0,0,.94-0.8c0-.17.07-0.29,0.09-0.36A0.81,0.81,0,0,1,11,10.39a0.9,0.9,0,0,1,.12-0.17,3.57,3.57,0,0,1,.27-0.27q0.67-.6.94-0.86a2.81,2.81,0,0,0,.5-0.67,2,2,0,0,0,.22-1,2.25,2.25,0,0,0-.38-1.25h0Z" fill="#9f1522"/><path d="M10,1a9,9,0,1,0,9,9A9,9,0,0,0,10,1Zm0,17.73A8.73,8.73,0,1,1,18.73,10,8.74,8.74,0,0,1,10,18.73Z" fill="#9f1522"/><path d="M10,2.66A7.34,7.34,0,1,0,17.34,10,7.35,7.35,0,0,0,10,2.66Zm0,14.4A7.07,7.07,0,1,1,17.06,10,7.07,7.07,0,0,1,10,17.06Z" fill="#9f1522"/></svg>