<svg xmlns="http://www.w3.org/2000/svg" viewBox="0 0 20 20"><title>calef gris 20x20</title><path d="M18.17,5.84h-2.5l-8.19.45a0.18,0.18,0,0,0-.13.07L2,13.44H2L1,14.67a0.18,0.18,0,0,0,.07.27l7.76,3.62,0.08,0a0.18,0.18,0,0,0,.15-0.08L15.71,7.94,18,10.11v6a0.18,0.18,0,0,0,.36,0V6A0.18,0.18,0,0,0,18.17,5.84ZM2.26,13.67h0l5.3-7,7.76-.42-0.47.72h0L8.57,16.49,2,14Zm6.61,4.5L1.46,14.71l0.29-.38,6.83,2.54H8.64a0.18,0.18,0,0,0,.15-0.08L15,7.31l0.4,0.38ZM18,9.61L15.24,7l0.53-.81H18V9.61Z" fill="#1f1f1f"/><path d="M7.51,6A0.65,0.65,0,0,0,7.8,6h0l8.72-.66A1.8,1.8,0,0,1,16.07,5a2.45,2.45,0,0,1-.61-1.46A2.45,2.45,0,0,1,15.83,2a1.87,1.87,0,0,1,.28-0.33L7.54,3.83A1,1,0,0,0,6.85,5,1.11,1.11,0,0,0,7.51,6Z" fill="#1f1f1f"/><ellipse cx="17.45" cy="3.4" rx="1.55" ry="1.98" transform="translate(-0.21 1.4) rotate(-4.56)" fill="#1f1f1f"/></svg>