<?xml version="1.0" encoding="utf-8"?>
<!-- Generator: Adobe Illustrator 19.2.0, SVG Export Plug-In . SVG Version: 6.00 Build 0)  -->
<svg version="1.1" id="Layer_1" xmlns="http://www.w3.org/2000/svg" xmlns:xlink="http://www.w3.org/1999/xlink" x="0px" y="0px"
	 viewBox="0 0 20 20" style="enable-background:new 0 0 20 20;" xml:space="preserve">
<g>
	<path style="fill:#791522;" d="M18.1,5.9h-2.5c0,0,0,0,0,0c0,0,0,0,0,0L7.5,6.3c-0.1,0-0.1,0-0.1,0.1l-5.3,7c0,0,0,0,0,0l-0.9,1.2
		c0,0,0,0.1,0,0.1c0,0.1,0,0.1,0.1,0.1l7.7,3.6c0,0,0,0,0.1,0c0.1,0,0.1,0,0.1-0.1L15.7,8l2.3,2.1v6c0,0.1,0.1,0.2,0.2,0.2
		c0.1,0,0.2-0.1,0.2-0.2V10V9.7V6.1C18.3,6,18.2,5.9,18.1,5.9z M2.3,13.6L2.3,13.6C2.3,13.6,2.3,13.6,2.3,13.6l5.3-7l7.7-0.4L14.8,7
		c0,0,0,0,0,0l-6.2,9.5L2.1,14L2.3,13.6z M8.9,18.1l-7.3-3.4l0.3-0.4l6.8,2.5c0,0,0,0,0.1,0c0.1,0,0.1,0,0.1-0.1L15,7.3l0.4,0.4
		L8.9,18.1z M17.9,9.6L15.2,7l0.5-0.8h2.2V9.6z"/>
	<path style="fill:#791522;" d="M7.5,6c0.1,0,0.2,0,0.3,0l0,0l8.6-0.6C16.3,5.3,16.2,5.2,16,5c-0.3-0.4-0.6-0.9-0.6-1.5
		c0-0.6,0.1-1.1,0.4-1.5c0.1-0.1,0.2-0.2,0.3-0.3c-2.3,0.6-8.5,2.2-8.5,2.2C7.1,3.9,6.8,4.5,6.9,5.1C6.9,5.5,7.2,5.9,7.5,6z"/>
	
		<ellipse transform="matrix(0.9968 -7.946686e-002 7.946686e-002 0.9968 -0.2197 1.3922)" style="fill:#791522;" cx="17.4" cy="3.5" rx="1.5" ry="2"/>
</g>
</svg>
