<?xml version="1.0" encoding="utf-8"?>
<!-- Generator: Adobe Illustrator 19.2.0, SVG Export Plug-In . SVG Version: 6.00 Build 0)  -->
<svg version="1.1" id="Layer_1" xmlns="http://www.w3.org/2000/svg" xmlns:xlink="http://www.w3.org/1999/xlink" x="0px" y="0px"
	 viewBox="0 0 20 20" style="enable-background:new 0 0 20 20;" xml:space="preserve">
<path style="fill:#1F1F1F;" d="M10,18.5c-4.7,0-8.5-3.8-8.5-8.5S5.3,1.5,10,1.5s8.5,3.8,8.5,8.5S14.7,18.5,10,18.5z M10,1.8
	c-4.5,0-8.2,3.7-8.2,8.2s3.7,8.2,8.2,8.2c4.5,0,8.2-3.7,8.2-8.2S14.5,1.8,10,1.8z M10,16.9c-3.8,0-6.9-3.1-6.9-6.9
	c0-3.8,3.1-6.9,6.9-6.9c3.8,0,6.9,3.1,6.9,6.9C16.9,13.8,13.8,16.9,10,16.9z M10,3.3c-3.7,0-6.7,3-6.7,6.7c0,3.7,3,6.7,6.7,6.7
	c3.7,0,6.7-3,6.7-6.7C16.7,6.3,13.7,3.3,10,3.3z M10,14.3c-0.6,0-1.2-0.5-1.2-1.2V10c0-0.6,0.5-1.2,1.2-1.2c0.6,0,1.2,0.5,1.2,1.2
	v3.1C11.2,13.8,10.6,14.3,10,14.3z M10,8C9.4,8,8.8,7.5,8.8,6.9S9.4,5.7,10,5.7c0.6,0,1.2,0.5,1.2,1.2S10.6,8,10,8z"/>
</svg>
