<svg xmlns="http://www.w3.org/2000/svg" viewBox="0 0 20 20"><title>escala e iconos</title><path d="M18.84,4.43H17.65V3.67a0.16,0.16,0,0,0-.14-0.16,10.13,10.13,0,0,0-6.18.92c-0.22.11-.41,0.22-0.58,0.33a6.77,6.77,0,0,0-.76.53,6.77,6.77,0,0,0-.75-0.53c-0.17-.1-0.36-0.22-0.58-0.33a10.12,10.12,0,0,0-6.18-.92,0.16,0.16,0,0,0-.14.16V4.43H1.16A0.16,0.16,0,0,0,1,4.6V16.45a0.16,0.16,0,0,0,.16.16H18.84A0.16,0.16,0,0,0,19,16.45V4.6A0.16,0.16,0,0,0,18.84,4.43Zm-7.43.33c0.21-.11.44-0.22,0.69-0.33a9.94,9.94,0,0,1,5.22-.62V14.43c-0.85,0-4.56-.07-7.16,1.75V5.58A6.89,6.89,0,0,1,11.41,4.76Zm-8.74,0V3.81a9.94,9.94,0,0,1,5.22.62c0.26,0.11.49,0.22,0.69,0.33a6.89,6.89,0,0,1,1.25.82V16.18a12.29,12.29,0,0,0-6.65-1.75H2.67V4.76ZM1.33,16.29V4.76h1V14.6a0.16,0.16,0,0,0,.05.12,0.17,0.17,0,0,0,.12,0s4.09-.26,6.9,1.52H1.33Zm17.35,0H10.58c2.81-1.79,6.86-1.53,6.9-1.52a0.16,0.16,0,0,0,.17-0.16V4.76h1V16.29Z" fill="#791522"/></svg>