<?xml version="1.0" encoding="utf-8"?>
<!-- Generator: Adobe Illustrator 19.2.0, SVG Export Plug-In . SVG Version: 6.00 Build 0)  -->
<svg version="1.1" id="Layer_1" xmlns="http://www.w3.org/2000/svg" xmlns:xlink="http://www.w3.org/1999/xlink" x="0px" y="0px"
	 viewBox="0 0 20 20" style="enable-background:new 0 0 20 20;" xml:space="preserve">
<g>
	<g>
		<path style="fill:#1F1F1F;" d="M16,4.4C15.4,4,14.7,3.8,14,3.8c-0.2,0-0.3,0-0.4,0l0.4,1.6L14.5,8l0.6,2.5c0,0,0,0,0,0l0,0.1
			c0.7-0.2,1.4-0.7,1.8-1.4C18,7.7,17.6,5.5,16,4.4z"/>
		<path style="fill:#1F1F1F;" d="M18.5,7c0-0.1-0.1-0.1-0.1-0.1c-0.1,0-0.1,0.1-0.1,0.1c0,0.6,0,1.1-0.2,1.7c-0.1,0.4-0.3,0.7-0.5,1
			c0,0,0,0.1,0,0.1c0,0,0,0,0.1,0c0,0,0.1,0,0.1,0c0.2-0.3,0.4-0.7,0.5-1.1C18.5,8.2,18.5,7.6,18.5,7z"/>
		<path style="fill:#1F1F1F;" d="M16.4,3.8C16.7,4,17,4.2,17.3,4.5c0,0,0,0,0.1,0c0,0,0,0,0.1,0c0,0,0-0.1,0-0.1
			c-0.3-0.3-0.6-0.6-0.9-0.8c0,0-0.1,0-0.1,0C16.4,3.7,16.4,3.7,16.4,3.8z"/>
		<path style="fill:#1F1F1F;" d="M16.5,10.8c-0.3,0.2-0.5,0.3-0.8,0.5c0,0-0.1,0.1-0.1,0.1c0,0,0.1,0.1,0.1,0.1c0,0,0,0,0,0
			c0.3-0.1,0.6-0.3,0.9-0.5c0,0,0.1-0.1,0-0.1C16.6,10.8,16.6,10.8,16.5,10.8z"/>
	</g>
	<path style="fill:#1F1F1F;" d="M15.7,13.3l-0.6-2.7c0,0,0,0,0,0l-0.6-2.5L14,5.5l-0.6-2.7c0-0.1-0.1-0.1-0.1-0.1h-2.4H8.6H6.4H4
		c-0.1,0-0.1,0-0.1,0.1L3.3,5.5l0,0l0,0L2.7,8l0,0l0,0l-0.6,2.5c0,0,0,0,0,0l-0.6,2.7c0,0,0,0.1,0,0.1c0,0,0.1,0,0.1,0h3.9h3v2.3
		H5.2c-0.1,0-0.1,0.1-0.1,0.1v1.3c0,0.1,0.1,0.1,0.1,0.1H12c0.1,0,0.1-0.1,0.1-0.1v-1.3c0-0.1-0.1-0.1-0.1-0.1H8.7v-2.3h3h3.9
		c0,0,0.1,0,0.1,0C15.7,13.4,15.7,13.3,15.7,13.3z M6.1,8.2h2.4v2.3H5.9L6.1,8.2z M8.7,8.2h2.4l0.2,2.3H8.7V8.2z M11.1,8H8.7V5.7H11
		L11.1,8z M8.5,8H6.1l0.2-2.3h2.2V8z M11.6,10.5l-0.2-2.3h2.9l0.5,2.3H11.6z M11.4,8l-0.2-2.3h2.5L14.3,8H11.4z M6,5.7L5.8,8H3
		l0.5-2.3H6z M5.8,8.2l-0.2,2.3H2.4l0.5-2.3H5.8z M11.2,5.4L11,3h2.1l0.6,2.4H11.2z M10.9,5.4H8.7V3h2L10.9,5.4z M8.5,5.4H6.3L6.5,3
		h2V5.4z M6.2,3L6,5.4H3.5L4.1,3H6.2z M2.3,10.7h3.3l-0.2,2.4H1.8L2.3,10.7z M5.8,10.7h2.6v2.4H5.6L5.8,10.7z M8.7,10.7h2.6l0.2,2.4
		H8.7V10.7z M11.6,10.7h3.3l0.6,2.4h-3.6L11.6,10.7z M11.9,16v1H5.3v-1H11.9z"/>
</g>
</svg>
