<svg xmlns="http://www.w3.org/2000/svg" viewBox="0 0 20 20"><title>panel gris 20x20</title><path d="M16.67,3.77a3.89,3.89,0,0,0-2.18-.66,3.94,3.94,0,0,0-.5,0L14.41,5l0.65,2.85,0.65,2.85h0v0.06A3.91,3.91,0,0,0,16.67,3.77Z" fill="#1f1f1f"/><path d="M19.49,6.64a0.11,0.11,0,0,0-.12-0.1,0.11,0.11,0,0,0-.1.12A4.74,4.74,0,0,1,19,8.55a4.8,4.8,0,0,1-.56,1.14,0.11,0.11,0,0,0,0,.15l0.06,0a0.11,0.11,0,0,0,.09,0,5,5,0,0,0,.59-1.19A5,5,0,0,0,19.49,6.64Z" fill="#1f1f1f"/><path d="M17.16,3a4.81,4.81,0,0,1,1,.84,0.11,0.11,0,1,0,.17-0.14,5,5,0,0,0-1-.88A0.11,0.11,0,1,0,17.16,3Z" fill="#1f1f1f"/><path d="M17.28,10.91a4.81,4.81,0,0,1-.92.52,0.11,0.11,0,0,0,0,.21h0a5,5,0,0,0,1-.54A0.11,0.11,0,1,0,17.28,10.91Z" fill="#1f1f1f"/><path d="M16.39,13.67l-0.68-3h0L15.07,7.82,14.42,5,13.74,2a0.14,0.14,0,0,0-.13-0.11H3.29A0.14,0.14,0,0,0,3.16,2L2.48,5h0L1.83,7.82h0L1.19,10.67h0l-0.68,3a0.14,0.14,0,0,0,.13.17H8.31v2.62H4.65a0.14,0.14,0,0,0-.14.14V18a0.14,0.14,0,0,0,.14.14h7.6A0.14,0.14,0,0,0,12.39,18V16.6a0.14,0.14,0,0,0-.14-0.14H8.59V13.84h7.67A0.14,0.14,0,0,0,16.39,13.67ZM5.59,8H8.31v2.57H5.38Zm3,0h2.72l0.21,2.57H8.59V8Zm2.7-.28H8.59V5.14h2.49Zm-3,0H5.61L5.82,5.14H8.31V7.71Zm3.48,2.85L11.58,8h3.24l0.58,2.57H11.79ZM11.56,7.71L11.35,5.14h2.82l0.58,2.57h-3.2Zm-6-2.57L5.34,7.71H2.14L2.72,5.14H5.55ZM5.31,8L5.1,10.56H1.49L2.08,8H5.31Zm6-3.12L11.1,2.14h2.39l0.62,2.73H11.33Zm-0.28,0H8.59V2.14h2.24Zm-2.74,0H5.85L6.07,2.14H8.31V4.87ZM5.79,2.14L5.57,4.87H2.78L3.4,2.14H5.79Zm-4.36,8.7H5.08L4.86,13.57h-4Zm3.93,0h3v2.73H5.13Zm3.23,0h3l0.22,2.73H8.59V10.83Zm3.23,0h3.65l0.62,2.73H12Zm0.3,5.9v1.13H4.78V16.74h7.33Z" fill="#1f1f1f"/></svg>