<?xml version="1.0" encoding="utf-8"?>
<!-- Generator: Adobe Illustrator 19.2.0, SVG Export Plug-In . SVG Version: 6.00 Build 0)  -->
<svg version="1.1" id="Layer_1" xmlns="http://www.w3.org/2000/svg" xmlns:xlink="http://www.w3.org/1999/xlink" x="0px" y="0px"
	 viewBox="0 0 20 20" style="enable-background:new 0 0 20 20;" xml:space="preserve">
<g>
	<g>
		<path style="fill:#791522;" d="M10,15.6c-1.1,0-2.2-0.3-3.1-0.9c-1.2-0.8-2.1-2.1-2.4-3.6c-0.3-1.5,0-3,0.8-4.2
			c1-1.5,2.8-2.5,4.6-2.5c1.1,0,2.2,0.3,3.1,0.9c2.6,1.7,3.2,5.2,1.5,7.7C13.6,14.7,11.9,15.6,10,15.6z M10,5.4
			c-1.5,0-2.9,0.8-3.8,2c-0.7,1-0.9,2.2-0.7,3.4c0.2,1.2,0.9,2.2,1.9,2.9c0.8,0.5,1.6,0.8,2.5,0.8c1.5,0,2.9-0.8,3.8-2
			c1.4-2.1,0.8-4.9-1.2-6.3C11.8,5.7,10.9,5.4,10,5.4z"/>
	</g>
	<g>
		<path style="fill:#791522;" d="M10,3.8c-0.1,0-0.2-0.1-0.2-0.2V1.2C9.8,1.1,9.9,1,10,1s0.2,0.1,0.2,0.2v2.4
			C10.2,3.8,10.1,3.8,10,3.8z"/>
	</g>
	<g>
		<path style="fill:#791522;" d="M14.3,5.6c-0.1-0.1-0.1-0.2,0-0.3l1.7-1.7c0.1-0.1,0.2-0.1,0.3,0c0.1,0.1,0.1,0.2,0,0.3l-1.7,1.7
			C14.5,5.7,14.4,5.7,14.3,5.6z"/>
	</g>
	<g>
		<path style="fill:#791522;" d="M16.2,10c0-0.1,0.1-0.2,0.2-0.2h2.4c0.1,0,0.2,0.1,0.2,0.2s-0.1,0.2-0.2,0.2h-2.4
			C16.2,10.2,16.2,10.1,16.2,10z"/>
	</g>
	<g>
		<path style="fill:#791522;" d="M14.4,14.3c0.1-0.1,0.2-0.1,0.3,0l1.7,1.7c0.1,0.1,0.1,0.2,0,0.3c-0.1,0.1-0.2,0.1-0.3,0l-1.7-1.7
			C14.3,14.5,14.3,14.4,14.4,14.3z"/>
	</g>
	<g>
		<path style="fill:#791522;" d="M10,16.2c0.1,0,0.2,0.1,0.2,0.2v2.4c0,0.1-0.1,0.2-0.2,0.2s-0.2-0.1-0.2-0.2v-2.4
			C9.8,16.2,9.9,16.2,10,16.2z"/>
	</g>
	<g>
		<path style="fill:#791522;" d="M5.7,14.4c0.1,0.1,0.1,0.2,0,0.3l-1.7,1.7c-0.1,0.1-0.2,0.1-0.3,0c-0.1-0.1-0.1-0.2,0-0.3l1.7-1.7
			C5.5,14.3,5.6,14.3,5.7,14.4z"/>
	</g>
	<g>
		<path style="fill:#791522;" d="M3.8,10c0,0.1-0.1,0.2-0.2,0.2H1.2C1.1,10.2,1,10.1,1,10s0.1-0.2,0.2-0.2h2.4
			C3.8,9.8,3.8,9.9,3.8,10z"/>
	</g>
	<g>
		<path style="fill:#791522;" d="M5.6,5.7c-0.1,0.1-0.2,0.1-0.3,0L3.6,3.9c-0.1-0.1-0.1-0.2,0-0.3c0.1-0.1,0.2-0.1,0.3,0l1.7,1.7
			C5.7,5.5,5.7,5.6,5.6,5.7z"/>
	</g>
</g>
</svg>
