<svg xmlns="http://www.w3.org/2000/svg" viewBox="0 0 20 20"><title>sol blanco</title><path d="M10,15.55a5.53,5.53,0,1,1,4.6-2.45A5.51,5.51,0,0,1,10,15.55ZM10,5.49a4.53,4.53,0,1,0,2.52.77A4.52,4.52,0,0,0,10,5.49Z" fill="#fff"/><path d="M10,3.9a0.2,0.2,0,0,1-.2-0.2V1.29a0.2,0.2,0,0,1,.4,0V3.7A0.2,0.2,0,0,1,10,3.9Z" fill="#fff"/><path d="M14.3,5.68a0.2,0.2,0,0,1,0-.28L16,3.68a0.2,0.2,0,0,1,.28.28L14.59,5.68A0.2,0.2,0,0,1,14.3,5.68Z" fill="#fff"/><path d="M16.1,10a0.2,0.2,0,0,1,.2-0.2h2.41a0.2,0.2,0,1,1,0,.4H16.3A0.2,0.2,0,0,1,16.1,10Z" fill="#fff"/><path d="M14.32,14.3a0.2,0.2,0,0,1,.28,0L16.32,16a0.2,0.2,0,0,1-.28.28l-1.71-1.71A0.2,0.2,0,0,1,14.32,14.3Z" fill="#fff"/><path d="M10,16.1a0.2,0.2,0,0,1,.2.2v2.41a0.2,0.2,0,1,1-.4,0V16.3A0.2,0.2,0,0,1,10,16.1Z" fill="#fff"/><path d="M5.7,14.32a0.2,0.2,0,0,1,0,.28L4,16.32A0.2,0.2,0,0,1,3.71,16l1.71-1.71A0.2,0.2,0,0,1,5.7,14.32Z" fill="#fff"/><path d="M3.9,10a0.2,0.2,0,0,1-.2.2H1.29a0.2,0.2,0,0,1,0-.4H3.7A0.2,0.2,0,0,1,3.9,10Z" fill="#fff"/><path d="M5.68,5.7a0.2,0.2,0,0,1-.28,0L3.68,4A0.2,0.2,0,0,1,4,3.71L5.68,5.41A0.2,0.2,0,0,1,5.68,5.7Z" fill="#fff"/></svg>