<svg xmlns="http://www.w3.org/2000/svg" viewBox="0 0 20 20"><title>temp blanco 20x20</title><path d="M10,19a4.35,4.35,0,0,1-4.34-4.34,4.29,4.29,0,0,1,1.18-3V4.15a3.16,3.16,0,0,1,6.32,0v7.53a4.29,4.29,0,0,1,1.18,3A4.35,4.35,0,0,1,10,19ZM10,1.27A2.89,2.89,0,0,0,7.11,4.15v7.58a0.13,0.13,0,0,1,0,.09,4,4,0,0,0-1.15,2.83,4.07,4.07,0,0,0,8.14,0,4,4,0,0,0-1.14-2.83,0.13,0.13,0,0,1,0-.09V4.16A2.89,2.89,0,0,0,10,1.27Zm0,16.57a3.18,3.18,0,0,1-3.17-3.17A3.12,3.12,0,0,1,8,12.18V7.44A0.13,0.13,0,0,1,8.15,7.3H9.46a0.26,0.26,0,0,0,0-.52H8.15A0.13,0.13,0,0,1,8,6.65v-1a0.13,0.13,0,0,1,.13-0.13H9.46a0.25,0.25,0,1,0,0-.5H8.15A0.13,0.13,0,0,1,8,4.92V4.15a2,2,0,1,1,4,0v8a3.11,3.11,0,0,1,1.18,2.47A3.17,3.17,0,0,1,10,17.84ZM8.29,7.57v4.68a0.13,0.13,0,0,1-.05.11,2.85,2.85,0,0,0-1.14,2.3,2.9,2.9,0,1,0,5.8,0,2.84,2.84,0,0,0-1.13-2.29,0.13,0.13,0,0,1-.05-0.11V4.16a1.71,1.71,0,1,0-3.43,0V4.79H9.46a0.52,0.52,0,1,1,0,1H8.29V6.51H9.46a0.53,0.53,0,0,1,0,1.06H8.29Z" fill="#fff"/><path d="M9.16,8.5V13a0.13,0.13,0,0,1-.07.12,1.79,1.79,0,0,0-.92,1.58,1.82,1.82,0,1,0,3.64,0,1.79,1.79,0,0,0-.92-1.58A0.13,0.13,0,0,1,10.84,13V8.5H9.16Z" fill="#fff"/></svg>