<?xml version="1.0" encoding="utf-8"?>
<!-- Generator: Adobe Illustrator 19.2.0, SVG Export Plug-In . SVG Version: 6.00 Build 0)  -->
<svg version="1.1" id="Layer_1" xmlns="http://www.w3.org/2000/svg" xmlns:xlink="http://www.w3.org/1999/xlink" x="0px" y="0px"
	 viewBox="0 0 20 20" style="enable-background:new 0 0 20 20;" xml:space="preserve">
<g>
	<g>
		<path style="fill:#1F1F1F;" d="M10,19c-2.4,0-4.3-1.9-4.3-4.3c0-1.1,0.4-2.2,1.2-3V4.2C6.8,2.4,8.3,1,10,1c1.7,0,3.2,1.4,3.2,3.2
			v7.5c0.8,0.8,1.2,1.9,1.2,3C14.3,17.1,12.4,19,10,19z M10,1.3c-1.6,0-2.9,1.3-2.9,2.9v7.6c0,0,0,0.1,0,0.1
			c-0.7,0.8-1.1,1.8-1.1,2.8c0,2.2,1.8,4.1,4.1,4.1c2.2,0,4.1-1.8,4.1-4.1c0-1.1-0.4-2.1-1.1-2.8c0,0,0-0.1,0-0.1V4.2
			C12.9,2.6,11.6,1.3,10,1.3z M10,17.8c-1.7,0-3.2-1.4-3.2-3.2c0-1,0.4-1.9,1.2-2.5V7.4c0-0.1,0.1-0.1,0.1-0.1h1.3
			c0.1,0,0.3-0.1,0.3-0.3c0-0.1-0.1-0.3-0.3-0.3H8.2C8.1,6.8,8,6.7,8,6.6v-1c0-0.1,0.1-0.1,0.1-0.1h1.3c0.1,0,0.3-0.1,0.3-0.2
			c0-0.1-0.1-0.2-0.3-0.2H8.2C8.1,5.1,8,5,8,4.9V4.2c0-1.1,0.9-2,2-2s2,0.9,2,2v8c0.8,0.6,1.2,1.5,1.2,2.5
			C13.2,16.4,11.7,17.8,10,17.8z M8.3,7.6v4.7c0,0,0,0.1-0.1,0.1c-0.7,0.5-1.1,1.4-1.1,2.3c0,1.6,1.3,2.9,2.9,2.9
			c1.6,0,2.9-1.3,2.9-2.9c0-0.9-0.4-1.8-1.1-2.3c0,0-0.1-0.1-0.1-0.1V4.2c0-1-0.8-1.7-1.7-1.7c-0.9,0-1.7,0.8-1.7,1.7v0.6h1.2
			C9.8,4.8,10,5,10,5.3c0,0.3-0.2,0.5-0.5,0.5H8.3v0.7h1.2C9.8,6.5,10,6.8,10,7c0,0.3-0.2,0.5-0.5,0.5H8.3z"/>
		<path style="fill:#1F1F1F;" d="M9.2,8.5V13c0,0,0,0.1-0.1,0.1c-0.6,0.3-0.9,0.9-0.9,1.6c0,1,0.8,1.8,1.8,1.8c1,0,1.8-0.8,1.8-1.8
			c0-0.7-0.3-1.3-0.9-1.6c0,0-0.1-0.1-0.1-0.1V8.5H9.2z"/>
	</g>
</g>
</svg>
