<svg xmlns="http://www.w3.org/2000/svg" viewBox="0 0 55 55"><defs><style>.a{fill:#e6e6e5;}</style></defs><title>toolbardiario</title><path class="a" d="M47.24,26.16a0.68,0.68,0,0,0-.85,0l-2.92,2.55c0-.41,0-0.83,0-1.25A18,18,0,1,0,25,45.51a0.45,0.45,0,0,0,.46-0.45h0A0.45,0.45,0,0,0,25,44.61,17.11,17.11,0,1,1,42.62,27.5c0,0.41,0,.81,0,1.21L40,25.78a0.68,0.68,0,0,0-.84-0.16,0.66,0.66,0,0,0-.17,1l3.43,3.92a0.66,0.66,0,0,0,.93.06l3.92-3.43A0.66,0.66,0,0,0,47.24,26.16Z"/><path class="a" d="M20.27,20.46c2.72,0,4.34,1.58,4.34,4,0,4.86-7.52,6.28-7.52,8.71h7.07a0.63,0.63,0,0,1,0,1.26H16.33a0.63,0.63,0,0,1-.63-0.63c0-4.46,7.54-4.94,7.54-9.34a2.68,2.68,0,0,0-3-2.74,2.85,2.85,0,0,0-2.88,1.86,0.63,0.63,0,0,1-1.22-.22,0.69,0.69,0,0,1,0-.22A3.92,3.92,0,0,1,20.27,20.46Z"/><path class="a" d="M34.59,30a0.62,0.62,0,0,1,.65.61,0.64,0.64,0,0,1-.65.65H33.44v2.63a0.67,0.67,0,0,1-1.34,0V31.24H26.18a0.63,0.63,0,0,1-.63-0.63,0.66,0.66,0,0,1,.14-0.41l6.53-9.32a0.64,0.64,0,0,1,.55-0.28,0.67,0.67,0,0,1,.67.67V30h1.16ZM32.1,30V23.17L27.36,30H32.1Z"/></svg>