<svg xmlns="http://www.w3.org/2000/svg" viewBox="0 0 70 70"><title>iconos libro</title><path d="M53.35,20.26H51.59V13a0.53,0.53,0,0,0-.53-0.53H20.31a4.2,4.2,0,0,0-4.19,4.19V50.44a7.07,7.07,0,0,0,7.06,7.06l27.85,0h2.29A0.53,0.53,0,0,0,53.88,57V20.79A0.53,0.53,0,0,0,53.35,20.26ZM20.62,13.58l29.91,0v6.71H33.61V18.81a0.53,0.53,0,0,0-.53-0.53h-6a0.53,0.53,0,0,0-.53.53v1.44H20.62A3.34,3.34,0,1,1,20.62,13.58Zm2.56,42.86a6,6,0,0,1-3.25-1V21.28a4.49,4.49,0,0,0,.69.06h5.91V33.76a0.53,0.53,0,0,0,.9.37l2.74-2.74,2.54,2.54a0.53,0.53,0,0,0,.9-0.37V21.33H52.74l0.09,35.12H23.18Z" fill="#fff"/></svg>