<svg xmlns="http://www.w3.org/2000/svg" viewBox="0 0 55 55"><defs><style>.a{fill:#e6e6e5;}</style></defs><title>toolbaranual</title><path class="a" d="M43.34,47.22H36.65a0.7,0.7,0,0,1-.7-0.7V20.74a0.7,0.7,0,0,1,.7-0.7h6.69a0.7,0.7,0,0,1,.7.7V46.52A0.7,0.7,0,0,1,43.34,47.22Zm-6.47-.92h6.25V21H36.87V46.3Z"/><path class="a" d="M30.84,47.22H24.16a0.7,0.7,0,0,1-.7-0.7V26a0.7,0.7,0,0,1,.7-0.7h6.69a0.7,0.7,0,0,1,.7.7V46.52A0.7,0.7,0,0,1,30.84,47.22Zm-6.47-.92h6.25V26.21H24.37V46.3Z"/><path class="a" d="M18.35,47.22H11.66a0.7,0.7,0,0,1-.7-0.7V23.36a0.7,0.7,0,0,1,.7-0.7h6.69a0.7,0.7,0,0,1,.7.7V46.52A0.7,0.7,0,0,1,18.35,47.22Zm-6.47-.92h6.25V23.58H11.88V46.3Z"/><path class="a" d="M41.2,7.78H35.08a0.77,0.77,0,0,0,0,1.55h4.69L28.66,21.59l-6.54-7.37a0.46,0.46,0,0,0-.59-0.09l-8.29,5.11a0.46,0.46,0,1,0,.49.79l8-4.91,6.62,7.47a0.46,0.46,0,0,0,.34.16h0A0.46,0.46,0,0,0,29,22.6L40.42,10v4.7a0.77,0.77,0,1,0,1.55,0V8.56A0.78,0.78,0,0,0,41.2,7.78Z"/></svg>