<svg xmlns="http://www.w3.org/2000/svg" viewBox="0 0 70 70"><title>info gris 70x70</title><path d="M35,57.5A22.5,22.5,0,1,1,57.5,35,22.53,22.53,0,0,1,35,57.5Zm0-44.32A21.82,21.82,0,1,0,56.82,35,21.84,21.84,0,0,0,35,13.18Zm0,40.16A18.34,18.34,0,1,1,53.34,35,18.37,18.37,0,0,1,35,53.34Zm0-36A17.66,17.66,0,1,0,52.66,35,17.69,17.69,0,0,0,35,17.33Zm0,29.08a3.11,3.11,0,0,1-3.11-3.1V35a3.11,3.11,0,1,1,6.22,0v8.31A3.11,3.11,0,0,1,35,46.42ZM35,29.8a3.11,3.11,0,1,1,3.1-3.11A3.12,3.12,0,0,1,35,29.8Z" fill="#1f1f1f"/></svg>