<svg xmlns="http://www.w3.org/2000/svg" viewBox="0 0 55 55"><defs><style>.a{fill:#e6e6e5;}</style></defs><title>toolbarmensual</title><path class="a" d="M44.65,11.59H35.28V9.34a1.08,1.08,0,0,0-2.15,0v2.25H21.87V9.34A1.08,1.08,0,0,0,20.8,8.26h0a1.08,1.08,0,0,0-1.08,1.08v2.25H10.35A0.39,0.39,0,0,0,10,12v8a0.39,0.39,0,0,0,.39.39H44.65A0.39,0.39,0,0,0,45,20V12A0.39,0.39,0,0,0,44.65,11.59Zm-0.39,8H10.74V12.37h9v1.47a1.08,1.08,0,0,0,1.08,1.08h0a1.08,1.08,0,0,0,1.08-1.08V12.37H33.13v1.47a1.08,1.08,0,0,0,2.15,0V12.37h9v7.24Z"/><path class="a" d="M44.65,21.07H10.35a0.39,0.39,0,0,0-.39.39V46.35a0.39,0.39,0,0,0,.39.39H44.65A0.39,0.39,0,0,0,45,46.35V21.46A0.39,0.39,0,0,0,44.65,21.07ZM44.26,46H10.74V21.85H44.26V46Z"/><path class="a" d="M24.23,32.1c3.53,0,4.59,2.25,4.59,4.68,0,2.84-1.71,4.46-5,4.46a5.1,5.1,0,0,1-4.66-2.45,0.67,0.67,0,0,1-.11-0.37,0.64,0.64,0,0,1,.65-0.65,0.65,0.65,0,0,1,.58.35,3.81,3.81,0,0,0,3.53,1.82c2.4,0,3.57-1.15,3.57-3.16s-0.8-3.38-3.27-3.38H22.6A0.64,0.64,0,0,1,22,32.75a0.66,0.66,0,0,1,.17-0.45l4-4.63H20.52a0.65,0.65,0,0,1,0-1.3h7.06a0.64,0.64,0,0,1,.65.65,0.67,0.67,0,0,1-.17.45L24,32.1h0.22Z"/><path class="a" d="M31.72,29.85a0.7,0.7,0,1,1-.8-1.15l3.4-2.36a0.7,0.7,0,0,1,.43-0.15,0.72,0.72,0,0,1,.71.71V40.4a0.71,0.71,0,0,1-1.43,0V28.18Z"/></svg>