<svg xmlns="http://www.w3.org/2000/svg" viewBox="0 0 70 70"><defs><style>.a{fill:#e6e6e5;}</style></defs><title>toolbarsol</title><path class="a" d="M35,50.55a15.51,15.51,0,1,1,12.89-6.86A15.44,15.44,0,0,1,35,50.55Zm0-28.21a12.69,12.69,0,1,0,7.07,2.16A12.68,12.68,0,0,0,35,22.34Z"/><path class="a" d="M35,17.9a0.56,0.56,0,0,1-.56-0.56V10.56a0.56,0.56,0,0,1,1.13,0v6.77A0.56,0.56,0,0,1,35,17.9Z"/><path class="a" d="M47.06,22.87a0.56,0.56,0,0,1,0-.8l4.79-4.79a0.56,0.56,0,1,1,.8.8l-4.79,4.79A0.56,0.56,0,0,1,47.06,22.87Z"/><path class="a" d="M52.1,35a0.56,0.56,0,0,1,.56-0.56h6.77a0.56,0.56,0,1,1,0,1.13H52.67A0.56,0.56,0,0,1,52.1,35Z"/><path class="a" d="M47.13,47.06a0.56,0.56,0,0,1,.8,0l4.79,4.79a0.56,0.56,0,0,1-.8.8l-4.79-4.79A0.56,0.56,0,0,1,47.13,47.06Z"/><path class="a" d="M35,52.1a0.56,0.56,0,0,1,.56.56v6.77a0.56,0.56,0,1,1-1.13,0V52.67A0.56,0.56,0,0,1,35,52.1Z"/><path class="a" d="M22.94,47.13a0.56,0.56,0,0,1,0,.8l-4.79,4.79a0.56,0.56,0,1,1-.8-0.8l4.79-4.79A0.56,0.56,0,0,1,22.94,47.13Z"/><path class="a" d="M17.9,35a0.56,0.56,0,0,1-.56.56H10.56a0.56,0.56,0,0,1,0-1.13h6.77A0.56,0.56,0,0,1,17.9,35Z"/><path class="a" d="M22.87,22.94a0.56,0.56,0,0,1-.8,0l-4.79-4.79a0.56,0.56,0,0,1,.8-0.8l4.79,4.79A0.56,0.56,0,0,1,22.87,22.94Z"/></svg>