<svg xmlns="http://www.w3.org/2000/svg" viewBox="0 0 70 70"><title>temp gris 70x70</title><path d="M35,57.5A10.86,10.86,0,0,1,24.15,46.65a10.72,10.72,0,0,1,3-7.44V20.39a7.89,7.89,0,0,1,15.79,0V39.21a10.73,10.73,0,0,1,3,7.44A10.87,10.87,0,0,1,35,57.5Zm0-44.33a7.23,7.23,0,0,0-7.22,7.21v19a0.34,0.34,0,0,1-.1.23,10.05,10.05,0,0,0-2.87,7.07,10.18,10.18,0,0,0,20.36,0,10.06,10.06,0,0,0-2.86-7.07,0.34,0.34,0,0,1-.1-0.23v-19A7.23,7.23,0,0,0,35,13.17Zm0,41.42a7.94,7.94,0,0,1-7.93-7.94,7.8,7.8,0,0,1,3-6.2V28.6a0.34,0.34,0,0,1,.34-0.34h3.28a0.65,0.65,0,0,0,0-1.31H30.38A0.34,0.34,0,0,1,30,26.62V24.22a0.34,0.34,0,0,1,.34-0.34h3.28a0.62,0.62,0,1,0,0-1.24H30.38A0.34,0.34,0,0,1,30,22.31V20.39a5,5,0,1,1,9.91,0v20.1a7.77,7.77,0,0,1,3,6.17A7.94,7.94,0,0,1,35,54.59ZM30.72,28.93V40.62a0.34,0.34,0,0,1-.13.27,7.14,7.14,0,0,0-2.85,5.76,7.25,7.25,0,1,0,14.51,0,7.1,7.1,0,0,0-2.82-5.73,0.34,0.34,0,0,1-.13-0.27V20.39a4.28,4.28,0,1,0-8.56,0V22h2.94a1.29,1.29,0,1,1,0,2.59H30.72v1.72h2.94a1.33,1.33,0,0,1,0,2.65H30.72Z" fill="#1f1f1f"/><path d="M32.91,31.26V42.41a0.34,0.34,0,0,1-.17.29,4.48,4.48,0,0,0-2.29,3.95,4.55,4.55,0,1,0,9.11,0,4.47,4.47,0,0,0-2.29-3.95,0.34,0.34,0,0,1-.17-0.29V31.26H32.91Z" fill="#1f1f1f"/></svg>