<?xml version="1.0" encoding="utf-8"?>
<!-- Generator: Adobe Illustrator 19.2.0, SVG Export Plug-In . SVG Version: 6.00 Build 0)  -->
<svg version="1.1" id="Layer_1" xmlns="http://www.w3.org/2000/svg" xmlns:xlink="http://www.w3.org/1999/xlink" x="0px" y="0px"
	 viewBox="0 0 70 70" style="enable-background:new 0 0 70 70;" xml:space="preserve">
<g>
	<g>
		<path style="fill:#1F1F1F;" d="M35,65c-8,0-14.5-6.5-14.5-14.5c0-3.7,1.4-7.2,3.9-9.9V15.5C24.5,9.7,29.2,5,35,5
			c5.8,0,10.5,4.7,10.5,10.5v25.1c2.5,2.7,3.9,6.2,3.9,9.9C49.5,58.5,43,65,35,65z M35,5.9c-5.3,0-9.6,4.3-9.6,9.6v25.3
			c0,0.1,0,0.2-0.1,0.3c-2.5,2.5-3.8,5.9-3.8,9.4c0,7.5,6.1,13.6,13.6,13.6c7.5,0,13.6-6.1,13.6-13.6c0-3.6-1.4-6.9-3.8-9.4
			c-0.1-0.1-0.1-0.2-0.1-0.3V15.5C44.6,10.2,40.3,5.9,35,5.9z M35,61.1c-5.8,0-10.6-4.7-10.6-10.6c0-3.3,1.4-6.3,4-8.3V26.5
			c0-0.2,0.2-0.4,0.4-0.4h4.4c0.5,0,0.8-0.4,0.8-0.9c0-0.5-0.4-0.9-0.8-0.9h-4.4c-0.2,0-0.4-0.2-0.4-0.4v-3.2c0-0.2,0.2-0.4,0.4-0.4
			h4.4c0.5,0,0.8-0.4,0.8-0.8c0-0.5-0.4-0.8-0.8-0.8h-4.4c-0.2,0-0.4-0.2-0.4-0.4v-2.6c0-3.7,3-6.6,6.6-6.6c3.6,0,6.6,3,6.6,6.6
			v26.8c2.5,2,3.9,5,3.9,8.2C45.6,56.4,40.8,61.1,35,61.1z M29.3,26.9v15.6c0,0.1-0.1,0.3-0.2,0.4c-2.4,1.8-3.8,4.6-3.8,7.7
			c0,5.3,4.3,9.7,9.7,9.7c5.3,0,9.7-4.3,9.7-9.7c0-3.1-1.4-5.8-3.8-7.6c-0.1-0.1-0.2-0.2-0.2-0.4v-27c0-3.2-2.6-5.7-5.7-5.7
			c-3.1,0-5.7,2.6-5.7,5.7v2.1h3.9c1,0,1.7,0.8,1.7,1.7c0,1-0.8,1.7-1.7,1.7h-3.9v2.3h3.9c1,0,1.7,0.8,1.7,1.8c0,1-0.8,1.8-1.7,1.8
			H29.3z"/>
		<path style="fill:#1F1F1F;" d="M32.2,30v14.9c0,0.2-0.1,0.3-0.2,0.4c-1.9,1.1-3.1,3.1-3.1,5.3c0,3.4,2.7,6.1,6.1,6.1
			c3.3,0,6.1-2.7,6.1-6.1c0-2.2-1.1-4.2-3.1-5.3c-0.1-0.1-0.2-0.2-0.2-0.4V30H32.2z"/>
	</g>
</g>
</svg>
