<svg xmlns="http://www.w3.org/2000/svg" viewBox="0 0 70 70"><defs><style>.a{fill:#e6e6e5;}</style></defs><title>toolbarcalefon</title><path class="a" d="M58.81,22.89h-7.3l-23.88,1.3a0.52,0.52,0,0,0-.39.21L11.66,45h0L8.88,48.6a0.52,0.52,0,0,0,.19.79L31.68,60a0.52,0.52,0,0,0,.66-0.19L51.64,29l6.64,6.3v17.6a0.52,0.52,0,1,0,1,0V23.41A0.52,0.52,0,0,0,58.81,22.89ZM12.44,45.71l0,0h0L27.93,25.21,50.54,24l-1.37,2.09h0L30.83,53.92l-19.2-7.14ZM31.71,58.82L10.1,48.73l0.85-1.09L30.86,55a0.52,0.52,0,0,0,.61-0.2L49.69,27.16l1.18,1.12ZM58.29,33.88l-8-7.6,1.55-2.35h6.47v10Z"/><path class="a" d="M27.75,23.24a1.89,1.89,0,0,0,.83.1h0L54,21.43a5.24,5.24,0,0,1-1.31-1,7.13,7.13,0,0,1-1.78-4.27A7.13,7.13,0,0,1,52,11.65a5.46,5.46,0,0,1,.82-1L27.84,17c-1.32.16-2.22,1.7-2,3.44A3.25,3.25,0,0,0,27.75,23.24Z"/><ellipse class="a" cx="56.71" cy="15.75" rx="4.51" ry="5.76" transform="translate(-1.07 4.56) rotate(-4.56)"/></svg>