<?xml version="1.0" encoding="utf-8"?>
<!-- Generator: Adobe Illustrator 19.2.0, SVG Export Plug-In . SVG Version: 6.00 Build 0)  -->
<svg version="1.1" id="Layer_1" xmlns="http://www.w3.org/2000/svg" xmlns:xlink="http://www.w3.org/1999/xlink" x="0px" y="0px"
	 viewBox="0 0 70 70" style="enable-background:new 0 0 70 70;" xml:space="preserve">
<path style="fill:#1F1F1F;" d="M35,65C18.5,65,5,51.5,5,35S18.5,5,35,5s30,13.5,30,30S51.5,65,35,65z M35,5.9C19,5.9,5.9,19,5.9,35
	S19,64.1,35,64.1C51,64.1,64.1,51,64.1,35S51,5.9,35,5.9z M35,59.5c-13.5,0-24.5-11-24.5-24.5c0-13.5,11-24.5,24.5-24.5
	c13.5,0,24.5,11,24.5,24.5C59.5,48.5,48.5,59.5,35,59.5z M35,11.4C22,11.4,11.4,22,11.4,35C11.4,48,22,58.5,35,58.5
	C48,58.5,58.5,48,58.5,35C58.5,22,48,11.4,35,11.4z M35,50.2c-2.3,0-4.2-1.9-4.2-4.1V35c0-2.3,1.9-4.2,4.2-4.2
	c2.3,0,4.1,1.9,4.1,4.2v11.1C39.1,48.4,37.3,50.2,35,50.2z M35,28.1c-2.3,0-4.2-1.9-4.2-4.2s1.9-4.2,4.2-4.2c2.3,0,4.1,1.9,4.1,4.2
	S37.3,28.1,35,28.1z"/>
</svg>
