<svg xmlns="http://www.w3.org/2000/svg" viewBox="0 0 45 45"><title>icono calefones</title><path d="M40.57,12.83H34.74l-10.81.59H23.77l-1.47.08-0.37,0-1.27.07-0.57,0L19,13.69l-0.77,0-1,.06-0.83,0-0.57.86h0L2.5,34.76h0L3.12,35l0.74,0.35,0.61,0.28L5.22,36l0.61,0.28,0.74,0.35,0.61,0.28,11.73,5.48a0.41,0.41,0,0,0,.53-0.16L34.85,17.71l5.3,5v14a0.41,0.41,0,1,0,.83,0V13.25A0.41,0.41,0,0,0,40.57,12.83ZM34,13.7l-1.1,1.66h0L18.23,37.6l-0.68-.25,15.67-23.6Zm-1.57.09L16.91,37.11l-0.78-.29,15.25-23Zm-1.84.1L15.49,36.58l-0.78-.29L29.54,13.94Zm-1.84.1L14.07,36.05l-0.78-.29L27.7,14Zm-1.84.1L12.64,35.52l-0.78-.29,14-21.09ZM24,14.24l1-.06L11.22,35l-0.78-.29Zm-1.84.1,1-.06L9.8,34.47,9,34.18Zm-1.84.1,1-.06-13,19.55-0.78-.29Zm-1.84.1,1-.06L7,33.41l-0.78-.29Zm-1.84.1-0.74,0h0l0.74,0,1-.06L5.53,32.88l-0.72-.27Zm2.27,26.87-8.58-4L10,37.36l-1-.49-0.61-.28-0.74-.35L7,36l-0.74-.35-0.61-.28L4.94,35l-0.61-.28-0.68-.32,0.69-1.05,0.71,0.27L5.7,33.83l0.78,0.29,0.64,0.24,0.78,0.29,0.64,0.24,0.78,0.29L10,35.41l0.78,0.29,0.64,0.24,0.78,0.29,0.64,0.24,0.78,0.29L14.24,37l1.33,0.49,0.08,0.05v0l2.6,1,0.14,0a0.42,0.42,0,0,0,.35-0.19l14.55-22.1,0.94,0.89ZM40.15,21.6l-6.4-6.07L35,13.66h5.16V21.6Z" fill="#a3a3a3"/><path d="M15.77,13.11a1.51,1.51,0,0,0,.66.08h0l20.28-1.53a4.18,4.18,0,0,1-1-.82,5.69,5.69,0,0,1-1.42-3.41,5.69,5.69,0,0,1,.86-3.59,4.36,4.36,0,0,1,.66-0.78L15.84,8.16c-1.05.13-1.77,1.36-1.61,2.75A2.59,2.59,0,0,0,15.77,13.11Z" fill="#a3a3a3"/><ellipse cx="38.89" cy="7.14" rx="3.6" ry="4.6" transform="translate(-0.44 3.11) rotate(-4.56)" fill="#a3a3a3"/></svg>