<?xml version="1.0" encoding="utf-8"?>
<!-- Generator: Adobe Illustrator 19.2.0, SVG Export Plug-In . SVG Version: 6.00 Build 0)  -->
<svg version="1.1" id="Layer_1" xmlns="http://www.w3.org/2000/svg" xmlns:xlink="http://www.w3.org/1999/xlink" x="0px" y="0px"
	 viewBox="0 0 125 50" style="enable-background:new 0 0 125 50;" xml:space="preserve">
<path style="stroke:#FFFFFF;stroke-width:2;stroke-miterlimit:10;" d="M118.2,35H6.8c-2.4,0-4.3-1.9-4.3-4.3V19.3
	c0-2.4,1.9-4.3,4.3-4.3h111.4c2.4,0,4.3,1.9,4.3,4.3v11.4C122.5,33.1,120.6,35,118.2,35z"/>
<g>
	<defs>
		<path id="SVGID_1_" d="M118.2,35H6.8c-2.4,0-4.3-1.9-4.3-4.3V19.3c0-2.4,1.9-4.3,4.3-4.3h111.4c2.4,0,4.3,1.9,4.3,4.3v11.4
			C122.5,33.1,120.6,35,118.2,35z"/>
	</defs>
	<clipPath id="SVGID_2_">
		<use xlink:href="#SVGID_1_"  style="overflow:visible;"/>
	</clipPath>
	<g style="clip-path:url(#SVGID_2_);">
		
			<rect x="108.4" y="20.9" transform="matrix(4.793036e-011 1 -1 4.793036e-011 143.4068 -93.4068)" style="fill:#BE0000;" width="20" height="8.2"/>
		
			<rect x="100.4" y="20.9" transform="matrix(4.802096e-011 1 -1 4.802096e-011 135.4201 -85.4201)" style="fill:#D80000;" width="20" height="8.2"/>
		
			<rect x="92.4" y="20.9" transform="matrix(4.802096e-011 1 -1 4.802096e-011 127.4334 -77.4334)" style="fill:#F20000;" width="20" height="8.2"/>
		
			<rect x="84.4" y="20.9" transform="matrix(4.793036e-011 1 -1 4.793036e-011 119.4468 -69.4468)" style="fill:#FF3000;" width="20" height="8.2"/>
		
			<rect x="76.5" y="20.9" transform="matrix(4.793036e-011 1 -1 4.793036e-011 111.4601 -61.4601)" style="fill:#FF7900;" width="20" height="8.2"/>
		
			<rect x="68.5" y="20.9" transform="matrix(4.793036e-011 1 -1 4.793036e-011 103.4734 -53.4734)" style="fill:#FFB24D;" width="20" height="8.2"/>
		
			<rect x="60.5" y="20.9" transform="matrix(4.793036e-011 1 -1 4.793036e-011 95.4867 -45.4867)" style="fill:#FCE155;" width="20" height="8.2"/>
		
			<rect x="52.5" y="20.9" transform="matrix(4.797566e-011 1 -1 4.797566e-011 87.5 -37.5)" style="fill:#F7FF5D;" width="20" height="8.2"/>
		
			<rect x="44.5" y="20.9" transform="matrix(4.802096e-011 1 -1 4.802096e-011 79.5133 -29.5133)" style="fill:#DDFF73;" width="20" height="8.2"/>
		
			<rect x="36.5" y="20.9" transform="matrix(4.802096e-011 1 -1 4.802096e-011 71.5266 -21.5266)" style="fill:#C4F986;" width="20" height="8.2"/>
		
			<rect x="28.5" y="20.9" transform="matrix(4.797566e-011 1 -1 4.797566e-011 63.5399 -13.5399)" style="fill:#ABED98;" width="20" height="8.2"/>
		
			<rect x="20.6" y="20.9" transform="matrix(4.788507e-011 1 -1 4.788507e-011 55.5532 -5.5532)" style="fill:#8CD9A6;" width="20" height="8.2"/>
		
			<rect x="12.6" y="20.9" transform="matrix(4.797566e-011 1 -1 4.797566e-011 47.5666 2.4334)" style="fill:#6ABAAE;" width="20" height="8.2"/>
		
			<rect x="4.6" y="20.9" transform="matrix(4.802096e-011 1 -1 4.802096e-011 39.5799 10.4201)" style="fill:#4A9AB5;" width="20" height="8.2"/>
		
			<rect x="-3.4" y="20.9" transform="matrix(4.806626e-011 1 -1 4.806626e-011 31.5932 18.4068)" style="fill:#3279BD;" width="20" height="8.2"/>
	</g>
</g>
<g>
	<g>
		<path d="M57.4,4.3c-0.1-0.1-0.2-0.2-0.3-0.2h-1c-0.1,0-0.2,0.1-0.3,0.2L51.9,10c0,0,0,0.1,0,0.1V7.6c0-0.3,0-0.5-0.1-0.7
			c0-0.3-0.1-0.5-0.3-0.7C51.4,6,51.2,5.9,51,5.7c-0.5-0.3-1.3-0.3-1.9,0.1c0,0-0.1,0-0.1,0.1V4.3C49,4.1,48.8,4,48.6,4h-0.9
			c-0.2,0-0.3,0.1-0.3,0.2c-0.1,0-0.1-0.1-0.2-0.1h-1c-0.2,0-0.3,0.1-0.4,0.2l-1.4,3.7L44,7l0.9-2.4c0-0.1,0-0.2,0-0.3
			c-0.1-0.1-0.2-0.2-0.3-0.2h-0.8c-0.2,0-0.3,0.1-0.4,0.2l-0.3,1l-0.3-1c-0.1-0.1-0.2-0.2-0.4-0.2h-0.8c-0.1,0-0.2,0.1-0.3,0.2
			c-0.1,0.1-0.1,0.2,0,0.3L42,7l-0.4,1.1l-1.4-3.8c-0.1-0.1-0.2-0.2-0.4-0.2h-1c-0.1,0-0.2,0.1-0.3,0.2s-0.1,0.2,0,0.4l0.4,1
			c0,0-0.1,0-0.1,0h-1c-0.1,0-0.2,0-0.3,0.1l-1.3,1.4V4.3c0-0.2-0.2-0.4-0.4-0.4h-0.9c-0.2,0-0.4,0.2-0.4,0.4v5.8
			c0,0.2,0.2,0.4,0.4,0.4h0.9c0.2,0,0.4-0.2,0.4-0.4V9.1l0.3-0.2l1.1,1.6c0.1,0.1,0.2,0.2,0.3,0.2h0.9c0.1,0,0.3-0.1,0.3-0.2
			s0.1-0.3,0-0.4l-1.5-2.2l1.4-1.5c0,0,0,0,0-0.1l1.7,4.1c0.1,0.1,0.2,0.2,0.3,0.2h0.8c0.2,0,0.3-0.1,0.3-0.2L43,8.6l0.7,1.7
			c0.1,0.1,0.2,0.2,0.3,0.2h0.8c0.2,0,0.3-0.1,0.3-0.2L47.4,5v5.1c0,0.2,0.2,0.4,0.4,0.4h0.9c0.2,0,0.4-0.2,0.4-0.4V7.7
			c0-0.1,0.1-0.2,0.1-0.2c0.1-0.1,0.1-0.2,0.2-0.2c0.1-0.1,0.2-0.1,0.3-0.1c0.3-0.1,0.5,0,0.5,0.1c0,0.1,0.1,0.2,0.1,0.6v2.3
			c0,0.2,0.2,0.4,0.4,0.4h0.9c0.2,0,0.3-0.1,0.4-0.3c0,0,0,0.1,0,0.1c0.1,0.1,0.2,0.2,0.3,0.2h1c0.1,0,0.2-0.1,0.3-0.2l3.9-5.7
			C57.5,4.6,57.5,4.4,57.4,4.3z"/>
		<path d="M64.1,6.2C64,6,63.8,5.9,63.6,5.7c-0.5-0.3-1.3-0.2-1.9,0.1c-0.1,0.1-0.3,0.2-0.4,0.3c-0.1-0.1-0.1-0.2-0.2-0.2
			c-0.5-0.5-1.5-0.5-2.2-0.1c0,0-0.1,0-0.1,0.1c0-0.2-0.2-0.3-0.4-0.3h-0.8c-0.2,0-0.4,0.2-0.4,0.4v4.2c0,0.2,0.2,0.4,0.4,0.4h0.9
			c0.2,0,0.4-0.2,0.4-0.4V7.7c0.1-0.2,0.2-0.4,0.3-0.5c0.3-0.2,0.6-0.2,0.7-0.1c0,0.1,0.1,0.2,0.1,0.6v2.3c0,0.2,0.2,0.4,0.4,0.4
			h0.9c0.2,0,0.4-0.2,0.4-0.4V7.8c0.1-0.2,0.2-0.4,0.3-0.5c0.3-0.2,0.6-0.2,0.7-0.1c0,0.1,0.1,0.2,0.1,0.6v2.3
			c0,0.2,0.2,0.4,0.4,0.4H64c0.2,0,0.4-0.2,0.4-0.4V7.6c0-0.3,0-0.5-0.1-0.7C64.3,6.7,64.2,6.4,64.1,6.2z"/>
		<path d="M74.3,4.3c-0.1-0.1-0.2-0.2-0.3-0.2h-1c-0.1,0-0.2,0.1-0.3,0.2l-3.8,5.5V9.4c0-0.2-0.2-0.4-0.4-0.4h-1.8
			c0.1-0.1,0.2-0.1,0.3-0.2c0.1-0.1,0.3-0.1,0.4-0.2c0.1-0.1,0.3-0.1,0.4-0.2C68,8.3,68.2,8.2,68.3,8c0.1-0.1,0.3-0.3,0.4-0.5
			c0.1-0.2,0.2-0.4,0.2-0.7c0-0.2,0-0.5-0.1-0.7c-0.1-0.2-0.2-0.4-0.4-0.6c-0.2-0.1-0.4-0.3-0.6-0.3c-0.5-0.2-1.1-0.2-1.6,0
			c-0.2,0.1-0.4,0.1-0.6,0.2c-0.2,0.1-0.3,0.2-0.5,0.3C64.8,5.9,64.7,6,64.6,6c-0.1,0.1-0.1,0.4,0,0.5l0.6,0.6
			c0.1,0.1,0.2,0.1,0.3,0.1h0c0.1,0,0.2,0,0.3-0.1c0.1-0.1,0.1-0.1,0.2-0.2c0.1-0.1,0.1-0.1,0.2-0.2c0.1,0,0.2-0.1,0.2-0.1
			c0.2-0.1,0.5,0,0.7,0.1c0.1,0.1,0.1,0.1,0.1,0.2c0,0,0,0.1,0,0.1c-0.1,0.1-0.1,0.1-0.2,0.2c-0.1,0.1-0.2,0.2-0.4,0.2
			c-0.2,0.1-0.3,0.2-0.5,0.3c-0.3,0.2-0.5,0.3-0.7,0.5c-0.2,0.2-0.3,0.4-0.5,0.6c-0.1,0.2-0.2,0.4-0.2,0.7c0,0.2-0.1,0.5-0.1,0.7
			c0,0.2,0.2,0.4,0.4,0.4h3.7c0.1,0,0.2-0.1,0.3-0.2c0.1,0.1,0.2,0.2,0.3,0.2h1c0.1,0,0.2-0.1,0.3-0.2l3.9-5.7
			C74.4,4.6,74.4,4.4,74.3,4.3z"/>
		<path d="M90.2,8.3c-0.1-0.2-0.2-0.3-0.4-0.5c-0.2-0.1-0.4-0.2-0.6-0.3c-0.2-0.1-0.5-0.1-0.8-0.2c-0.2,0-0.3-0.1-0.4-0.1
			c-0.1,0-0.2-0.1-0.2-0.1c0-0.1,0-0.1,0-0.1c0.1-0.1,0.2-0.1,0.4-0.1c0.4,0,0.7,0.1,1,0.4c0.1,0.1,0.2,0.1,0.3,0.1
			c0.1,0,0.2-0.1,0.3-0.2l0.4-0.5c0.1-0.2,0.1-0.4-0.1-0.5c-0.2-0.2-0.5-0.4-0.8-0.5c-0.5-0.2-1.2-0.2-1.8-0.1
			C87.2,5.7,87,5.8,86.8,6c-0.2,0.1-0.3,0.3-0.5,0.5c-0.1,0.2-0.1,0.4-0.1,0.6c-0.1-0.3-0.3-0.6-0.5-0.8c-0.2-0.2-0.5-0.4-0.8-0.6
			c-0.6-0.3-1.5-0.3-2.1,0c-0.3,0.1-0.6,0.3-0.8,0.6c-0.2,0.2-0.4,0.5-0.5,0.8c-0.1,0.3-0.2,0.6-0.2,0.9V7.6c0-0.3,0-0.5-0.1-0.7
			c0-0.3-0.1-0.5-0.3-0.7c-0.1-0.2-0.3-0.4-0.5-0.5c-0.5-0.3-1.3-0.2-1.9,0.1c-0.1,0.1-0.3,0.2-0.4,0.3C78.2,6.1,78.1,6,78,5.9
			c-0.5-0.5-1.5-0.5-2.2-0.1c0,0-0.1,0-0.1,0.1c0-0.2-0.2-0.3-0.4-0.3h-0.8c-0.2,0-0.4,0.2-0.4,0.4v4.2c0,0.2,0.2,0.4,0.4,0.4h0.9
			c0.2,0,0.4-0.2,0.4-0.4V7.7c0.1-0.2,0.2-0.4,0.3-0.5c0.3-0.2,0.6-0.2,0.7-0.1c0,0.1,0.1,0.2,0.1,0.6v2.3c0,0.2,0.2,0.4,0.4,0.4
			h0.9c0.2,0,0.4-0.2,0.4-0.4V7.8c0.1-0.2,0.2-0.4,0.3-0.5c0.3-0.2,0.6-0.2,0.7-0.1c0,0.1,0.1,0.2,0.1,0.6v2.3
			c0,0.2,0.2,0.4,0.4,0.4H81c0.2,0,0.4-0.2,0.4-0.4v-2c0,0.3,0.1,0.6,0.2,0.9c0.1,0.3,0.3,0.6,0.5,0.8c0.2,0.2,0.5,0.4,0.8,0.6
			c0.3,0.1,0.7,0.2,1,0.2c0.5,0,1-0.1,1.4-0.4c0.4-0.2,0.7-0.6,0.9-0.9c0-0.1,0-0.2,0-0.3S86,8.9,85.9,8.8l-0.3-0.1H86
			c0.2,0,0.3-0.1,0.4-0.3l0-0.1c0-0.1,0-0.1,0-0.2c0,0,0-0.1,0-0.1c0.1,0.1,0.2,0.2,0.3,0.3c0.1,0.1,0.3,0.2,0.6,0.3
			c0.2,0.1,0.4,0.1,0.7,0.2c0.3,0.1,0.6,0.2,0.8,0.3c0,0.1,0,0.1-0.1,0.1c-0.2,0.1-0.7,0.1-1,0C87.4,9,87.2,8.9,87,8.8
			c-0.1-0.1-0.2-0.1-0.3-0.1c-0.1,0-0.2,0.1-0.2,0.2l-0.4,0.6C86,9.6,86,9.8,86.2,9.9c0.3,0.2,0.6,0.4,1,0.5
			c0.4,0.1,0.7,0.2,1.1,0.2c0.6,0,1.1-0.1,1.5-0.4c0.4-0.3,0.6-0.7,0.6-1.2C90.3,8.7,90.3,8.5,90.2,8.3z M83.3,7.2
			C83.4,7.1,83.4,7,83.5,7c0.2-0.1,0.5-0.1,0.7,0c0.1,0,0.2,0.1,0.3,0.2c0.1,0.1,0.1,0.1,0.2,0.2h-1.5C83.2,7.3,83.2,7.2,83.3,7.2z
			 M84.7,8.8c0,0.1-0.1,0.1-0.1,0.2c-0.1,0.1-0.1,0.1-0.2,0.1c-0.1,0-0.1,0.1-0.2,0.1c-0.2,0.1-0.4,0-0.6,0c-0.1,0-0.2-0.1-0.3-0.2
			c-0.1-0.1-0.1-0.2-0.2-0.2L84.7,8.8C84.7,8.8,84.7,8.8,84.7,8.8z"/>
	</g>
	<g>
		<g>
			<path style="fill:#FFFFFF;" d="M38,10.2l-1.3-1.9l-0.7,0.7v1.3h-0.9V4.3h0.9V8l1.9-2h1l-1.6,1.8l1.7,2.4H38z"/>
			<path style="fill:#FFFFFF;" d="M41.5,4.5h0.8L43,6.4l0.7-1.9h0.8l-1,2.5l0.8,2.1l1.8-4.6h1l-2.3,5.7h-0.8L43,7.6l-1.1,2.5h-0.8
				l-2.3-5.7h1l1.8,4.6L42.4,7L41.5,4.5z"/>
			<path style="fill:#FFFFFF;" d="M51.5,10.2h-0.9V7.8c0-0.4-0.1-0.7-0.2-0.9c-0.1-0.2-0.3-0.3-0.6-0.3c-0.1,0-0.2,0-0.4,0.1
				c-0.1,0-0.2,0.1-0.3,0.2c-0.1,0.1-0.2,0.2-0.3,0.3c-0.1,0.1-0.1,0.3-0.2,0.4v2.5h-0.9V4.3h0.9v2.5c0.2-0.3,0.4-0.5,0.7-0.7
				c0.3-0.2,0.6-0.2,0.9-0.2c0.3,0,0.5,0,0.6,0.1c0.2,0.1,0.3,0.2,0.4,0.4c0.1,0.2,0.2,0.3,0.2,0.5c0,0.2,0.1,0.4,0.1,0.7V10.2z"/>
			<path style="fill:#FFFFFF;" d="M57.1,4.5l-3.9,5.7h-1l3.9-5.7H57.1z"/>
			<path style="fill:#FFFFFF;" d="M64,10.2h-0.9V7.8c0-0.4-0.1-0.7-0.2-0.9c-0.1-0.2-0.3-0.3-0.6-0.3c-0.3,0-0.5,0.1-0.7,0.3
				c-0.2,0.2-0.4,0.4-0.4,0.7v2.5h-0.9V7.8c0-0.4-0.1-0.7-0.2-0.9s-0.3-0.3-0.6-0.3c-0.3,0-0.5,0.1-0.7,0.3
				c-0.2,0.2-0.4,0.4-0.4,0.7v2.5h-0.9V6h0.8v0.8c0.2-0.3,0.4-0.5,0.7-0.7s0.6-0.2,0.9-0.2s0.6,0.1,0.8,0.3s0.3,0.4,0.4,0.7
				c0.2-0.3,0.4-0.5,0.7-0.7c0.3-0.2,0.6-0.2,0.9-0.2c0.2,0,0.4,0,0.6,0.1c0.2,0.1,0.3,0.2,0.4,0.4C63.9,6.6,63.9,6.8,64,7
				C64,7.2,64,7.4,64,7.6V10.2z"/>
			<path style="fill:#FFFFFF;" d="M64.8,10.2c0-0.2,0-0.4,0.1-0.6S65,9.2,65.1,9c0.1-0.2,0.2-0.3,0.4-0.5s0.4-0.3,0.6-0.4
				c0.2-0.1,0.4-0.2,0.5-0.3c0.2-0.1,0.3-0.2,0.4-0.3c0.1-0.1,0.2-0.2,0.3-0.3c0.1-0.1,0.1-0.2,0.1-0.3c0-0.2-0.1-0.3-0.2-0.5
				c-0.1-0.1-0.4-0.2-0.6-0.2c-0.1,0-0.3,0-0.4,0.1S66,6.5,65.9,6.5c-0.1,0.1-0.2,0.1-0.3,0.2c-0.1,0.1-0.1,0.1-0.2,0.2l-0.6-0.6
				C65,6.2,65,6.2,65.2,6.1s0.3-0.2,0.4-0.3s0.3-0.1,0.6-0.2s0.4-0.1,0.7-0.1c0.3,0,0.5,0,0.7,0.1c0.2,0.1,0.4,0.2,0.5,0.3
				c0.1,0.1,0.2,0.3,0.3,0.4c0.1,0.2,0.1,0.3,0.1,0.5c0,0.2,0,0.4-0.1,0.5S68.2,7.7,68,7.8c-0.1,0.1-0.2,0.2-0.4,0.3
				c-0.1,0.1-0.3,0.2-0.4,0.2c-0.1,0.1-0.2,0.1-0.4,0.2c-0.1,0.1-0.3,0.2-0.4,0.2c-0.1,0.1-0.3,0.2-0.4,0.3
				c-0.1,0.1-0.2,0.2-0.2,0.4h2.6v0.8H64.8z"/>
			<path style="fill:#FFFFFF;" d="M74,4.5l-3.9,5.7h-1L73,4.5H74z"/>
			<path style="fill:#FFFFFF;" d="M81,10.2h-0.9V7.8c0-0.4-0.1-0.7-0.2-0.9c-0.1-0.2-0.3-0.3-0.6-0.3c-0.3,0-0.5,0.1-0.7,0.3
				c-0.2,0.2-0.4,0.4-0.4,0.7v2.5h-0.9V7.8c0-0.4-0.1-0.7-0.2-0.9s-0.3-0.3-0.6-0.3c-0.3,0-0.5,0.1-0.7,0.3
				c-0.2,0.2-0.4,0.4-0.4,0.7v2.5h-0.9V6h0.8v0.8c0.2-0.3,0.4-0.5,0.7-0.7s0.6-0.2,0.9-0.2s0.6,0.1,0.8,0.3s0.3,0.4,0.4,0.7
				c0.2-0.3,0.4-0.5,0.7-0.7c0.3-0.2,0.6-0.2,0.9-0.2c0.2,0,0.4,0,0.6,0.1c0.2,0.1,0.3,0.2,0.4,0.4c0.1,0.2,0.2,0.3,0.2,0.5
				c0,0.2,0.1,0.4,0.1,0.7V10.2z"/>
			<path style="fill:#FFFFFF;" d="M83.9,10.3c-0.3,0-0.6-0.1-0.9-0.2c-0.3-0.1-0.5-0.3-0.7-0.5S82,9.2,81.9,8.9
				c-0.1-0.3-0.2-0.5-0.2-0.8c0-0.3,0.1-0.6,0.2-0.8C82,7,82.1,6.8,82.3,6.6c0.2-0.2,0.4-0.4,0.7-0.5c0.3-0.1,0.6-0.2,0.9-0.2
				c0.3,0,0.6,0.1,0.9,0.2c0.3,0.1,0.5,0.3,0.7,0.5c0.2,0.2,0.3,0.4,0.4,0.7C86,7.5,86,7.8,86,8.1c0,0.1,0,0.1,0,0.2
				c0,0.1,0,0.1,0,0.1h-3.4c0,0.2,0.1,0.4,0.1,0.5c0.1,0.1,0.2,0.3,0.3,0.4c0.1,0.1,0.2,0.2,0.4,0.3c0.1,0.1,0.3,0.1,0.5,0.1
				c0.1,0,0.2,0,0.3,0s0.2-0.1,0.3-0.1c0.1-0.1,0.2-0.1,0.3-0.2C84.9,9.2,85,9.1,85,9l0.8,0.2C85.6,9.5,85.4,9.8,85,10
				C84.7,10.2,84.3,10.3,83.9,10.3z M85.1,7.8c0-0.2-0.1-0.3-0.1-0.5c-0.1-0.1-0.2-0.3-0.3-0.4c-0.1-0.1-0.2-0.2-0.4-0.2
				S84,6.6,83.9,6.6s-0.3,0-0.5,0.1c-0.1,0.1-0.3,0.1-0.4,0.2c-0.1,0.1-0.2,0.2-0.3,0.4s-0.1,0.3-0.1,0.5H85.1z"/>
			<path style="fill:#FFFFFF;" d="M88.3,10.3c-0.3,0-0.7-0.1-1-0.2c-0.3-0.1-0.6-0.3-0.9-0.5l0.4-0.6c0.3,0.2,0.5,0.3,0.7,0.4
				c0.2,0.1,0.5,0.1,0.8,0.1c0.3,0,0.5-0.1,0.6-0.2C89,9.4,89.1,9.2,89.1,9c0-0.2-0.1-0.3-0.3-0.4c-0.2-0.1-0.4-0.2-0.8-0.3
				c-0.3-0.1-0.5-0.1-0.7-0.2C87.2,8.1,87,8,86.9,8c-0.1-0.1-0.2-0.2-0.3-0.3c-0.1-0.1-0.1-0.2-0.1-0.4c0-0.2,0-0.4,0.1-0.6
				c0.1-0.2,0.2-0.3,0.3-0.4c0.1-0.1,0.3-0.2,0.5-0.3s0.4-0.1,0.6-0.1c0.3,0,0.6,0,0.9,0.1c0.3,0.1,0.5,0.2,0.7,0.4L89.4,7
				c-0.4-0.3-0.8-0.5-1.2-0.5c-0.2,0-0.4,0-0.6,0.1c-0.2,0.1-0.2,0.2-0.2,0.4c0,0.1,0,0.2,0,0.2c0,0.1,0.1,0.1,0.2,0.2
				c0.1,0,0.2,0.1,0.3,0.1c0.1,0,0.3,0.1,0.4,0.1c0.3,0.1,0.5,0.1,0.7,0.2c0.2,0.1,0.4,0.2,0.5,0.2c0.1,0.1,0.2,0.2,0.3,0.3
				c0.1,0.1,0.1,0.3,0.1,0.5c0,0.4-0.2,0.7-0.5,0.9C89.2,10.1,88.8,10.3,88.3,10.3z"/>
		</g>
	</g>
</g>
<g>
	<g>
		<path d="M5.9,39.4c-0.1-0.1-0.3-0.1-0.4,0l-3.4,2C2.1,41.5,2,41.6,2,41.7v0.4c0,0.1,0.1,0.3,0.2,0.3l3.4,2c0.1,0,0.1,0.1,0.2,0.1
			c0.1,0,0.1,0,0.2,0c0.1-0.1,0.2-0.2,0.2-0.3v-1c0-0.1-0.1-0.3-0.2-0.3l-1.6-0.9l1.6-1c0.1-0.1,0.2-0.2,0.2-0.3v-0.9
			C6.1,39.6,6,39.4,5.9,39.4z"/>
		<path d="M11.7,42.8h-0.6v-3.4c0-0.2-0.2-0.4-0.4-0.4H9.8c-0.2,0-0.3,0-0.3,0.2c0,0-0.1,0.1-0.1,0.1c-0.1,0.1-0.2,0.2-0.3,0.2
			c-0.1,0.1-0.2,0.1-0.4,0.2c-0.1,0.1-0.2,0.1-0.2,0.1c-0.2,0-0.4,0.2-0.4,0.4V41c0,0.2,0.2,0.4,0.4,0.4c0.1,0,0.3,0,0.5-0.1
			c0.2,0,0.3-0.1,0.4-0.2c0,0,0,0,0,0v1.7H8.7c-0.2,0-0.4,0.2-0.4,0.4V44c0,0.2,0.2,0.4,0.4,0.4h3.1c0.2,0,0.4-0.2,0.4-0.4v-0.8
			C12.1,43,11.9,42.8,11.7,42.8z"/>
		<path d="M16.1,39.7c-0.2-0.3-0.5-0.5-0.8-0.6c-0.6-0.3-1.4-0.3-2,0c-0.3,0.1-0.6,0.3-0.8,0.6c-0.2,0.2-0.4,0.5-0.5,0.9
			C12,40.9,12,41.3,12,41.6c0,0.4,0.1,0.8,0.2,1.1c0.1,0.3,0.3,0.6,0.5,0.9c0.2,0.3,0.5,0.5,0.8,0.6c0.3,0.1,0.6,0.2,1,0.2
			s0.7-0.1,1-0.2c0.3-0.1,0.6-0.3,0.8-0.6c0.2-0.3,0.4-0.5,0.5-0.9c0.1-0.3,0.2-0.7,0.2-1.1c0-0.4-0.1-0.8-0.2-1.1
			C16.5,40.2,16.3,39.9,16.1,39.7z M15.2,41.6c0,0.2,0,0.4-0.1,0.6c0,0.2-0.1,0.3-0.2,0.4c-0.1,0.1-0.2,0.2-0.2,0.2
			c-0.2,0.1-0.4,0.1-0.6,0c-0.1-0.1-0.2-0.1-0.2-0.2c-0.1-0.1-0.1-0.2-0.2-0.4c0-0.2-0.1-0.3-0.1-0.6c0-0.2,0-0.4,0.1-0.6
			c0-0.2,0.1-0.3,0.2-0.4c0.1-0.1,0.2-0.2,0.2-0.2c0.1,0,0.2-0.1,0.3-0.1c0.1,0,0.2,0,0.3,0.1c0.1,0,0.2,0.1,0.2,0.2
			c0.1,0.1,0.1,0.2,0.2,0.4C15.1,41.3,15.2,41.4,15.2,41.6z"/>
		<path d="M21,39.7c-0.2-0.3-0.5-0.5-0.8-0.6c-0.6-0.3-1.4-0.3-2,0c-0.3,0.1-0.6,0.3-0.8,0.6c-0.2,0.2-0.4,0.5-0.5,0.9
			c-0.1,0.3-0.2,0.7-0.2,1.1c0,0.4,0.1,0.8,0.2,1.1c0.1,0.3,0.3,0.6,0.5,0.9c0.2,0.3,0.5,0.5,0.8,0.6c0.3,0.1,0.6,0.2,1,0.2
			s0.7-0.1,1-0.2c0.3-0.1,0.6-0.3,0.8-0.6c0.2-0.3,0.4-0.5,0.5-0.9c0.1-0.3,0.2-0.7,0.2-1.1c0-0.4-0.1-0.8-0.2-1.1
			C21.4,40.2,21.3,39.9,21,39.7z M20.1,41.6c0,0.2,0,0.4-0.1,0.6c0,0.2-0.1,0.3-0.2,0.4c-0.1,0.1-0.2,0.2-0.2,0.2
			c-0.2,0.1-0.4,0.1-0.6,0c-0.1-0.1-0.2-0.1-0.2-0.2c-0.1-0.1-0.1-0.2-0.2-0.4c0-0.2-0.1-0.3-0.1-0.6c0-0.2,0-0.4,0.1-0.6
			c0-0.2,0.1-0.3,0.2-0.4c0.1-0.1,0.2-0.2,0.2-0.2c0.1,0,0.2-0.1,0.3-0.1c0.1,0,0.2,0,0.3,0.1c0.1,0,0.2,0.1,0.2,0.2
			c0.1,0.1,0.1,0.2,0.2,0.4C20.1,41.3,20.1,41.4,20.1,41.6z"/>
		<path d="M46.8,42.6h-0.3v-3.1c0-0.2-0.2-0.4-0.4-0.4h-0.6c-0.1,0-0.2,0.1-0.3,0.1l-2.7,3.5c0,0,0,0.1,0,0.1c0,0,0,0,0,0h-0.6v-3.4
			c0-0.2-0.2-0.4-0.4-0.4h-0.9c-0.2,0-0.3,0-0.3,0.2c0,0-0.1,0.1-0.1,0.1c-0.1,0.1-0.2,0.2-0.3,0.2c-0.1,0.1-0.2,0.1-0.4,0.2
			c-0.1,0.1-0.2,0.1-0.2,0.1c-0.2,0-0.4,0.2-0.4,0.4V41c0,0.2,0.2,0.4,0.4,0.4c0.1,0,0.3,0,0.5-0.1c0.2,0,0.3-0.1,0.4-0.2
			c0,0,0,0,0,0v1.7h-0.8c-0.2,0-0.4,0.2-0.4,0.4V44c0,0.2,0.2,0.4,0.4,0.4h3.1c0.2,0,0.3-0.1,0.4-0.3c0,0,0,0,0,0h2.1V45
			c0,0.2,0.2,0.4,0.4,0.4h0.9c0.2,0,0.4-0.2,0.4-0.4v-0.9h0.3c0.2,0,0.4-0.2,0.4-0.4v-0.8C47.2,42.7,47,42.6,46.8,42.6z M44.4,42.6
			l0.5-0.7v0.7H44.4z"/>
		<path d="M51.3,39.7c-0.2-0.3-0.5-0.5-0.8-0.6c-0.6-0.3-1.4-0.3-2,0c-0.3,0.1-0.6,0.3-0.8,0.6c-0.2,0.2-0.4,0.5-0.5,0.9
			c-0.1,0.3-0.2,0.7-0.2,1.1c0,0.4,0.1,0.8,0.2,1.1c0.1,0.3,0.3,0.6,0.5,0.9c0.2,0.3,0.5,0.5,0.8,0.6c0.3,0.1,0.6,0.2,1,0.2
			s0.7-0.1,1-0.2c0.3-0.1,0.6-0.3,0.8-0.6c0.2-0.3,0.4-0.5,0.5-0.9c0.1-0.3,0.2-0.7,0.2-1.1c0-0.4-0.1-0.8-0.2-1.1
			C51.7,40.2,51.5,39.9,51.3,39.7z M50.3,41.6c0,0.2,0,0.4-0.1,0.6c0,0.2-0.1,0.3-0.2,0.4c-0.1,0.1-0.2,0.2-0.2,0.2
			c-0.2,0.1-0.4,0.1-0.6,0c-0.1-0.1-0.2-0.1-0.2-0.2c-0.1-0.1-0.1-0.2-0.2-0.4c0-0.2-0.1-0.3-0.1-0.6c0-0.2,0-0.4,0.1-0.6
			c0-0.2,0.1-0.3,0.2-0.4c0.1-0.1,0.2-0.2,0.2-0.2c0.1,0,0.2-0.1,0.3-0.1c0.1,0,0.2,0,0.3,0.1c0.1,0,0.2,0.1,0.2,0.2
			c0.1,0.1,0.1,0.2,0.2,0.4C50.3,41.3,50.3,41.4,50.3,41.6z"/>
		<path d="M80.4,41.3c-0.1-0.1-0.2-0.2-0.3-0.3c0.1-0.1,0.1-0.1,0.2-0.2c0.2-0.3,0.3-0.6,0.3-0.9c0-0.3-0.1-0.6-0.2-0.8
			c-0.1-0.2-0.3-0.4-0.5-0.6c-0.2-0.2-0.5-0.3-0.7-0.3c-0.5-0.2-1-0.2-1.5,0c-0.3,0.1-0.5,0.2-0.7,0.4c-0.2,0.2-0.4,0.4-0.5,0.6
			c-0.1,0.2-0.2,0.5-0.2,0.8c0,0.3,0.1,0.6,0.3,0.9c0.1,0.1,0.1,0.1,0.2,0.2c-0.1,0.1-0.2,0.2-0.3,0.3c-0.1,0.1-0.2,0.3-0.3,0.5
			C76,41.9,76,42.1,76,42.3c0,0.3,0.1,0.5,0.1,0.7c-0.1-0.1-0.2-0.2-0.3-0.2h-0.6v-3.4c0-0.2-0.2-0.4-0.4-0.4h-0.9
			c-0.2,0-0.3,0-0.3,0.2c0,0-0.1,0.1-0.1,0.1c-0.1,0.1-0.2,0.2-0.3,0.2c-0.1,0.1-0.2,0.1-0.4,0.2c-0.1,0.1-0.2,0.1-0.2,0.1
			c-0.2,0-0.4,0.2-0.4,0.4V41c0,0.2,0.2,0.4,0.4,0.4c0.1,0,0.3,0,0.5-0.1c0.2,0,0.3-0.1,0.4-0.2c0,0,0,0,0,0v1.7h-0.8
			c-0.2,0-0.4,0.2-0.4,0.4V44c0,0.2,0.2,0.4,0.4,0.4h3.1c0.2,0,0.4-0.2,0.4-0.4v-0.8c0,0,0-0.1,0-0.1c0,0,0,0,0,0.1
			c0.1,0.3,0.3,0.5,0.5,0.7c0.2,0.2,0.5,0.3,0.8,0.4c0.3,0.1,0.6,0.2,0.9,0.2c0.3,0,0.6,0,0.9-0.1c0.3-0.1,0.5-0.2,0.8-0.4
			c0.2-0.2,0.4-0.4,0.5-0.7c0.1-0.3,0.2-0.6,0.2-0.9c0-0.2,0-0.4-0.1-0.6C80.6,41.6,80.5,41.4,80.4,41.3z M78.9,40
			c0,0.1-0.1,0.1-0.1,0.1c-0.1,0-0.1,0.1-0.2,0.1c-0.2,0-0.3,0-0.5,0c-0.1,0-0.1-0.1-0.2-0.1c0,0-0.1-0.1-0.1-0.1c0,0,0-0.1,0-0.1
			c0-0.1,0-0.1,0-0.1c0,0,0.1-0.1,0.1-0.1c0.1,0,0.1-0.1,0.2-0.1c0.1,0,0.2,0,0.2,0c0.1,0,0.2,0,0.3,0c0.1,0,0.1,0.1,0.2,0.1
			c0,0,0.1,0.1,0.1,0.1c0,0,0,0.1,0,0.1C79,39.9,79,40,78.9,40z M77.7,42.1c0-0.1,0.1-0.1,0.2-0.2c0.1-0.1,0.1-0.1,0.2-0.1
			c0.1,0,0.2,0,0.3,0c0.1,0,0.2,0,0.3,0c0.1,0,0.2,0.1,0.2,0.1c0.1,0.1,0.1,0.1,0.2,0.2c0,0.1,0.1,0.1,0.1,0.2c0,0.1,0,0.2,0,0.2
			c0,0.1-0.1,0.1-0.2,0.2c-0.1,0.1-0.2,0.1-0.3,0.1c-0.2,0.1-0.4,0.1-0.6,0c-0.1,0-0.2-0.1-0.3-0.1c-0.1-0.1-0.1-0.1-0.2-0.2
			c0-0.1-0.1-0.1-0.1-0.2C77.6,42.2,77.7,42.1,77.7,42.1z"/>
		<path d="M85,39.7c-0.2-0.3-0.5-0.5-0.8-0.6c-0.6-0.3-1.4-0.3-2,0c-0.3,0.1-0.6,0.3-0.8,0.6c-0.2,0.2-0.4,0.5-0.5,0.9
			c-0.1,0.3-0.2,0.7-0.2,1.1c0,0.4,0.1,0.8,0.2,1.1c0.1,0.3,0.3,0.6,0.5,0.9c0.2,0.3,0.5,0.5,0.8,0.6c0.3,0.1,0.6,0.2,1,0.2
			s0.7-0.1,1-0.2c0.3-0.1,0.6-0.3,0.8-0.6c0.2-0.2,0.4-0.5,0.5-0.9c0.1-0.3,0.2-0.7,0.2-1.1c0-0.4-0.1-0.8-0.2-1.1
			C85.4,40.2,85.2,39.9,85,39.7z M84,41.6c0,0.2,0,0.4-0.1,0.6c0,0.2-0.1,0.3-0.2,0.4c-0.1,0.1-0.2,0.2-0.2,0.2
			c-0.2,0.1-0.4,0.1-0.6,0c-0.1-0.1-0.2-0.1-0.2-0.2c-0.1-0.1-0.1-0.2-0.2-0.4c0-0.2-0.1-0.4-0.1-0.6s0-0.4,0.1-0.6
			c0-0.2,0.1-0.3,0.2-0.4c0.1-0.1,0.2-0.2,0.2-0.2c0.1,0,0.2-0.1,0.3-0.1c0.1,0,0.2,0,0.3,0.1c0.1,0,0.2,0.1,0.2,0.2
			c0.1,0.1,0.1,0.2,0.2,0.4C84,41.3,84,41.4,84,41.6z"/>
		<path d="M103.2,39.4c-0.1-0.1-0.3-0.1-0.4,0c-0.1,0.1-0.2,0.2-0.2,0.3v0.9c0,0.1,0.1,0.3,0.2,0.3l1.6,1l-1.6,0.9
			c-0.1,0.1-0.2,0.2-0.2,0.3v1c0,0.1,0.1,0.3,0.2,0.3c0.1,0,0.1,0,0.2,0c0.1,0,0.1,0,0.2-0.1l3.4-2c0.1-0.1,0.2-0.2,0.2-0.3v-0.4
			c0-0.1-0.1-0.3-0.2-0.3L103.2,39.4z"/>
		<path d="M117.1,42.8h-1.8c0.1-0.1,0.2-0.1,0.3-0.2l0.4-0.2c0.1-0.1,0.3-0.1,0.4-0.2c0.2-0.1,0.3-0.2,0.5-0.4
			c0.1-0.1,0.3-0.3,0.4-0.5c0.1-0.2,0.2-0.4,0.2-0.7c0-0.2,0-0.5-0.1-0.7c-0.1-0.2-0.2-0.4-0.4-0.6c-0.2-0.1-0.4-0.3-0.6-0.3
			c-0.5-0.2-1.1-0.2-1.6,0c-0.2,0.1-0.4,0.1-0.6,0.2c-0.2,0.1-0.3,0.2-0.5,0.3c-0.1,0.1-0.2,0.2-0.3,0.3c-0.1,0.1-0.1,0.4,0,0.5
			l0.6,0.6c0.1,0.1,0.2,0.1,0.3,0.1c0.1,0,0.2,0,0.3-0.1c0.1-0.1,0.1-0.1,0.2-0.2c0.1-0.1,0.1-0.1,0.2-0.2c0.1,0,0.2-0.1,0.2-0.1
			c0.2-0.1,0.5,0,0.7,0.1c0.1,0.1,0.1,0.1,0.1,0.2l0,0.1c0,0.1-0.1,0.1-0.2,0.2c-0.1,0.1-0.2,0.2-0.4,0.2c-0.2,0.1-0.3,0.2-0.5,0.3
			c-0.3,0.2-0.5,0.3-0.7,0.5c-0.2,0.2-0.3,0.4-0.5,0.6c-0.1,0.2-0.2,0.4-0.2,0.7c0,0,0,0,0,0v-0.1c0-0.2-0.2-0.4-0.4-0.4h-1.8
			c0.1-0.1,0.2-0.1,0.3-0.2c0.1-0.1,0.3-0.1,0.4-0.2c0.1-0.1,0.3-0.1,0.4-0.2c0.2-0.1,0.3-0.2,0.5-0.4c0.1-0.1,0.3-0.3,0.4-0.5
			c0.1-0.2,0.2-0.4,0.2-0.7c0-0.2,0-0.5-0.1-0.7c-0.1-0.2-0.2-0.4-0.4-0.6c-0.2-0.1-0.4-0.3-0.6-0.3c-0.5-0.2-1.1-0.2-1.6,0
			c-0.2,0.1-0.4,0.1-0.6,0.2c-0.2,0.1-0.3,0.2-0.5,0.3c-0.1,0.1-0.2,0.2-0.3,0.3c-0.1,0.1-0.1,0.4,0,0.5l0.6,0.6
			c0.1,0.1,0.2,0.1,0.3,0.1c0.1,0,0.2,0,0.3-0.1c0.1-0.1,0.1-0.1,0.2-0.2c0.1-0.1,0.1-0.1,0.2-0.2c0.1,0,0.2-0.1,0.2-0.1
			c0.2-0.1,0.5,0,0.7,0.1c0.1,0.1,0.1,0.1,0.1,0.2c0,0,0,0.1,0,0.1c0,0.1-0.1,0.1-0.2,0.2c-0.1,0.1-0.2,0.2-0.4,0.2
			c-0.2,0.1-0.3,0.2-0.5,0.3c-0.3,0.2-0.5,0.3-0.7,0.5c-0.2,0.2-0.3,0.4-0.5,0.6c-0.1,0.2-0.2,0.4-0.2,0.7c0,0.2-0.1,0.5-0.1,0.7
			c0,0.2,0.2,0.4,0.4,0.4h3.7c0.2,0,0.3-0.1,0.3-0.2c0.1,0.1,0.2,0.2,0.3,0.2h3.7c0.2,0,0.4-0.2,0.4-0.4v-0.8
			C117.4,43,117.3,42.8,117.1,42.8z"/>
		<path d="M122.1,40.6c-0.1-0.3-0.3-0.6-0.5-0.9c-0.2-0.3-0.5-0.5-0.8-0.6c-0.6-0.3-1.4-0.3-2,0c-0.3,0.1-0.6,0.3-0.8,0.6
			c-0.2,0.2-0.4,0.5-0.5,0.9c-0.1,0.3-0.2,0.7-0.2,1.1c0,0.4,0.1,0.8,0.2,1.1c0.1,0.3,0.3,0.6,0.5,0.9c0.2,0.3,0.5,0.5,0.8,0.6
			c0.3,0.1,0.6,0.2,1,0.2s0.7-0.1,1-0.2c0.3-0.1,0.6-0.3,0.8-0.6c0.2-0.3,0.4-0.6,0.5-0.9c0.1-0.3,0.2-0.7,0.2-1.1
			C122.3,41.3,122.3,40.9,122.1,40.6z M120.7,41.6c0,0.2,0,0.4-0.1,0.6c0,0.2-0.1,0.3-0.2,0.4c-0.1,0.1-0.2,0.2-0.2,0.2
			c-0.2,0.1-0.4,0.1-0.6,0c-0.1-0.1-0.2-0.1-0.2-0.2c-0.1-0.1-0.1-0.2-0.2-0.4c0-0.2-0.1-0.3-0.1-0.6s0-0.4,0.1-0.6
			c0-0.2,0.1-0.3,0.2-0.4c0.1-0.1,0.2-0.2,0.2-0.2c0.1,0,0.2-0.1,0.3-0.1c0.1,0,0.2,0,0.3,0.1c0.1,0,0.2,0.1,0.2,0.2
			c0.1,0.1,0.1,0.2,0.2,0.4C120.6,41.3,120.7,41.4,120.7,41.6z"/>
	</g>
	<g>
		<g>
			<path style="fill:#FFFFFF;" d="M2.4,41.7l3.4-2v0.9l-2.1,1.3l2.1,1.3v1l-3.4-2V41.7z"/>
			<path style="fill:#FFFFFF;" d="M11.7,43.2V44H8.7v-0.8h1.1v-2.8c0,0.1-0.1,0.1-0.2,0.2c-0.1,0.1-0.2,0.1-0.3,0.2
				c-0.1,0.1-0.3,0.1-0.4,0.1C8.7,41,8.6,41,8.5,41v-0.8c0.1,0,0.2,0,0.4-0.1s0.3-0.1,0.4-0.2c0.1-0.1,0.2-0.2,0.3-0.3
				c0.1-0.1,0.2-0.1,0.2-0.2h0.9v3.8H11.7z"/>
			<path style="fill:#FFFFFF;" d="M16.4,41.6c0,0.4-0.1,0.7-0.2,1c-0.1,0.3-0.2,0.6-0.4,0.8s-0.4,0.4-0.6,0.5s-0.5,0.2-0.8,0.2
				c-0.3,0-0.6-0.1-0.8-0.2c-0.3-0.1-0.5-0.3-0.6-0.5c-0.2-0.2-0.3-0.5-0.4-0.8c-0.1-0.3-0.2-0.6-0.2-1c0-0.4,0.1-0.7,0.2-1
				s0.2-0.6,0.4-0.8c0.2-0.2,0.4-0.4,0.6-0.5c0.3-0.1,0.5-0.2,0.8-0.2c0.3,0,0.6,0.1,0.8,0.2c0.2,0.1,0.5,0.3,0.6,0.5
				c0.2,0.2,0.3,0.5,0.4,0.8S16.4,41.3,16.4,41.6z M15.5,41.6c0-0.2,0-0.5-0.1-0.7s-0.1-0.4-0.2-0.5s-0.2-0.3-0.4-0.3
				c-0.1-0.1-0.3-0.1-0.5-0.1c-0.2,0-0.3,0-0.5,0.1s-0.3,0.2-0.4,0.3s-0.2,0.3-0.2,0.5s-0.1,0.4-0.1,0.7c0,0.2,0,0.5,0.1,0.7
				s0.1,0.4,0.2,0.5s0.2,0.3,0.4,0.3s0.3,0.1,0.5,0.1c0.2,0,0.3,0,0.5-0.1c0.1-0.1,0.3-0.2,0.4-0.3s0.2-0.3,0.2-0.5
				S15.5,41.9,15.5,41.6z"/>
			<path style="fill:#FFFFFF;" d="M21.3,41.6c0,0.4-0.1,0.7-0.2,1c-0.1,0.3-0.2,0.6-0.4,0.8s-0.4,0.4-0.6,0.5s-0.5,0.2-0.8,0.2
				c-0.3,0-0.6-0.1-0.8-0.2c-0.3-0.1-0.5-0.3-0.6-0.5c-0.2-0.2-0.3-0.5-0.4-0.8c-0.1-0.3-0.2-0.6-0.2-1c0-0.4,0.1-0.7,0.2-1
				s0.2-0.6,0.4-0.8c0.2-0.2,0.4-0.4,0.6-0.5c0.3-0.1,0.5-0.2,0.8-0.2c0.3,0,0.6,0.1,0.8,0.2c0.2,0.1,0.5,0.3,0.6,0.5
				c0.2,0.2,0.3,0.5,0.4,0.8S21.3,41.3,21.3,41.6z M20.5,41.6c0-0.2,0-0.5-0.1-0.7s-0.1-0.4-0.2-0.5s-0.2-0.3-0.4-0.3
				c-0.1-0.1-0.3-0.1-0.5-0.1c-0.2,0-0.3,0-0.5,0.1s-0.3,0.2-0.4,0.3s-0.2,0.3-0.2,0.5s-0.1,0.4-0.1,0.7c0,0.2,0,0.5,0.1,0.7
				s0.1,0.4,0.2,0.5s0.2,0.3,0.4,0.3s0.3,0.1,0.5,0.1c0.2,0,0.3,0,0.5-0.1c0.1-0.1,0.3-0.2,0.4-0.3s0.2-0.3,0.2-0.5
				S20.5,41.9,20.5,41.6z"/>
		</g>
		<g>
			<path style="fill:#FFFFFF;" d="M42.4,43.2V44h-3.1v-0.8h1.1v-2.8c0,0.1-0.1,0.1-0.2,0.2c-0.1,0.1-0.2,0.1-0.3,0.2
				c-0.1,0.1-0.3,0.1-0.4,0.1c-0.1,0-0.3,0.1-0.4,0.1v-0.8c0.1,0,0.2,0,0.4-0.1s0.3-0.1,0.4-0.2c0.1-0.1,0.2-0.2,0.3-0.3
				c0.1-0.1,0.2-0.1,0.2-0.2h0.9v3.8H42.4z"/>
			<path style="fill:#FFFFFF;" d="M45.2,45v-1.3h-2.5V43l2.7-3.5h0.6v3.5h0.7v0.8h-0.7V45H45.2z M43.7,42.9h1.7v-2.2L43.7,42.9z"/>
			<path style="fill:#FFFFFF;" d="M51.6,41.6c0,0.4-0.1,0.7-0.2,1c-0.1,0.3-0.2,0.6-0.4,0.8s-0.4,0.4-0.6,0.5s-0.5,0.2-0.8,0.2
				c-0.3,0-0.6-0.1-0.8-0.2c-0.3-0.1-0.5-0.3-0.6-0.5c-0.2-0.2-0.3-0.5-0.4-0.8c-0.1-0.3-0.2-0.6-0.2-1c0-0.4,0.1-0.7,0.2-1
				s0.2-0.6,0.4-0.8c0.2-0.2,0.4-0.4,0.6-0.5c0.3-0.1,0.5-0.2,0.8-0.2c0.3,0,0.6,0.1,0.8,0.2c0.2,0.1,0.5,0.3,0.6,0.5
				c0.2,0.2,0.3,0.5,0.4,0.8S51.6,41.3,51.6,41.6z M50.7,41.6c0-0.2,0-0.5-0.1-0.7s-0.1-0.4-0.2-0.5s-0.2-0.3-0.4-0.3
				c-0.1-0.1-0.3-0.1-0.5-0.1c-0.2,0-0.3,0-0.5,0.1s-0.3,0.2-0.4,0.3s-0.2,0.3-0.2,0.5s-0.1,0.4-0.1,0.7c0,0.2,0,0.5,0.1,0.7
				s0.1,0.4,0.2,0.5s0.2,0.3,0.4,0.3s0.3,0.1,0.5,0.1c0.2,0,0.3,0,0.5-0.1c0.1-0.1,0.3-0.2,0.4-0.3s0.2-0.3,0.2-0.5
				S50.7,41.9,50.7,41.6z"/>
		</g>
		<g>
			<path style="fill:#FFFFFF;" d="M75.8,43.2V44h-3.1v-0.8h1.1v-2.8c0,0.1-0.1,0.1-0.2,0.2c-0.1,0.1-0.2,0.1-0.3,0.2
				c-0.1,0.1-0.3,0.1-0.4,0.1c-0.1,0-0.3,0.1-0.4,0.1v-0.8c0.1,0,0.2,0,0.4-0.1s0.3-0.1,0.4-0.2c0.1-0.1,0.2-0.2,0.3-0.3
				c0.1-0.1,0.2-0.1,0.2-0.2h0.9v3.8H75.8z"/>
			<path style="fill:#FFFFFF;" d="M80.4,42.4c0,0.3-0.1,0.5-0.2,0.7s-0.3,0.4-0.4,0.5c-0.2,0.1-0.4,0.3-0.6,0.3
				c-0.2,0.1-0.5,0.1-0.8,0.1c-0.3,0-0.5,0-0.8-0.1s-0.5-0.2-0.6-0.4c-0.2-0.2-0.3-0.3-0.4-0.6s-0.2-0.4-0.2-0.7
				c0-0.2,0-0.3,0.1-0.5s0.1-0.3,0.2-0.4c0.1-0.1,0.2-0.2,0.3-0.3c0.1-0.1,0.2-0.2,0.4-0.2c-0.2-0.1-0.4-0.2-0.6-0.4
				s-0.2-0.4-0.2-0.7c0-0.2,0.1-0.5,0.2-0.7s0.3-0.3,0.4-0.5c0.2-0.1,0.4-0.2,0.6-0.3s0.4-0.1,0.6-0.1s0.4,0,0.7,0.1
				c0.2,0.1,0.4,0.2,0.6,0.3c0.2,0.1,0.3,0.3,0.4,0.5c0.1,0.2,0.2,0.4,0.2,0.7c0,0.3-0.1,0.5-0.2,0.7c-0.2,0.2-0.3,0.3-0.6,0.4
				c0.1,0.1,0.3,0.1,0.4,0.2c0.1,0.1,0.2,0.2,0.3,0.3c0.1,0.1,0.2,0.3,0.2,0.4S80.4,42.2,80.4,42.4z M79.5,42.3c0-0.2,0-0.3-0.1-0.4
				c-0.1-0.1-0.2-0.2-0.3-0.3c-0.1-0.1-0.2-0.2-0.4-0.2s-0.3-0.1-0.4-0.1c-0.1,0-0.3,0-0.4,0.1c-0.1,0-0.3,0.1-0.4,0.2
				c-0.1,0.1-0.2,0.2-0.3,0.3s-0.1,0.3-0.1,0.4s0,0.3,0.1,0.4c0.1,0.1,0.2,0.2,0.3,0.3c0.1,0.1,0.2,0.1,0.4,0.2
				c0.1,0,0.3,0.1,0.4,0.1c0.1,0,0.3,0,0.4-0.1c0.1,0,0.3-0.1,0.4-0.2c0.1-0.1,0.2-0.2,0.3-0.3C79.5,42.6,79.5,42.4,79.5,42.3z
				 M77.4,39.9c0,0.1,0,0.2,0.1,0.3c0.1,0.1,0.1,0.2,0.2,0.2c0.1,0.1,0.2,0.1,0.3,0.1s0.2,0.1,0.3,0.1c0.1,0,0.2,0,0.3-0.1
				c0.1,0,0.2-0.1,0.3-0.2s0.2-0.1,0.2-0.2c0.1-0.1,0.1-0.2,0.1-0.3c0-0.1,0-0.2-0.1-0.3c-0.1-0.1-0.1-0.2-0.2-0.2
				c-0.1-0.1-0.2-0.1-0.3-0.2c-0.1,0-0.2-0.1-0.4-0.1s-0.2,0-0.4,0.1c-0.1,0-0.2,0.1-0.3,0.2c-0.1,0.1-0.2,0.1-0.2,0.2
				C77.5,39.6,77.4,39.8,77.4,39.9z"/>
			<path style="fill:#FFFFFF;" d="M85.3,41.6c0,0.4-0.1,0.7-0.2,1c-0.1,0.3-0.2,0.6-0.4,0.8s-0.4,0.4-0.6,0.5s-0.5,0.2-0.8,0.2
				c-0.3,0-0.6-0.1-0.8-0.2c-0.3-0.1-0.5-0.3-0.6-0.5c-0.2-0.2-0.3-0.5-0.4-0.8c-0.1-0.3-0.2-0.6-0.2-1c0-0.4,0.1-0.7,0.2-1
				s0.2-0.6,0.4-0.8c0.2-0.2,0.4-0.4,0.6-0.5c0.3-0.1,0.5-0.2,0.8-0.2c0.3,0,0.6,0.1,0.8,0.2c0.2,0.1,0.5,0.3,0.6,0.5
				c0.2,0.2,0.3,0.5,0.4,0.8S85.3,41.3,85.3,41.6z M84.4,41.6c0-0.2,0-0.5-0.1-0.7s-0.1-0.4-0.2-0.5s-0.2-0.3-0.4-0.3
				c-0.1-0.1-0.3-0.1-0.5-0.1c-0.2,0-0.3,0-0.5,0.1s-0.3,0.2-0.4,0.3s-0.2,0.3-0.2,0.5s-0.1,0.4-0.1,0.7c0,0.2,0,0.5,0.1,0.7
				s0.1,0.4,0.2,0.5s0.2,0.3,0.4,0.3s0.3,0.1,0.5,0.1c0.2,0,0.3,0,0.5-0.1c0.1-0.1,0.3-0.2,0.4-0.3s0.2-0.3,0.2-0.5
				S84.4,41.9,84.4,41.6z"/>
		</g>
		<g>
			<path style="fill:#FFFFFF;" d="M106.4,42.2l-3.4,2v-1l2.1-1.3l-2.1-1.3v-0.9l3.4,2V42.2z"/>
			<path style="fill:#FFFFFF;" d="M109,44c0-0.2,0-0.4,0.1-0.6c0-0.2,0.1-0.4,0.2-0.5c0.1-0.2,0.2-0.3,0.4-0.5s0.4-0.3,0.6-0.4
				c0.2-0.1,0.4-0.2,0.5-0.3c0.2-0.1,0.3-0.2,0.4-0.3c0.1-0.1,0.2-0.2,0.3-0.3c0.1-0.1,0.1-0.2,0.1-0.3c0-0.2-0.1-0.3-0.2-0.5
				c-0.1-0.1-0.4-0.2-0.6-0.2c-0.1,0-0.3,0-0.4,0.1s-0.2,0.1-0.3,0.2c-0.1,0.1-0.2,0.1-0.3,0.2c-0.1,0.1-0.1,0.1-0.2,0.2l-0.6-0.6
				c0.1-0.1,0.1-0.1,0.3-0.2s0.3-0.2,0.4-0.3s0.3-0.1,0.6-0.2s0.4-0.1,0.7-0.1c0.3,0,0.5,0,0.7,0.1s0.4,0.2,0.5,0.3
				c0.1,0.1,0.2,0.3,0.3,0.4c0.1,0.2,0.1,0.3,0.1,0.5c0,0.2,0,0.4-0.1,0.5c-0.1,0.2-0.2,0.3-0.3,0.4s-0.2,0.2-0.4,0.3
				c-0.1,0.1-0.3,0.2-0.4,0.2c-0.1,0.1-0.2,0.1-0.4,0.2c-0.1,0.1-0.3,0.2-0.4,0.2c-0.1,0.1-0.3,0.2-0.4,0.3
				c-0.1,0.1-0.2,0.2-0.2,0.4h2.6V44H109z"/>
			<path style="fill:#FFFFFF;" d="M113.4,44c0-0.2,0-0.4,0.1-0.6c0-0.2,0.1-0.4,0.2-0.5s0.2-0.3,0.4-0.5c0.2-0.2,0.4-0.3,0.6-0.4
				c0.2-0.1,0.4-0.2,0.5-0.3c0.2-0.1,0.3-0.2,0.4-0.3c0.1-0.1,0.2-0.2,0.3-0.3c0.1-0.1,0.1-0.2,0.1-0.3c0-0.2-0.1-0.3-0.2-0.5
				c-0.1-0.1-0.4-0.2-0.6-0.2c-0.1,0-0.3,0-0.4,0.1s-0.2,0.1-0.3,0.2c-0.1,0.1-0.2,0.1-0.3,0.2c-0.1,0.1-0.1,0.1-0.2,0.2l-0.6-0.6
				c0.1-0.1,0.1-0.1,0.3-0.2c0.1-0.1,0.3-0.2,0.4-0.3c0.2-0.1,0.3-0.1,0.6-0.2s0.4-0.1,0.7-0.1c0.3,0,0.5,0,0.7,0.1
				c0.2,0.1,0.4,0.2,0.5,0.3s0.2,0.3,0.3,0.4c0.1,0.2,0.1,0.3,0.1,0.5c0,0.2,0,0.4-0.1,0.5c-0.1,0.2-0.2,0.3-0.3,0.4
				s-0.2,0.2-0.4,0.3c-0.1,0.1-0.3,0.2-0.4,0.2c-0.1,0.1-0.2,0.1-0.4,0.2c-0.1,0.1-0.3,0.2-0.4,0.2c-0.1,0.1-0.3,0.2-0.4,0.3
				c-0.1,0.1-0.2,0.2-0.2,0.4h2.6V44H113.4z"/>
			<path style="fill:#FFFFFF;" d="M121.9,41.6c0,0.4-0.1,0.7-0.2,1c-0.1,0.3-0.2,0.6-0.4,0.8c-0.2,0.2-0.4,0.4-0.6,0.5
				s-0.5,0.2-0.8,0.2c-0.3,0-0.6-0.1-0.8-0.2s-0.5-0.3-0.6-0.5c-0.2-0.2-0.3-0.5-0.4-0.8c-0.1-0.3-0.2-0.6-0.2-1
				c0-0.4,0.1-0.7,0.2-1c0.1-0.3,0.2-0.6,0.4-0.8c0.2-0.2,0.4-0.4,0.6-0.5c0.3-0.1,0.5-0.2,0.8-0.2c0.3,0,0.6,0.1,0.8,0.2
				c0.2,0.1,0.5,0.3,0.6,0.5c0.2,0.2,0.3,0.5,0.4,0.8C121.9,41,121.9,41.3,121.9,41.6z M121,41.6c0-0.2,0-0.5-0.1-0.7
				c-0.1-0.2-0.1-0.4-0.2-0.5c-0.1-0.1-0.2-0.3-0.4-0.3c-0.1-0.1-0.3-0.1-0.5-0.1c-0.2,0-0.3,0-0.5,0.1c-0.1,0.1-0.3,0.2-0.4,0.3
				c-0.1,0.1-0.2,0.3-0.2,0.5c-0.1,0.2-0.1,0.4-0.1,0.7c0,0.2,0,0.5,0.1,0.7c0.1,0.2,0.1,0.4,0.2,0.5c0.1,0.1,0.2,0.3,0.4,0.3
				c0.1,0.1,0.3,0.1,0.5,0.1c0.2,0,0.3,0,0.5-0.1c0.1-0.1,0.3-0.2,0.4-0.3c0.1-0.1,0.2-0.3,0.2-0.5C121,42.1,121,41.9,121,41.6z"/>
		</g>
	</g>
</g>
</svg>
