<?xml version="1.0" encoding="utf-8"?>
<!-- Generator: Adobe Illustrator 19.2.0, SVG Export Plug-In . SVG Version: 6.00 Build 0)  -->
<svg version="1.1" id="Layer_1" xmlns="http://www.w3.org/2000/svg" xmlns:xlink="http://www.w3.org/1999/xlink" x="0px" y="0px"
	 viewBox="0 0 125 50" style="enable-background:new 0 0 125 50;" xml:space="preserve">
<path style="stroke:#FFFFFF;stroke-width:2;stroke-miterlimit:10;" d="M118.2,35H6.8c-2.4,0-4.3-1.9-4.3-4.3V19.3
	c0-2.4,1.9-4.3,4.3-4.3h111.4c2.4,0,4.3,1.9,4.3,4.3v11.4C122.5,33.1,120.6,35,118.2,35z"/>
<g>
	<defs>
		<path id="SVGID_1_" d="M118.2,35H6.8c-2.4,0-4.3-1.9-4.3-4.3V19.3c0-2.4,1.9-4.3,4.3-4.3h111.4c2.4,0,4.3,1.9,4.3,4.3v11.4
			C122.5,33.1,120.6,35,118.2,35z"/>
	</defs>
	<clipPath id="SVGID_2_">
		<use xlink:href="#SVGID_1_"  style="overflow:visible;"/>
	</clipPath>
	<g style="clip-path:url(#SVGID_2_);">
		
			<rect x="108.4" y="20.9" transform="matrix(4.793036e-011 1 -1 4.793036e-011 143.3825 -93.3825)" style="fill:#BE0000;" width="20" height="8.2"/>
		
			<rect x="100.4" y="20.9" transform="matrix(4.802096e-011 1 -1 4.802096e-011 135.3958 -85.3958)" style="fill:#D80000;" width="20" height="8.2"/>
		
			<rect x="92.4" y="20.9" transform="matrix(4.802096e-011 1 -1 4.802096e-011 127.4091 -77.4091)" style="fill:#F20000;" width="20" height="8.2"/>
		
			<rect x="84.4" y="20.9" transform="matrix(4.793036e-011 1 -1 4.793036e-011 119.4224 -69.4224)" style="fill:#FF3000;" width="20" height="8.2"/>
		
			<rect x="76.4" y="20.9" transform="matrix(4.793036e-011 1 -1 4.793036e-011 111.4358 -61.4358)" style="fill:#FF7900;" width="20" height="8.2"/>
		
			<rect x="68.4" y="20.9" transform="matrix(4.793036e-011 1 -1 4.793036e-011 103.4491 -53.4491)" style="fill:#FFB24D;" width="20" height="8.2"/>
		
			<rect x="60.5" y="20.9" transform="matrix(4.793036e-011 1 -1 4.793036e-011 95.4624 -45.4624)" style="fill:#FCE155;" width="20" height="8.2"/>
		
			<rect x="52.5" y="20.9" transform="matrix(4.797566e-011 1 -1 4.797566e-011 87.4757 -37.4757)" style="fill:#F7FF5D;" width="20" height="8.2"/>
		
			<rect x="44.5" y="20.9" transform="matrix(4.802096e-011 1 -1 4.802096e-011 79.489 -29.489)" style="fill:#DDFF73;" width="20" height="8.2"/>
		
			<rect x="36.5" y="20.9" transform="matrix(4.802096e-011 1 -1 4.802096e-011 71.5023 -21.5023)" style="fill:#C4F986;" width="20" height="8.2"/>
		
			<rect x="28.5" y="20.9" transform="matrix(4.797566e-011 1 -1 4.797566e-011 63.5156 -13.5156)" style="fill:#ABED98;" width="20" height="8.2"/>
		
			<rect x="20.5" y="20.9" transform="matrix(4.788507e-011 1 -1 4.788507e-011 55.5289 -5.5289)" style="fill:#8CD9A6;" width="20" height="8.2"/>
		
			<rect x="12.5" y="20.9" transform="matrix(4.797566e-011 1 -1 4.797566e-011 47.5422 2.4578)" style="fill:#6ABAAE;" width="20" height="8.2"/>
		
			<rect x="4.6" y="20.9" transform="matrix(4.802096e-011 1 -1 4.802096e-011 39.5556 10.4444)" style="fill:#4A9AB5;" width="20" height="8.2"/>
		
			<rect x="-3.4" y="20.9" transform="matrix(4.806626e-011 1 -1 4.806626e-011 31.5689 18.4311)" style="fill:#3279BD;" width="20" height="8.2"/>
	</g>
</g>
<g>
	<g>
		<g>
			<g>
				<path d="M3.1,41.8l3.4-2v0.9L4.3,42l2.1,1.3v1l-3.4-2V41.8z"/>
				<path d="M6.4,44.6c-0.1,0-0.1,0-0.2-0.1l-3.4-2c-0.1-0.1-0.2-0.2-0.2-0.3v-0.4c0-0.1,0.1-0.3,0.2-0.3l3.4-2
					c0.1-0.1,0.3-0.1,0.4,0c0.1,0.1,0.2,0.2,0.2,0.3v0.9c0,0.1-0.1,0.3-0.2,0.3l-1.6,1l1.6,0.9c0.1,0.1,0.2,0.2,0.2,0.3v1
					c0,0.1-0.1,0.3-0.2,0.3C6.5,44.6,6.5,44.6,6.4,44.6z M3.4,42L6,43.5v-0.1l-1.9-1.2C4,42.2,4,42.1,4,42c0-0.1,0.1-0.3,0.2-0.3
					L6,40.5v-0.1L3.4,42z"/>
			</g>
			<g>
				<path d="M12.4,43.2V44H9.4v-0.8h1.1v-2.8c0,0.1-0.1,0.1-0.2,0.2c-0.1,0.1-0.2,0.1-0.3,0.2c-0.1,0.1-0.3,0.1-0.4,0.1
					S9.3,41,9.2,41v-0.8c0.1,0,0.2,0,0.4-0.1c0.1-0.1,0.3-0.1,0.4-0.2c0.1-0.1,0.2-0.2,0.3-0.3c0.1-0.1,0.2-0.1,0.2-0.2h0.9v3.8
					H12.4z"/>
				<path d="M12.4,44.4H9.4C9.2,44.4,9,44.2,9,44v-0.8c0-0.2,0.2-0.4,0.4-0.4h0.8v-1.7c0,0,0,0,0,0c-0.1,0.1-0.3,0.1-0.4,0.2
					c-0.2,0.1-0.3,0.1-0.5,0.1c-0.2,0-0.4-0.2-0.4-0.4v-0.8c0-0.2,0.2-0.4,0.4-0.4c0,0,0.1,0,0.2-0.1c0.1-0.1,0.2-0.1,0.4-0.2
					c0.1-0.1,0.2-0.2,0.3-0.2c0,0,0.1-0.1,0.1-0.1c0.1-0.1,0.2-0.2,0.3-0.2h0.9c0.2,0,0.4,0.2,0.4,0.4v3.4h0.6
					c0.2,0,0.4,0.2,0.4,0.4V44C12.8,44.2,12.7,44.4,12.4,44.4z M9.8,43.7l2.3,0h-0.6c-0.2,0-0.4-0.2-0.4-0.4v-3.4h-0.4
					c0,0-0.1,0.1-0.1,0.1c-0.1,0.1-0.1,0.1-0.2,0.2c0.1,0,0.2,0,0.3,0c0.2,0.1,0.3,0.2,0.3,0.4v2.8c0,0.2-0.2,0.4-0.4,0.4L9.8,43.7z
					 M9.6,40.5L9.6,40.5c0.1,0,0.1,0,0.2,0c0.1-0.1,0.2-0.1,0.3-0.2c0.1-0.1,0.1-0.1,0.1-0.1c0,0,0,0,0,0c0,0,0,0,0,0
					c-0.1,0.1-0.3,0.2-0.5,0.3C9.7,40.5,9.7,40.5,9.6,40.5z"/>
			</g>
			<g>
				<path d="M17.1,42.1c0,0.3-0.1,0.5-0.2,0.8s-0.2,0.4-0.4,0.6c-0.2,0.2-0.4,0.3-0.7,0.4c-0.3,0.1-0.5,0.2-0.8,0.2
					c-0.3,0-0.6-0.1-0.9-0.2c-0.3-0.1-0.5-0.3-0.7-0.5c-0.2-0.2-0.3-0.5-0.4-0.8C13.1,42.3,13,42,13,41.6c0-0.5,0.1-1,0.2-1.4
					s0.2-0.7,0.4-1c0.2-0.3,0.4-0.5,0.7-0.6c0.3-0.1,0.6-0.2,0.9-0.2c0.4,0,0.7,0.1,1,0.2c0.3,0.2,0.5,0.4,0.7,0.7l-0.5,0.5
					c-0.1-0.2-0.3-0.4-0.5-0.5c-0.2-0.1-0.5-0.2-0.7-0.2c-0.4,0-0.7,0.2-1,0.5c-0.2,0.3-0.4,0.8-0.4,1.4c0.1-0.2,0.3-0.4,0.5-0.6
					c0.2-0.1,0.5-0.2,0.8-0.2c0.3,0,0.5,0,0.8,0.1c0.2,0.1,0.4,0.2,0.6,0.4c0.2,0.2,0.3,0.4,0.4,0.6C17.1,41.6,17.1,41.9,17.1,42.1z
					 M15.1,43.4c0.2,0,0.3,0,0.5-0.1c0.1-0.1,0.3-0.2,0.4-0.3c0.1-0.1,0.2-0.2,0.3-0.4s0.1-0.3,0.1-0.5c0-0.2,0-0.3-0.1-0.5
					c-0.1-0.1-0.2-0.3-0.3-0.4c-0.1-0.1-0.2-0.2-0.4-0.3c-0.1-0.1-0.3-0.1-0.5-0.1c-0.2,0-0.3,0-0.5,0.1c-0.1,0.1-0.3,0.2-0.4,0.3
					c-0.1,0.1-0.2,0.2-0.3,0.4c-0.1,0.1-0.1,0.3-0.1,0.5c0,0.2,0,0.3,0.1,0.5s0.2,0.3,0.3,0.4c0.1,0.1,0.2,0.2,0.4,0.3
					C14.8,43.3,14.9,43.4,15.1,43.4z"/>
				<path d="M15.1,44.5c-0.4,0-0.7-0.1-1-0.2c-0.3-0.1-0.6-0.3-0.8-0.6c-0.2-0.3-0.4-0.6-0.5-0.9c-0.1-0.3-0.2-0.7-0.2-1.2
					c0-0.6,0.1-1.1,0.2-1.5c0.1-0.4,0.3-0.8,0.5-1.1c0.2-0.3,0.5-0.6,0.8-0.7c0.7-0.3,1.6-0.3,2.2,0c0.4,0.2,0.7,0.5,0.9,0.8
					c0.1,0.1,0.1,0.3,0,0.5l-0.5,0.5c-0.1,0.1-0.2,0.1-0.3,0.1c0.2,0.1,0.3,0.2,0.5,0.3c0.2,0.2,0.4,0.4,0.5,0.7
					c0.1,0.3,0.2,0.6,0.2,0.9c0,0.3-0.1,0.6-0.2,0.9c-0.1,0.3-0.3,0.5-0.5,0.7c-0.2,0.2-0.5,0.4-0.8,0.5
					C15.8,44.4,15.4,44.5,15.1,44.5z M13.6,40.1c0,0.1,0,0.1-0.1,0.2c-0.1,0.4-0.1,0.8-0.1,1.3c0,0.4,0,0.7,0.1,0.9
					c0.1,0.3,0.2,0.5,0.3,0.7c0.1,0.2,0.3,0.3,0.5,0.4c0.4,0.2,0.9,0.2,1.4,0c0.2-0.1,0.4-0.2,0.5-0.3c0.2-0.1,0.3-0.3,0.3-0.5
					c0.1-0.2,0.1-0.4,0.1-0.6c0-0.2,0-0.4-0.1-0.6c-0.1-0.2-0.2-0.3-0.3-0.5c-0.1-0.1-0.3-0.2-0.5-0.3c0,0,0,0-0.1,0
					c0.2,0.1,0.3,0.2,0.5,0.3c0.1,0.1,0.3,0.3,0.3,0.5c0.1,0.2,0.1,0.4,0.1,0.6c0,0.2,0,0.4-0.1,0.6c-0.1,0.2-0.2,0.4-0.3,0.5
					c-0.1,0.1-0.3,0.3-0.5,0.3c-0.4,0.2-0.8,0.2-1.2,0c-0.2-0.1-0.4-0.2-0.5-0.3c-0.1-0.1-0.3-0.3-0.3-0.5c-0.1-0.2-0.1-0.4-0.1-0.6
					c0-0.2,0-0.4,0.1-0.6c0-0.1,0.1-0.1,0.1-0.2c-0.2-0.1-0.3-0.2-0.3-0.4C13.5,40.7,13.5,40.3,13.6,40.1z M15.1,41.3
					c-0.1,0-0.2,0-0.3,0.1c-0.1,0-0.2,0.1-0.3,0.2c-0.1,0.1-0.1,0.2-0.2,0.3c0,0.1-0.1,0.2-0.1,0.3c0,0.1,0,0.2,0.1,0.3
					c0,0.1,0.1,0.2,0.2,0.3c0.1,0.1,0.2,0.1,0.3,0.2c0.2,0.1,0.4,0.1,0.6,0c0.1,0,0.2-0.1,0.3-0.2c0.1-0.1,0.1-0.2,0.2-0.3
					c0-0.1,0.1-0.2,0.1-0.3s0-0.2-0.1-0.3c0-0.1-0.1-0.2-0.2-0.3c-0.1-0.1-0.2-0.1-0.3-0.2C15.3,41.3,15.2,41.3,15.1,41.3z
					 M15.2,39.9c0.3,0,0.6,0.1,0.9,0.2c0,0,0,0,0,0c0,0,0,0,0-0.1c-0.1-0.2-0.2-0.3-0.4-0.4c-0.4-0.2-0.9-0.2-1.2,0.2
					c0,0.1-0.1,0.1-0.1,0.2C14.6,39.9,14.9,39.9,15.2,39.9z M15.2,38.7c-0.3,0-0.5,0.1-0.7,0.2c-0.2,0.1-0.4,0.3-0.5,0.5
					c0,0,0,0,0,0c0,0,0,0,0,0c0.5-0.7,1.5-0.8,2.2-0.4c0.1,0.1,0.2,0.2,0.3,0.3c-0.1-0.1-0.3-0.2-0.4-0.3
					C15.8,38.8,15.5,38.7,15.2,38.7z"/>
			</g>
			<g>
				<path d="M22,41.7c0,0.4-0.1,0.7-0.2,1s-0.2,0.6-0.4,0.8c-0.2,0.2-0.4,0.4-0.6,0.5c-0.2,0.1-0.5,0.2-0.8,0.2
					c-0.3,0-0.6-0.1-0.8-0.2c-0.3-0.1-0.5-0.3-0.6-0.5c-0.2-0.2-0.3-0.5-0.4-0.8s-0.2-0.6-0.2-1c0-0.4,0.1-0.7,0.2-1
					c0.1-0.3,0.2-0.6,0.4-0.8c0.2-0.2,0.4-0.4,0.6-0.5c0.3-0.1,0.5-0.2,0.8-0.2c0.3,0,0.6,0.1,0.8,0.2c0.2,0.1,0.5,0.3,0.6,0.5
					s0.3,0.5,0.4,0.8C21.9,41,22,41.3,22,41.7z M21.1,41.7c0-0.2,0-0.5-0.1-0.7s-0.1-0.4-0.2-0.5c-0.1-0.1-0.2-0.3-0.4-0.3
					c-0.1-0.1-0.3-0.1-0.5-0.1c-0.2,0-0.3,0-0.5,0.1s-0.3,0.2-0.4,0.3c-0.1,0.1-0.2,0.3-0.2,0.5s-0.1,0.4-0.1,0.7s0,0.5,0.1,0.7
					c0.1,0.2,0.1,0.4,0.2,0.5c0.1,0.1,0.2,0.3,0.4,0.3c0.1,0.1,0.3,0.1,0.5,0.1c0.2,0,0.3,0,0.5-0.1c0.1-0.1,0.3-0.2,0.4-0.3
					c0.1-0.1,0.2-0.3,0.2-0.5C21.1,42.1,21.1,41.9,21.1,41.7z"/>
				<path d="M19.9,44.5c-0.3,0-0.7-0.1-1-0.2c-0.3-0.1-0.6-0.3-0.8-0.6c-0.2-0.3-0.4-0.5-0.5-0.9c-0.1-0.3-0.2-0.7-0.2-1.1
					c0-0.4,0.1-0.8,0.2-1.1c0.1-0.3,0.3-0.6,0.5-0.9c0.2-0.3,0.5-0.5,0.8-0.6c0.6-0.3,1.4-0.3,2,0c0.3,0.1,0.5,0.3,0.8,0.6
					c0.2,0.3,0.4,0.5,0.5,0.9c0.1,0.3,0.2,0.7,0.2,1.1c0,0.4-0.1,0.8-0.2,1.1c-0.1,0.3-0.3,0.6-0.5,0.9c-0.2,0.3-0.5,0.5-0.8,0.6
					C20.6,44.4,20.3,44.5,19.9,44.5z M19.9,39.6c-0.2,0-0.5,0-0.7,0.1c-0.2,0.1-0.4,0.2-0.5,0.4c-0.2,0.2-0.3,0.4-0.4,0.7
					c-0.1,0.3-0.1,0.5-0.1,0.8c0,0.3,0,0.6,0.1,0.8c0.1,0.3,0.2,0.5,0.4,0.7c0.1,0.2,0.3,0.3,0.5,0.4c0.4,0.2,0.9,0.2,1.3,0
					c0.2-0.1,0.4-0.2,0.5-0.4c0.2-0.2,0.3-0.4,0.4-0.6c0.1-0.3,0.1-0.5,0.1-0.8c0-0.3,0-0.6-0.1-0.8c-0.1-0.3-0.2-0.5-0.4-0.6
					c-0.2-0.2-0.3-0.3-0.5-0.4C20.4,39.7,20.2,39.6,19.9,39.6z M19.9,43.7c-0.2,0-0.5-0.1-0.7-0.2c-0.2-0.1-0.4-0.3-0.5-0.4
					c-0.1-0.2-0.2-0.4-0.3-0.6c-0.1-0.2-0.1-0.5-0.1-0.8s0-0.5,0.1-0.8c0.1-0.2,0.2-0.5,0.3-0.6c0.1-0.2,0.3-0.3,0.5-0.4
					c0.4-0.2,0.9-0.2,1.3,0c0.2,0.1,0.4,0.3,0.5,0.4c0.1,0.2,0.2,0.4,0.3,0.6c0.1,0.2,0.1,0.5,0.1,0.8s0,0.5-0.1,0.8
					c-0.1,0.2-0.2,0.5-0.3,0.6c-0.1,0.2-0.3,0.3-0.5,0.4C20.4,43.6,20.2,43.7,19.9,43.7z M19.9,40.4c-0.1,0-0.2,0-0.3,0.1
					c-0.1,0.1-0.2,0.1-0.2,0.2c-0.1,0.1-0.1,0.2-0.2,0.4c0,0.2-0.1,0.3-0.1,0.6s0,0.4,0.1,0.6c0,0.2,0.1,0.3,0.2,0.4
					c0.1,0.1,0.2,0.2,0.2,0.2c0.2,0.1,0.4,0.1,0.6,0c0.1-0.1,0.2-0.1,0.2-0.2c0.1-0.1,0.1-0.2,0.2-0.4c0-0.2,0.1-0.3,0.1-0.6
					s0-0.4-0.1-0.6c0-0.2-0.1-0.3-0.2-0.4c-0.1-0.1-0.2-0.2-0.2-0.2C20.1,40.5,20.1,40.4,19.9,40.4z"/>
			</g>
			<g>
				<path d="M26.9,41.7c0,0.4-0.1,0.7-0.2,1s-0.2,0.6-0.4,0.8c-0.2,0.2-0.4,0.4-0.6,0.5c-0.2,0.1-0.5,0.2-0.8,0.2
					c-0.3,0-0.6-0.1-0.8-0.2c-0.3-0.1-0.5-0.3-0.6-0.5c-0.2-0.2-0.3-0.5-0.4-0.8s-0.2-0.6-0.2-1c0-0.4,0.1-0.7,0.2-1
					c0.1-0.3,0.2-0.6,0.4-0.8c0.2-0.2,0.4-0.4,0.6-0.5c0.3-0.1,0.5-0.2,0.8-0.2c0.3,0,0.6,0.1,0.8,0.2c0.2,0.1,0.5,0.3,0.6,0.5
					s0.3,0.5,0.4,0.8C26.9,41,26.9,41.3,26.9,41.7z M26,41.7c0-0.2,0-0.5-0.1-0.7s-0.1-0.4-0.2-0.5c-0.1-0.1-0.2-0.3-0.4-0.3
					c-0.1-0.1-0.3-0.1-0.5-0.1c-0.2,0-0.3,0-0.5,0.1s-0.3,0.2-0.4,0.3c-0.1,0.1-0.2,0.3-0.2,0.5s-0.1,0.4-0.1,0.7s0,0.5,0.1,0.7
					c0.1,0.2,0.1,0.4,0.2,0.5c0.1,0.1,0.2,0.3,0.4,0.3c0.1,0.1,0.3,0.1,0.5,0.1c0.2,0,0.3,0,0.5-0.1c0.1-0.1,0.3-0.2,0.4-0.3
					c0.1-0.1,0.2-0.3,0.2-0.5C26,42.1,26,41.9,26,41.7z"/>
				<path d="M24.9,44.5c-0.3,0-0.7-0.1-1-0.2c-0.3-0.1-0.6-0.3-0.8-0.6c-0.2-0.3-0.4-0.5-0.5-0.9c-0.1-0.3-0.2-0.7-0.2-1.1
					c0-0.4,0.1-0.8,0.2-1.1c0.1-0.3,0.3-0.6,0.5-0.9c0.2-0.3,0.5-0.5,0.8-0.6c0.6-0.3,1.4-0.3,2,0c0.3,0.1,0.5,0.3,0.8,0.6
					c0.2,0.3,0.4,0.5,0.5,0.9c0.1,0.3,0.2,0.7,0.2,1.1c0,0.4-0.1,0.8-0.2,1.1c-0.1,0.3-0.3,0.6-0.5,0.9c-0.2,0.3-0.5,0.5-0.8,0.6
					C25.5,44.4,25.2,44.5,24.9,44.5z M24.9,39.6c-0.2,0-0.5,0-0.7,0.1c-0.2,0.1-0.4,0.2-0.5,0.4c-0.2,0.2-0.3,0.4-0.4,0.7
					c-0.1,0.3-0.1,0.5-0.1,0.8c0,0.3,0,0.6,0.1,0.8c0.1,0.3,0.2,0.5,0.4,0.7c0.1,0.2,0.3,0.3,0.5,0.4c0.4,0.2,0.9,0.2,1.3,0
					c0.2-0.1,0.4-0.2,0.5-0.4c0.2-0.2,0.3-0.4,0.4-0.6c0.1-0.3,0.1-0.5,0.1-0.8c0-0.3,0-0.6-0.1-0.8c-0.1-0.3-0.2-0.5-0.4-0.6
					c-0.2-0.2-0.3-0.3-0.5-0.4C25.3,39.7,25.1,39.6,24.9,39.6z M24.9,43.7c-0.2,0-0.5-0.1-0.7-0.2c-0.2-0.1-0.4-0.3-0.5-0.4
					c-0.1-0.2-0.2-0.4-0.3-0.6c-0.1-0.2-0.1-0.5-0.1-0.8s0-0.5,0.1-0.8c0.1-0.2,0.2-0.5,0.3-0.6c0.1-0.2,0.3-0.3,0.5-0.4
					c0.4-0.2,0.9-0.2,1.3,0c0.2,0.1,0.4,0.3,0.5,0.4c0.1,0.2,0.2,0.4,0.3,0.6c0.1,0.2,0.1,0.5,0.1,0.8s0,0.5-0.1,0.8
					c-0.1,0.2-0.2,0.5-0.3,0.6c-0.1,0.2-0.3,0.3-0.5,0.4C25.3,43.6,25.1,43.7,24.9,43.7z M24.9,40.4c-0.1,0-0.2,0-0.3,0.1
					c-0.1,0.1-0.2,0.1-0.2,0.2c-0.1,0.1-0.1,0.2-0.2,0.4c0,0.2-0.1,0.3-0.1,0.6s0,0.4,0.1,0.6c0,0.2,0.1,0.3,0.2,0.4
					c0.1,0.1,0.2,0.2,0.2,0.2c0.2,0.1,0.4,0.1,0.6,0c0.1-0.1,0.2-0.1,0.2-0.2c0.1-0.1,0.1-0.2,0.2-0.4c0-0.2,0.1-0.3,0.1-0.6
					s0-0.4-0.1-0.6c0-0.2-0.1-0.3-0.2-0.4c-0.1-0.1-0.2-0.2-0.2-0.2C25.1,40.5,25,40.4,24.9,40.4z"/>
			</g>
		</g>
		<g>
			<g>
				<path d="M41.1,43.2V44H38v-0.8h1.1v-2.8c0,0.1-0.1,0.1-0.2,0.2s-0.2,0.1-0.3,0.2c-0.1,0.1-0.3,0.1-0.4,0.1
					C38.1,41,38,41,37.9,41v-0.8c0.1,0,0.2,0,0.4-0.1c0.1-0.1,0.3-0.1,0.4-0.2s0.2-0.2,0.3-0.3c0.1-0.1,0.2-0.1,0.2-0.2h0.9v3.8
					H41.1z"/>
				<path d="M41.1,44.4H38c-0.2,0-0.4-0.2-0.4-0.4v-0.8c0-0.2,0.2-0.4,0.4-0.4h0.8v-1.7c0,0,0,0,0,0c-0.1,0.1-0.3,0.1-0.4,0.2
					c-0.2,0.1-0.3,0.1-0.5,0.1c-0.2,0-0.4-0.2-0.4-0.4v-0.8c0-0.2,0.2-0.4,0.4-0.4c0,0,0.1,0,0.2-0.1c0.1-0.1,0.2-0.1,0.4-0.2
					c0.1-0.1,0.2-0.2,0.3-0.2c0,0,0.1-0.1,0.1-0.1c0.1-0.1,0.2-0.2,0.3-0.2h0.9c0.2,0,0.4,0.2,0.4,0.4v3.4h0.6
					c0.2,0,0.4,0.2,0.4,0.4V44C41.4,44.2,41.3,44.4,41.1,44.4z M38.4,43.7l2.3,0h-0.6c-0.2,0-0.4-0.2-0.4-0.4v-3.4h-0.4
					c0,0-0.1,0.1-0.1,0.1C39.2,40,39.1,40,39,40.1c0.1,0,0.2,0,0.3,0c0.2,0.1,0.3,0.2,0.3,0.4v2.8c0,0.2-0.2,0.4-0.4,0.4L38.4,43.7z
					 M38.2,40.5L38.2,40.5c0.1,0,0.1,0,0.2,0c0.1-0.1,0.2-0.1,0.3-0.2c0.1-0.1,0.1-0.1,0.1-0.1c0,0,0,0,0,0c0,0,0,0,0,0
					c-0.1,0.1-0.3,0.2-0.5,0.3C38.3,40.5,38.3,40.5,38.2,40.5z"/>
			</g>
			<g>
				<path d="M45.7,42.4c0,0.3-0.1,0.5-0.2,0.7c-0.1,0.2-0.3,0.4-0.4,0.5c-0.2,0.1-0.4,0.3-0.6,0.3c-0.2,0.1-0.5,0.1-0.8,0.1
					c-0.3,0-0.5,0-0.8-0.1s-0.5-0.2-0.6-0.4c-0.2-0.2-0.3-0.3-0.4-0.6c-0.1-0.2-0.2-0.4-0.2-0.7c0-0.2,0-0.3,0.1-0.5
					c0.1-0.1,0.1-0.3,0.2-0.4c0.1-0.1,0.2-0.2,0.3-0.3s0.2-0.2,0.4-0.2c-0.2-0.1-0.4-0.2-0.6-0.4c-0.2-0.2-0.2-0.4-0.2-0.7
					c0-0.2,0.1-0.5,0.2-0.7c0.1-0.2,0.3-0.3,0.4-0.5s0.4-0.2,0.6-0.3s0.4-0.1,0.6-0.1c0.2,0,0.4,0,0.7,0.1c0.2,0.1,0.4,0.2,0.6,0.3
					s0.3,0.3,0.4,0.5c0.1,0.2,0.2,0.4,0.2,0.7c0,0.3-0.1,0.5-0.2,0.7c-0.2,0.2-0.3,0.3-0.6,0.4c0.1,0.1,0.3,0.1,0.4,0.2
					s0.2,0.2,0.3,0.3c0.1,0.1,0.2,0.3,0.2,0.4C45.7,42.1,45.7,42.2,45.7,42.4z M44.8,42.3c0-0.2,0-0.3-0.1-0.4
					c-0.1-0.1-0.2-0.2-0.3-0.3c-0.1-0.1-0.2-0.1-0.4-0.2c-0.1,0-0.3-0.1-0.4-0.1c-0.1,0-0.3,0-0.4,0.1c-0.1,0-0.3,0.1-0.4,0.2
					c-0.1,0.1-0.2,0.2-0.3,0.3c-0.1,0.1-0.1,0.3-0.1,0.4s0,0.3,0.1,0.4s0.2,0.2,0.3,0.3c0.1,0.1,0.2,0.1,0.4,0.2s0.3,0.1,0.4,0.1
					c0.1,0,0.3,0,0.4-0.1s0.3-0.1,0.4-0.2s0.2-0.2,0.3-0.3S44.8,42.5,44.8,42.3z M42.7,39.9c0,0.1,0,0.2,0.1,0.3s0.1,0.2,0.2,0.2
					c0.1,0.1,0.2,0.1,0.3,0.1c0.1,0,0.2,0.1,0.3,0.1s0.2,0,0.3-0.1c0.1,0,0.2-0.1,0.3-0.2s0.2-0.1,0.2-0.2s0.1-0.2,0.1-0.3
					c0-0.1,0-0.2-0.1-0.3c-0.1-0.1-0.1-0.2-0.2-0.2c-0.1-0.1-0.2-0.1-0.3-0.2c-0.1,0-0.2-0.1-0.4-0.1s-0.3,0-0.4,0.1
					s-0.2,0.1-0.3,0.2c-0.1,0.1-0.2,0.1-0.2,0.2C42.7,39.7,42.7,39.8,42.7,39.9z"/>
				<path d="M43.7,44.5c-0.3,0-0.6-0.1-0.9-0.2c-0.3-0.1-0.5-0.2-0.8-0.4c-0.2-0.2-0.4-0.4-0.5-0.7c-0.1-0.3-0.2-0.6-0.2-0.9
					c0-0.2,0-0.4,0.1-0.6c0.1-0.2,0.2-0.3,0.3-0.5c0.1-0.1,0.2-0.2,0.3-0.3c-0.1-0.1-0.1-0.1-0.2-0.2c-0.2-0.3-0.3-0.6-0.3-0.9
					c0-0.3,0.1-0.6,0.2-0.8c0.1-0.2,0.3-0.4,0.5-0.6c0.2-0.2,0.4-0.3,0.7-0.4c0.5-0.2,1-0.2,1.5,0c0.3,0.1,0.5,0.2,0.7,0.3
					c0.2,0.2,0.4,0.4,0.5,0.6c0.1,0.2,0.2,0.5,0.2,0.8c0,0.3-0.1,0.6-0.3,0.9c-0.1,0.1-0.1,0.1-0.2,0.2c0.1,0.1,0.2,0.2,0.3,0.3
					c0.1,0.2,0.2,0.3,0.3,0.5c0.1,0.2,0.1,0.4,0.1,0.6c0,0.3-0.1,0.6-0.2,0.9c-0.1,0.3-0.3,0.5-0.5,0.7c-0.2,0.2-0.5,0.3-0.8,0.4
					C44.3,44.4,44,44.5,43.7,44.5z M42.5,41.5c-0.1,0.1-0.2,0.1-0.2,0.2c-0.1,0.1-0.1,0.2-0.2,0.3c0,0.1-0.1,0.2-0.1,0.3
					c0,0.2,0,0.4,0.1,0.5c0.1,0.2,0.2,0.3,0.3,0.4c0.1,0.1,0.3,0.2,0.5,0.3c0.4,0.1,0.9,0.1,1.3,0c0.2-0.1,0.4-0.2,0.5-0.3
					c0.1-0.1,0.3-0.3,0.3-0.4c0.1-0.2,0.1-0.3,0.1-0.5c0-0.1,0-0.2-0.1-0.3c0-0.1-0.1-0.2-0.2-0.3c-0.1-0.1-0.1-0.1-0.2-0.2
					c0,0.1,0.1,0.1,0.1,0.2c0.1,0.2,0.1,0.4,0.1,0.6c0,0.2,0,0.4-0.1,0.6c-0.1,0.2-0.2,0.3-0.4,0.4c-0.1,0.1-0.3,0.2-0.5,0.3
					c-0.3,0.1-0.7,0.1-1.1,0c-0.2-0.1-0.3-0.1-0.5-0.3c-0.1-0.1-0.3-0.3-0.4-0.4c-0.1-0.2-0.1-0.4-0.1-0.6c0-0.2,0-0.4,0.1-0.6
					C42.3,41.7,42.4,41.6,42.5,41.5z M43.7,41.7c-0.1,0-0.2,0-0.3,0c-0.1,0-0.2,0.1-0.2,0.1C43.1,42,43,42,43,42.1
					c0,0.1-0.1,0.1-0.1,0.2c0,0.1,0,0.2,0.1,0.2c0,0.1,0.1,0.1,0.2,0.2c0.1,0.1,0.2,0.1,0.3,0.1c0.2,0.1,0.4,0.1,0.6,0
					c0.1,0,0.2-0.1,0.3-0.1c0.1-0.1,0.1-0.1,0.2-0.2c0-0.1,0-0.1,0-0.2c0-0.1,0-0.2-0.1-0.2c0-0.1-0.1-0.1-0.2-0.2
					c-0.1-0.1-0.2-0.1-0.3-0.1C43.9,41.7,43.8,41.7,43.7,41.7z M43,40.9C43,40.9,43,41,43,40.9c0,0.1,0,0.2,0,0.2
					c0.1,0,0.1,0,0.2-0.1c0.1,0,0.1,0,0.2-0.1c0,0-0.1,0-0.1,0C43.1,41,43.1,40.9,43,40.9z M44,41c0.1,0,0.1,0,0.2,0
					c0.1,0,0.1,0,0.2,0.1c0,0,0-0.1,0-0.1c0,0,0-0.1,0-0.1C44.3,40.9,44.2,41,44,41C44.1,41,44,41,44,41z M43.7,38.8
					c0.2,0,0.3,0,0.5,0.1c0.2,0,0.3,0.1,0.4,0.2c0.1,0.1,0.2,0.2,0.3,0.4c0.1,0.2,0.1,0.3,0.1,0.5c0,0.2,0,0.4-0.1,0.5
					c0,0,0,0,0,0.1c0.1-0.1,0.1-0.1,0.2-0.2c0.1-0.1,0.2-0.3,0.2-0.4c0-0.2,0-0.3-0.1-0.5c-0.1-0.1-0.2-0.3-0.3-0.4
					c-0.1-0.1-0.3-0.2-0.5-0.2c-0.4-0.1-0.7-0.1-1.1,0c-0.2,0.1-0.3,0.1-0.5,0.2c-0.1,0.1-0.2,0.2-0.3,0.4c-0.1,0.1-0.1,0.3-0.1,0.5
					c0,0.2,0,0.3,0.2,0.4c0,0.1,0.1,0.1,0.2,0.2c0,0,0,0,0,0c-0.1-0.2-0.1-0.3-0.1-0.5c0-0.2,0-0.3,0.1-0.5c0.1-0.1,0.2-0.3,0.3-0.4
					c0.1-0.1,0.3-0.2,0.4-0.2C43.3,38.8,43.5,38.8,43.7,38.8z M43.7,39.5c-0.1,0-0.2,0-0.2,0c-0.1,0-0.1,0.1-0.2,0.1
					c0,0-0.1,0.1-0.1,0.1c0,0,0,0.1,0,0.1c0,0.1,0,0.1,0,0.1c0,0.1,0.1,0.1,0.1,0.1c0.1,0,0.1,0.1,0.2,0.1c0.2,0,0.3,0,0.5,0
					c0.1,0,0.1-0.1,0.2-0.1c0.1,0,0.1-0.1,0.1-0.1c0,0,0-0.1,0-0.1c0-0.1,0-0.1,0-0.1c0,0-0.1-0.1-0.1-0.1c-0.1,0-0.1-0.1-0.2-0.1
					C43.8,39.5,43.8,39.5,43.7,39.5z"/>
			</g>
			<g>
				<path d="M50.6,41.7c0,0.4-0.1,0.7-0.2,1c-0.1,0.3-0.2,0.6-0.4,0.8c-0.2,0.2-0.4,0.4-0.6,0.5c-0.2,0.1-0.5,0.2-0.8,0.2
					c-0.3,0-0.6-0.1-0.8-0.2c-0.3-0.1-0.5-0.3-0.6-0.5c-0.2-0.2-0.3-0.5-0.4-0.8c-0.1-0.3-0.2-0.6-0.2-1c0-0.4,0.1-0.7,0.2-1
					c0.1-0.3,0.2-0.6,0.4-0.8c0.2-0.2,0.4-0.4,0.6-0.5c0.3-0.1,0.5-0.2,0.8-0.2c0.3,0,0.6,0.1,0.8,0.2c0.2,0.1,0.5,0.3,0.6,0.5
					c0.2,0.2,0.3,0.5,0.4,0.8C50.5,41,50.6,41.3,50.6,41.7z M49.7,41.7c0-0.2,0-0.5-0.1-0.7c-0.1-0.2-0.1-0.4-0.2-0.5
					c-0.1-0.1-0.2-0.3-0.4-0.3c-0.1-0.1-0.3-0.1-0.5-0.1c-0.2,0-0.3,0-0.5,0.1c-0.1,0.1-0.3,0.2-0.4,0.3c-0.1,0.1-0.2,0.3-0.2,0.5
					c-0.1,0.2-0.1,0.4-0.1,0.7s0,0.5,0.1,0.7c0.1,0.2,0.1,0.4,0.2,0.5c0.1,0.1,0.2,0.3,0.4,0.3c0.1,0.1,0.3,0.1,0.5,0.1
					c0.2,0,0.3,0,0.5-0.1c0.1-0.1,0.3-0.2,0.4-0.3c0.1-0.1,0.2-0.3,0.2-0.5C49.6,42.1,49.7,41.9,49.7,41.7z"/>
				<path d="M48.5,44.5c-0.3,0-0.7-0.1-1-0.2c-0.3-0.1-0.6-0.3-0.8-0.6c-0.2-0.2-0.4-0.5-0.5-0.9c-0.1-0.3-0.2-0.7-0.2-1.1
					c0-0.4,0.1-0.8,0.2-1.1c0.1-0.3,0.3-0.6,0.5-0.9c0.2-0.3,0.5-0.5,0.8-0.6c0.6-0.3,1.4-0.3,2,0c0.3,0.1,0.5,0.3,0.8,0.6
					c0.2,0.3,0.4,0.6,0.5,0.9c0.1,0.3,0.2,0.7,0.2,1.1s-0.1,0.8-0.2,1.1c-0.1,0.3-0.3,0.6-0.5,0.9c-0.2,0.3-0.5,0.5-0.8,0.6
					C49.2,44.4,48.9,44.5,48.5,44.5z M48.5,39.6c-0.2,0-0.5,0-0.7,0.1c-0.2,0.1-0.4,0.2-0.5,0.4c-0.2,0.2-0.3,0.4-0.4,0.7
					c-0.1,0.3-0.1,0.5-0.1,0.8s0,0.6,0.1,0.8c0.1,0.3,0.2,0.5,0.4,0.7c0.1,0.2,0.3,0.3,0.5,0.4c0.4,0.2,0.9,0.2,1.3,0
					c0.2-0.1,0.4-0.2,0.5-0.4c0.2-0.2,0.3-0.4,0.4-0.6c0.1-0.3,0.1-0.5,0.1-0.8c0-0.3,0-0.6-0.1-0.8c-0.1-0.3-0.2-0.5-0.4-0.6
					c-0.2-0.2-0.3-0.3-0.5-0.4C49,39.7,48.8,39.6,48.5,39.6z M48.5,43.7c-0.2,0-0.5-0.1-0.7-0.2c-0.2-0.1-0.4-0.3-0.5-0.4
					c-0.1-0.2-0.2-0.4-0.3-0.6C47,42.2,47,42,47,41.7c0-0.3,0-0.5,0.1-0.8c0.1-0.2,0.2-0.4,0.3-0.6c0.1-0.2,0.3-0.3,0.5-0.4
					c0.4-0.2,0.9-0.2,1.3,0c0.2,0.1,0.4,0.3,0.5,0.4c0.1,0.2,0.2,0.4,0.3,0.6c0.1,0.2,0.1,0.5,0.1,0.8c0,0.3,0,0.5-0.1,0.8
					c-0.1,0.2-0.2,0.4-0.3,0.6c-0.1,0.2-0.3,0.3-0.5,0.4C49,43.6,48.8,43.7,48.5,43.7z M48.5,40.4c-0.1,0-0.2,0-0.3,0.1
					c-0.1,0.1-0.2,0.1-0.2,0.2c-0.1,0.1-0.1,0.2-0.2,0.4c0,0.2-0.1,0.3-0.1,0.6s0,0.4,0.1,0.6c0,0.2,0.1,0.3,0.2,0.4
					c0.1,0.1,0.2,0.2,0.2,0.2c0.2,0.1,0.4,0.1,0.6,0c0.1-0.1,0.2-0.1,0.2-0.2c0.1-0.1,0.1-0.2,0.2-0.4c0-0.2,0.1-0.3,0.1-0.6
					s0-0.4-0.1-0.6c0-0.2-0.1-0.3-0.2-0.4c-0.1-0.1-0.2-0.2-0.2-0.2C48.7,40.5,48.6,40.4,48.5,40.4z"/>
			</g>
			<g>
				<path d="M55.5,41.7c0,0.4-0.1,0.7-0.2,1c-0.1,0.3-0.2,0.6-0.4,0.8c-0.2,0.2-0.4,0.4-0.6,0.5c-0.2,0.1-0.5,0.2-0.8,0.2
					s-0.6-0.1-0.8-0.2c-0.3-0.1-0.5-0.3-0.6-0.5c-0.2-0.2-0.3-0.5-0.4-0.8c-0.1-0.3-0.2-0.6-0.2-1c0-0.4,0.1-0.7,0.2-1
					c0.1-0.3,0.2-0.6,0.4-0.8s0.4-0.4,0.6-0.5c0.3-0.1,0.5-0.2,0.8-0.2s0.6,0.1,0.8,0.2c0.2,0.1,0.5,0.3,0.6,0.5
					c0.2,0.2,0.3,0.5,0.4,0.8C55.4,41,55.5,41.3,55.5,41.7z M54.6,41.7c0-0.2,0-0.5-0.1-0.7c-0.1-0.2-0.1-0.4-0.2-0.5
					c-0.1-0.1-0.2-0.3-0.4-0.3s-0.3-0.1-0.5-0.1c-0.2,0-0.3,0-0.5,0.1c-0.1,0.1-0.3,0.2-0.4,0.3c-0.1,0.1-0.2,0.3-0.2,0.5
					c-0.1,0.2-0.1,0.4-0.1,0.7s0,0.5,0.1,0.7c0.1,0.2,0.1,0.4,0.2,0.5c0.1,0.1,0.2,0.3,0.4,0.3c0.1,0.1,0.3,0.1,0.5,0.1
					c0.2,0,0.3,0,0.5-0.1c0.1-0.1,0.3-0.2,0.4-0.3c0.1-0.1,0.2-0.3,0.2-0.5C54.6,42.1,54.6,41.9,54.6,41.7z"/>
				<path d="M53.4,44.5c-0.3,0-0.7-0.1-1-0.2c-0.3-0.1-0.6-0.3-0.8-0.6c-0.2-0.3-0.4-0.5-0.5-0.9c-0.1-0.3-0.2-0.7-0.2-1.1
					s0.1-0.8,0.2-1.1c0.1-0.3,0.3-0.6,0.5-0.9c0.2-0.3,0.5-0.5,0.8-0.6c0.6-0.3,1.4-0.3,2,0c0.3,0.1,0.5,0.3,0.8,0.6
					c0.2,0.2,0.4,0.5,0.5,0.9c0.1,0.3,0.2,0.7,0.2,1.1c0,0.4-0.1,0.8-0.2,1.1c-0.1,0.3-0.3,0.6-0.5,0.9c-0.2,0.3-0.5,0.5-0.8,0.6
					C54.1,44.4,53.8,44.5,53.4,44.5z M53.4,39.6c-0.2,0-0.5,0-0.6,0.1c-0.2,0.1-0.4,0.2-0.5,0.4c-0.2,0.2-0.3,0.4-0.4,0.7
					c-0.1,0.3-0.1,0.5-0.1,0.8c0,0.3,0,0.6,0.1,0.8c0.1,0.3,0.2,0.5,0.4,0.7c0.1,0.2,0.3,0.3,0.5,0.4c0.4,0.2,0.9,0.2,1.3,0
					c0.2-0.1,0.4-0.2,0.5-0.4c0.2-0.2,0.3-0.4,0.4-0.7c0.1-0.3,0.1-0.5,0.1-0.8s0-0.6-0.1-0.8c-0.1-0.3-0.2-0.5-0.4-0.6
					c-0.2-0.2-0.3-0.3-0.5-0.4C53.9,39.7,53.7,39.6,53.4,39.6z M53.4,43.7c-0.2,0-0.5-0.1-0.7-0.2c-0.2-0.1-0.4-0.3-0.5-0.4
					c-0.1-0.2-0.2-0.4-0.3-0.6c-0.1-0.2-0.1-0.5-0.1-0.8s0-0.5,0.1-0.8c0.1-0.2,0.2-0.5,0.3-0.6c0.1-0.2,0.3-0.3,0.5-0.4
					c0.4-0.2,0.9-0.2,1.3,0c0.2,0.1,0.4,0.3,0.5,0.4c0.1,0.2,0.2,0.4,0.3,0.6c0.1,0.2,0.1,0.5,0.1,0.8s0,0.5-0.1,0.8
					c-0.1,0.2-0.2,0.5-0.3,0.6c-0.1,0.2-0.3,0.3-0.5,0.4C53.9,43.6,53.7,43.7,53.4,43.7z M53.4,40.4c-0.1,0-0.2,0-0.3,0.1
					c-0.1,0.1-0.2,0.1-0.2,0.2c-0.1,0.1-0.1,0.2-0.2,0.4c0,0.2-0.1,0.3-0.1,0.6c0,0.2,0,0.4,0.1,0.6c0,0.2,0.1,0.3,0.2,0.4
					c0.1,0.1,0.2,0.2,0.2,0.2c0.2,0.1,0.4,0.1,0.6,0c0.1-0.1,0.2-0.1,0.2-0.2c0.1-0.1,0.1-0.2,0.2-0.4c0-0.2,0.1-0.3,0.1-0.6
					c0-0.2,0-0.4-0.1-0.6c0-0.2-0.1-0.3-0.2-0.4c-0.1-0.1-0.2-0.2-0.2-0.2C53.6,40.5,53.5,40.4,53.4,40.4z"/>
			</g>
		</g>
		<g>
			<g>
				<path d="M69.1,44c0-0.2,0-0.4,0.1-0.6s0.1-0.4,0.2-0.5s0.2-0.3,0.4-0.5c0.2-0.2,0.4-0.3,0.6-0.4c0.2-0.1,0.4-0.2,0.5-0.3
					c0.2-0.1,0.3-0.2,0.4-0.3c0.1-0.1,0.2-0.2,0.3-0.3c0.1-0.1,0.1-0.2,0.1-0.3c0-0.2-0.1-0.3-0.2-0.5c-0.1-0.1-0.4-0.2-0.6-0.2
					c-0.1,0-0.3,0-0.4,0.1c-0.1,0-0.2,0.1-0.3,0.2s-0.2,0.1-0.3,0.2c-0.1,0.1-0.1,0.1-0.2,0.2l-0.6-0.6c0.1-0.1,0.1-0.1,0.3-0.2
					c0.1-0.1,0.3-0.2,0.4-0.3c0.2-0.1,0.3-0.1,0.6-0.2c0.2-0.1,0.4-0.1,0.7-0.1c0.3,0,0.5,0,0.7,0.1c0.2,0.1,0.4,0.2,0.5,0.3
					c0.1,0.1,0.2,0.3,0.3,0.4c0.1,0.2,0.1,0.3,0.1,0.5c0,0.2,0,0.4-0.1,0.5c-0.1,0.2-0.2,0.3-0.3,0.4s-0.2,0.2-0.4,0.3
					c-0.1,0.1-0.3,0.2-0.4,0.2c-0.1,0.1-0.2,0.1-0.4,0.2c-0.1,0.1-0.3,0.2-0.4,0.2c-0.1,0.1-0.3,0.2-0.4,0.3
					c-0.1,0.1-0.2,0.2-0.2,0.4h2.6V44H69.1z"/>
				<path d="M72.8,44.4h-3.7c-0.2,0-0.4-0.2-0.4-0.4c0-0.2,0-0.5,0.1-0.7c0-0.2,0.1-0.4,0.2-0.7c0.1-0.2,0.3-0.4,0.5-0.6
					c0.2-0.2,0.4-0.3,0.7-0.5c0.2-0.1,0.4-0.2,0.5-0.3c0.2-0.1,0.3-0.2,0.4-0.2c0.1-0.1,0.2-0.1,0.2-0.2c0,0,0,0,0-0.1
					c0,0,0-0.1-0.1-0.2c-0.1-0.1-0.4-0.1-0.7-0.1c-0.1,0-0.2,0.1-0.2,0.1c-0.1,0-0.1,0.1-0.2,0.2C70.1,40.9,70,41,70,41
					c-0.1,0.1-0.2,0.1-0.3,0.1c0,0,0,0,0,0c-0.1,0-0.2,0-0.3-0.1l-0.6-0.6c-0.1-0.1-0.1-0.4,0-0.5c0.1-0.1,0.2-0.2,0.3-0.3
					c0.1-0.1,0.3-0.2,0.5-0.3c0.2-0.1,0.4-0.2,0.6-0.2c0.5-0.1,1.1-0.1,1.6,0c0.2,0.1,0.5,0.2,0.6,0.3c0.2,0.2,0.3,0.3,0.4,0.6
					c0.1,0.2,0.1,0.4,0.1,0.7c0,0.3-0.1,0.5-0.2,0.7c-0.1,0.2-0.2,0.4-0.4,0.5c-0.1,0.1-0.3,0.3-0.5,0.4c-0.2,0.1-0.3,0.2-0.4,0.2
					l-0.4,0.2c-0.1,0.1-0.2,0.1-0.3,0.2h1.8c0.2,0,0.4,0.2,0.4,0.4V44C73.2,44.2,73,44.4,72.8,44.4z M69.5,43.7l2.9,0h-2.3
					c-0.1,0-0.2-0.1-0.3-0.2c-0.1-0.1-0.1-0.2-0.1-0.3c0.1-0.2,0.2-0.4,0.3-0.5c0.1-0.1,0.2-0.2,0.3-0.3c-0.2,0.1-0.3,0.2-0.4,0.3
					c-0.1,0.1-0.2,0.3-0.3,0.4c-0.1,0.1-0.1,0.3-0.2,0.4C69.5,43.5,69.5,43.6,69.5,43.7z M70.9,39.8c0.4,0,0.7,0.1,0.9,0.3
					c0.2,0.2,0.3,0.5,0.3,0.7c0,0.2-0.1,0.4-0.2,0.6c-0.1,0.1-0.2,0.2-0.3,0.3c0,0,0.1,0,0.1,0c0.1-0.1,0.2-0.1,0.3-0.2
					c0.1-0.1,0.2-0.2,0.2-0.3c0.1-0.1,0.1-0.2,0.1-0.4c0-0.1,0-0.3-0.1-0.4c-0.1-0.1-0.1-0.2-0.2-0.3c-0.1-0.1-0.2-0.2-0.4-0.2
					c-0.3-0.1-0.8-0.1-1.2,0c-0.2,0-0.3,0.1-0.5,0.2c-0.1,0.1-0.2,0.1-0.3,0.2l0,0.1c0.1-0.1,0.2-0.1,0.2-0.2
					c0.1-0.1,0.3-0.1,0.4-0.2C70.5,39.8,70.7,39.8,70.9,39.8z"/>
			</g>
			<g>
				<path d="M77.7,41.7c0,0.4-0.1,0.7-0.2,1c-0.1,0.3-0.2,0.6-0.4,0.8c-0.2,0.2-0.4,0.4-0.6,0.5c-0.2,0.1-0.5,0.2-0.8,0.2
					c-0.3,0-0.6-0.1-0.8-0.2c-0.3-0.1-0.5-0.3-0.6-0.5c-0.2-0.2-0.3-0.5-0.4-0.8c-0.1-0.3-0.2-0.6-0.2-1c0-0.4,0.1-0.7,0.2-1
					c0.1-0.3,0.2-0.6,0.4-0.8c0.2-0.2,0.4-0.4,0.6-0.5c0.3-0.1,0.5-0.2,0.8-0.2c0.3,0,0.6,0.1,0.8,0.2c0.2,0.1,0.5,0.3,0.6,0.5
					c0.2,0.2,0.3,0.5,0.4,0.8C77.6,41,77.7,41.3,77.7,41.7z M76.8,41.7c0-0.2,0-0.5-0.1-0.7c-0.1-0.2-0.1-0.4-0.2-0.5
					c-0.1-0.1-0.2-0.3-0.4-0.3c-0.1-0.1-0.3-0.1-0.5-0.1c-0.2,0-0.3,0-0.5,0.1c-0.1,0.1-0.3,0.2-0.4,0.3c-0.1,0.1-0.2,0.3-0.2,0.5
					c-0.1,0.2-0.1,0.4-0.1,0.7s0,0.5,0.1,0.7c0.1,0.2,0.1,0.4,0.2,0.5c0.1,0.1,0.2,0.3,0.4,0.3c0.1,0.1,0.3,0.1,0.5,0.1
					c0.2,0,0.3,0,0.5-0.1c0.1-0.1,0.3-0.2,0.4-0.3c0.1-0.1,0.2-0.3,0.2-0.5C76.7,42.1,76.8,41.9,76.8,41.7z"/>
				<path d="M75.6,44.5c-0.3,0-0.7-0.1-1-0.2c-0.3-0.1-0.6-0.3-0.8-0.6c-0.2-0.2-0.4-0.5-0.5-0.9c-0.1-0.3-0.2-0.7-0.2-1.1
					c0-0.4,0.1-0.8,0.2-1.1c0.1-0.3,0.3-0.6,0.5-0.9c0.2-0.3,0.5-0.5,0.8-0.6c0.6-0.3,1.4-0.3,2,0c0.3,0.1,0.5,0.3,0.8,0.6
					c0.2,0.3,0.4,0.6,0.5,0.9c0.1,0.3,0.2,0.7,0.2,1.1s-0.1,0.8-0.2,1.1c-0.1,0.3-0.3,0.6-0.5,0.9c-0.2,0.3-0.5,0.5-0.8,0.6
					C76.3,44.4,76,44.5,75.6,44.5z M75.6,39.6c-0.2,0-0.5,0-0.7,0.1c-0.2,0.1-0.4,0.2-0.5,0.4c-0.2,0.2-0.3,0.4-0.4,0.7
					c-0.1,0.3-0.1,0.5-0.1,0.8s0,0.6,0.1,0.8c0.1,0.3,0.2,0.5,0.4,0.7c0.1,0.2,0.3,0.3,0.5,0.4c0.4,0.2,0.9,0.2,1.3,0
					c0.2-0.1,0.4-0.2,0.5-0.4c0.2-0.2,0.3-0.4,0.4-0.6c0.1-0.3,0.1-0.5,0.1-0.8c0-0.3,0-0.6-0.1-0.8c-0.1-0.3-0.2-0.5-0.4-0.6
					c-0.2-0.2-0.3-0.3-0.5-0.4C76.1,39.7,75.8,39.6,75.6,39.6z M75.6,43.7c-0.2,0-0.5-0.1-0.7-0.2c-0.2-0.1-0.4-0.3-0.5-0.4
					c-0.1-0.2-0.2-0.4-0.3-0.6c-0.1-0.2-0.1-0.5-0.1-0.8c0-0.3,0-0.5,0.1-0.8c0.1-0.2,0.2-0.4,0.3-0.6c0.1-0.2,0.3-0.3,0.5-0.4
					c0.4-0.2,0.9-0.2,1.3,0c0.2,0.1,0.4,0.3,0.5,0.4c0.1,0.2,0.2,0.4,0.3,0.6c0.1,0.2,0.1,0.5,0.1,0.8c0,0.3,0,0.5-0.1,0.8
					c-0.1,0.2-0.2,0.4-0.3,0.6c-0.1,0.2-0.3,0.3-0.5,0.4C76.1,43.6,75.8,43.7,75.6,43.7z M75.6,40.4c-0.1,0-0.2,0-0.3,0.1
					c-0.1,0.1-0.2,0.1-0.2,0.2c-0.1,0.1-0.1,0.2-0.2,0.4c0,0.2-0.1,0.3-0.1,0.6s0,0.4,0.1,0.6c0,0.2,0.1,0.3,0.2,0.4
					c0.1,0.1,0.2,0.2,0.2,0.2c0.2,0.1,0.4,0.1,0.6,0c0.1-0.1,0.2-0.1,0.2-0.2c0.1-0.1,0.1-0.2,0.2-0.4c0-0.2,0.1-0.3,0.1-0.6
					s0-0.4-0.1-0.6c0-0.2-0.1-0.3-0.2-0.4c-0.1-0.1-0.2-0.2-0.2-0.2C75.8,40.5,75.7,40.4,75.6,40.4z"/>
			</g>
			<g>
				<path d="M82.6,41.7c0,0.4-0.1,0.7-0.2,1c-0.1,0.3-0.2,0.6-0.4,0.8c-0.2,0.2-0.4,0.4-0.6,0.5c-0.2,0.1-0.5,0.2-0.8,0.2
					c-0.3,0-0.6-0.1-0.8-0.2c-0.3-0.1-0.5-0.3-0.6-0.5c-0.2-0.2-0.3-0.5-0.4-0.8c-0.1-0.3-0.2-0.6-0.2-1c0-0.4,0.1-0.7,0.2-1
					c0.1-0.3,0.2-0.6,0.4-0.8c0.2-0.2,0.4-0.4,0.6-0.5c0.3-0.1,0.5-0.2,0.8-0.2c0.3,0,0.6,0.1,0.8,0.2c0.2,0.1,0.5,0.3,0.6,0.5
					c0.2,0.2,0.3,0.5,0.4,0.8C82.5,41,82.6,41.3,82.6,41.7z M81.7,41.7c0-0.2,0-0.5-0.1-0.7c-0.1-0.2-0.1-0.4-0.2-0.5
					c-0.1-0.1-0.2-0.3-0.4-0.3c-0.1-0.1-0.3-0.1-0.5-0.1c-0.2,0-0.3,0-0.5,0.1c-0.1,0.1-0.3,0.2-0.4,0.3c-0.1,0.1-0.2,0.3-0.2,0.5
					c-0.1,0.2-0.1,0.4-0.1,0.7s0,0.5,0.1,0.7c0.1,0.2,0.1,0.4,0.2,0.5c0.1,0.1,0.2,0.3,0.4,0.3c0.1,0.1,0.3,0.1,0.5,0.1
					c0.2,0,0.3,0,0.5-0.1c0.1-0.1,0.3-0.2,0.4-0.3c0.1-0.1,0.2-0.3,0.2-0.5C81.6,42.1,81.7,41.9,81.7,41.7z"/>
				<path d="M80.5,44.5c-0.3,0-0.7-0.1-1-0.2c-0.3-0.1-0.6-0.3-0.8-0.6c-0.2-0.2-0.4-0.5-0.5-0.9c-0.1-0.3-0.2-0.7-0.2-1.1
					c0-0.4,0.1-0.8,0.2-1.1c0.1-0.3,0.3-0.6,0.5-0.9c0.2-0.3,0.5-0.5,0.8-0.6c0.6-0.3,1.4-0.3,2,0c0.3,0.1,0.5,0.3,0.8,0.6
					c0.2,0.3,0.4,0.6,0.5,0.9c0.1,0.3,0.2,0.7,0.2,1.1s-0.1,0.8-0.2,1.1c-0.1,0.3-0.3,0.6-0.5,0.9c-0.2,0.3-0.5,0.5-0.8,0.6
					C81.2,44.4,80.9,44.5,80.5,44.5z M80.5,39.6c-0.2,0-0.5,0-0.7,0.1c-0.2,0.1-0.4,0.2-0.5,0.4c-0.2,0.2-0.3,0.4-0.4,0.7
					c-0.1,0.3-0.1,0.5-0.1,0.8s0,0.6,0.1,0.8c0.1,0.3,0.2,0.5,0.4,0.7c0.1,0.2,0.3,0.3,0.5,0.4c0.4,0.2,0.9,0.2,1.3,0
					c0.2-0.1,0.4-0.2,0.5-0.4c0.2-0.2,0.3-0.4,0.4-0.6c0.1-0.3,0.1-0.5,0.1-0.8c0-0.3,0-0.6-0.1-0.8c-0.1-0.3-0.2-0.5-0.4-0.6
					c-0.2-0.2-0.3-0.3-0.5-0.4C81,39.7,80.8,39.6,80.5,39.6z M80.5,43.7c-0.2,0-0.5-0.1-0.7-0.2c-0.2-0.1-0.4-0.3-0.5-0.4
					c-0.1-0.2-0.2-0.4-0.3-0.6C79,42.2,79,42,79,41.7c0-0.3,0-0.5,0.1-0.8c0.1-0.2,0.2-0.4,0.3-0.6c0.1-0.2,0.3-0.3,0.5-0.4
					c0.4-0.2,0.9-0.2,1.3,0c0.2,0.1,0.4,0.3,0.5,0.4c0.1,0.2,0.2,0.4,0.3,0.6c0.1,0.2,0.1,0.5,0.1,0.8c0,0.3,0,0.5-0.1,0.8
					c-0.1,0.2-0.2,0.4-0.3,0.6c-0.1,0.2-0.3,0.3-0.5,0.4C81,43.6,80.7,43.7,80.5,43.7z M80.5,40.4c-0.1,0-0.2,0-0.3,0.1
					c-0.1,0.1-0.2,0.1-0.2,0.2c-0.1,0.1-0.1,0.2-0.2,0.4c0,0.2-0.1,0.3-0.1,0.6s0,0.4,0.1,0.6c0,0.2,0.1,0.3,0.2,0.4
					c0.1,0.1,0.2,0.2,0.2,0.2c0.2,0.1,0.4,0.1,0.6,0c0.1-0.1,0.2-0.1,0.2-0.2c0.1-0.1,0.1-0.2,0.2-0.4c0-0.2,0.1-0.3,0.1-0.6
					s0-0.4-0.1-0.6c0-0.2-0.1-0.3-0.2-0.4c-0.1-0.1-0.2-0.2-0.2-0.2C80.7,40.5,80.6,40.4,80.5,40.4z"/>
			</g>
			<g>
				<path d="M87.5,41.7c0,0.4-0.1,0.7-0.2,1c-0.1,0.3-0.2,0.6-0.4,0.8c-0.2,0.2-0.4,0.4-0.6,0.5c-0.2,0.1-0.5,0.2-0.8,0.2
					s-0.6-0.1-0.8-0.2c-0.3-0.1-0.5-0.3-0.6-0.5c-0.2-0.2-0.3-0.5-0.4-0.8c-0.1-0.3-0.2-0.6-0.2-1c0-0.4,0.1-0.7,0.2-1
					c0.1-0.3,0.2-0.6,0.4-0.8s0.4-0.4,0.6-0.5c0.3-0.1,0.5-0.2,0.8-0.2s0.6,0.1,0.8,0.2c0.2,0.1,0.5,0.3,0.6,0.5
					c0.2,0.2,0.3,0.5,0.4,0.8C87.4,41,87.5,41.3,87.5,41.7z M86.6,41.7c0-0.2,0-0.5-0.1-0.7c-0.1-0.2-0.1-0.4-0.2-0.5
					c-0.1-0.1-0.2-0.3-0.4-0.3s-0.3-0.1-0.5-0.1c-0.2,0-0.3,0-0.5,0.1c-0.1,0.1-0.3,0.2-0.4,0.3c-0.1,0.1-0.2,0.3-0.2,0.5
					c-0.1,0.2-0.1,0.4-0.1,0.7s0,0.5,0.1,0.7c0.1,0.2,0.1,0.4,0.2,0.5c0.1,0.1,0.2,0.3,0.4,0.3c0.1,0.1,0.3,0.1,0.5,0.1
					c0.2,0,0.3,0,0.5-0.1c0.1-0.1,0.3-0.2,0.4-0.3c0.1-0.1,0.2-0.3,0.2-0.5C86.6,42.1,86.6,41.9,86.6,41.7z"/>
				<path d="M85.4,44.5c-0.3,0-0.7-0.1-1-0.2c-0.3-0.1-0.6-0.3-0.8-0.6c-0.2-0.3-0.4-0.5-0.5-0.9c-0.1-0.3-0.2-0.7-0.2-1.1
					s0.1-0.8,0.2-1.1c0.1-0.3,0.3-0.6,0.5-0.9c0.2-0.3,0.5-0.5,0.8-0.6c0.6-0.3,1.4-0.3,2,0c0.3,0.1,0.5,0.3,0.8,0.6
					c0.2,0.2,0.4,0.5,0.5,0.9c0.1,0.3,0.2,0.7,0.2,1.1c0,0.4-0.1,0.8-0.2,1.1c-0.1,0.3-0.3,0.6-0.5,0.9c-0.2,0.3-0.5,0.5-0.8,0.6
					C86.1,44.4,85.8,44.5,85.4,44.5z M85.4,39.6c-0.2,0-0.5,0-0.6,0.1c-0.2,0.1-0.4,0.2-0.5,0.4c-0.2,0.2-0.3,0.4-0.4,0.7
					c-0.1,0.3-0.1,0.5-0.1,0.8c0,0.3,0,0.6,0.1,0.8c0.1,0.3,0.2,0.5,0.4,0.7c0.1,0.2,0.3,0.3,0.5,0.4c0.4,0.2,0.9,0.2,1.3,0
					c0.2-0.1,0.4-0.2,0.5-0.4c0.2-0.2,0.3-0.4,0.4-0.7c0.1-0.3,0.1-0.5,0.1-0.8s0-0.6-0.1-0.8c-0.1-0.3-0.2-0.5-0.4-0.6
					c-0.2-0.2-0.3-0.3-0.5-0.4C85.9,39.7,85.7,39.6,85.4,39.6z M85.4,43.7c-0.2,0-0.5-0.1-0.7-0.2c-0.2-0.1-0.4-0.3-0.5-0.4
					c-0.1-0.2-0.2-0.4-0.3-0.6c-0.1-0.2-0.1-0.5-0.1-0.8s0-0.5,0.1-0.8c0.1-0.2,0.2-0.5,0.3-0.6c0.1-0.2,0.3-0.3,0.5-0.4
					c0.4-0.2,0.9-0.2,1.3,0c0.2,0.1,0.4,0.3,0.5,0.4c0.1,0.2,0.2,0.4,0.3,0.6c0.1,0.2,0.1,0.5,0.1,0.8s0,0.5-0.1,0.8
					c-0.1,0.2-0.2,0.5-0.3,0.6c-0.1,0.2-0.3,0.3-0.5,0.4C85.9,43.6,85.7,43.7,85.4,43.7z M85.4,40.4c-0.1,0-0.2,0-0.3,0.1
					c-0.1,0.1-0.2,0.1-0.2,0.2c-0.1,0.1-0.1,0.2-0.2,0.4c0,0.2-0.1,0.3-0.1,0.6c0,0.2,0,0.4,0.1,0.6c0,0.2,0.1,0.3,0.2,0.4
					c0.1,0.1,0.2,0.2,0.2,0.2c0.2,0.1,0.4,0.1,0.6,0c0.1-0.1,0.2-0.1,0.2-0.2c0.1-0.1,0.1-0.2,0.2-0.4c0-0.2,0.1-0.3,0.1-0.6
					c0-0.2,0-0.4-0.1-0.6c0-0.2-0.1-0.3-0.2-0.4c-0.1-0.1-0.2-0.2-0.2-0.2C85.6,40.5,85.5,40.4,85.4,40.4z"/>
			</g>
		</g>
		<g>
			<g>
				<path d="M101.5,42.2l-3.4,2v-1l2.1-1.3l-2.1-1.3v-0.9l3.4,2V42.2z"/>
				<path d="M98.1,44.6c-0.1,0-0.1,0-0.2,0c-0.1-0.1-0.2-0.2-0.2-0.3v-1c0-0.1,0.1-0.3,0.2-0.3l1.6-0.9l-1.6-1
					c-0.1-0.1-0.2-0.2-0.2-0.3v-0.9c0-0.1,0.1-0.3,0.2-0.3c0.1-0.1,0.3-0.1,0.4,0l3.4,2c0.1,0.1,0.2,0.2,0.2,0.3v0.4
					c0,0.1-0.1,0.3-0.2,0.3l-3.4,2C98.2,44.6,98.2,44.6,98.1,44.6z M98.5,43.4v0.1l2.6-1.6l-2.6-1.6v0.1l1.9,1.2
					c0.1,0.1,0.2,0.2,0.2,0.3c0,0.1-0.1,0.3-0.2,0.3L98.5,43.4z M101.5,42.2L101.5,42.2L101.5,42.2z"/>
			</g>
			<g>
				<path d="M104,44c0-0.2,0-0.4,0.1-0.6s0.1-0.4,0.2-0.5s0.2-0.3,0.4-0.5c0.2-0.2,0.4-0.3,0.6-0.4c0.2-0.1,0.4-0.2,0.5-0.3
					c0.2-0.1,0.3-0.2,0.4-0.3c0.1-0.1,0.2-0.2,0.3-0.3c0.1-0.1,0.1-0.2,0.1-0.3c0-0.2-0.1-0.3-0.2-0.5s-0.4-0.2-0.6-0.2
					c-0.1,0-0.3,0-0.4,0.1c-0.1,0-0.2,0.1-0.3,0.2s-0.2,0.1-0.3,0.2c-0.1,0.1-0.1,0.1-0.2,0.2l-0.6-0.6c0.1-0.1,0.1-0.1,0.3-0.2
					c0.1-0.1,0.3-0.2,0.4-0.3c0.2-0.1,0.3-0.1,0.6-0.2c0.2-0.1,0.4-0.1,0.7-0.1c0.3,0,0.5,0,0.7,0.1c0.2,0.1,0.4,0.2,0.5,0.3
					c0.1,0.1,0.2,0.3,0.3,0.4c0.1,0.2,0.1,0.3,0.1,0.5c0,0.2,0,0.4-0.1,0.5c-0.1,0.2-0.2,0.3-0.3,0.4c-0.1,0.1-0.2,0.2-0.4,0.3
					s-0.3,0.2-0.4,0.2c-0.1,0.1-0.2,0.1-0.4,0.2c-0.1,0.1-0.3,0.2-0.4,0.2c-0.1,0.1-0.3,0.2-0.4,0.3c-0.1,0.1-0.2,0.2-0.2,0.4h2.6
					V44H104z"/>
				<path d="M107.7,44.4H104c-0.1,0-0.2,0-0.3-0.1s-0.1-0.2-0.1-0.3c0-0.2,0-0.5,0.1-0.7c0-0.2,0.1-0.4,0.2-0.7
					c0.1-0.2,0.3-0.4,0.5-0.6c0.2-0.2,0.4-0.3,0.7-0.5c0.2-0.1,0.4-0.2,0.5-0.3c0.2-0.1,0.3-0.2,0.4-0.2c0.1-0.1,0.2-0.1,0.2-0.2
					c0,0,0-0.1,0-0.1c0,0,0-0.1-0.1-0.2c-0.1-0.1-0.4-0.1-0.7-0.1c-0.1,0-0.2,0.1-0.2,0.1s-0.1,0.1-0.2,0.2
					c-0.1,0.1-0.1,0.1-0.2,0.2c-0.1,0.1-0.2,0.1-0.3,0.1c0,0,0,0,0,0c-0.1,0-0.2,0-0.3-0.1l-0.6-0.6c-0.1-0.1-0.1-0.4,0-0.5
					c0.1-0.1,0.2-0.2,0.3-0.3c0.1-0.1,0.3-0.2,0.5-0.3c0.2-0.1,0.4-0.2,0.6-0.2c0.5-0.1,1.1-0.1,1.6,0c0.2,0.1,0.5,0.2,0.6,0.3
					c0.2,0.2,0.3,0.3,0.4,0.6c0.1,0.2,0.1,0.4,0.1,0.7c0,0.3-0.1,0.5-0.2,0.7c-0.1,0.2-0.2,0.4-0.4,0.5c-0.1,0.1-0.3,0.3-0.5,0.4
					c-0.1,0.1-0.3,0.2-0.4,0.2l-0.4,0.2c-0.1,0.1-0.2,0.1-0.3,0.2h1.8c0.2,0,0.4,0.2,0.4,0.4V44C108.1,44.2,107.9,44.4,107.7,44.4z
					 M104.4,43.7l2.9,0h-2.3c-0.1,0-0.2-0.1-0.3-0.2c-0.1-0.1-0.1-0.2-0.1-0.3c0.1-0.2,0.2-0.4,0.3-0.5c0.1-0.1,0.2-0.2,0.3-0.3
					c-0.2,0.1-0.3,0.2-0.4,0.3c-0.1,0.1-0.2,0.3-0.3,0.4c-0.1,0.1-0.1,0.3-0.2,0.4C104.4,43.5,104.4,43.6,104.4,43.7z M105.8,39.8
					c0.4,0,0.7,0.1,0.9,0.3c0.2,0.2,0.3,0.5,0.3,0.7c0,0.2-0.1,0.4-0.2,0.6c-0.1,0.1-0.2,0.2-0.3,0.3c0,0,0,0,0.1,0
					c0.1-0.1,0.2-0.1,0.3-0.2c0.1-0.1,0.2-0.2,0.2-0.3c0.1-0.1,0.1-0.2,0.1-0.4c0-0.1,0-0.3-0.1-0.4c-0.1-0.1-0.1-0.2-0.2-0.3
					c-0.1-0.1-0.2-0.2-0.4-0.2c-0.3-0.1-0.8-0.1-1.2,0c-0.2,0-0.3,0.1-0.5,0.2c-0.1,0.1-0.2,0.1-0.3,0.2l0,0.1
					c0.1-0.1,0.2-0.1,0.2-0.2c0.1-0.1,0.3-0.1,0.4-0.2C105.5,39.8,105.6,39.8,105.8,39.8z"/>
			</g>
			<g>
				<path d="M111,42.1c0.2,0,0.3,0.1,0.5,0.2s0.3,0.2,0.4,0.3c0.1,0.1,0.2,0.3,0.2,0.4c0.1,0.2,0.1,0.3,0.1,0.5c0,0.3,0,0.5-0.1,0.7
					c-0.1,0.2-0.2,0.4-0.4,0.5c-0.2,0.1-0.4,0.3-0.6,0.3c-0.2,0.1-0.5,0.1-0.8,0.1c-0.4,0-0.8-0.1-1.1-0.2s-0.6-0.3-0.7-0.6l0.5-0.6
					c0.1,0.2,0.3,0.4,0.5,0.5c0.2,0.1,0.5,0.2,0.8,0.2c0.4,0,0.6-0.1,0.8-0.2c0.2-0.1,0.3-0.4,0.3-0.7c0-0.3-0.1-0.6-0.3-0.7
					c-0.2-0.2-0.5-0.3-0.9-0.3h-0.2v-0.7h0.2c0.4,0,0.6-0.1,0.8-0.3c0.2-0.2,0.3-0.4,0.3-0.6s-0.1-0.4-0.3-0.6
					c-0.2-0.1-0.4-0.2-0.7-0.2c-0.3,0-0.5,0.1-0.7,0.2s-0.4,0.3-0.5,0.5l-0.6-0.6c0.1-0.1,0.2-0.2,0.3-0.3c0.1-0.1,0.3-0.2,0.4-0.3
					c0.2-0.1,0.3-0.1,0.5-0.2c0.2,0,0.4-0.1,0.6-0.1c0.3,0,0.5,0,0.7,0.1s0.4,0.2,0.6,0.3s0.3,0.3,0.4,0.4c0.1,0.2,0.1,0.4,0.1,0.6
					c0,0.2,0,0.3-0.1,0.5c0,0.1-0.1,0.3-0.2,0.4c-0.1,0.1-0.2,0.2-0.3,0.3C111.3,42.1,111.2,42.1,111,42.1z"/>
				<path d="M110.2,45.6c-0.5,0-0.9-0.1-1.2-0.2c-0.4-0.2-0.7-0.4-0.9-0.7c-0.1-0.1-0.1-0.3,0-0.5l0.5-0.6c0.1-0.1,0.2-0.1,0.3-0.1
					c0.1,0,0.2,0.1,0.3,0.2c0.1,0.1,0.2,0.3,0.4,0.3c0.3,0.2,0.9,0.2,1.2,0c0.1,0,0.1-0.1,0.1-0.4c0-0.3-0.1-0.4-0.2-0.4
					c-0.1-0.1-0.4-0.2-0.7-0.2h-0.2c-0.2,0-0.4-0.2-0.4-0.4v-0.7c0-0.2,0.2-0.4,0.4-0.4h0.2c0.3,0,0.5-0.1,0.6-0.2
					c0.1-0.1,0.2-0.2,0.2-0.4c0-0.2-0.1-0.2-0.1-0.3c-0.2-0.2-0.7-0.1-1,0c-0.1,0.1-0.3,0.2-0.4,0.4c-0.1,0.1-0.2,0.2-0.3,0.2
					c-0.1,0-0.2,0-0.3-0.1l-0.6-0.6c-0.1-0.1-0.1-0.3,0-0.4c0.1-0.2,0.2-0.3,0.4-0.5c0.2-0.1,0.3-0.2,0.5-0.3
					c0.2-0.1,0.4-0.2,0.6-0.2c0.5-0.1,1.1-0.1,1.5,0.1c0.3,0.1,0.5,0.2,0.7,0.4c0.2,0.2,0.4,0.4,0.5,0.6c0.1,0.2,0.2,0.5,0.2,0.7
					c0,0.2,0,0.4-0.1,0.6c-0.1,0.2-0.1,0.4-0.3,0.5c-0.1,0.1-0.1,0.1-0.2,0.2c0.1,0.1,0.2,0.2,0.3,0.3c0.1,0.2,0.2,0.3,0.3,0.5
					c0.1,0.2,0.1,0.4,0.1,0.6c0,0.3-0.1,0.6-0.2,0.8c-0.1,0.2-0.3,0.5-0.5,0.6c-0.2,0.2-0.5,0.3-0.8,0.4
					C110.8,45.5,110.5,45.6,110.2,45.6z M108.8,44.4c0.1,0.1,0.2,0.2,0.4,0.3c0.5,0.2,1.1,0.2,1.6,0.1c0.2-0.1,0.4-0.2,0.5-0.3
					c0.1-0.1,0.2-0.2,0.3-0.4c0.1-0.2,0.1-0.3,0.1-0.5c0-0.1,0-0.3-0.1-0.4c0-0.1-0.1-0.2-0.2-0.3c-0.1-0.1-0.1-0.2-0.2-0.2
					c0.2,0.2,0.3,0.5,0.3,0.9c0,0.5-0.2,0.8-0.4,1c-0.5,0.4-1.4,0.4-2,0.1C109.1,44.5,109,44.4,108.8,44.4L108.8,44.4z M110.4,42.2
					c0.1,0,0.2,0,0.3,0.1c0,0,0-0.1,0-0.1c0,0,0,0,0,0C110.6,42.1,110.5,42.2,110.4,42.2z M110.2,39.8c0.4,0,0.6,0.1,0.9,0.2
					c0.2,0.1,0.4,0.4,0.4,0.9c0,0.3-0.1,0.5-0.2,0.7c0,0,0,0,0,0c0.1-0.1,0.2-0.1,0.2-0.2c0.1-0.1,0.1-0.2,0.1-0.3
					c0-0.1,0.1-0.2,0.1-0.3c0-0.2,0-0.3-0.1-0.4c-0.1-0.1-0.1-0.2-0.3-0.3c-0.1-0.1-0.3-0.2-0.4-0.2c-0.3-0.1-0.7-0.1-1.1,0
					c-0.2,0-0.3,0.1-0.4,0.1c-0.1,0.1-0.3,0.1-0.4,0.2c0,0,0,0,0,0l0,0c0.1-0.1,0.2-0.2,0.3-0.3C109.5,39.9,109.8,39.8,110.2,39.8z"
					/>
			</g>
			<g>
				<path d="M117,41.7c0,0.4-0.1,0.7-0.2,1c-0.1,0.3-0.2,0.6-0.4,0.8c-0.2,0.2-0.4,0.4-0.6,0.5c-0.2,0.1-0.5,0.2-0.8,0.2
					s-0.6-0.1-0.8-0.2c-0.3-0.1-0.5-0.3-0.6-0.5c-0.2-0.2-0.3-0.5-0.4-0.8c-0.1-0.3-0.2-0.6-0.2-1c0-0.4,0.1-0.7,0.2-1
					c0.1-0.3,0.2-0.6,0.4-0.8c0.2-0.2,0.4-0.4,0.6-0.5c0.3-0.1,0.5-0.2,0.8-0.2s0.6,0.1,0.8,0.2c0.2,0.1,0.5,0.3,0.6,0.5
					s0.3,0.5,0.4,0.8C116.9,41,117,41.3,117,41.7z M116.1,41.7c0-0.2,0-0.5-0.1-0.7c-0.1-0.2-0.1-0.4-0.2-0.5
					c-0.1-0.1-0.2-0.3-0.4-0.3s-0.3-0.1-0.5-0.1c-0.2,0-0.3,0-0.5,0.1c-0.1,0.1-0.3,0.2-0.4,0.3c-0.1,0.1-0.2,0.3-0.2,0.5
					s-0.1,0.4-0.1,0.7s0,0.5,0.1,0.7c0.1,0.2,0.1,0.4,0.2,0.5c0.1,0.1,0.2,0.3,0.4,0.3c0.1,0.1,0.3,0.1,0.5,0.1c0.2,0,0.3,0,0.5-0.1
					c0.1-0.1,0.3-0.2,0.4-0.3c0.1-0.1,0.2-0.3,0.2-0.5C116.1,42.1,116.1,41.9,116.1,41.7z"/>
				<path d="M114.9,44.5c-0.3,0-0.7-0.1-1-0.2c-0.3-0.1-0.6-0.3-0.8-0.6c-0.2-0.3-0.4-0.5-0.5-0.9c-0.1-0.3-0.2-0.7-0.2-1.1
					s0.1-0.8,0.2-1.1c0.1-0.3,0.3-0.6,0.5-0.9c0.2-0.3,0.5-0.5,0.8-0.6c0.6-0.3,1.4-0.3,2,0c0.3,0.1,0.6,0.3,0.8,0.6
					c0.2,0.3,0.4,0.5,0.5,0.9c0.1,0.3,0.2,0.7,0.2,1.1s-0.1,0.8-0.2,1.1c-0.1,0.3-0.3,0.6-0.5,0.9c-0.2,0.3-0.5,0.5-0.8,0.6
					C115.6,44.4,115.3,44.5,114.9,44.5z M114.9,39.6c-0.2,0-0.5,0-0.7,0.1c-0.2,0.1-0.4,0.2-0.5,0.4c-0.2,0.2-0.3,0.4-0.4,0.7
					c-0.1,0.3-0.1,0.5-0.1,0.8c0,0.3,0,0.6,0.1,0.8c0.1,0.3,0.2,0.5,0.4,0.7c0.1,0.2,0.3,0.3,0.5,0.4c0.4,0.2,0.9,0.2,1.3,0
					c0.2-0.1,0.4-0.2,0.5-0.4c0.2-0.2,0.3-0.4,0.4-0.6c0.1-0.3,0.1-0.5,0.1-0.8c0-0.3,0-0.6-0.1-0.8c-0.1-0.3-0.2-0.5-0.4-0.6
					c-0.2-0.2-0.3-0.3-0.5-0.4C115.4,39.7,115.2,39.6,114.9,39.6z M114.9,43.7c-0.2,0-0.5-0.1-0.7-0.2c-0.2-0.1-0.4-0.3-0.5-0.4
					c-0.1-0.2-0.2-0.4-0.3-0.6c-0.1-0.2-0.1-0.5-0.1-0.8s0-0.5,0.1-0.8c0.1-0.2,0.2-0.5,0.3-0.6c0.1-0.2,0.3-0.3,0.5-0.4
					c0.4-0.2,0.9-0.2,1.3,0c0.2,0.1,0.4,0.3,0.5,0.4c0.1,0.2,0.2,0.4,0.3,0.6c0.1,0.2,0.1,0.5,0.1,0.8s0,0.5-0.1,0.8
					c-0.1,0.2-0.2,0.5-0.3,0.6c-0.1,0.2-0.3,0.3-0.5,0.4C115.4,43.6,115.2,43.7,114.9,43.7z M114.9,40.4c-0.1,0-0.2,0-0.3,0.1
					c-0.1,0.1-0.2,0.1-0.2,0.2c-0.1,0.1-0.1,0.2-0.2,0.4c0,0.2-0.1,0.4-0.1,0.6c0,0.2,0,0.4,0.1,0.6c0,0.2,0.1,0.3,0.2,0.4
					c0.1,0.1,0.2,0.2,0.2,0.2c0.2,0.1,0.4,0.1,0.6,0c0.1-0.1,0.2-0.1,0.2-0.2c0.1-0.1,0.1-0.2,0.2-0.4c0-0.2,0.1-0.3,0.1-0.6
					c0-0.2,0-0.4-0.1-0.6c0-0.2-0.1-0.3-0.2-0.4c-0.1-0.1-0.2-0.2-0.2-0.2C115.1,40.5,115,40.4,114.9,40.4z"/>
			</g>
			<g>
				<path d="M121.9,41.7c0,0.4-0.1,0.7-0.2,1c-0.1,0.3-0.2,0.6-0.4,0.8c-0.2,0.2-0.4,0.4-0.6,0.5c-0.2,0.1-0.5,0.2-0.8,0.2
					s-0.6-0.1-0.8-0.2c-0.3-0.1-0.5-0.3-0.6-0.5c-0.2-0.2-0.3-0.5-0.4-0.8c-0.1-0.3-0.2-0.6-0.2-1c0-0.4,0.1-0.7,0.2-1
					c0.1-0.3,0.2-0.6,0.4-0.8c0.2-0.2,0.4-0.4,0.6-0.5c0.3-0.1,0.5-0.2,0.8-0.2s0.6,0.1,0.8,0.2c0.2,0.1,0.5,0.3,0.6,0.5
					s0.3,0.5,0.4,0.8C121.8,41,121.9,41.3,121.9,41.7z M121,41.7c0-0.2,0-0.5-0.1-0.7c-0.1-0.2-0.1-0.4-0.2-0.5
					c-0.1-0.1-0.2-0.3-0.4-0.3s-0.3-0.1-0.5-0.1c-0.2,0-0.3,0-0.5,0.1c-0.1,0.1-0.3,0.2-0.4,0.3c-0.1,0.1-0.2,0.3-0.2,0.5
					s-0.1,0.4-0.1,0.7s0,0.5,0.1,0.7c0.1,0.2,0.1,0.4,0.2,0.5c0.1,0.1,0.2,0.3,0.4,0.3c0.1,0.1,0.3,0.1,0.5,0.1c0.2,0,0.3,0,0.5-0.1
					c0.1-0.1,0.3-0.2,0.4-0.3c0.1-0.1,0.2-0.3,0.2-0.5C121,42.1,121,41.9,121,41.7z"/>
				<path d="M119.8,44.5c-0.3,0-0.7-0.1-1-0.2c-0.3-0.1-0.6-0.3-0.8-0.6c-0.2-0.3-0.4-0.5-0.5-0.9c-0.1-0.3-0.2-0.7-0.2-1.1
					s0.1-0.8,0.2-1.1c0.1-0.3,0.3-0.6,0.5-0.9c0.2-0.3,0.5-0.5,0.8-0.6c0.6-0.3,1.4-0.3,2,0c0.3,0.1,0.6,0.3,0.8,0.6
					c0.2,0.3,0.4,0.5,0.5,0.9c0.1,0.3,0.2,0.7,0.2,1.1s-0.1,0.8-0.2,1.1c-0.1,0.3-0.3,0.6-0.5,0.9c-0.2,0.3-0.5,0.5-0.8,0.6
					C120.5,44.4,120.2,44.5,119.8,44.5z M119.8,39.6c-0.2,0-0.5,0-0.7,0.1c-0.2,0.1-0.4,0.2-0.5,0.4c-0.2,0.2-0.3,0.4-0.4,0.7
					c-0.1,0.3-0.1,0.5-0.1,0.8c0,0.3,0,0.6,0.1,0.8c0.1,0.3,0.2,0.5,0.4,0.7c0.1,0.2,0.3,0.3,0.5,0.4c0.4,0.2,0.9,0.2,1.3,0
					c0.2-0.1,0.4-0.2,0.5-0.4c0.2-0.2,0.3-0.4,0.4-0.6c0.1-0.3,0.1-0.5,0.1-0.8c0-0.3,0-0.6-0.1-0.8c-0.1-0.3-0.2-0.5-0.4-0.6
					c-0.2-0.2-0.3-0.3-0.5-0.4C120.3,39.7,120.1,39.6,119.8,39.6z M119.8,43.7c-0.2,0-0.5-0.1-0.7-0.2c-0.2-0.1-0.4-0.3-0.5-0.4
					c-0.1-0.2-0.2-0.4-0.3-0.6c-0.1-0.2-0.1-0.5-0.1-0.8s0-0.5,0.1-0.8c0.1-0.2,0.2-0.5,0.3-0.6c0.1-0.2,0.3-0.3,0.5-0.4
					c0.4-0.2,0.9-0.2,1.3,0c0.2,0.1,0.4,0.3,0.5,0.4c0.1,0.2,0.2,0.4,0.3,0.6c0.1,0.2,0.1,0.5,0.1,0.8s0,0.5-0.1,0.8
					c-0.1,0.2-0.2,0.5-0.3,0.6c-0.1,0.2-0.3,0.3-0.5,0.4C120.3,43.6,120.1,43.7,119.8,43.7z M119.8,40.4c-0.1,0-0.2,0-0.3,0.1
					c-0.1,0.1-0.2,0.1-0.2,0.2c-0.1,0.1-0.1,0.2-0.2,0.4c0,0.2-0.1,0.4-0.1,0.6c0,0.2,0,0.4,0.1,0.6c0,0.2,0.1,0.3,0.2,0.4
					c0.1,0.1,0.2,0.2,0.2,0.2c0.2,0.1,0.4,0.1,0.6,0c0.1-0.1,0.2-0.1,0.2-0.2c0.1-0.1,0.1-0.2,0.2-0.4c0-0.2,0.1-0.3,0.1-0.6
					c0-0.2,0-0.4-0.1-0.6c0-0.2-0.1-0.3-0.2-0.4c-0.1-0.1-0.2-0.2-0.2-0.2C120,40.5,119.9,40.4,119.8,40.4z"/>
			</g>
		</g>
	</g>
	<g>
		<g>
			<path style="fill:#FFFFFF;" d="M3.1,41.8l3.4-2v0.9L4.3,42l2.1,1.3v1l-3.4-2V41.8z"/>
			<path style="fill:#FFFFFF;" d="M12.4,43.2V44H9.4v-0.8h1.1v-2.8c0,0.1-0.1,0.1-0.2,0.2c-0.1,0.1-0.2,0.1-0.3,0.2
				c-0.1,0.1-0.3,0.1-0.4,0.1S9.3,41,9.2,41v-0.8c0.1,0,0.2,0,0.4-0.1c0.1-0.1,0.3-0.1,0.4-0.2c0.1-0.1,0.2-0.2,0.3-0.3
				c0.1-0.1,0.2-0.1,0.2-0.2h0.9v3.8H12.4z"/>
			<path style="fill:#FFFFFF;" d="M17.1,42.1c0,0.3-0.1,0.5-0.2,0.8s-0.2,0.4-0.4,0.6c-0.2,0.2-0.4,0.3-0.7,0.4
				c-0.3,0.1-0.5,0.2-0.8,0.2c-0.3,0-0.6-0.1-0.9-0.2c-0.3-0.1-0.5-0.3-0.7-0.5c-0.2-0.2-0.3-0.5-0.4-0.8C13.1,42.3,13,42,13,41.6
				c0-0.5,0.1-1,0.2-1.4s0.2-0.7,0.4-1c0.2-0.3,0.4-0.5,0.7-0.6c0.3-0.1,0.6-0.2,0.9-0.2c0.4,0,0.7,0.1,1,0.2
				c0.3,0.2,0.5,0.4,0.7,0.7l-0.5,0.5c-0.1-0.2-0.3-0.4-0.5-0.5c-0.2-0.1-0.5-0.2-0.7-0.2c-0.4,0-0.7,0.2-1,0.5
				c-0.2,0.3-0.4,0.8-0.4,1.4c0.1-0.2,0.3-0.4,0.5-0.6c0.2-0.1,0.5-0.2,0.8-0.2c0.3,0,0.5,0,0.8,0.1c0.2,0.1,0.4,0.2,0.6,0.4
				c0.2,0.2,0.3,0.4,0.4,0.6C17.1,41.6,17.1,41.9,17.1,42.1z M15.1,43.4c0.2,0,0.3,0,0.5-0.1c0.1-0.1,0.3-0.2,0.4-0.3
				c0.1-0.1,0.2-0.2,0.3-0.4s0.1-0.3,0.1-0.5c0-0.2,0-0.3-0.1-0.5c-0.1-0.1-0.2-0.3-0.3-0.4c-0.1-0.1-0.2-0.2-0.4-0.3
				c-0.1-0.1-0.3-0.1-0.5-0.1c-0.2,0-0.3,0-0.5,0.1c-0.1,0.1-0.3,0.2-0.4,0.3c-0.1,0.1-0.2,0.2-0.3,0.4c-0.1,0.1-0.1,0.3-0.1,0.5
				c0,0.2,0,0.3,0.1,0.5s0.2,0.3,0.3,0.4c0.1,0.1,0.2,0.2,0.4,0.3C14.8,43.3,14.9,43.4,15.1,43.4z"/>
			<path style="fill:#FFFFFF;" d="M22,41.7c0,0.4-0.1,0.7-0.2,1s-0.2,0.6-0.4,0.8c-0.2,0.2-0.4,0.4-0.6,0.5
				c-0.2,0.1-0.5,0.2-0.8,0.2c-0.3,0-0.6-0.1-0.8-0.2c-0.3-0.1-0.5-0.3-0.6-0.5c-0.2-0.2-0.3-0.5-0.4-0.8s-0.2-0.6-0.2-1
				c0-0.4,0.1-0.7,0.2-1c0.1-0.3,0.2-0.6,0.4-0.8c0.2-0.2,0.4-0.4,0.6-0.5c0.3-0.1,0.5-0.2,0.8-0.2c0.3,0,0.6,0.1,0.8,0.2
				c0.2,0.1,0.5,0.3,0.6,0.5s0.3,0.5,0.4,0.8C21.9,41,22,41.3,22,41.7z M21.1,41.7c0-0.2,0-0.5-0.1-0.7s-0.1-0.4-0.2-0.5
				c-0.1-0.1-0.2-0.3-0.4-0.3c-0.1-0.1-0.3-0.1-0.5-0.1c-0.2,0-0.3,0-0.5,0.1s-0.3,0.2-0.4,0.3c-0.1,0.1-0.2,0.3-0.2,0.5
				s-0.1,0.4-0.1,0.7s0,0.5,0.1,0.7c0.1,0.2,0.1,0.4,0.2,0.5c0.1,0.1,0.2,0.3,0.4,0.3c0.1,0.1,0.3,0.1,0.5,0.1c0.2,0,0.3,0,0.5-0.1
				c0.1-0.1,0.3-0.2,0.4-0.3c0.1-0.1,0.2-0.3,0.2-0.5C21.1,42.1,21.1,41.9,21.1,41.7z"/>
			<path style="fill:#FFFFFF;" d="M26.9,41.7c0,0.4-0.1,0.7-0.2,1s-0.2,0.6-0.4,0.8c-0.2,0.2-0.4,0.4-0.6,0.5
				c-0.2,0.1-0.5,0.2-0.8,0.2c-0.3,0-0.6-0.1-0.8-0.2c-0.3-0.1-0.5-0.3-0.6-0.5c-0.2-0.2-0.3-0.5-0.4-0.8s-0.2-0.6-0.2-1
				c0-0.4,0.1-0.7,0.2-1c0.1-0.3,0.2-0.6,0.4-0.8c0.2-0.2,0.4-0.4,0.6-0.5c0.3-0.1,0.5-0.2,0.8-0.2c0.3,0,0.6,0.1,0.8,0.2
				c0.2,0.1,0.5,0.3,0.6,0.5s0.3,0.5,0.4,0.8C26.9,41,26.9,41.3,26.9,41.7z M26,41.7c0-0.2,0-0.5-0.1-0.7s-0.1-0.4-0.2-0.5
				c-0.1-0.1-0.2-0.3-0.4-0.3c-0.1-0.1-0.3-0.1-0.5-0.1c-0.2,0-0.3,0-0.5,0.1s-0.3,0.2-0.4,0.3c-0.1,0.1-0.2,0.3-0.2,0.5
				s-0.1,0.4-0.1,0.7s0,0.5,0.1,0.7c0.1,0.2,0.1,0.4,0.2,0.5c0.1,0.1,0.2,0.3,0.4,0.3c0.1,0.1,0.3,0.1,0.5,0.1c0.2,0,0.3,0,0.5-0.1
				c0.1-0.1,0.3-0.2,0.4-0.3c0.1-0.1,0.2-0.3,0.2-0.5C26,42.1,26,41.9,26,41.7z"/>
		</g>
		<g>
			<path style="fill:#FFFFFF;" d="M41.1,43.2V44H38v-0.8h1.1v-2.8c0,0.1-0.1,0.1-0.2,0.2c-0.1,0.1-0.2,0.1-0.3,0.2
				c-0.1,0.1-0.3,0.1-0.4,0.1S38,41,37.9,41v-0.8c0.1,0,0.2,0,0.4-0.1c0.1-0.1,0.3-0.1,0.4-0.2c0.1-0.1,0.2-0.2,0.3-0.3
				c0.1-0.1,0.2-0.1,0.2-0.2h0.9v3.8H41.1z"/>
			<path style="fill:#FFFFFF;" d="M45.7,42.4c0,0.3-0.1,0.5-0.2,0.7c-0.1,0.2-0.3,0.4-0.4,0.5c-0.2,0.1-0.4,0.3-0.6,0.3
				c-0.2,0.1-0.5,0.1-0.8,0.1c-0.3,0-0.5,0-0.8-0.1s-0.5-0.2-0.6-0.4c-0.2-0.2-0.3-0.3-0.4-0.6c-0.1-0.2-0.2-0.4-0.2-0.7
				c0-0.2,0-0.3,0.1-0.5c0.1-0.1,0.1-0.3,0.2-0.4c0.1-0.1,0.2-0.2,0.3-0.3s0.2-0.2,0.4-0.2c-0.2-0.1-0.4-0.2-0.6-0.4
				c-0.2-0.2-0.2-0.4-0.2-0.7c0-0.2,0.1-0.5,0.2-0.7s0.3-0.3,0.4-0.5c0.2-0.1,0.4-0.2,0.6-0.3s0.4-0.1,0.6-0.1s0.4,0,0.7,0.1
				c0.2,0.1,0.4,0.2,0.6,0.3s0.3,0.3,0.4,0.5c0.1,0.2,0.2,0.4,0.2,0.7c0,0.3-0.1,0.5-0.2,0.7c-0.2,0.2-0.3,0.3-0.6,0.4
				c0.1,0.1,0.3,0.1,0.4,0.2c0.1,0.1,0.2,0.2,0.3,0.3c0.1,0.1,0.2,0.3,0.2,0.4C45.7,42.1,45.7,42.2,45.7,42.4z M44.8,42.3
				c0-0.2,0-0.3-0.1-0.4c-0.1-0.1-0.2-0.2-0.3-0.3c-0.1-0.1-0.2-0.1-0.4-0.2c-0.1,0-0.3-0.1-0.4-0.1c-0.1,0-0.3,0-0.4,0.1
				c-0.1,0-0.3,0.1-0.4,0.2c-0.1,0.1-0.2,0.2-0.3,0.3c-0.1,0.1-0.1,0.3-0.1,0.4s0,0.3,0.1,0.4c0.1,0.1,0.2,0.2,0.3,0.3
				c0.1,0.1,0.2,0.1,0.4,0.2c0.1,0,0.3,0.1,0.4,0.1c0.1,0,0.3,0,0.4-0.1c0.1,0,0.3-0.1,0.4-0.2c0.1-0.1,0.2-0.2,0.3-0.3
				C44.8,42.6,44.8,42.5,44.8,42.3z M42.7,39.9c0,0.1,0,0.2,0.1,0.3c0.1,0.1,0.1,0.2,0.2,0.2c0.1,0.1,0.2,0.1,0.3,0.1
				c0.1,0,0.2,0.1,0.3,0.1c0.1,0,0.2,0,0.3-0.1c0.1,0,0.2-0.1,0.3-0.2s0.2-0.1,0.2-0.2s0.1-0.2,0.1-0.3c0-0.1,0-0.2-0.1-0.3
				c-0.1-0.1-0.1-0.2-0.2-0.2c-0.1-0.1-0.2-0.1-0.3-0.2c-0.1,0-0.2-0.1-0.4-0.1s-0.2,0-0.4,0.1c-0.1,0-0.2,0.1-0.3,0.2
				c-0.1,0.1-0.2,0.1-0.2,0.2C42.7,39.7,42.7,39.8,42.7,39.9z"/>
			<path style="fill:#FFFFFF;" d="M50.6,41.7c0,0.4-0.1,0.7-0.2,1s-0.2,0.6-0.4,0.8c-0.2,0.2-0.4,0.4-0.6,0.5
				c-0.2,0.1-0.5,0.2-0.8,0.2c-0.3,0-0.6-0.1-0.8-0.2c-0.3-0.1-0.5-0.3-0.6-0.5c-0.2-0.2-0.3-0.5-0.4-0.8s-0.2-0.6-0.2-1
				c0-0.4,0.1-0.7,0.2-1c0.1-0.3,0.2-0.6,0.4-0.8c0.2-0.2,0.4-0.4,0.6-0.5c0.3-0.1,0.5-0.2,0.8-0.2c0.3,0,0.6,0.1,0.8,0.2
				c0.2,0.1,0.5,0.3,0.6,0.5s0.3,0.5,0.4,0.8C50.5,41,50.6,41.3,50.6,41.7z M49.7,41.7c0-0.2,0-0.5-0.1-0.7s-0.1-0.4-0.2-0.5
				c-0.1-0.1-0.2-0.3-0.4-0.3c-0.1-0.1-0.3-0.1-0.5-0.1c-0.2,0-0.3,0-0.5,0.1s-0.3,0.2-0.4,0.3c-0.1,0.1-0.2,0.3-0.2,0.5
				s-0.1,0.4-0.1,0.7s0,0.5,0.1,0.7c0.1,0.2,0.1,0.4,0.2,0.5c0.1,0.1,0.2,0.3,0.4,0.3c0.1,0.1,0.3,0.1,0.5,0.1c0.2,0,0.3,0,0.5-0.1
				c0.1-0.1,0.3-0.2,0.4-0.3c0.1-0.1,0.2-0.3,0.2-0.5C49.6,42.1,49.7,41.9,49.7,41.7z"/>
			<path style="fill:#FFFFFF;" d="M55.5,41.7c0,0.4-0.1,0.7-0.2,1s-0.2,0.6-0.4,0.8c-0.2,0.2-0.4,0.4-0.6,0.5
				c-0.2,0.1-0.5,0.2-0.8,0.2c-0.3,0-0.6-0.1-0.8-0.2c-0.3-0.1-0.5-0.3-0.6-0.5c-0.2-0.2-0.3-0.5-0.4-0.8s-0.2-0.6-0.2-1
				c0-0.4,0.1-0.7,0.2-1c0.1-0.3,0.2-0.6,0.4-0.8c0.2-0.2,0.4-0.4,0.6-0.5c0.3-0.1,0.5-0.2,0.8-0.2c0.3,0,0.6,0.1,0.8,0.2
				c0.2,0.1,0.5,0.3,0.6,0.5s0.3,0.5,0.4,0.8C55.4,41,55.5,41.3,55.5,41.7z M54.6,41.7c0-0.2,0-0.5-0.1-0.7s-0.1-0.4-0.2-0.5
				c-0.1-0.1-0.2-0.3-0.4-0.3c-0.1-0.1-0.3-0.1-0.5-0.1c-0.2,0-0.3,0-0.5,0.1s-0.3,0.2-0.4,0.3c-0.1,0.1-0.2,0.3-0.2,0.5
				s-0.1,0.4-0.1,0.7s0,0.5,0.1,0.7c0.1,0.2,0.1,0.4,0.2,0.5c0.1,0.1,0.2,0.3,0.4,0.3c0.1,0.1,0.3,0.1,0.5,0.1c0.2,0,0.3,0,0.5-0.1
				c0.1-0.1,0.3-0.2,0.4-0.3c0.1-0.1,0.2-0.3,0.2-0.5C54.6,42.1,54.6,41.9,54.6,41.7z"/>
		</g>
		<g>
			<path style="fill:#FFFFFF;" d="M69.1,44c0-0.2,0-0.4,0.1-0.6s0.1-0.4,0.2-0.5s0.2-0.3,0.4-0.5c0.2-0.2,0.4-0.3,0.6-0.4
				c0.2-0.1,0.4-0.2,0.5-0.3c0.2-0.1,0.3-0.2,0.4-0.3c0.1-0.1,0.2-0.2,0.3-0.3c0.1-0.1,0.1-0.2,0.1-0.3c0-0.2-0.1-0.3-0.2-0.5
				c-0.1-0.1-0.4-0.2-0.6-0.2c-0.1,0-0.3,0-0.4,0.1c-0.1,0-0.2,0.1-0.3,0.2s-0.2,0.1-0.3,0.2c-0.1,0.1-0.1,0.1-0.2,0.2l-0.6-0.6
				c0.1-0.1,0.1-0.1,0.3-0.2c0.1-0.1,0.3-0.2,0.4-0.3c0.2-0.1,0.3-0.1,0.6-0.2c0.2-0.1,0.4-0.1,0.7-0.1c0.3,0,0.5,0,0.7,0.1
				c0.2,0.1,0.4,0.2,0.5,0.3c0.1,0.1,0.2,0.3,0.3,0.4c0.1,0.2,0.1,0.3,0.1,0.5c0,0.2,0,0.4-0.1,0.5c-0.1,0.2-0.2,0.3-0.3,0.4
				s-0.2,0.2-0.4,0.3c-0.1,0.1-0.3,0.2-0.4,0.2c-0.1,0.1-0.2,0.1-0.4,0.2c-0.1,0.1-0.3,0.2-0.4,0.2c-0.1,0.1-0.3,0.2-0.4,0.3
				c-0.1,0.1-0.2,0.2-0.2,0.4h2.6V44H69.1z"/>
			<path style="fill:#FFFFFF;" d="M77.7,41.7c0,0.4-0.1,0.7-0.2,1c-0.1,0.3-0.2,0.6-0.4,0.8c-0.2,0.2-0.4,0.4-0.6,0.5
				c-0.2,0.1-0.5,0.2-0.8,0.2c-0.3,0-0.6-0.1-0.8-0.2c-0.3-0.1-0.5-0.3-0.6-0.5c-0.2-0.2-0.3-0.5-0.4-0.8c-0.1-0.3-0.2-0.6-0.2-1
				c0-0.4,0.1-0.7,0.2-1c0.1-0.3,0.2-0.6,0.4-0.8c0.2-0.2,0.4-0.4,0.6-0.5c0.3-0.1,0.5-0.2,0.8-0.2c0.3,0,0.6,0.1,0.8,0.2
				c0.2,0.1,0.5,0.3,0.6,0.5c0.2,0.2,0.3,0.5,0.4,0.8C77.6,41,77.7,41.3,77.7,41.7z M76.8,41.7c0-0.2,0-0.5-0.1-0.7
				c-0.1-0.2-0.1-0.4-0.2-0.5c-0.1-0.1-0.2-0.3-0.4-0.3c-0.1-0.1-0.3-0.1-0.5-0.1c-0.2,0-0.3,0-0.5,0.1c-0.1,0.1-0.3,0.2-0.4,0.3
				c-0.1,0.1-0.2,0.3-0.2,0.5c-0.1,0.2-0.1,0.4-0.1,0.7s0,0.5,0.1,0.7c0.1,0.2,0.1,0.4,0.2,0.5c0.1,0.1,0.2,0.3,0.4,0.3
				c0.1,0.1,0.3,0.1,0.5,0.1c0.2,0,0.3,0,0.5-0.1c0.1-0.1,0.3-0.2,0.4-0.3c0.1-0.1,0.2-0.3,0.2-0.5C76.7,42.1,76.8,41.9,76.8,41.7z"
				/>
			<path style="fill:#FFFFFF;" d="M82.6,41.7c0,0.4-0.1,0.7-0.2,1c-0.1,0.3-0.2,0.6-0.4,0.8c-0.2,0.2-0.4,0.4-0.6,0.5
				c-0.2,0.1-0.5,0.2-0.8,0.2c-0.3,0-0.6-0.1-0.8-0.2c-0.3-0.1-0.5-0.3-0.6-0.5c-0.2-0.2-0.3-0.5-0.4-0.8c-0.1-0.3-0.2-0.6-0.2-1
				c0-0.4,0.1-0.7,0.2-1c0.1-0.3,0.2-0.6,0.4-0.8c0.2-0.2,0.4-0.4,0.6-0.5c0.3-0.1,0.5-0.2,0.8-0.2c0.3,0,0.6,0.1,0.8,0.2
				c0.2,0.1,0.5,0.3,0.6,0.5c0.2,0.2,0.3,0.5,0.4,0.8C82.5,41,82.6,41.3,82.6,41.7z M81.7,41.7c0-0.2,0-0.5-0.1-0.7
				c-0.1-0.2-0.1-0.4-0.2-0.5c-0.1-0.1-0.2-0.3-0.4-0.3c-0.1-0.1-0.3-0.1-0.5-0.1c-0.2,0-0.3,0-0.5,0.1c-0.1,0.1-0.3,0.2-0.4,0.3
				c-0.1,0.1-0.2,0.3-0.2,0.5c-0.1,0.2-0.1,0.4-0.1,0.7s0,0.5,0.1,0.7c0.1,0.2,0.1,0.4,0.2,0.5c0.1,0.1,0.2,0.3,0.4,0.3
				c0.1,0.1,0.3,0.1,0.5,0.1c0.2,0,0.3,0,0.5-0.1c0.1-0.1,0.3-0.2,0.4-0.3c0.1-0.1,0.2-0.3,0.2-0.5C81.6,42.1,81.7,41.9,81.7,41.7z"
				/>
			<path style="fill:#FFFFFF;" d="M87.5,41.7c0,0.4-0.1,0.7-0.2,1c-0.1,0.3-0.2,0.6-0.4,0.8c-0.2,0.2-0.4,0.4-0.6,0.5
				c-0.2,0.1-0.5,0.2-0.8,0.2s-0.6-0.1-0.8-0.2c-0.3-0.1-0.5-0.3-0.6-0.5c-0.2-0.2-0.3-0.5-0.4-0.8c-0.1-0.3-0.2-0.6-0.2-1
				c0-0.4,0.1-0.7,0.2-1c0.1-0.3,0.2-0.6,0.4-0.8s0.4-0.4,0.6-0.5c0.3-0.1,0.5-0.2,0.8-0.2s0.6,0.1,0.8,0.2c0.2,0.1,0.5,0.3,0.6,0.5
				c0.2,0.2,0.3,0.5,0.4,0.8C87.4,41,87.5,41.3,87.5,41.7z M86.6,41.7c0-0.2,0-0.5-0.1-0.7c-0.1-0.2-0.1-0.4-0.2-0.5
				c-0.1-0.1-0.2-0.3-0.4-0.3s-0.3-0.1-0.5-0.1c-0.2,0-0.3,0-0.5,0.1c-0.1,0.1-0.3,0.2-0.4,0.3c-0.1,0.1-0.2,0.3-0.2,0.5
				c-0.1,0.2-0.1,0.4-0.1,0.7s0,0.5,0.1,0.7c0.1,0.2,0.1,0.4,0.2,0.5c0.1,0.1,0.2,0.3,0.4,0.3c0.1,0.1,0.3,0.1,0.5,0.1
				c0.2,0,0.3,0,0.5-0.1c0.1-0.1,0.3-0.2,0.4-0.3c0.1-0.1,0.2-0.3,0.2-0.5C86.6,42.1,86.6,41.9,86.6,41.7z"/>
		</g>
		<g>
			<path style="fill:#FFFFFF;" d="M101.5,42.2l-3.4,2v-1l2.1-1.3l-2.1-1.3v-0.9l3.4,2V42.2z"/>
			<path style="fill:#FFFFFF;" d="M104,44c0-0.2,0-0.4,0.1-0.6s0.1-0.4,0.2-0.5s0.2-0.3,0.4-0.5c0.2-0.2,0.4-0.3,0.6-0.4
				c0.2-0.1,0.4-0.2,0.5-0.3c0.2-0.1,0.3-0.2,0.4-0.3c0.1-0.1,0.2-0.2,0.3-0.3c0.1-0.1,0.1-0.2,0.1-0.3c0-0.2-0.1-0.3-0.2-0.5
				s-0.4-0.2-0.6-0.2c-0.1,0-0.3,0-0.4,0.1c-0.1,0-0.2,0.1-0.3,0.2s-0.2,0.1-0.3,0.2c-0.1,0.1-0.1,0.1-0.2,0.2l-0.6-0.6
				c0.1-0.1,0.1-0.1,0.3-0.2c0.1-0.1,0.3-0.2,0.4-0.3c0.2-0.1,0.3-0.1,0.6-0.2c0.2-0.1,0.4-0.1,0.7-0.1c0.3,0,0.5,0,0.7,0.1
				c0.2,0.1,0.4,0.2,0.5,0.3c0.1,0.1,0.2,0.3,0.3,0.4c0.1,0.2,0.1,0.3,0.1,0.5c0,0.2,0,0.4-0.1,0.5c-0.1,0.2-0.2,0.3-0.3,0.4
				c-0.1,0.1-0.2,0.2-0.4,0.3s-0.3,0.2-0.4,0.2c-0.1,0.1-0.2,0.1-0.4,0.2c-0.1,0.1-0.3,0.2-0.4,0.2c-0.1,0.1-0.3,0.2-0.4,0.3
				c-0.1,0.1-0.2,0.2-0.2,0.4h2.6V44H104z"/>
			<path style="fill:#FFFFFF;" d="M111,42.1c0.2,0,0.3,0.1,0.5,0.2s0.3,0.2,0.4,0.3c0.1,0.1,0.2,0.3,0.2,0.4
				c0.1,0.2,0.1,0.3,0.1,0.5c0,0.3,0,0.5-0.1,0.7c-0.1,0.2-0.2,0.4-0.4,0.5c-0.2,0.1-0.4,0.3-0.6,0.3c-0.2,0.1-0.5,0.1-0.8,0.1
				c-0.4,0-0.8-0.1-1.1-0.2s-0.6-0.3-0.7-0.6l0.5-0.6c0.1,0.2,0.3,0.4,0.5,0.5c0.2,0.1,0.5,0.2,0.8,0.2c0.4,0,0.6-0.1,0.8-0.2
				c0.2-0.1,0.3-0.4,0.3-0.7c0-0.3-0.1-0.6-0.3-0.7c-0.2-0.2-0.5-0.3-0.9-0.3h-0.2v-0.7h0.2c0.4,0,0.6-0.1,0.8-0.3
				c0.2-0.2,0.3-0.4,0.3-0.6s-0.1-0.4-0.3-0.6c-0.2-0.1-0.4-0.2-0.7-0.2c-0.3,0-0.5,0.1-0.7,0.2s-0.4,0.3-0.5,0.5l-0.6-0.6
				c0.1-0.1,0.2-0.2,0.3-0.3c0.1-0.1,0.3-0.2,0.4-0.3c0.2-0.1,0.3-0.1,0.5-0.2c0.2,0,0.4-0.1,0.6-0.1c0.3,0,0.5,0,0.7,0.1
				s0.4,0.2,0.6,0.3s0.3,0.3,0.4,0.4c0.1,0.2,0.1,0.4,0.1,0.6c0,0.2,0,0.3-0.1,0.5c0,0.1-0.1,0.3-0.2,0.4c-0.1,0.1-0.2,0.2-0.3,0.3
				C111.3,42.1,111.2,42.1,111,42.1z"/>
			<path style="fill:#FFFFFF;" d="M117,41.7c0,0.4-0.1,0.7-0.2,1c-0.1,0.3-0.2,0.6-0.4,0.8c-0.2,0.2-0.4,0.4-0.6,0.5
				c-0.2,0.1-0.5,0.2-0.8,0.2s-0.6-0.1-0.8-0.2c-0.3-0.1-0.5-0.3-0.6-0.5c-0.2-0.2-0.3-0.5-0.4-0.8c-0.1-0.3-0.2-0.6-0.2-1
				c0-0.4,0.1-0.7,0.2-1c0.1-0.3,0.2-0.6,0.4-0.8c0.2-0.2,0.4-0.4,0.6-0.5c0.3-0.1,0.5-0.2,0.8-0.2s0.6,0.1,0.8,0.2
				c0.2,0.1,0.5,0.3,0.6,0.5s0.3,0.5,0.4,0.8C116.9,41,117,41.3,117,41.7z M116.1,41.7c0-0.2,0-0.5-0.1-0.7
				c-0.1-0.2-0.1-0.4-0.2-0.5c-0.1-0.1-0.2-0.3-0.4-0.3s-0.3-0.1-0.5-0.1c-0.2,0-0.3,0-0.5,0.1c-0.1,0.1-0.3,0.2-0.4,0.3
				c-0.1,0.1-0.2,0.3-0.2,0.5s-0.1,0.4-0.1,0.7s0,0.5,0.1,0.7c0.1,0.2,0.1,0.4,0.2,0.5c0.1,0.1,0.2,0.3,0.4,0.3
				c0.1,0.1,0.3,0.1,0.5,0.1c0.2,0,0.3,0,0.5-0.1c0.1-0.1,0.3-0.2,0.4-0.3c0.1-0.1,0.2-0.3,0.2-0.5
				C116.1,42.1,116.1,41.9,116.1,41.7z"/>
			<path style="fill:#FFFFFF;" d="M121.9,41.7c0,0.4-0.1,0.7-0.2,1c-0.1,0.3-0.2,0.6-0.4,0.8c-0.2,0.2-0.4,0.4-0.6,0.5
				c-0.2,0.1-0.5,0.2-0.8,0.2s-0.6-0.1-0.8-0.2c-0.3-0.1-0.5-0.3-0.6-0.5c-0.2-0.2-0.3-0.5-0.4-0.8c-0.1-0.3-0.2-0.6-0.2-1
				c0-0.4,0.1-0.7,0.2-1c0.1-0.3,0.2-0.6,0.4-0.8c0.2-0.2,0.4-0.4,0.6-0.5c0.3-0.1,0.5-0.2,0.8-0.2s0.6,0.1,0.8,0.2
				c0.2,0.1,0.5,0.3,0.6,0.5s0.3,0.5,0.4,0.8C121.8,41,121.9,41.3,121.9,41.7z M121,41.7c0-0.2,0-0.5-0.1-0.7
				c-0.1-0.2-0.1-0.4-0.2-0.5c-0.1-0.1-0.2-0.3-0.4-0.3s-0.3-0.1-0.5-0.1c-0.2,0-0.3,0-0.5,0.1c-0.1,0.1-0.3,0.2-0.4,0.3
				c-0.1,0.1-0.2,0.3-0.2,0.5s-0.1,0.4-0.1,0.7s0,0.5,0.1,0.7c0.1,0.2,0.1,0.4,0.2,0.5c0.1,0.1,0.2,0.3,0.4,0.3
				c0.1,0.1,0.3,0.1,0.5,0.1c0.2,0,0.3,0,0.5-0.1c0.1-0.1,0.3-0.2,0.4-0.3c0.1-0.1,0.2-0.3,0.2-0.5C121,42.1,121,41.9,121,41.7z"/>
		</g>
	</g>
</g>
<g>
	<path d="M60.1,4.2C60,4.1,59.9,4,59.7,4h-1c-0.1,0-0.2,0.1-0.3,0.2l-3.9,5.7c0,0,0,0.1,0,0.1V7.5c0-0.3,0-0.5-0.1-0.7
		c0-0.3-0.1-0.5-0.3-0.7c-0.1-0.2-0.3-0.4-0.5-0.5c-0.5-0.3-1.3-0.2-1.9,0.1c0,0-0.1,0-0.1,0.1V4.2c0-0.2-0.2-0.4-0.4-0.4h-0.9
		c-0.2,0-0.3,0.1-0.3,0.2C50,4,49.9,4,49.8,4h-1c-0.2,0-0.3,0.1-0.4,0.2L47.1,8l-0.4-1.1l0.9-2.4c0-0.1,0-0.2,0-0.3
		C47.4,4.1,47.3,4,47.2,4h-0.8c-0.2,0-0.3,0.1-0.4,0.2l-0.3,1l-0.3-1C45.2,4.1,45.1,4,45,4h-0.8c-0.1,0-0.2,0.1-0.3,0.2
		c-0.1,0.1-0.1,0.2,0,0.3l0.9,2.4L44.2,8l-1.4-3.8C42.7,4.1,42.6,4,42.5,4h-1c-0.1,0-0.2,0.1-0.3,0.2c-0.1,0.1-0.1,0.2,0,0.4l0.4,1
		c0,0-0.1,0-0.1,0h-1c-0.1,0-0.2,0-0.3,0.1L39,7V4.2c0-0.2-0.2-0.4-0.4-0.4h-0.9c-0.2,0-0.4,0.2-0.4,0.4v5.8c0,0.2,0.2,0.4,0.4,0.4
		h0.9c0.2,0,0.4-0.2,0.4-0.4V9l0.3-0.2l1.1,1.6c0.1,0.1,0.2,0.2,0.3,0.2h0.9c0.1,0,0.3-0.1,0.3-0.2s0.1-0.3,0-0.4l-1.5-2.2l1.4-1.5
		c0,0,0,0,0-0.1l1.7,4.1c0.1,0.1,0.2,0.2,0.3,0.2h0.8c0.2,0,0.3-0.1,0.3-0.2l0.7-1.7l0.7,1.7c0.1,0.1,0.2,0.2,0.3,0.2h0.8
		c0.2,0,0.3-0.1,0.3-0.2L50,4.9v5.1c0,0.2,0.2,0.4,0.4,0.4h0.9c0.2,0,0.4-0.2,0.4-0.4V7.6c0-0.1,0.1-0.2,0.1-0.2
		c0.1-0.1,0.1-0.2,0.2-0.2c0.1-0.1,0.2-0.1,0.3-0.1c0.3-0.1,0.4,0,0.5,0.1c0,0.1,0.1,0.2,0.1,0.6v2.3c0,0.2,0.2,0.4,0.4,0.4h0.9
		c0.2,0,0.3-0.1,0.4-0.3c0,0,0,0.1,0,0.1c0.1,0.1,0.2,0.2,0.3,0.2h1c0.1,0,0.2-0.1,0.3-0.2L60,4.6C60.1,4.5,60.1,4.3,60.1,4.2z"/>
	<path d="M66.7,6.1c-0.1-0.2-0.3-0.4-0.5-0.5c-0.5-0.3-1.3-0.2-1.9,0.1c-0.1,0.1-0.3,0.2-0.4,0.3c-0.1-0.1-0.1-0.2-0.2-0.2
		c-0.5-0.5-1.5-0.5-2.2-0.1c0,0-0.1,0-0.1,0.1c0-0.2-0.2-0.3-0.4-0.3h-0.8c-0.2,0-0.4,0.2-0.4,0.4v4.2c0,0.2,0.2,0.4,0.4,0.4h0.9
		c0.2,0,0.4-0.2,0.4-0.4V7.6c0.1-0.2,0.2-0.4,0.3-0.5c0.3-0.2,0.6-0.2,0.7-0.1c0,0.1,0.1,0.2,0.1,0.6v2.3c0,0.2,0.2,0.4,0.4,0.4h0.9
		c0.2,0,0.4-0.2,0.4-0.4V7.6c0.1-0.2,0.2-0.4,0.3-0.5c0.3-0.2,0.6-0.2,0.7-0.1c0,0.1,0.1,0.2,0.1,0.6v2.3c0,0.2,0.2,0.4,0.4,0.4h0.9
		c0.2,0,0.4-0.2,0.4-0.4V7.5c0-0.2,0-0.5-0.1-0.7C66.9,6.5,66.9,6.3,66.7,6.1z"/>
	<path d="M77,4.2C76.9,4.1,76.8,4,76.6,4h-1c-0.1,0-0.2,0.1-0.3,0.2l-3.8,5.5V9.3c0-0.2-0.2-0.4-0.4-0.4h-1.8
		c0.1-0.1,0.2-0.1,0.3-0.2c0.1-0.1,0.3-0.1,0.4-0.2c0.1-0.1,0.3-0.1,0.4-0.2c0.2-0.1,0.3-0.2,0.5-0.4c0.1-0.1,0.3-0.3,0.4-0.5
		c0.1-0.2,0.2-0.4,0.2-0.7c0-0.2,0-0.5-0.1-0.7c-0.1-0.2-0.2-0.4-0.4-0.6c-0.2-0.1-0.4-0.3-0.6-0.3c-0.5-0.2-1.1-0.2-1.6,0
		c-0.2,0.1-0.4,0.1-0.6,0.2c-0.2,0.1-0.3,0.2-0.5,0.3c-0.1,0.1-0.2,0.2-0.3,0.3c-0.1,0.1-0.1,0.4,0,0.5l0.6,0.6
		c0.1,0.1,0.2,0.1,0.3,0.1c0,0,0,0,0,0c0.1,0,0.2,0,0.3-0.1c0.1-0.1,0.1-0.1,0.2-0.2c0.1-0.1,0.1-0.1,0.2-0.1s0.2-0.1,0.2-0.1
		c0.2-0.1,0.5,0,0.7,0.1c0.1,0.1,0.1,0.1,0.1,0.2l0,0.1c0,0.1-0.1,0.1-0.2,0.2c-0.1,0.1-0.2,0.2-0.4,0.2c-0.2,0.1-0.3,0.2-0.5,0.3
		c-0.3,0.2-0.5,0.3-0.7,0.5c-0.2,0.2-0.3,0.4-0.5,0.6c-0.1,0.2-0.2,0.4-0.2,0.7c0,0.2-0.1,0.4-0.1,0.7c0,0.2,0.2,0.4,0.4,0.4h3.7
		c0.1,0,0.2-0.1,0.3-0.2c0.1,0.1,0.2,0.2,0.3,0.2h1c0.1,0,0.2-0.1,0.3-0.2L77,4.6C77,4.5,77,4.3,77,4.2z"/>
	<path d="M80.9,9V7.5c0-0.7-0.2-1.2-0.6-1.5c-0.8-0.7-2.3-0.7-3.5,0.1c-0.2,0.1-0.2,0.3-0.1,0.5L77,7.1c0,0.1,0.1,0.2,0.2,0.2
		c0.1,0,0.2,0,0.3-0.1c0.2-0.1,0.4-0.2,0.6-0.3c0.4-0.2,0.8-0.1,1,0.1c0.1,0.1,0.1,0.1,0.1,0.2c0,0,0,0-0.1,0
		c-0.5-0.1-1-0.1-1.5,0.1c-0.3,0.1-0.5,0.2-0.7,0.3c-0.2,0.2-0.4,0.3-0.5,0.5c-0.1,0.2-0.2,0.5-0.2,0.7c0,0.2,0,0.5,0.1,0.7
		c0.1,0.2,0.2,0.4,0.4,0.5c0.2,0.2,0.4,0.3,0.6,0.4s0.5,0.1,0.7,0.1c0.4,0,0.7-0.1,1-0.2c0.1-0.1,0.2-0.1,0.3-0.2
		c0,0.1,0.1,0.1,0.1,0.2c0.2,0.2,0.5,0.2,0.9,0.2c0.1,0,0.2,0,0.3,0c0.2,0,0.3-0.2,0.3-0.4V9.3C81.2,9.2,81.1,9,80.9,9z M78.1,9
		C78,8.9,78,8.9,78,8.8c0-0.1,0-0.2,0.1-0.2c0.1-0.1,0.3-0.1,0.6-0.1c0.1,0,0.3,0,0.4,0c0.1,0,0.1,0,0.2,0l0,0.3l-0.1,0.1
		C79.1,8.9,79.1,9,78.9,9C78.7,9.1,78.3,9.2,78.1,9z"/>
	<path d="M85.4,6.1c-0.1-0.2-0.3-0.4-0.5-0.5c-0.1-0.1-0.3-0.1-0.5-0.2c0.1,0,0.2-0.1,0.3-0.1c0.2-0.1,0.3-0.2,0.4-0.4
		c0.1-0.1,0.2-0.3,0.2-0.4c0-0.2,0.1-0.2,0.1-0.3c0-0.2-0.2-0.4-0.4-0.4h-0.5C84.3,3.9,84,4,84,4.2c0,0-0.1,0-0.1,0
		c-0.1,0-0.1-0.1-0.2-0.1c-0.1,0-0.2-0.1-0.3-0.1c-0.3-0.1-0.8-0.1-1.1,0.1c-0.1,0.1-0.3,0.2-0.4,0.4c-0.1,0.1-0.2,0.3-0.2,0.4
		c0,0.1-0.1,0.2-0.1,0.3c0,0.1,0.1,0.3,0.2,0.3h-0.3c-0.2,0-0.4,0.2-0.4,0.4v4.2c0,0.2,0.2,0.4,0.4,0.4h0.9c0.2,0,0.4-0.2,0.4-0.4
		V7.6c0-0.1,0.1-0.2,0.1-0.2c0.1-0.1,0.1-0.2,0.2-0.2c0.1-0.1,0.2-0.1,0.3-0.1c0.2-0.1,0.4,0,0.5,0.1c0,0.1,0.1,0.2,0.1,0.6v2.3
		c0,0.2,0.2,0.4,0.4,0.4h0.9c0.2,0,0.4-0.2,0.4-0.4V7.5c0-0.3,0-0.5-0.1-0.7C85.6,6.5,85.6,6.3,85.4,6.1z M83,5.2l0.1,0
		c0.1,0,0.1,0.1,0.2,0.1c0.1,0.1,0.2,0.1,0.3,0.1c0,0,0.1,0,0.1,0c-0.3,0-0.5,0.1-0.8,0.3c-0.1,0-0.1,0.1-0.2,0.1
		c0-0.1-0.1-0.2-0.2-0.3h0C82.8,5.6,83,5.4,83,5.2z"/>
	<path d="M90.6,7c-0.1-0.3-0.3-0.6-0.5-0.8c-0.2-0.2-0.5-0.4-0.8-0.6c-0.6-0.3-1.4-0.3-2.1,0c-0.3,0.1-0.6,0.3-0.8,0.6
		C86.2,6.4,86,6.7,85.9,7c-0.1,0.3-0.2,0.6-0.2,1c0,0.3,0.1,0.7,0.2,1c0.1,0.3,0.3,0.6,0.5,0.8c0.2,0.2,0.5,0.4,0.8,0.6
		c0.3,0.1,0.7,0.2,1,0.2c0.4,0,0.7-0.1,1-0.2c0.3-0.1,0.6-0.3,0.8-0.6c0.2-0.2,0.4-0.5,0.5-0.8c0.1-0.3,0.2-0.6,0.2-1
		C90.8,7.6,90.7,7.3,90.6,7z M89.2,8c0,0.2,0,0.3-0.1,0.4c0,0.1-0.1,0.2-0.2,0.3c-0.1,0.1-0.2,0.2-0.3,0.2c-0.2,0.1-0.5,0.1-0.7,0
		c-0.1-0.1-0.2-0.1-0.3-0.2c-0.1-0.1-0.1-0.2-0.2-0.3c0-0.1-0.1-0.3-0.1-0.4c0-0.2,0-0.3,0.1-0.4c0.1-0.1,0.1-0.2,0.2-0.3
		C87.8,7.1,87.9,7.1,88,7c0.1,0,0.2-0.1,0.3-0.1c0.1,0,0.2,0,0.3,0.1c0.1,0,0.2,0.1,0.3,0.2C89,7.3,89,7.4,89.1,7.6
		C89.1,7.7,89.2,7.8,89.2,8z"/>
</g>
<g>
	<g>
		<path style="fill:#FFFFFF;" d="M40.6,10.1l-1.3-1.9l-0.7,0.7v1.3h-0.9V4.2h0.9v3.7l1.9-2h1l-1.6,1.8l1.7,2.4H40.6z"/>
		<path style="fill:#FFFFFF;" d="M44.1,4.4H45l0.7,1.9l0.7-1.9h0.8l-1,2.5L47.1,9l1.8-4.6h1l-2.3,5.7h-0.8l-1.1-2.5l-1.1,2.5h-0.8
			l-2.3-5.7h1L44.2,9l0.8-2.1L44.1,4.4z"/>
		<path style="fill:#FFFFFF;" d="M54.1,10.1h-0.9V7.7c0-0.4-0.1-0.7-0.2-0.9c-0.1-0.2-0.3-0.3-0.6-0.3c-0.1,0-0.2,0-0.4,0.1
			c-0.1,0-0.2,0.1-0.3,0.2s-0.2,0.2-0.3,0.3c-0.1,0.1-0.1,0.3-0.2,0.4v2.5h-0.9V4.2h0.9v2.5c0.2-0.3,0.4-0.5,0.7-0.7
			c0.3-0.2,0.6-0.2,0.9-0.2c0.3,0,0.5,0,0.6,0.1s0.3,0.2,0.4,0.4s0.2,0.3,0.2,0.5s0.1,0.4,0.1,0.7V10.1z"/>
		<path style="fill:#FFFFFF;" d="M59.7,4.4l-3.9,5.7h-1l3.9-5.7H59.7z"/>
		<path style="fill:#FFFFFF;" d="M66.7,10.1h-0.9V7.7c0-0.4-0.1-0.7-0.2-0.9S65.3,6.6,65,6.6c-0.3,0-0.5,0.1-0.7,0.3
			S64,7.3,63.9,7.6v2.5H63V7.7C63,7.3,63,7,62.8,6.9c-0.1-0.2-0.3-0.3-0.6-0.3c-0.3,0-0.5,0.1-0.7,0.3s-0.4,0.4-0.4,0.7v2.5h-0.9
			V5.9h0.8v0.8c0.2-0.3,0.4-0.5,0.7-0.7c0.3-0.2,0.6-0.2,0.9-0.2s0.6,0.1,0.8,0.3c0.2,0.2,0.3,0.4,0.4,0.7c0.2-0.3,0.4-0.5,0.7-0.7
			c0.3-0.2,0.6-0.2,0.9-0.2c0.2,0,0.4,0,0.6,0.1s0.3,0.2,0.4,0.4c0.1,0.2,0.2,0.3,0.2,0.5s0.1,0.4,0.1,0.7V10.1z"/>
		<path style="fill:#FFFFFF;" d="M67.5,10.1c0-0.2,0-0.4,0.1-0.6c0-0.2,0.1-0.4,0.2-0.5s0.2-0.3,0.4-0.5c0.2-0.2,0.4-0.3,0.6-0.4
			c0.2-0.1,0.4-0.2,0.5-0.3c0.2-0.1,0.3-0.2,0.4-0.3S70,7.3,70,7.2c0.1-0.1,0.1-0.2,0.1-0.3c0-0.2-0.1-0.3-0.2-0.5
			c-0.1-0.1-0.4-0.2-0.6-0.2c-0.1,0-0.3,0-0.4,0.1s-0.2,0.1-0.3,0.2s-0.2,0.1-0.3,0.2c-0.1,0.1-0.1,0.1-0.2,0.2l-0.6-0.6
			C67.6,6.1,67.7,6,67.8,6c0.1-0.1,0.3-0.2,0.4-0.3c0.2-0.1,0.3-0.1,0.6-0.2c0.2-0.1,0.4-0.1,0.7-0.1c0.3,0,0.5,0,0.7,0.1
			c0.2,0.1,0.4,0.2,0.5,0.3s0.2,0.3,0.3,0.4c0.1,0.2,0.1,0.3,0.1,0.5c0,0.2,0,0.4-0.1,0.5c-0.1,0.2-0.2,0.3-0.3,0.4
			c-0.1,0.1-0.2,0.2-0.4,0.3c-0.1,0.1-0.3,0.2-0.4,0.2c-0.1,0.1-0.2,0.1-0.4,0.2s-0.3,0.2-0.4,0.2c-0.1,0.1-0.3,0.2-0.4,0.3
			c-0.1,0.1-0.2,0.2-0.2,0.4h2.6v0.8H67.5z"/>
		<path style="fill:#FFFFFF;" d="M76.6,4.4l-3.9,5.7h-1l3.9-5.7H76.6z"/>
		<path style="fill:#FFFFFF;" d="M78.2,10.1c-0.2,0-0.4,0-0.6-0.1s-0.3-0.2-0.4-0.3c-0.1-0.1-0.2-0.3-0.3-0.4S76.8,9,76.8,8.8
			c0-0.2,0-0.4,0.1-0.5C77,8.1,77.1,8,77.3,7.9c0.2-0.1,0.3-0.2,0.6-0.3c0.2-0.1,0.5-0.1,0.7-0.1c0.2,0,0.4,0,0.6,0.1
			c0.2,0,0.4,0.1,0.5,0.1V7.4c0-0.3-0.1-0.6-0.3-0.7c-0.2-0.2-0.4-0.3-0.8-0.3c-0.2,0-0.4,0-0.7,0.1c-0.2,0.1-0.4,0.2-0.7,0.4
			l-0.3-0.6c0.5-0.4,1.1-0.5,1.7-0.5c0.6,0,1,0.1,1.3,0.4c0.3,0.3,0.5,0.7,0.5,1.3V9c0,0.2,0.1,0.3,0.2,0.3v0.8c-0.1,0-0.2,0-0.2,0
			c-0.1,0-0.1,0-0.2,0c-0.2,0-0.3,0-0.4-0.1c-0.1-0.1-0.2-0.2-0.2-0.3l0-0.3c-0.2,0.2-0.4,0.4-0.7,0.6
			C78.8,10.1,78.5,10.1,78.2,10.1z M78.5,9.5c0.2,0,0.4,0,0.6-0.1c0.2-0.1,0.3-0.2,0.4-0.3c0.1-0.1,0.2-0.2,0.2-0.3V8.2
			c-0.1-0.1-0.3-0.1-0.5-0.1s-0.3,0-0.5,0c-0.3,0-0.6,0.1-0.8,0.2c-0.2,0.1-0.3,0.3-0.3,0.5c0,0.2,0.1,0.4,0.2,0.5
			S78.2,9.5,78.5,9.5z"/>
		<path style="fill:#FFFFFF;" d="M85.4,10.1h-0.9V7.7c0-0.4-0.1-0.7-0.2-0.9c-0.1-0.2-0.3-0.3-0.6-0.3c-0.1,0-0.3,0-0.4,0.1
			S83.1,6.8,83,6.9s-0.2,0.2-0.3,0.3c-0.1,0.1-0.2,0.3-0.2,0.4v2.5h-0.9V5.9h0.8v0.8c0.2-0.3,0.4-0.5,0.7-0.7c0.3-0.2,0.6-0.2,1-0.2
			c0.3,0,0.5,0,0.6,0.1s0.3,0.2,0.4,0.4c0.1,0.2,0.2,0.3,0.2,0.5c0,0.2,0.1,0.4,0.1,0.7V10.1z M84.1,5.1c-0.1,0-0.2,0-0.3-0.1
			c-0.1,0-0.2-0.1-0.3-0.1c-0.1,0-0.2-0.1-0.2-0.1c-0.1,0-0.2-0.1-0.2-0.1c-0.1,0-0.2,0-0.2,0.1c-0.1,0-0.1,0.1-0.1,0.1
			c0,0,0,0.1-0.1,0.1c0,0,0,0.1,0,0.1h-0.5c0,0,0-0.1,0-0.2c0-0.1,0.1-0.2,0.1-0.3c0.1-0.1,0.2-0.2,0.3-0.3c0.1-0.1,0.2-0.1,0.4-0.1
			c0.1,0,0.2,0,0.3,0.1s0.2,0.1,0.2,0.1s0.2,0.1,0.2,0.1S84,4.6,84,4.6s0.2,0,0.2-0.1s0.1-0.1,0.1-0.1c0,0,0-0.1,0.1-0.1
			s0-0.1,0-0.1H85c0,0,0,0.1,0,0.2c0,0.1-0.1,0.2-0.1,0.3S84.6,4.9,84.5,5C84.4,5.1,84.2,5.1,84.1,5.1z"/>
		<path style="fill:#FFFFFF;" d="M88.3,10.1c-0.3,0-0.6-0.1-0.9-0.2c-0.3-0.1-0.5-0.3-0.7-0.5s-0.3-0.4-0.4-0.7
			c-0.1-0.3-0.2-0.5-0.2-0.8c0-0.3,0.1-0.6,0.2-0.8c0.1-0.3,0.2-0.5,0.4-0.7s0.4-0.4,0.7-0.5c0.3-0.1,0.6-0.2,0.9-0.2
			c0.3,0,0.6,0.1,0.9,0.2c0.3,0.1,0.5,0.3,0.7,0.5s0.3,0.4,0.4,0.7c0.1,0.3,0.2,0.5,0.2,0.8c0,0.3-0.1,0.6-0.2,0.8
			c-0.1,0.3-0.2,0.5-0.4,0.7s-0.4,0.4-0.7,0.5C88.9,10.1,88.6,10.1,88.3,10.1z M87,8c0,0.2,0,0.4,0.1,0.6c0.1,0.2,0.2,0.3,0.3,0.4
			c0.1,0.1,0.2,0.2,0.4,0.3c0.2,0.1,0.3,0.1,0.5,0.1c0.2,0,0.3,0,0.5-0.1c0.2-0.1,0.3-0.2,0.4-0.3s0.2-0.3,0.3-0.4
			c0.1-0.2,0.1-0.4,0.1-0.6c0-0.2,0-0.4-0.1-0.6c-0.1-0.2-0.2-0.3-0.3-0.5c-0.1-0.1-0.2-0.2-0.4-0.3c-0.2-0.1-0.3-0.1-0.5-0.1
			c-0.2,0-0.3,0-0.5,0.1c-0.2,0.1-0.3,0.2-0.4,0.3c-0.1,0.1-0.2,0.3-0.3,0.5C87.1,7.6,87,7.8,87,8z"/>
	</g>
</g>
</svg>
