<?xml version="1.0" encoding="utf-8"?>
<!-- Generator: Adobe Illustrator 19.2.0, SVG Export Plug-In . SVG Version: 6.00 Build 0)  -->
<svg version="1.1" id="Layer_1" xmlns="http://www.w3.org/2000/svg" xmlns:xlink="http://www.w3.org/1999/xlink" x="0px" y="0px"
	 viewBox="0 0 125 50" style="enable-background:new 0 0 125 50;" xml:space="preserve">
<path style="stroke:#FFFFFF;stroke-width:2;stroke-miterlimit:10;" d="M118.2,35H6.8c-2.4,0-4.3-1.9-4.3-4.3V19.3
	c0-2.4,1.9-4.3,4.3-4.3h111.4c2.4,0,4.3,1.9,4.3,4.3v11.4C122.5,33.1,120.6,35,118.2,35z"/>
<g>
	<defs>
		<path id="SVGID_1_" d="M118.2,35H6.8c-2.4,0-4.3-1.9-4.3-4.3V19.3c0-2.4,1.9-4.3,4.3-4.3h111.4c2.4,0,4.3,1.9,4.3,4.3v11.4
			C122.5,33.1,120.6,35,118.2,35z"/>
	</defs>
	<clipPath id="SVGID_2_">
		<use xlink:href="#SVGID_1_"  style="overflow:visible;"/>
	</clipPath>
	<g style="clip-path:url(#SVGID_2_);">
		
			<rect x="108.4" y="20.9" transform="matrix(4.793036e-011 1 -1 4.793036e-011 143.3825 -93.3825)" style="fill:#BE0000;" width="20" height="8.2"/>
		
			<rect x="100.4" y="20.9" transform="matrix(4.802096e-011 1 -1 4.802096e-011 135.3958 -85.3958)" style="fill:#D80000;" width="20" height="8.2"/>
		
			<rect x="92.4" y="20.9" transform="matrix(4.802096e-011 1 -1 4.802096e-011 127.4091 -77.4091)" style="fill:#F20000;" width="20" height="8.2"/>
		
			<rect x="84.4" y="20.9" transform="matrix(4.793036e-011 1 -1 4.793036e-011 119.4224 -69.4224)" style="fill:#FF3000;" width="20" height="8.2"/>
		
			<rect x="76.4" y="20.9" transform="matrix(4.793036e-011 1 -1 4.793036e-011 111.4357 -61.4357)" style="fill:#FF7900;" width="20" height="8.2"/>
		
			<rect x="68.4" y="20.9" transform="matrix(4.793036e-011 1 -1 4.793036e-011 103.449 -53.449)" style="fill:#FFB24D;" width="20" height="8.2"/>
		
			<rect x="60.5" y="20.9" transform="matrix(4.793036e-011 1 -1 4.793036e-011 95.4623 -45.4623)" style="fill:#FCE155;" width="20" height="8.2"/>
		
			<rect x="52.5" y="20.9" transform="matrix(4.797566e-011 1 -1 4.797566e-011 87.4756 -37.4756)" style="fill:#F7FF5D;" width="20" height="8.2"/>
		
			<rect x="44.5" y="20.9" transform="matrix(4.802096e-011 1 -1 4.802096e-011 79.489 -29.489)" style="fill:#DDFF73;" width="20" height="8.2"/>
		
			<rect x="36.5" y="20.9" transform="matrix(4.802096e-011 1 -1 4.802096e-011 71.5023 -21.5023)" style="fill:#C4F986;" width="20" height="8.2"/>
		
			<rect x="28.5" y="20.9" transform="matrix(4.797566e-011 1 -1 4.797566e-011 63.5156 -13.5156)" style="fill:#ABED98;" width="20" height="8.2"/>
		
			<rect x="20.5" y="20.9" transform="matrix(4.788507e-011 1 -1 4.788507e-011 55.5289 -5.5289)" style="fill:#8CD9A6;" width="20" height="8.2"/>
		
			<rect x="12.5" y="20.9" transform="matrix(4.797566e-011 1 -1 4.797566e-011 47.5422 2.4578)" style="fill:#6ABAAE;" width="20" height="8.2"/>
		
			<rect x="4.6" y="20.9" transform="matrix(4.802096e-011 1 -1 4.802096e-011 39.5555 10.4445)" style="fill:#4A9AB5;" width="20" height="8.2"/>
		
			<rect x="-3.4" y="20.9" transform="matrix(4.806626e-011 1 -1 4.806626e-011 31.5688 18.4312)" style="fill:#3279BD;" width="20" height="8.2"/>
	</g>
</g>
<g>
	<path d="M59.8,4.4c-0.1-0.1-0.2-0.2-0.3-0.2h-1c-0.1,0-0.2,0.1-0.3,0.2L54.3,10c0,0,0,0.1,0,0.1V7.7c0-0.3,0-0.5-0.1-0.7
		c0-0.3-0.1-0.5-0.3-0.7c-0.1-0.2-0.3-0.4-0.5-0.5c-0.5-0.3-1.3-0.2-1.9,0.1c0,0-0.1,0-0.1,0.1V4.4C51.4,4.2,51.2,4,51,4h-0.9
		c-0.2,0-0.3,0.1-0.3,0.2c-0.1,0-0.1-0.1-0.2-0.1h-1c-0.2,0-0.3,0.1-0.4,0.2l-1.4,3.7l-0.4-1.1l0.9-2.4c0-0.1,0-0.2,0-0.3
		c-0.1-0.1-0.2-0.2-0.3-0.2h-0.8c-0.2,0-0.3,0.1-0.4,0.2l-0.3,1l-0.3-1c-0.1-0.1-0.2-0.2-0.4-0.2h-0.8c-0.1,0-0.2,0.1-0.3,0.2
		c-0.1,0.1-0.1,0.2,0,0.3l0.9,2.4L44,8.2l-1.4-3.8c-0.1-0.1-0.2-0.2-0.4-0.2h-1c-0.1,0-0.2,0.1-0.3,0.2c-0.1,0.1-0.1,0.2,0,0.4
		l0.4,1c0,0-0.1,0-0.1,0h-1c-0.1,0-0.2,0-0.3,0.1l-1.3,1.4V4.4c0-0.2-0.2-0.4-0.4-0.4h-0.9c-0.2,0-0.4,0.2-0.4,0.4v5.8
		c0,0.2,0.2,0.4,0.4,0.4h0.9c0.2,0,0.4-0.2,0.4-0.4V9.1L39,8.9l1.1,1.6c0.1,0.1,0.2,0.2,0.3,0.2h0.9c0.1,0,0.3-0.1,0.3-0.2
		s0.1-0.3,0-0.4l-1.5-2.2l1.4-1.5c0,0,0,0,0-0.1l1.7,4.1c0.1,0.1,0.2,0.2,0.3,0.2h0.8c0.2,0,0.3-0.1,0.3-0.2l0.7-1.7l0.7,1.7
		c0.1,0.1,0.2,0.2,0.3,0.2h0.8c0.2,0,0.3-0.1,0.3-0.2l2.2-5.3v5.1c0,0.2,0.2,0.4,0.4,0.4H51c0.2,0,0.4-0.2,0.4-0.4V7.8
		c0-0.1,0.1-0.2,0.1-0.2c0.1-0.1,0.1-0.2,0.2-0.2c0.1-0.1,0.2-0.1,0.3-0.1c0.3-0.1,0.5,0,0.5,0.1c0,0.1,0.1,0.2,0.1,0.6v2.3
		c0,0.2,0.2,0.4,0.4,0.4h0.9c0.2,0,0.3-0.1,0.4-0.3c0,0,0,0.1,0,0.1c0.1,0.1,0.2,0.2,0.3,0.2h1c0.1,0,0.2-0.1,0.3-0.2l3.9-5.7
		C59.9,4.6,59.9,4.5,59.8,4.4z"/>
	<path d="M66.5,6.3c-0.1-0.2-0.3-0.4-0.5-0.5c-0.5-0.3-1.3-0.2-1.9,0.1c-0.1,0.1-0.3,0.2-0.4,0.3C63.6,6.1,63.6,6,63.5,6
		C63,5.5,62,5.5,61.3,5.9c0,0-0.1,0-0.1,0.1c0-0.2-0.2-0.3-0.4-0.3H60c-0.2,0-0.4,0.2-0.4,0.4v4.2c0,0.2,0.2,0.4,0.4,0.4h0.9
		c0.2,0,0.4-0.2,0.4-0.4V7.8c0.1-0.2,0.2-0.4,0.3-0.5c0.3-0.2,0.6-0.2,0.7-0.1c0,0.1,0.1,0.2,0.1,0.6v2.3c0,0.2,0.2,0.4,0.4,0.4h0.9
		c0.2,0,0.4-0.2,0.4-0.4V7.8c0.1-0.2,0.2-0.4,0.3-0.5c0.3-0.2,0.6-0.2,0.7-0.1c0,0.1,0.1,0.2,0.1,0.6v2.3c0,0.2,0.2,0.4,0.4,0.4h0.9
		c0.2,0,0.4-0.2,0.4-0.4V7.7c0-0.2,0-0.5-0.1-0.7C66.7,6.7,66.6,6.5,66.5,6.3z"/>
	<path d="M76.7,4.4c-0.1-0.1-0.2-0.2-0.3-0.2h-1c-0.1,0-0.2,0.1-0.3,0.2l-3.8,5.5V9.4c0-0.2-0.2-0.4-0.4-0.4h-1.8
		c0.1-0.1,0.2-0.1,0.3-0.2c0.1-0.1,0.3-0.1,0.4-0.2c0.1-0.1,0.3-0.1,0.4-0.2c0.2-0.1,0.3-0.2,0.5-0.4c0.1-0.1,0.3-0.3,0.4-0.5
		c0.1-0.2,0.2-0.4,0.2-0.7c0-0.2,0-0.5-0.1-0.7C71,6,70.8,5.8,70.7,5.7c-0.2-0.1-0.4-0.3-0.6-0.3c-0.5-0.2-1.1-0.2-1.6,0
		c-0.2,0.1-0.4,0.1-0.6,0.2c-0.2,0.1-0.3,0.2-0.5,0.3C67.2,5.9,67.1,6,67,6.1c-0.1,0.1-0.1,0.4,0,0.5l0.6,0.6
		c0.1,0.1,0.2,0.1,0.3,0.1c0.1,0,0.2,0,0.3-0.1c0.1-0.1,0.1-0.1,0.2-0.2c0.1-0.1,0.1-0.1,0.2-0.1s0.2-0.1,0.2-0.1
		c0.2-0.1,0.5,0,0.7,0.1C69.5,6.9,69.5,7,69.5,7l0,0.1c0,0.1-0.1,0.1-0.2,0.2c-0.1,0.1-0.2,0.2-0.4,0.2c-0.2,0.1-0.3,0.2-0.5,0.3
		c-0.3,0.2-0.5,0.3-0.7,0.5c-0.2,0.2-0.3,0.4-0.5,0.6c-0.1,0.2-0.2,0.4-0.2,0.7c0,0.2-0.1,0.4-0.1,0.7c0,0.2,0.2,0.4,0.4,0.4h3.7
		c0.1,0,0.2-0.1,0.3-0.2c0.1,0.1,0.2,0.2,0.3,0.2h1c0.1,0,0.2-0.1,0.3-0.2l3.9-5.7C76.8,4.6,76.8,4.5,76.7,4.4z"/>
	<path d="M81.2,9.1V4.4C81.2,4.2,81,4,80.8,4h-0.9c-0.2,0-0.4,0.2-0.4,0.4v1.5c0,0,0,0,0,0c-0.6-0.4-1.4-0.4-2-0.1
		c-0.3,0.1-0.5,0.3-0.7,0.6c-0.2,0.2-0.4,0.5-0.5,0.8c-0.1,0.3-0.2,0.6-0.2,1c0,0.3,0.1,0.7,0.2,1c0.1,0.3,0.3,0.6,0.5,0.8
		c0.2,0.2,0.5,0.4,0.7,0.6c0.3,0.1,0.6,0.2,0.9,0.2c0.4,0,0.7-0.1,1.1-0.3c0.1,0,0.2-0.1,0.2-0.2c0,0.1,0.1,0.1,0.2,0.2
		c0.2,0.1,0.4,0.2,0.7,0.2c0,0,0.1,0,0.2,0c0.1,0,0.1,0,0.2,0c0.2,0,0.3-0.2,0.3-0.4V9.5C81.4,9.3,81.3,9.2,81.2,9.1z M78.4,9.1
		C78.3,9,78.2,9,78.1,8.9C78,8.8,78,8.7,77.9,8.5c0-0.1-0.1-0.3-0.1-0.4c0-0.1,0-0.3,0.1-0.4c0-0.1,0.1-0.2,0.2-0.3
		c0.1-0.1,0.2-0.2,0.3-0.2c0.1,0,0.2-0.1,0.3-0.1c0.1,0,0.2,0,0.3,0c0.1,0,0.2,0.1,0.3,0.1s0.2,0.1,0.2,0.2c0.1,0.1,0.1,0.1,0.1,0.2
		v1c0,0.1,0,0.1-0.1,0.2c-0.1,0.1-0.1,0.1-0.2,0.2C79.2,9,79.1,9.1,79,9.1C78.8,9.2,78.6,9.2,78.4,9.1z"/>
	<path d="M82.8,4h-0.9c-0.2,0-0.4,0.2-0.4,0.4v1c0,0.2,0.1,0.3,0.2,0.3c-0.1,0.1-0.2,0.2-0.2,0.3v4.2c0,0.2,0.2,0.4,0.4,0.4h0.9
		c0.2,0,0.4-0.2,0.4-0.4V6c0-0.2-0.1-0.3-0.2-0.3c0.1-0.1,0.2-0.2,0.2-0.3v-1C83.2,4.2,83,4,82.8,4z"/>
	<path d="M87.7,9.1V7.7c0-0.7-0.2-1.2-0.6-1.5c-0.8-0.7-2.3-0.7-3.5,0.1c-0.2,0.1-0.2,0.3-0.1,0.5l0.3,0.6c0,0.1,0.1,0.2,0.2,0.2
		c0.1,0,0.2,0,0.3-0.1c0.2-0.1,0.4-0.2,0.6-0.3c0.4-0.2,0.8-0.1,1,0.1C86,7.2,86,7.3,86,7.4c0,0,0,0-0.1,0c-0.5-0.1-1-0.1-1.5,0.1
		c-0.3,0.1-0.5,0.2-0.7,0.3c-0.2,0.2-0.4,0.3-0.5,0.5c-0.1,0.2-0.2,0.5-0.2,0.7c0,0.2,0,0.5,0.1,0.7c0.1,0.2,0.2,0.4,0.4,0.5
		c0.2,0.2,0.4,0.3,0.6,0.4c0.2,0.1,0.5,0.1,0.7,0.1c0.4,0,0.7-0.1,1-0.2c0.1-0.1,0.2-0.1,0.3-0.2c0,0.1,0.1,0.1,0.1,0.2
		c0.2,0.2,0.5,0.2,0.9,0.2c0.1,0,0.2,0,0.3,0c0.2,0,0.3-0.2,0.3-0.4V9.5C87.9,9.3,87.8,9.2,87.7,9.1z M85.2,9.3
		c-0.2,0-0.3-0.1-0.3-0.1c-0.1-0.1-0.1-0.1-0.1-0.2c0-0.1,0-0.2,0.1-0.2c0.1-0.1,0.3-0.1,0.6-0.1c0.1,0,0.3,0,0.4,0
		c0.1,0,0.1,0,0.2,0v0.3C86,8.9,86,9,86,9c-0.1,0.1-0.2,0.2-0.3,0.2C85.5,9.2,85.4,9.3,85.2,9.3z"/>
</g>
<g>
	<g>
		<path d="M5.9,38.3c-0.1-0.1-0.3-0.1-0.4,0l-3.4,2c-0.1,0.1-0.2,0.2-0.2,0.3v0.4c0,0.1,0.1,0.3,0.2,0.3l3.4,2
			c0.1,0,0.1,0.1,0.2,0.1c0.1,0,0.1,0,0.2,0C6,43.4,6,43.3,6,43.1v-1C6,42,6,41.9,5.9,41.8l-1.6-0.9l1.6-1C6,39.9,6,39.7,6,39.6
			v-0.9C6,38.5,6,38.4,5.9,38.3z"/>
		<path d="M12.2,41.3C12.2,41.3,12.2,41.3,12.2,41.3c-0.1-0.1-0.2-0.2-0.3-0.3c0.1-0.1,0.1-0.1,0.2-0.2c0.1-0.1,0.2-0.3,0.3-0.5
			c0.1-0.2,0.1-0.4,0.1-0.6c0-0.3-0.1-0.5-0.2-0.7c-0.1-0.2-0.3-0.4-0.5-0.6c-0.2-0.1-0.4-0.3-0.7-0.4c-0.4-0.1-1-0.2-1.5-0.1
			c-0.2,0-0.4,0.1-0.6,0.2c-0.2,0.1-0.4,0.2-0.5,0.3c-0.2,0.1-0.3,0.3-0.4,0.5c-0.1,0.1-0.1,0.3,0,0.4l0.6,0.6
			c0.1,0.1,0.2,0.1,0.3,0.1c0.1,0,0.2-0.1,0.3-0.2c0.1-0.2,0.2-0.3,0.4-0.4c0.3-0.2,0.8-0.2,1,0c0,0,0.1,0.1,0.1,0.3
			c0,0.1,0,0.3-0.2,0.4c-0.1,0.1-0.3,0.2-0.6,0.2H9.8c-0.2,0-0.4,0.2-0.4,0.4v0.7c0,0.2,0.2,0.4,0.4,0.4H10c0.3,0,0.6,0.1,0.7,0.2
			c0.1,0.1,0.2,0.2,0.2,0.4c0,0.2-0.1,0.3-0.1,0.4c-0.2,0.2-0.9,0.2-1.2,0c-0.1-0.1-0.3-0.2-0.4-0.3c-0.1-0.1-0.2-0.2-0.3-0.2
			c-0.1,0-0.2,0-0.3,0.1l-0.5,0.6c-0.1,0.1-0.1,0.3,0,0.5c0.2,0.3,0.5,0.6,0.9,0.7c0.4,0.2,0.8,0.2,1.2,0.2c0.3,0,0.7,0,0.9-0.1
			c0.3-0.1,0.5-0.2,0.8-0.4c0.2-0.2,0.4-0.4,0.5-0.6c0.1-0.2,0.2-0.5,0.2-0.8c0-0.2,0-0.4-0.1-0.6C12.4,41.7,12.3,41.5,12.2,41.3z"
			/>
		<path d="M45.7,40.7c-0.2-0.2-0.4-0.3-0.7-0.5c-0.4-0.2-0.9-0.2-1.3-0.1l0.1-0.5h1.8c0.2,0,0.4-0.2,0.4-0.4v-0.8
			c0-0.2-0.2-0.4-0.4-0.4h-2.8c-0.2,0-0.3,0.1-0.4,0.3c-0.1,0.6-0.2,1.1-0.3,1.6c0,0.2-0.1,0.4-0.1,0.6L42,41.1
			c0,0.2-0.1,0.3-0.1,0.4c0,0.1,0,0.1,0,0.2c0,0.1,0,0.2,0.1,0.3c0.1,0.1,0.2,0.1,0.3,0.1H43c0.1,0,0.2-0.1,0.3-0.2
			c0.1-0.1,0.2-0.2,0.3-0.3c0.2-0.1,0.5-0.1,0.7,0c0.1,0,0.2,0.1,0.2,0.1c0.1,0.1,0.1,0.1,0.1,0.2c0,0.1,0.1,0.2,0.1,0.3
			c0,0.2-0.1,0.4-0.2,0.5c-0.3,0.3-0.7,0.3-1.1,0c-0.2-0.1-0.3-0.3-0.5-0.4c-0.1-0.1-0.2-0.2-0.3-0.2c-0.1,0-0.2,0-0.3,0.1l-0.5,0.5
			c-0.1,0.1-0.2,0.3-0.1,0.5c0.2,0.4,0.5,0.7,0.9,0.9c0.4,0.2,0.8,0.3,1.3,0.3c0.3,0,0.6-0.1,0.9-0.2c0.3-0.1,0.6-0.3,0.8-0.5
			c0.2-0.2,0.4-0.4,0.5-0.7c0.1-0.3,0.2-0.6,0.2-0.9c0-0.3-0.1-0.6-0.2-0.9C46.1,41.1,45.9,40.9,45.7,40.7z"/>
		<path d="M82.9,37.9h-4.1c-0.2,0-0.4,0.2-0.4,0.4v0.8c0,0.2,0.2,0.4,0.4,0.4h2.1l-2.2,4.3c-0.1,0.1-0.1,0.3,0,0.4
			c0.1,0.1,0.2,0.2,0.3,0.2h1c0.1,0,0.3-0.1,0.3-0.2l2.8-5.7c0.1-0.1,0.1-0.3,0-0.4S83,37.9,82.9,37.9z"/>
		<path d="M112.8,38.4c-0.1-0.1-0.3-0.1-0.4,0c-0.1,0.1-0.2,0.2-0.2,0.3v0.9c0,0.1,0.1,0.3,0.2,0.3l1.6,1l-1.6,0.9
			c-0.1,0.1-0.2,0.2-0.2,0.3v1c0,0.1,0.1,0.3,0.2,0.3c0.1,0,0.1,0,0.2,0c0.1,0,0.1,0,0.2-0.1l3.4-2c0.1-0.1,0.2-0.2,0.2-0.3v-0.4
			c0-0.1-0.1-0.3-0.2-0.3L112.8,38.4z"/>
		<path d="M122.8,39.8c-0.1-0.4-0.3-0.7-0.5-0.9c-0.2-0.3-0.5-0.5-0.8-0.6c-0.6-0.3-1.3-0.3-2,0c-0.3,0.1-0.6,0.3-0.8,0.5
			c-0.2,0.2-0.4,0.5-0.5,0.7c-0.1,0.3-0.2,0.6-0.2,0.9c0,0.3,0.1,0.6,0.2,0.9c0.1,0.3,0.3,0.5,0.5,0.7c0.1,0.1,0.3,0.2,0.5,0.3
			c-0.1,0-0.2,0-0.3,0.1l-0.5,0.5c-0.1,0.1-0.1,0.3,0,0.5c0.2,0.4,0.5,0.6,0.9,0.8c0.4,0.2,0.8,0.3,1.2,0.3c0.4,0,0.7-0.1,1.1-0.3
			c0.3-0.2,0.6-0.4,0.8-0.7c0.2-0.3,0.4-0.7,0.5-1.1c0.1-0.4,0.2-0.9,0.2-1.5C123,40.5,123,40.1,122.8,39.8z M121.3,40.1
			c0,0.1,0.1,0.2,0.1,0.3c0,0.1,0,0.2-0.1,0.3c0,0,0,0,0,0c0,0.1-0.1,0.2-0.2,0.3c-0.1,0.1-0.2,0.1-0.3,0.2c-0.2,0.1-0.4,0.1-0.6,0
			c-0.1,0-0.2-0.1-0.3-0.2c-0.1-0.1-0.1-0.2-0.2-0.3c0-0.1-0.1-0.2-0.1-0.3c0-0.1,0-0.2,0.1-0.3c0-0.1,0.1-0.2,0.2-0.3
			c0.1-0.1,0.2-0.1,0.3-0.2c0.1,0,0.2-0.1,0.3-0.1s0.2,0,0.3,0.1c0.1,0,0.2,0.1,0.3,0.2C121.2,39.9,121.3,40,121.3,40.1z
			 M121.3,42.5c0,0.1-0.1,0.1-0.1,0.2c-0.3,0.4-0.8,0.4-1.2,0.2c-0.2-0.1-0.3-0.2-0.4-0.4c0,0,0,0,0-0.1c0,0,0,0,0,0
			C120.1,42.7,120.7,42.7,121.3,42.5z"/>
	</g>
	<g>
		<g>
			<path style="fill:#FFFFFF;" d="M2.3,40.7l3.4-2v0.9l-2.1,1.3l2.1,1.3v1l-3.4-2V40.7z"/>
			<path style="fill:#FFFFFF;" d="M11.1,41.1c0.2,0,0.3,0.1,0.5,0.2c0.1,0.1,0.3,0.2,0.4,0.3c0.1,0.1,0.2,0.3,0.2,0.4
				c0.1,0.2,0.1,0.3,0.1,0.5c0,0.3,0,0.5-0.1,0.7c-0.1,0.2-0.2,0.4-0.4,0.5C11.5,43.8,11.3,44,11,44c-0.2,0.1-0.5,0.1-0.8,0.1
				c-0.4,0-0.8-0.1-1.1-0.2c-0.3-0.1-0.6-0.3-0.7-0.6l0.5-0.6c0.1,0.2,0.3,0.4,0.5,0.5c0.2,0.1,0.5,0.2,0.8,0.2
				c0.4,0,0.6-0.1,0.8-0.2c0.2-0.1,0.3-0.4,0.3-0.7c0-0.3-0.1-0.6-0.3-0.7c-0.2-0.2-0.5-0.3-0.9-0.3H9.8v-0.7H10
				c0.4,0,0.6-0.1,0.8-0.3c0.2-0.2,0.3-0.4,0.3-0.6s-0.1-0.4-0.3-0.6c-0.2-0.1-0.4-0.2-0.7-0.2s-0.5,0.1-0.7,0.2
				c-0.2,0.1-0.4,0.3-0.5,0.5l-0.6-0.6c0.1-0.1,0.2-0.2,0.3-0.3c0.1-0.1,0.3-0.2,0.4-0.3c0.2-0.1,0.3-0.1,0.5-0.2s0.4-0.1,0.6-0.1
				c0.3,0,0.5,0,0.7,0.1c0.2,0.1,0.4,0.2,0.6,0.3c0.2,0.1,0.3,0.3,0.4,0.4s0.1,0.4,0.1,0.6c0,0.2,0,0.3-0.1,0.5
				c0,0.1-0.1,0.3-0.2,0.4s-0.2,0.2-0.3,0.3C11.4,41,11.2,41.1,11.1,41.1z"/>
		</g>
		<path style="fill:#FFFFFF;" d="M44.1,40.4c0.3,0,0.5,0,0.7,0.1s0.4,0.2,0.6,0.4s0.3,0.4,0.4,0.6c0.1,0.2,0.1,0.5,0.1,0.7
			c0,0.3-0.1,0.5-0.2,0.8s-0.2,0.4-0.4,0.6S45,43.9,44.8,44c-0.3,0.1-0.5,0.1-0.8,0.1c-0.4,0-0.8-0.1-1.1-0.3
			c-0.3-0.2-0.6-0.4-0.7-0.7l0.5-0.5c0.1,0.2,0.3,0.4,0.6,0.5c0.2,0.1,0.5,0.2,0.8,0.2c0.3,0,0.6-0.1,0.8-0.3
			c0.2-0.2,0.3-0.5,0.3-0.8c0-0.2,0-0.3-0.1-0.4c-0.1-0.1-0.1-0.2-0.2-0.3c-0.1-0.1-0.2-0.2-0.3-0.2c-0.1-0.1-0.3-0.1-0.4-0.1
			c-0.2,0-0.4,0-0.6,0.1c-0.2,0.1-0.3,0.2-0.4,0.4h-0.8c0,0,0-0.1,0-0.2s0-0.2,0.1-0.4c0-0.2,0.1-0.3,0.1-0.5c0-0.2,0.1-0.4,0.1-0.6
			c0.1-0.5,0.2-1,0.3-1.6h2.8v0.8h-2.1l-0.3,1.6c0.1-0.1,0.2-0.2,0.4-0.2C43.7,40.5,43.9,40.4,44.1,40.4z"/>
		<path style="fill:#FFFFFF;" d="M81.5,39.1h-2.8v-0.8h4.1L80.1,44h-1L81.5,39.1z"/>
		<g>
			<path style="fill:#FFFFFF;" d="M116,41.1l-3.4,2v-1l2.1-1.3l-2.1-1.3v-0.9l3.4,2V41.1z"/>
			<path style="fill:#FFFFFF;" d="M118.5,40.4c0-0.3,0.1-0.5,0.2-0.8c0.1-0.2,0.3-0.4,0.4-0.6c0.2-0.2,0.4-0.3,0.7-0.4
				c0.3-0.1,0.5-0.2,0.8-0.2c0.3,0,0.6,0.1,0.8,0.2c0.3,0.1,0.5,0.3,0.7,0.5c0.2,0.2,0.3,0.5,0.4,0.8c0.1,0.3,0.1,0.7,0.1,1.1
				c0,0.5-0.1,1-0.2,1.4c-0.1,0.4-0.3,0.8-0.4,1s-0.4,0.5-0.7,0.6c-0.3,0.1-0.6,0.2-0.9,0.2c-0.4,0-0.7-0.1-1-0.2
				c-0.3-0.2-0.5-0.4-0.7-0.7l0.5-0.5c0.1,0.2,0.3,0.4,0.5,0.5c0.2,0.1,0.5,0.2,0.7,0.2c0.4,0,0.7-0.2,1-0.5s0.4-0.8,0.4-1.4
				c-0.1,0.2-0.3,0.4-0.5,0.6s-0.5,0.2-0.8,0.2c-0.3,0-0.5,0-0.8-0.1s-0.4-0.2-0.6-0.4c-0.2-0.2-0.3-0.4-0.4-0.6
				C118.6,40.9,118.5,40.6,118.5,40.4z M120.6,39.2c-0.2,0-0.3,0-0.5,0.1s-0.3,0.2-0.4,0.3c-0.1,0.1-0.2,0.2-0.3,0.4
				c-0.1,0.1-0.1,0.3-0.1,0.5s0,0.3,0.1,0.5c0.1,0.1,0.2,0.3,0.3,0.4s0.2,0.2,0.4,0.3c0.1,0.1,0.3,0.1,0.5,0.1c0.2,0,0.3,0,0.5-0.1
				c0.1-0.1,0.3-0.2,0.4-0.3s0.2-0.2,0.3-0.4c0.1-0.1,0.1-0.3,0.1-0.5s0-0.3-0.1-0.5c-0.1-0.1-0.2-0.3-0.3-0.4
				c-0.1-0.1-0.2-0.2-0.4-0.3C120.9,39.2,120.7,39.2,120.6,39.2z"/>
		</g>
	</g>
</g>
<g>
	<path style="fill:#FFFFFF;" d="M40.4,10.2L39,8.3l-0.7,0.7v1.3h-0.9V4.4h0.9v3.7l1.9-2h1l-1.6,1.8l1.7,2.4H40.4z"/>
	<path style="fill:#FFFFFF;" d="M43.9,4.6h0.8l0.7,1.9l0.7-1.9h0.8l-1,2.5l0.8,2.1l1.8-4.6h1l-2.3,5.7h-0.8l-1.1-2.5l-1.1,2.5h-0.8
		l-2.3-5.7h1L44,9.2l0.8-2.1L43.9,4.6z"/>
	<path style="fill:#FFFFFF;" d="M53.9,10.2H53V7.9c0-0.4-0.1-0.7-0.2-0.9c-0.1-0.2-0.3-0.3-0.6-0.3c-0.1,0-0.2,0-0.4,0.1
		c-0.1,0-0.2,0.1-0.3,0.2c-0.1,0.1-0.2,0.2-0.3,0.3c-0.1,0.1-0.1,0.3-0.2,0.4v2.5h-0.9V4.4H51v2.5c0.2-0.3,0.4-0.5,0.7-0.7
		C51.9,6,52.2,6,52.6,6c0.3,0,0.5,0,0.6,0.1c0.2,0.1,0.3,0.2,0.4,0.4c0.1,0.2,0.2,0.3,0.2,0.5c0,0.2,0.1,0.4,0.1,0.7V10.2z"/>
	<path style="fill:#FFFFFF;" d="M59.5,4.5l-3.9,5.7h-1l3.9-5.7H59.5z"/>
	<path style="fill:#FFFFFF;" d="M66.4,10.2h-0.9V7.9c0-0.4-0.1-0.7-0.2-0.9c-0.1-0.2-0.3-0.3-0.6-0.3c-0.3,0-0.5,0.1-0.7,0.3
		c-0.2,0.2-0.4,0.4-0.4,0.7v2.5h-0.9V7.9c0-0.4-0.1-0.7-0.2-0.9c-0.1-0.2-0.3-0.3-0.6-0.3c-0.3,0-0.5,0.1-0.7,0.3
		c-0.2,0.2-0.4,0.4-0.4,0.7v2.5H60V6h0.8v0.8c0.2-0.3,0.4-0.5,0.7-0.7C61.8,6,62.1,6,62.4,6S63,6,63.2,6.2c0.2,0.2,0.3,0.4,0.4,0.7
		c0.2-0.3,0.4-0.5,0.7-0.7C64.5,6,64.8,6,65.2,6c0.2,0,0.4,0,0.6,0.1c0.2,0.1,0.3,0.2,0.4,0.4c0.1,0.2,0.2,0.3,0.2,0.5
		c0,0.2,0.1,0.4,0.1,0.7V10.2z"/>
	<path style="fill:#FFFFFF;" d="M67.2,10.2c0-0.2,0-0.4,0.1-0.6s0.1-0.4,0.2-0.5s0.2-0.3,0.4-0.5c0.2-0.2,0.4-0.3,0.6-0.4
		c0.2-0.1,0.4-0.2,0.5-0.3c0.2-0.1,0.3-0.2,0.4-0.3c0.1-0.1,0.2-0.2,0.3-0.3c0.1-0.1,0.1-0.2,0.1-0.3c0-0.2-0.1-0.3-0.2-0.5
		c-0.1-0.1-0.4-0.2-0.6-0.2c-0.1,0-0.3,0-0.4,0.1s-0.2,0.1-0.3,0.2c-0.1,0.1-0.2,0.1-0.3,0.2C68,6.8,67.9,6.9,67.9,7l-0.6-0.6
		c0.1-0.1,0.1-0.1,0.3-0.2C67.7,6,67.8,5.9,68,5.9c0.2-0.1,0.3-0.1,0.6-0.2s0.4-0.1,0.7-0.1c0.3,0,0.5,0,0.7,0.1
		c0.2,0.1,0.4,0.2,0.5,0.3s0.2,0.3,0.3,0.4c0.1,0.2,0.1,0.3,0.1,0.5c0,0.2,0,0.4-0.1,0.5s-0.2,0.3-0.3,0.4c-0.1,0.1-0.2,0.2-0.4,0.3
		c-0.1,0.1-0.3,0.2-0.4,0.2c-0.1,0.1-0.2,0.1-0.4,0.2c-0.1,0.1-0.3,0.2-0.4,0.2c-0.1,0.1-0.3,0.2-0.4,0.3c-0.1,0.1-0.2,0.2-0.2,0.4
		h2.6v0.8H67.2z"/>
	<path style="fill:#FFFFFF;" d="M76.4,4.5l-3.9,5.7h-1l3.9-5.7H76.4z"/>
	<path style="fill:#FFFFFF;" d="M78.5,10.3c-0.3,0-0.5-0.1-0.8-0.2c-0.2-0.1-0.4-0.3-0.6-0.5S76.8,9.2,76.7,9s-0.1-0.5-0.1-0.9
		c0-0.3,0-0.6,0.1-0.8c0.1-0.3,0.2-0.5,0.4-0.7c0.2-0.2,0.4-0.4,0.6-0.5C77.9,6,78.2,6,78.4,6c0.3,0,0.6,0.1,0.9,0.2
		c0.3,0.2,0.5,0.4,0.6,0.6V4.4h0.9v4.8c0,0.1,0,0.2,0.1,0.2c0,0,0.1,0.1,0.2,0.1v0.8c-0.1,0-0.2,0-0.2,0c-0.1,0-0.1,0-0.1,0
		c-0.2,0-0.3,0-0.4-0.1c-0.1-0.1-0.2-0.2-0.2-0.4l0-0.3c-0.2,0.3-0.4,0.5-0.6,0.6S78.9,10.3,78.5,10.3z M78.7,9.5
		c0.1,0,0.3,0,0.4-0.1c0.1,0,0.2-0.1,0.4-0.2c0.1-0.1,0.2-0.2,0.3-0.3c0.1-0.1,0.1-0.2,0.2-0.3V7.6c0-0.1-0.1-0.3-0.2-0.4
		C79.6,7.1,79.5,7,79.4,7s-0.2-0.1-0.4-0.2c-0.1,0-0.3-0.1-0.4-0.1c-0.2,0-0.3,0-0.5,0.1c-0.1,0.1-0.3,0.2-0.4,0.3
		c-0.1,0.1-0.2,0.3-0.3,0.5c-0.1,0.2-0.1,0.3-0.1,0.5c0,0.2,0,0.4,0.1,0.5c0.1,0.2,0.2,0.3,0.3,0.4c0.1,0.1,0.3,0.2,0.4,0.3
		C78.4,9.5,78.6,9.5,78.7,9.5z"/>
	<path style="fill:#FFFFFF;" d="M81.9,5.3v-1h0.9v1H81.9z M81.9,10.2V6h0.9v4.2H81.9z"/>
	<path style="fill:#FFFFFF;" d="M85,10.3c-0.2,0-0.4,0-0.6-0.1c-0.2-0.1-0.3-0.2-0.4-0.3c-0.1-0.1-0.2-0.3-0.3-0.4
		c-0.1-0.2-0.1-0.3-0.1-0.5c0-0.2,0-0.4,0.1-0.5S83.9,8.1,84,8c0.2-0.1,0.3-0.2,0.6-0.3c0.2-0.1,0.5-0.1,0.7-0.1
		c0.2,0,0.4,0,0.6,0.1c0.2,0,0.4,0.1,0.5,0.1V7.6c0-0.3-0.1-0.6-0.3-0.7c-0.2-0.2-0.4-0.3-0.8-0.3c-0.2,0-0.4,0-0.7,0.1
		c-0.2,0.1-0.4,0.2-0.7,0.4l-0.3-0.6C84.3,6.1,84.9,6,85.5,6c0.6,0,1,0.1,1.3,0.4c0.3,0.3,0.5,0.7,0.5,1.3v1.5
		c0,0.2,0.1,0.3,0.2,0.3v0.8c-0.1,0-0.2,0-0.2,0c-0.1,0-0.1,0-0.2,0c-0.2,0-0.3,0-0.4-0.1c-0.1-0.1-0.2-0.2-0.2-0.3l0-0.3
		c-0.2,0.2-0.4,0.4-0.7,0.6C85.6,10.2,85.3,10.3,85,10.3z M85.2,9.6c0.2,0,0.4,0,0.6-0.1c0.2-0.1,0.3-0.2,0.4-0.3
		c0.1-0.1,0.2-0.2,0.2-0.3V8.4c-0.1-0.1-0.3-0.1-0.5-0.1s-0.3,0-0.5,0c-0.3,0-0.6,0.1-0.8,0.2c-0.2,0.1-0.3,0.3-0.3,0.5
		c0,0.2,0.1,0.4,0.2,0.5C84.8,9.6,85,9.6,85.2,9.6z"/>
</g>
</svg>
