<svg xmlns="http://www.w3.org/2000/svg" viewBox="0 0 20 20"><title>casa2 gris 20x20</title><path d="M9.26,7.74l0-.14h0L6.77,6.76a0.07,0.07,0,0,0-.07,0L4.68,9l0,0a0.08,0.08,0,0,0,0,.11h0L5.48,9.58l0.06,0L5.86,9.79l0.07,0,0.82,0.45h0l0.13,0.07a0.06,0.06,0,0,0,.07,0L9.22,7.85A0.14,0.14,0,0,0,9.26,7.74ZM8.47,7.53l-0.31.33L8,7.91,7.58,7.73V7.63l0.28-.31Zm-1.54.65v0.1l-0.25.28-0.13.05L6.13,8.43V8.34L6.4,8,6.51,8ZM6.56,7.86l0.26-.28,0.11,0L7.37,7.71V7.8L7.1,8.09,7,8.13,6.57,8V7.86ZM6.5,8.66v0.1L6.25,9l-0.11,0L5.73,8.87V8.78L6,8.52l0.13,0Zm0,0.1,0.11,0,0.46,0.2V9L6.85,9.3l-0.11,0L6.28,9.13V9ZM6.7,8.68V8.59L7,8.29l0.13,0L7.56,8.44v0.1l-0.28.31-0.1,0ZM7.14,8.2V8.11L7.42,7.8l0.09,0L8,8V8l-0.27.29-0.12,0Zm0.68-.89L7.55,7.6,7.4,7.66,7,7.5V7.4l0.26-.28ZM6.71,6.94L7.2,7.11,7,7.38l-0.14.05L6.4,7.27Zm-0.35.38L6.78,7.48V7.58l-0.25.27-0.13,0L6,7.72Zm-0.41.45L6.36,7.94V8l-0.26.28L6,8.36,5.57,8.18Zm-0.42.46,0.4,0.18v0.1L5.7,8.76l-0.12,0L5.17,8.61ZM4.81,9l0.32-.34,0.4,0.19v0.1l-0.27.3ZM5.28,9.26L5.56,9l0.12,0L6.07,9.1V9.22l-0.29.31ZM5.82,9.55l0.3-.33,0.12,0,0.44,0.2V9.5l-0.32.35Zm1,0.56L6.39,9.87,6.72,9.5l0.12,0L7.25,9.66Zm0.46-.5-0.41-.2V9.33L7.13,9,7.27,9,7.68,9.18Zm0.43-.47L7.31,8.95V8.86L7.6,8.54l0.12,0L8.14,8.68Zm0.46-.5L7.76,8.45V8.37L8,8.06,8.16,8,8.6,8.19Zm0.45-.49L8.21,8V7.88l0.31-.33L9,7.71Z" fill="#a3a3a3"/><path d="M12.55,8.93l0-.17h0L9.63,7.78a0.08,0.08,0,0,0-.08,0L7.18,10.37l0,0a0.1,0.1,0,0,0,0,.13h0l1,0.53,0.07,0,0.37,0.2,0.08,0,1,0.52h0L9.78,12a0.07,0.07,0,0,0,.08,0l2.64-2.9A0.16,0.16,0,0,0,12.55,8.93Zm-0.92-.25-0.36.39-0.14.05-0.55-.21V8.8l0.33-.36Zm-1.8.76V9.56l-0.3.32-0.15.06L8.89,9.73V9.62L9.2,9.28l0.14,0ZM9.39,9.07l0.3-.33,0.13,0,0.51,0.2V9L10,9.33l-0.14.05-0.49-.2V9.07ZM9.31,10v0.12L9,10.43l-0.13,0-0.48-.23V10.14l0.27-.3,0.15-.05Zm-0.26.46,0.31-.34,0.13,0L10,10.31v0.12l-0.29.32-0.13.05-0.54-.25V10.46ZM9.55,10V9.92l0.32-.35L10,9.52l0.54,0.22V9.86l-0.33.36-0.12,0Zm0.51-.57V9.36L10.39,9,10.5,9l0.57,0.22V9.29l-0.32.34-0.14.06Zm0.8-1-0.31.34-0.18.07L9.89,8.64V8.53l0.3-.33ZM9.56,8l0.58,0.19L9.85,8.5l-0.16.06L9.21,8.38Zm-0.41.44L9.65,8.63V8.73L9.35,9,9.2,9.11l-0.48-.2ZM8.67,9l0.48,0.2V9.27l-0.3.33-0.13.05L8.23,9.44ZM8.18,9.5L8.65,9.7V9.83l-0.26.29-0.14.05L7.76,9.94Zm-0.83.91L7.71,10l0.46,0.22v0.12l-0.32.34Zm0.55,0.3,0.33-.36,0.14,0,0.46,0.22v0.14L8.48,11ZM8.52,11l0.35-.38L9,10.61l0.51,0.24V11l-0.37.41ZM9.71,11.7l-0.53-.29L9.57,11l0.14,0,0.48,0.23Zm0.54-.59-0.49-.23v-0.1l0.3-.33,0.16-.06,0.48,0.21Zm0.51-.56-0.49-.22V10.23l0.34-.37,0.14,0L11.24,10ZM11.29,10l-0.5-.21V9.66l0.32-.35,0.15-.05,0.5,0.2Zm0.53-.58-0.5-.19V9.09l0.36-.39,0.6,0.2Z" fill="#a3a3a3"/><path d="M3.61,9a0.12,0.12,0,0,0,0,.1,0.12,0.12,0,0,0,.06.09L4.18,9.51l0.16,4.31,0,0.06,0,0,6.52,4.79,0.07,0h0l7.05-2.55h0l0,0,0,0V10.93l0.75-.2A0.12,0.12,0,0,0,19,10.64a0.12,0.12,0,0,0,0-.12l-4.41-3a0.14,0.14,0,0,0-.1,0h0L7.05,5.82a0.12,0.12,0,0,0-.08,0ZM3.89,9.06l2-1.86L7.09,6.06,14.25,7.7,10,12.8Zm7,8.29v1L4.58,13.78,4.42,9.66l5.64,3.41,0.78-.2v4.47Zm0.24,1.08V12.81L17.92,11v5Zm0.25-5.93H11.29l-0.93.25,4.15-5,4.13,2.78Z" fill="#a3a3a3"/><path d="M3.59,5.48a1.61,1.61,0,1,1,1.33-.71A1.6,1.6,0,0,1,3.59,5.48Zm0-2.92a1.31,1.31,0,1,0,.73.22A1.31,1.31,0,0,0,3.59,2.56Z" fill="#a3a3a3"/><path d="M3.58,2.1A0.06,0.06,0,0,1,3.53,2V1.34a0.06,0.06,0,0,1,.12,0V2A0.06,0.06,0,0,1,3.58,2.1Z" fill="#a3a3a3"/><path d="M4.84,2.62a0.06,0.06,0,0,1,0-.08L5.33,2a0.06,0.06,0,0,1,.08.08l-0.5.5A0.06,0.06,0,0,1,4.84,2.62Z" fill="#a3a3a3"/><path d="M5.36,3.87a0.06,0.06,0,0,1,.06-0.06h0.7a0.06,0.06,0,1,1,0,.12H5.42A0.06,0.06,0,0,1,5.36,3.87Z" fill="#a3a3a3"/><path d="M4.85,5.12a0.06,0.06,0,0,1,.08,0l0.5,0.5a0.06,0.06,0,0,1-.08.08l-0.5-.5A0.06,0.06,0,0,1,4.85,5.12Z" fill="#a3a3a3"/><path d="M3.59,5.64a0.06,0.06,0,0,1,.06.06V6.4a0.06,0.06,0,1,1-.12,0V5.7A0.06,0.06,0,0,1,3.59,5.64Z" fill="#a3a3a3"/><path d="M2.34,5.13a0.06,0.06,0,0,1,0,.08l-0.5.5a0.06,0.06,0,0,1-.08-0.08l0.5-.5A0.06,0.06,0,0,1,2.34,5.13Z" fill="#a3a3a3"/><path d="M1.82,3.88a0.06,0.06,0,0,1-.06.06H1.06a0.06,0.06,0,0,1,0-.12h0.7A0.06,0.06,0,0,1,1.82,3.88Z" fill="#a3a3a3"/><path d="M2.33,2.62a0.06,0.06,0,0,1-.08,0l-0.5-.5A0.06,0.06,0,0,1,1.84,2l0.5,0.5A0.06,0.06,0,0,1,2.33,2.62Z" fill="#a3a3a3"/></svg>