<svg xmlns="http://www.w3.org/2000/svg" viewBox="0 0 20 20"><title>casa1 gris 20x20</title><path d="M7.48,9.24a0.09,0.09,0,0,0,0,.07,0.09,0.09,0,0,0,0,.07L7.91,9.64,8,12.86v0l0,0,4.88,3.58,0.05,0h0l5.28-1.91h0l0,0V10.69l0.56-.15A0.09,0.09,0,0,0,19,10.48a0.09,0.09,0,0,0,0-.09l-3.3-2.27a0.1,0.1,0,0,0-.07,0h0L10.06,6.87,10,6.89Zm0.21,0L9.18,7.9l0.91-.85,5.36,1.23-3.16,3.81Zm5.21,6.2v0.76l-4.7-3.43L8.09,9.75l4.22,2.55,0.59-.15V15.5Zm0.18,0.81v-4.2l5.11-1.36v3.72Zm0.19-4.43h0l-0.69.19,3.1-3.73,3.09,2.08Z" fill="#a3a3a3"/><polygon points="5.58 9.02 5.82 8.76 5.83 8.68 5.4 8.52 5.32 8.55 5.07 8.82 5.07 8.89 5.48 9.06 5.58 9.02" fill="none"/><polygon points="5.18 9.46 5.43 9.19 5.43 9.1 5.03 8.94 4.92 8.98 4.69 9.23 4.69 9.32 5.09 9.5 5.18 9.46" fill="none"/><polygon points="4.31 9.71 4.72 9.9 4.82 9.86 5.03 9.62 5.04 9.53 4.64 9.36 4.54 9.39 4.31 9.64 4.31 9.71" fill="none"/><polygon points="4.91 8.18 5.13 7.94 4.69 7.79 4.43 8.08 4.79 8.22 4.91 8.18" fill="none"/><polygon points="4.93 8.28 5.3 8.42 5.43 8.37 5.66 8.12 5.16 7.95 4.93 8.2 4.93 8.28" fill="none"/><polygon points="5.04 8.8 5.27 8.55 5.27 8.47 4.89 8.32 4.79 8.36 4.57 8.6 4.57 8.69 4.93 8.84 5.04 8.8" fill="none"/><polygon points="3.7 9.42 3.81 9.38 4 9.17 4.01 9.08 3.66 8.92 3.43 9.17 3.43 9.29 3.7 9.42" fill="none"/><polygon points="4.42 8.76 4.19 9.02 4.19 9.1 4.55 9.26 4.66 9.21 4.88 8.97 4.89 8.88 4.52 8.73 4.42 8.76" fill="none"/><polygon points="4.54 8.59 4.75 8.35 4.75 8.27 4.39 8.13 4.06 8.48 4.42 8.63 4.54 8.59" fill="none"/><polygon points="5.45 8.48 5.87 8.64 5.97 8.6 6.24 8.31 5.7 8.13 5.45 8.4 5.45 8.48" fill="none"/><polygon points="5.85 8.78 5.61 9.04 5.61 9.12 5.99 9.27 6.34 8.88 5.97 8.74 5.85 8.78" fill="none"/><polygon points="4.16 9 4.38 8.75 4.39 8.67 4.02 8.52 3.69 8.88 4.06 9.04 4.16 9" fill="none"/><polygon points="5.47 9.2 5.22 9.47 5.22 9.55 5.58 9.71 5.95 9.32 5.57 9.16 5.47 9.2" fill="none"/><polygon points="6 8.61 6 8.7 6.38 8.84 6.72 8.47 6.27 8.32 6 8.61" fill="none"/><polygon points="5.07 9.64 4.84 9.88 4.84 9.96 5.21 10.13 5.55 9.76 5.18 9.6 5.07 9.64" fill="none"/><polygon points="4.19 9.65 4.29 9.62 4.5 9.39 4.51 9.3 4.15 9.14 4.04 9.18 3.83 9.4 3.84 9.48 4.19 9.65" fill="none"/><polygon points="4.14 9.69 3.79 9.52 3.69 9.56 3.44 9.83 3.88 10.06 4.13 9.79 4.14 9.69" fill="none"/><polygon points="4.7 10.04 4.41 10.35 4.8 10.57 5.17 10.17 4.8 10 4.7 10.04" fill="none"/><polygon points="4.66 9.94 4.28 9.76 4.17 9.79 3.91 10.08 4.38 10.34 4.66 10.03 4.66 9.94" fill="none"/><path d="M6.89,8.59a0.12,0.12,0,0,0,0-.1l0-.13h0L4.74,7.64a0.06,0.06,0,0,0-.06,0L3.43,9V8.8l1-1.11a0.1,0.1,0,0,0,0-.08l0-.11h0L2.6,6.87a0,0,0,0,0-.05,0L1,8.53l0,0a0.06,0.06,0,0,0,0,.08H1L1.64,9l0,0L1.92,9.14l0,0L2.58,9.5h0L2.7,9.56a0,0,0,0,0,.05,0L3.25,9V9.21l-0.34.37,0,0a0.07,0.07,0,0,0,0,.09h0l0.36,0.2v2.38H3a0.06,0.06,0,0,0-.07.06v0.17a0.06,0.06,0,0,0,.07.06H3.72a0.06,0.06,0,0,0,.07-0.06V12.34a0.06,0.06,0,0,0-.07-0.06H3.43V10l0.19,0.11,0.06,0L4,10.29l0.06,0,0.71,0.39h0l0.11,0.06a0.05,0.05,0,0,0,.06,0L5.57,10v3.26H5.27a0.06,0.06,0,0,0-.07.06v0.17a0.06,0.06,0,0,0,.07.06H6a0.06,0.06,0,0,0,.07-0.06V13.36A0.06,0.06,0,0,0,6,13.31H5.74V9.85Zm-3.57.06L3,8.51V8.44l0.22-.24,0.09,0L3.63,8.31ZM3,7.65l-0.2.21-0.09,0L2.45,7.77V7.7l0.19-.21,0.08,0L3.05,7.59V7.65Zm0,0,0.07,0L3.53,7.77V7.84l-0.2.22-0.09,0L2.88,7.95V7.88Zm-0.36.28V8l-0.19.21-0.1,0L2.13,8.12V8.05l0.2-.22,0.09,0ZM2.4,8.29V8.37l-0.18.2-0.08,0L1.82,8.45V8.38L2,8.19l0.09,0Zm0,0.08,0.08,0L2.85,8.49V8.57l-0.19.2-0.09,0L2.23,8.65V8.59Zm0.12-.06V8.24L2.75,8,2.85,8,3.19,8.13V8.2L3,8.43l-0.08,0Zm1.11,0L3.34,8.14V8.07l0.21-.23,0.1,0L4,7.94Zm0.63-.69L4,7.9,3.68,7.78V7.71l0.23-.25ZM3.88,7.45L3.65,7.7l-0.09,0L3.21,7.6V7.52l0.21-.23ZM3.39,7.28l-0.2.22-0.11,0L2.76,7.42V7.35L3,7.14ZM2.56,7L2.93,7.13l-0.19.2-0.1,0L2.33,7.26ZM2.3,7.29L2.61,7.41V7.48l-0.18.2-0.09,0L2,7.59ZM2,7.63L2.3,7.76V7.83L2.1,8,2,8.07,1.7,7.93ZM1.67,8L2,8.1V8.18L1.8,8.37l-0.09,0-0.3-.14Zm-0.53.58,0.24-.26,0.3,0.14V8.51l-0.2.22ZM1.49,8.74L1.7,8.52l0.09,0,0.3,0.14V8.72l-0.21.23ZM1.89,9l0.23-.25,0.09,0L2.53,8.84V8.92l-0.24.26ZM2.65,9.38L2.32,9.2l0.25-.27,0.09,0L3,9ZM3,9L2.69,8.86V8.79l0.19-.21,0.1,0L3.29,8.68ZM5.59,9.71L5.22,9.55V9.47L5.47,9.2l0.1,0L5.95,9.32ZM5.27,8.55L5,8.8l-0.1,0L4.57,8.69V8.6l0.23-.25,0.1,0L5.27,8.47V8.55Zm0,0,0.08,0L5.83,8.68V8.76L5.59,9l-0.11,0L5.07,8.89V8.82Zm-0.43.33V9l-0.22.24-0.11,0L4.19,9.1V9l0.23-.25,0.1,0ZM4.51,9.3V9.39l-0.21.23-0.1,0L3.84,9.48V9.4L4,9.18l0.11,0Zm-0.19.34,0.23-.25,0.1,0L5,9.53V9.62l-0.22.24-0.1,0-0.4-.19V9.64Zm0.37-.32V9.23L4.92,9,5,8.94,5.43,9.1V9.19l-0.25.27-0.09,0Zm1.3,0L5.61,9.12V9l0.24-.26L6,8.74,6.34,8.88Zm0.73-.8-0.34.37L6,8.7V8.61l0.27-.29ZM6.24,8.31L6,8.6l-0.1,0L5.45,8.48V8.4L5.7,8.13ZM5.66,8.12l-0.23.25L5.3,8.42,4.93,8.28V8.2L5.16,8Zm-1-.32L5.13,7.94l-0.22.24-0.12,0L4.43,8.08Zm-0.31.33L4.75,8.27V8.35l-0.21.23-0.11,0L4.06,8.48ZM4,8.52L4.39,8.67V8.75L4.15,9,4.06,9,3.69,8.88Zm-0.37.4L4,9.08V9.17l-0.2.22-0.1,0L3.43,9.29l-0.08,0,0.08-.09Zm-0.24.89L3.25,9.72,3,9.6l0.22-.24L3.31,9.3,3.43,9.35,3.66,9.46V9.55L3.43,9.8h0Zm0,0,0.24-.27,0.1,0L4.14,9.69v0.1l-0.25.27Zm0.47,0.26,0.26-.29,0.11,0L4.66,9.93V10l-0.28.3ZM4.8,10.57l-0.39-.22L4.7,10l0.1,0,0.36,0.17Zm0.4-.44L4.84,10V9.88l0.22-.24,0.12,0L5.55,9.76Z" fill="#a3a3a3"/><path d="M5.55,6.62a1.2,1.2,0,1,1,1-.53A1.2,1.2,0,0,1,5.55,6.62Zm0-2.19a1,1,0,1,0,.55.17A1,1,0,0,0,5.55,4.43Z" fill="#a3a3a3"/><path d="M5.55,4.09a0,0,0,0,1,0,0V3.52a0,0,0,0,1,.09,0V4A0,0,0,0,1,5.55,4.09Z" fill="#a3a3a3"/><path d="M6.49,4.47a0,0,0,0,1,0-.06L6.86,4a0,0,0,0,1,.06.06l-0.37.37A0,0,0,0,1,6.49,4.47Z" fill="#a3a3a3"/><path d="M6.88,5.41a0,0,0,0,1,0,0H7.44a0,0,0,1,1,0,.09H6.92A0,0,0,0,1,6.88,5.41Z" fill="#a3a3a3"/><path d="M6.49,6.35a0,0,0,0,1,.06,0L6.92,6.72a0,0,0,0,1-.06.06L6.49,6.41A0,0,0,0,1,6.49,6.35Z" fill="#a3a3a3"/><path d="M5.55,6.74a0,0,0,0,1,0,0V7.31a0,0,0,0,1-.09,0V6.78A0,0,0,0,1,5.55,6.74Z" fill="#a3a3a3"/><path d="M4.62,6.35a0,0,0,0,1,0,.06l-0.37.37a0,0,0,0,1-.06-0.06l0.37-.37A0,0,0,0,1,4.62,6.35Z" fill="#a3a3a3"/><path d="M4.22,5.42a0,0,0,0,1,0,0H3.66a0,0,0,1,1,0-.09H4.18A0,0,0,0,1,4.22,5.42Z" fill="#a3a3a3"/><path d="M4.61,4.48a0,0,0,0,1-.06,0L4.18,4.11A0,0,0,0,1,4.24,4L4.61,4.42A0,0,0,0,1,4.61,4.48Z" fill="#a3a3a3"/></svg>