<?xml version="1.0" encoding="utf-8"?>
<!-- Generator: Adobe Illustrator 19.2.0, SVG Export Plug-In . SVG Version: 6.00 Build 0)  -->
<svg version="1.1" id="Layer_1" xmlns="http://www.w3.org/2000/svg" xmlns:xlink="http://www.w3.org/1999/xlink" x="0px" y="0px"
	 viewBox="0 0 526 95" style="enable-background:new 0 0 526 95;" xml:space="preserve">
<g>
	<g>
		<g>
			
				<ellipse transform="matrix(1.097662e-002 -0.9999 0.9999 1.097662e-002 22.0623 94.9187)" style="fill:#FFC20E;" cx="59" cy="36.3" rx="28.7" ry="28.7"/>
			
				<ellipse transform="matrix(1.097662e-002 -0.9999 0.9999 1.097662e-002 22.0623 94.9187)" style="fill:#F58220;" cx="59" cy="36.3" rx="25.2" ry="25.2"/>
			
				<ellipse transform="matrix(1.097662e-002 -0.9999 0.9999 1.097662e-002 22.0623 94.9187)" style="fill:#9F1522;" cx="59" cy="36.3" rx="17.1" ry="17.1"/>
		</g>
		<path style="fill:#565555;" d="M44.9,87.5c-0.2,0-0.4-0.1-0.6-0.3l-6.8-9c-0.1-0.1-0.1-0.1-0.1-0.2l-0.9-2.8
			c-0.1-0.4,0.1-0.8,0.4-0.9l3.5-1.3c0.2-0.1,2.1-1.4,0.8-5.8c-3.8,0.1-24.7,0.6-30.8-1.6c-0.3-0.1-0.4-0.3-0.5-0.6
			c0-0.3,0.1-0.5,0.3-0.7l1.4-0.9L8.5,59c-0.2-0.2-0.2-0.5-0.1-0.7l2.9-6.2c0.1-0.1,0.1-0.2,0.2-0.3l1.7-1.2c0,0,0.1-0.1,0.1-0.1
			l14.8-6.6l1.7-5.3c0.1-0.2,0.3-0.4,0.5-0.5c0.2-0.1,0.5,0,0.7,0.1l3.5,2.7c0.2,0.1,0.3,0.3,0.3,0.5l0.1,1.1l3.1,2.4l1.3,0.7
			c0,0,0.1,0,0.1,0.1c0.5,0.3,1.9,1.2,3,0.8c0.7-0.2,1.2-1,1.6-2.2c1.3-4.5,0.1-6.4,0.1-6.4c-0.1-0.1-0.1-0.3-0.1-0.5l0.2-4.6
			c0-0.2,0.1-0.4,0.3-0.6c0.2-0.1,0.4-0.2,0.6-0.1l5.6,1.9c0.3,0.1,0.5,0.4,0.5,0.7l-0.1,4.9l0.4,2.7c0.3,0.2,0.8,0.4,1.2,0.3
			c0.7-0.1,1.4,0.4,2.9,3.4c0.7,1.4,1.4,2.9,1.5,3.1c0.1,0.3,1.8,3,5.6,2.6c0.1,0,0.2,0,0.3,0l5.2,1.8c0.4-0.4,1-1,1.8-1
			c0.8-0.1,1.5,0.2,2.2,0.9l7.3-5.2V35.9h-2l-1,1.5c-0.1,0.2-0.3,0.3-0.5,0.3c-0.2,0-0.4,0-0.6-0.2l-3.5-2.8l-2.4,0.8
			c-0.3,0.1-0.6,0-0.8-0.3L66,31.4c-0.1-0.1-0.2-0.3-0.1-0.5l0.3-3.8l-2.7-0.9C63.2,26.1,63,26,63,25.7l-2.1-6.9c0-0.1,0-0.3,0-0.4
			l2.9-8.9C63.9,9.2,64.2,9,64.5,9h2.9c0.1,0,0.2,0,0.2,0l5.2,1.8c0.1,0,0.2,0.1,0.3,0.2l1.9,1.8c0.1,0.1,0.2,0.3,0.2,0.5v1l2,2.7
			c0.1,0.1,0.2,0.3,0.1,0.5l-0.1,2.1l0.8,2l1-3.6c0,0,0-0.1,0-0.1l4.4-10c0.1-0.3,0.4-0.4,0.7-0.4h3.5c0.2,0,0.5,0.1,0.6,0.3
			l0.4,0.7l1.2-1c0.1-0.1,0.3-0.2,0.5-0.2h13c0.2,0,0.4,0.1,0.5,0.2c0.1,0.1,0.2,0.3,0.2,0.5l-0.1,2.8l7.3,5.7
			c0.2,0.1,0.3,0.3,0.3,0.6v34.2c0,0.2-0.1,0.3-0.2,0.5L91.8,75.3c-0.1,0.2-0.4,0.3-0.6,0.3l-12.4-0.2l-3.3,8.5
			c-0.1,0.3-0.3,0.4-0.6,0.5l-6.8,0.7c-0.2,0-0.3,0-0.4-0.1l-5.8-3.4l-5.6,0.5L56,85.9c0,0.2-0.2,0.4-0.4,0.6
			c-0.2,0.1-0.5,0.1-0.7,0l-6.5-2.9c-0.1,0-0.2-0.1-0.3-0.2L47.9,83l-2.4,4.2C45.4,87.3,45.2,87.5,44.9,87.5
			C44.9,87.5,44.9,87.5,44.9,87.5z"/>
		<g>
			<defs>
				<path id="SVGID_7_" d="M38.7,77.4l6.1,8l2.4-4.2c0.1-0.2,0.3-0.3,0.6-0.4c0.2,0,0.5,0.1,0.6,0.3l0.9,1.1l5.4,2.4l0.3-3.4
					c0-0.4,0.3-0.6,0.7-0.7l6.5-0.6c0.2,0,0.3,0,0.4,0.1l5.8,3.4l6.1-0.7l3.4-8.6c0.1-0.3,0.4-0.5,0.7-0.5c0,0,0,0,0,0L91,74.1
					l19.3-22.8V17.7L103,12c-0.2-0.1-0.3-0.4-0.3-0.6l0.1-2.4h-12l-1.6,1.3c-0.2,0.1-0.4,0.2-0.6,0.2c-0.2,0-0.4-0.2-0.5-0.3l-0.6-1
					h-2.7l-4.2,9.5l-1.6,5.6c-0.1,0.3-0.4,0.5-0.7,0.5c-0.3,0-0.6-0.2-0.7-0.5L76,20.1c0-0.1-0.1-0.2-0.1-0.3l0.1-2L74,15
					c-0.1-0.1-0.1-0.3-0.1-0.4v-0.9l-1.6-1.5l-5-1.7H65l-2.7,8.2l1.9,6.4l2.9,1c0.3,0.1,0.5,0.4,0.5,0.8l-0.3,4.1l2.4,3.2l2.3-0.8
					c0.2-0.1,0.5,0,0.7,0.1l3.2,2.5l0.8-1.2c0.1-0.2,0.4-0.3,0.6-0.3h3.2c0.4,0,0.7,0.3,0.7,0.7v13.6c0,0.2-0.1,0.5-0.3,0.6
					l-8.2,5.8c-0.3,0.2-0.7,0.2-1-0.1c-0.4-0.4-0.9-1-1.4-0.9c-0.5,0-0.9,0.6-1,0.8c-0.2,0.3-0.5,0.5-0.9,0.3l-5.6-1.9
					C58,53.9,56,50.1,55.9,50c0,0,0,0,0,0c-1-2.4-2.5-5.1-3.1-5.6c-1.2,0.1-2.2-0.7-2.3-0.8c-0.2-0.1-0.3-0.3-0.3-0.5l-0.5-3
					c0,0,0-0.1,0-0.1l0.1-4.5L45.7,34l-0.2,3.4c0.4,0.7,1.2,3.1,0,7.4c-0.5,1.7-1.4,2.7-2.6,3.1c-1.9,0.6-3.9-0.8-4.3-1l-1.3-0.7
					c0,0-0.1,0-0.1-0.1l-3.4-2.7c-0.2-0.1-0.3-0.3-0.3-0.5l-0.1-1.1L31,40l-1.5,4.6c-0.1,0.2-0.2,0.4-0.4,0.4l-15,6.7l-1.5,1.1
					l-2.7,5.6l3.4,4.6c0.1,0.2,0.2,0.4,0.1,0.6c0,0.2-0.2,0.4-0.3,0.5l-0.7,0.5c7.9,1.8,29.1,1.1,29.3,1.1c0.3,0,0.6,0.2,0.7,0.5
					c2.1,6.3-1.2,8-1.3,8.1c0,0,0,0-0.1,0l-2.9,1.1L38.7,77.4z"/>
			</defs>
			<clipPath id="SVGID_2_">
				<use xlink:href="#SVGID_7_"  style="overflow:visible;"/>
			</clipPath>
			<rect x="0.8" y="6.9" style="clip-path:url(#SVGID_2_);fill:#FFFFFF;" width="126.4" height="95.1"/>
			<g style="clip-path:url(#SVGID_2_);">
				<path style="fill:#001E59;" d="M63.5,51l-6.3-2.3c-0.7-0.2-1.4,0.1-1.7,0.8l-2.3,6.3c-0.2,0.7,0.1,1.4,0.8,1.7l6.3,2.3
					c0.7,0.2,1.4-0.1,1.7-0.8l2.3-6.3C64.5,52,64.2,51.2,63.5,51z"/>
				<path style="fill:#001E59;" d="M72.9,54.4l-6.3-2.3c-0.7-0.2-1.4,0.1-1.7,0.8l-2.3,6.3c-0.2,0.7,0.1,1.4,0.8,1.7l6.3,2.3
					c0.7,0.2,1.4-0.1,1.7-0.8l2.3-6.3C73.9,55.4,73.5,54.6,72.9,54.4z"/>
				<path style="fill:#001E59;" d="M82.2,57.8l-6.3-2.3c-0.7-0.2-1.4,0.1-1.7,0.8l-2.3,6.3c-0.2,0.7,0.1,1.4,0.8,1.7l6.3,2.3
					c0.7,0.2,1.4-0.1,1.7-0.8l2.3-6.3C83.2,58.8,82.9,58.1,82.2,57.8z"/>
				<path style="fill:#001E59;" d="M91.5,61.3L85.3,59c-0.7-0.2-1.4,0.1-1.7,0.8L81.3,66c-0.2,0.7,0.1,1.4,0.8,1.7l6.3,2.3
					c0.7,0.2,1.4-0.1,1.7-0.8l2.3-6.3C92.6,62.3,92.2,61.5,91.5,61.3z"/>
				<path style="fill:#001E59;" d="M60.1,60.3l-6.3-2.3c-0.7-0.2-1.4,0.1-1.7,0.8L49.8,65c-0.2,0.7,0.1,1.4,0.8,1.7l6.3,2.3
					c0.7,0.2,1.4-0.1,1.7-0.8l2.3-6.3C61.1,61.3,60.8,60.5,60.1,60.3z"/>
				<path style="fill:#001E59;" d="M69.4,63.7l-6.3-2.3c-0.7-0.2-1.4,0.1-1.7,0.8l-2.3,6.3c-0.2,0.7,0.1,1.4,0.8,1.7l6.3,2.3
					c0.7,0.2,1.4-0.1,1.7-0.8l2.3-6.3C70.4,64.7,70.1,63.9,69.4,63.7z"/>
				<path style="fill:#001E59;" d="M78.8,67.1l-6.3-2.3c-0.7-0.2-1.4,0.1-1.7,0.8l-2.3,6.3c-0.2,0.7,0.1,1.4,0.8,1.7l6.3,2.3
					c0.7,0.2,1.4-0.1,1.7-0.8l2.3-6.3C79.8,68.1,79.4,67.4,78.8,67.1z"/>
				<path style="fill:#001E59;" d="M88.1,70.6l-6.3-2.3c-0.7-0.2-1.4,0.1-1.7,0.8l-2.3,6.3c-0.2,0.7,0.1,1.4,0.8,1.7l6.3,2.3
					c0.7,0.2,1.4-0.1,1.7-0.8l2.3-6.3C89.1,71.6,88.8,70.8,88.1,70.6z"/>
				<path style="fill:#001E59;" d="M56.7,69.5l-6.3-2.3c-0.7-0.2-1.4,0.1-1.7,0.8l-2.3,6.3c-0.2,0.7,0.1,1.4,0.8,1.7l6.3,2.3
					c0.7,0.2,1.4-0.1,1.7-0.8l2.3-6.3C57.7,70.6,57.3,69.8,56.7,69.5z"/>
				<path style="fill:#001E59;" d="M66,73l-6.3-2.3c-0.7-0.2-1.4,0.1-1.7,0.8l-2.3,6.3c-0.2,0.7,0.1,1.4,0.8,1.7l6.3,2.3
					c0.7,0.2,1.4-0.1,1.7-0.8l2.3-6.3C67,74,66.7,73.2,66,73z"/>
				<path style="fill:#001E59;" d="M75.3,76.4l-6.3-2.3c-0.7-0.2-1.4,0.1-1.7,0.8l-2.3,6.3c-0.2,0.7,0.1,1.4,0.8,1.7l6.3,2.3
					c0.7,0.2,1.4-0.1,1.7-0.8l2.3-6.3C76.4,77.4,76,76.7,75.3,76.4z"/>
				<path style="fill:#001E59;" d="M84.7,79.9l-6.3-2.3c-0.7-0.2-1.4,0.1-1.7,0.8l-2.3,6.3c-0.2,0.7,0.1,1.4,0.8,1.7l6.3,2.3
					c0.7,0.2,1.4-0.1,1.7-0.8l2.3-6.3C85.7,80.9,85.4,80.1,84.7,79.9z"/>
			</g>
		</g>
	</g>
	<g>
		<g>
			<g>
				<path style="fill:#565555;" d="M124,33.3c-2.4,0-3.7,0.9-3.7,2.6c0,0.9,0.3,1.5,0.9,1.9c0.6,0.4,1.9,0.8,3.8,1.4
					c2,0.5,3.4,1.2,4.2,2c0.8,0.8,1.2,2,1.2,3.6c0,2.1-0.6,3.6-1.8,4.7c-1.2,1-2.8,1.5-4.8,1.5c-1.6,0-3.4-0.2-5.4-0.6l-1-0.2
					l0.3-2.6c2.6,0.3,4.6,0.5,6,0.5c2.4,0,3.6-1.1,3.6-3.2c0-0.8-0.3-1.4-0.8-1.8c-0.5-0.4-1.8-0.8-3.6-1.3c-1.9-0.5-3.3-1.1-4.2-2
					c-0.9-0.8-1.4-2.1-1.4-3.9c0-1.8,0.6-3.1,1.7-4.1c1.2-0.9,2.8-1.4,4.8-1.4c1.5,0,3.2,0.2,5.3,0.5l1,0.2l-0.3,2.6
					C127,33.4,125.1,33.3,124,33.3z"/>
				<path style="fill:#565555;" d="M133.9,50.6V30.8h3.2v19.8H133.9z"/>
				<path style="fill:#565555;" d="M147.5,33.3c-2.4,0-3.7,0.9-3.7,2.6c0,0.9,0.3,1.5,0.9,1.9c0.6,0.4,1.9,0.8,3.8,1.4
					c2,0.5,3.4,1.2,4.2,2c0.8,0.8,1.2,2,1.2,3.6c0,2.1-0.6,3.6-1.8,4.7c-1.2,1-2.8,1.5-4.8,1.5c-1.6,0-3.4-0.2-5.4-0.6l-1-0.2
					l0.3-2.6c2.6,0.3,4.6,0.5,6,0.5c2.4,0,3.6-1.1,3.6-3.2c0-0.8-0.3-1.4-0.8-1.8c-0.5-0.4-1.8-0.8-3.6-1.3c-1.9-0.5-3.3-1.1-4.2-2
					c-0.9-0.8-1.4-2.1-1.4-3.9c0-1.8,0.6-3.1,1.7-4.1c1.2-0.9,2.8-1.4,4.8-1.4c1.5,0,3.2,0.2,5.3,0.5l1,0.2l-0.3,2.6
					C150.5,33.4,148.6,33.3,147.5,33.3z"/>
				<path style="fill:#F9B408;" d="M157.8,37.7c1-1.3,2.6-1.9,5-1.9c2.3,0,4,0.6,5,1.9c1,1.3,1.5,3.1,1.5,5.6c0,2.5-0.5,4.4-1.4,5.7
					c-1,1.3-2.6,1.9-5,1.9s-4-0.6-5-1.9c-1-1.3-1.4-3.2-1.4-5.7C156.3,40.8,156.8,38.9,157.8,37.7z M160.1,47.1
					c0.4,0.8,1.3,1.2,2.6,1.2c1.3,0,2.2-0.4,2.6-1.2c0.4-0.8,0.7-2,0.7-3.8c0-1.8-0.2-3-0.7-3.7c-0.5-0.7-1.3-1.1-2.6-1.1
					c-1.2,0-2.1,0.4-2.6,1.1c-0.5,0.7-0.7,2-0.7,3.7C159.4,45,159.7,46.3,160.1,47.1z"/>
				<path style="fill:#F9B408;" d="M172.4,50.6V30.1h3.1v20.5H172.4z"/>
			</g>
		</g>
		<g>
			<path style="fill:#9F1522;" d="M120.2,57.4c-1,0-1.6,0.4-1.6,1.1c0,0.4,0.1,0.6,0.4,0.8c0.2,0.2,0.8,0.4,1.6,0.6
				c0.8,0.2,1.4,0.5,1.8,0.8c0.3,0.3,0.5,0.8,0.5,1.5c0,0.9-0.3,1.5-0.8,2c-0.5,0.4-1.2,0.7-2.1,0.7c-0.7,0-1.5-0.1-2.3-0.2
				l-0.4-0.1l0.1-1.1c1.1,0.1,2,0.2,2.5,0.2c1,0,1.5-0.5,1.5-1.4c0-0.4-0.1-0.6-0.3-0.8c-0.2-0.2-0.7-0.4-1.5-0.6
				c-0.8-0.2-1.4-0.5-1.8-0.8c-0.4-0.4-0.6-0.9-0.6-1.7s0.2-1.3,0.7-1.7c0.5-0.4,1.2-0.6,2.1-0.6c0.6,0,1.4,0.1,2.2,0.2l0.4,0.1
				l-0.1,1.1C121.4,57.4,120.6,57.4,120.2,57.4z"/>
			<path style="fill:#9F1522;" d="M124.8,64.7l2.1-8.4h2.7l2.1,8.4h-1.4l-0.5-1.8h-3.2l-0.5,1.8H124.8z M127.9,57.5l-1,4.3h2.7
				l-1-4.3H127.9z"/>
			<path style="fill:#9F1522;" d="M138.8,64.7h-4.7v-8.4h1.4v7.2h3.4V64.7z"/>
			<path style="fill:#9F1522;" d="M139.3,57.5v-1.2h6.1v1.2h-2.4v7.2h-1.4v-7.2H139.3z"/>
			<path style="fill:#9F1522;" d="M146.6,64.7l2.1-8.4h2.7l2.1,8.4h-1.4l-0.5-1.8h-3.2l-0.5,1.8H146.6z M149.7,57.5l-1,4.3h2.7
				l-1-4.3H149.7z"/>
		</g>
	</g>
</g>
<g>
	<path style="fill:#565555;" d="M203.8,37.7c-1.8,0-2.7,0.6-2.7,1.9c0,0.6,0.2,1.1,0.6,1.4c0.4,0.3,1.3,0.6,2.8,1
		c1.4,0.4,2.4,0.9,3,1.4c0.6,0.6,0.9,1.4,0.9,2.6c0,1.5-0.4,2.6-1.3,3.4c-0.9,0.7-2,1.1-3.5,1.1c-1.2,0-2.5-0.1-3.9-0.4l-0.8-0.1
		l0.2-1.9c1.9,0.3,3.3,0.4,4.3,0.4c1.7,0,2.6-0.8,2.6-2.3c0-0.6-0.2-1-0.6-1.3c-0.4-0.3-1.3-0.6-2.6-0.9s-2.4-0.8-3.1-1.4
		c-0.7-0.6-1-1.6-1-2.9c0-1.3,0.4-2.3,1.3-3c0.8-0.7,2-1,3.5-1c1.1,0,2.4,0.1,3.8,0.4l0.7,0.1l-0.2,1.9
		C206,37.8,204.6,37.7,203.8,37.7z"/>
	<path style="fill:#565555;" d="M210.7,38v-2.4h2.3V38H210.7z M210.7,50.3V39.8h2.3v10.5H210.7z"/>
	<path style="fill:#565555;" d="M223.1,42c-1.7-0.2-2.8-0.3-3.6-0.3s-1.3,0.1-1.5,0.3s-0.4,0.5-0.4,0.8s0.2,0.6,0.5,0.8
		c0.3,0.2,1.1,0.3,2.2,0.5s2,0.5,2.5,1c0.5,0.4,0.7,1.2,0.7,2.3c0,1.1-0.4,1.9-1.1,2.4c-0.7,0.5-1.7,0.8-3.1,0.8
		c-0.9,0-1.9-0.1-3.2-0.4l-0.7-0.1l0.1-1.9c1.7,0.2,2.9,0.3,3.6,0.3s1.3-0.1,1.6-0.3c0.3-0.2,0.5-0.5,0.5-0.9s-0.2-0.7-0.5-0.9
		c-0.3-0.2-1-0.3-2.2-0.5c-1.1-0.2-2-0.5-2.5-0.9s-0.8-1.1-0.8-2.2c0-1.1,0.4-1.9,1.1-2.4c0.7-0.5,1.7-0.8,2.8-0.8
		c0.9,0,2,0.1,3.3,0.3l0.7,0.1L223.1,42z"/>
	<path style="fill:#565555;" d="M231.3,41.8h-2.9v4.6c0,0.9,0.1,1.4,0.2,1.7s0.4,0.4,1,0.4l1.7-0.1l0.1,1.8
		c-0.9,0.2-1.7,0.3-2.1,0.3c-1.2,0-2-0.3-2.4-0.8c-0.4-0.5-0.7-1.6-0.7-3.1v-4.9h-1.3v-2h1.3v-3h2.3v3h2.9V41.8z"/>
	<path style="fill:#565555;" d="M240.6,48.4l0.6-0.1l0,1.7c-1.6,0.3-3,0.5-4.2,0.5c-1.6,0-2.7-0.4-3.3-1.3c-0.7-0.9-1-2.2-1-4.1
		c0-3.7,1.5-5.6,4.6-5.6c2.9,0,4.4,1.6,4.4,4.8l-0.1,1.6h-6.5c0,0.9,0.2,1.5,0.6,1.9c0.4,0.4,1,0.6,2,0.6S239.6,48.5,240.6,48.4z
		 M239.3,44.3c0-1-0.2-1.8-0.5-2.2c-0.3-0.4-0.9-0.6-1.7-0.6c-0.8,0-1.4,0.2-1.7,0.7c-0.4,0.4-0.5,1.1-0.6,2.1H239.3z"/>
	<path style="fill:#565555;" d="M246.1,50.3h-2.3V39.8h2.3v0.7c1-0.6,1.9-0.9,2.7-0.9c1.2,0,2.1,0.3,2.7,1c1.3-0.7,2.5-1,3.8-1
		c1.3,0,2.1,0.4,2.7,1.2c0.5,0.8,0.8,2.1,0.8,3.9v5.6h-2.3v-5.6c0-1.1-0.1-1.9-0.3-2.4c-0.2-0.5-0.7-0.7-1.4-0.7
		c-0.6,0-1.3,0.1-2,0.4l-0.4,0.1c0.1,0.3,0.2,1.2,0.2,2.7v5.4h-2.3v-5.4c0-1.2-0.1-2.1-0.3-2.6c-0.2-0.5-0.7-0.7-1.5-0.7
		c-0.7,0-1.4,0.1-2,0.4l-0.3,0.1V50.3z"/>
	<path style="fill:#565555;" d="M269.2,43v4.8c0,0.3,0.1,0.5,0.2,0.7c0.1,0.1,0.4,0.2,0.7,0.3l-0.1,1.7c-1.2,0-2.1-0.3-2.8-0.8
		c-1.1,0.5-2.2,0.8-3.4,0.8c-2.1,0-3.1-1.1-3.1-3.3c0-1.1,0.3-1.8,0.9-2.3c0.6-0.5,1.4-0.8,2.6-0.9l2.7-0.2V43c0-0.6-0.1-1-0.4-1.2
		c-0.2-0.2-0.6-0.3-1.1-0.3c-0.9,0-2,0.1-3.4,0.2l-0.7,0l-0.1-1.6c1.5-0.4,2.9-0.5,4.2-0.5c1.3,0,2.2,0.3,2.8,0.8
		C268.9,41,269.2,41.8,269.2,43z M264.5,45.7c-1,0.1-1.4,0.6-1.4,1.6s0.4,1.4,1.3,1.4c0.7,0,1.4-0.1,2.2-0.3l0.4-0.1v-2.8
		L264.5,45.7z"/>
	<path style="fill:#565555;" d="M285.2,35.4v14.9H283v-0.5c-1,0.5-2,0.8-2.8,0.8c-1.4,0-2.4-0.4-3-1.2s-1-2.2-1-4.2
		c0-1.9,0.4-3.4,1.1-4.2c0.7-0.9,1.8-1.3,3.3-1.3c0.5,0,1.3,0.1,2.4,0.3v-4.4H285.2z M282.6,48.1l0.4-0.1v-6.2
		c-0.8-0.1-1.6-0.2-2.3-0.2c-1.4,0-2.1,1.2-2.1,3.5c0,1.3,0.2,2.2,0.5,2.7s0.9,0.7,1.6,0.7C281.3,48.5,281.9,48.4,282.6,48.1z"/>
	<path style="fill:#565555;" d="M295.5,48.4l0.6-0.1l0,1.7c-1.6,0.3-3,0.5-4.2,0.5c-1.6,0-2.7-0.4-3.3-1.3c-0.7-0.9-1-2.2-1-4.1
		c0-3.7,1.5-5.6,4.6-5.6c2.9,0,4.4,1.6,4.4,4.8l-0.1,1.6h-6.5c0,0.9,0.2,1.5,0.6,1.9c0.4,0.4,1,0.6,2,0.6S294.4,48.5,295.5,48.4z
		 M294.2,44.3c0-1-0.2-1.8-0.5-2.2c-0.3-0.4-0.9-0.6-1.7-0.6c-0.8,0-1.4,0.2-1.7,0.7c-0.4,0.4-0.5,1.1-0.6,2.1H294.2z"/>
	<path style="fill:#565555;" d="M303.6,50.3V35.9h2.3v14.4H303.6z"/>
	<path style="fill:#565555;" d="M311.2,50.3h-2.3V39.8h2.3v0.7c1-0.6,2-0.9,2.9-0.9c1.4,0,2.4,0.4,2.9,1.2c0.5,0.8,0.8,2.1,0.8,3.9
		v5.6h-2.3v-5.6c0-1.1-0.1-1.9-0.4-2.4c-0.2-0.5-0.7-0.7-1.5-0.7c-0.7,0-1.4,0.1-2.1,0.4l-0.3,0.1V50.3z"/>
	<path style="fill:#565555;" d="M323.2,41.8v8.5h-2.3v-8.5h-1.2v-2h1.2v-0.7c0-1.5,0.2-2.5,0.7-3.1c0.4-0.6,1.2-0.8,2.3-0.8l2.3,0.2
		l0,1.9c-0.7,0-1.3,0-1.7,0s-0.8,0.1-1,0.4c-0.2,0.3-0.3,0.8-0.3,1.5v0.7h2.8v2H323.2z"/>
	<path style="fill:#565555;" d="M328.1,40.9c0.7-0.9,1.9-1.4,3.6-1.4c1.7,0,2.9,0.5,3.6,1.4c0.7,0.9,1.1,2.3,1.1,4.1s-0.4,3.2-1,4.1
		c-0.7,0.9-1.9,1.4-3.6,1.4c-1.7,0-2.9-0.5-3.6-1.4c-0.7-0.9-1-2.3-1-4.1S327.4,41.9,328.1,40.9z M329.8,47.8c0.3,0.6,1,0.8,1.9,0.8
		c0.9,0,1.6-0.3,1.9-0.8c0.3-0.6,0.5-1.5,0.5-2.8c0-1.3-0.2-2.2-0.5-2.7c-0.3-0.5-1-0.8-1.9-0.8c-0.9,0-1.5,0.3-1.9,0.8
		c-0.3,0.5-0.5,1.4-0.5,2.7C329.4,46.3,329.5,47.2,329.8,47.8z"/>
	<path style="fill:#565555;" d="M338.7,50.3V39.8h2.3v1.3c1.2-0.8,2.4-1.3,3.6-1.5v2.3c-1.2,0.2-2.2,0.5-3.1,0.9L341,43v7.3H338.7z"
		/>
	<path style="fill:#565555;" d="M348.5,50.3h-2.3V39.8h2.3v0.7c1-0.6,1.9-0.9,2.7-0.9c1.2,0,2.1,0.3,2.7,1c1.3-0.7,2.5-1,3.8-1
		c1.3,0,2.1,0.4,2.7,1.2c0.5,0.8,0.8,2.1,0.8,3.9v5.6h-2.3v-5.6c0-1.1-0.1-1.9-0.3-2.4c-0.2-0.5-0.7-0.7-1.4-0.7
		c-0.6,0-1.3,0.1-2,0.4l-0.4,0.1c0.1,0.3,0.2,1.2,0.2,2.7v5.4h-2.3v-5.4c0-1.2-0.1-2.1-0.3-2.6c-0.2-0.5-0.7-0.7-1.5-0.7
		c-0.7,0-1.4,0.1-2,0.4l-0.3,0.1V50.3z"/>
	<path style="fill:#565555;" d="M371.6,43v4.8c0,0.3,0.1,0.5,0.2,0.7c0.1,0.1,0.4,0.2,0.7,0.3l-0.1,1.7c-1.2,0-2.1-0.3-2.8-0.8
		c-1.1,0.5-2.2,0.8-3.4,0.8c-2.1,0-3.1-1.1-3.1-3.3c0-1.1,0.3-1.8,0.9-2.3c0.6-0.5,1.4-0.8,2.6-0.9l2.7-0.2V43c0-0.6-0.1-1-0.4-1.2
		c-0.2-0.2-0.6-0.3-1.1-0.3c-0.9,0-2,0.1-3.4,0.2l-0.7,0l-0.1-1.6c1.5-0.4,2.9-0.5,4.2-0.5c1.3,0,2.2,0.3,2.8,0.8
		C371.3,41,371.6,41.8,371.6,43z M366.9,45.7c-1,0.1-1.4,0.6-1.4,1.6s0.4,1.4,1.3,1.4c0.7,0,1.4-0.1,2.2-0.3l0.4-0.1v-2.8
		L366.9,45.7z"/>
	<path style="fill:#565555;" d="M378.4,39.6c0.7,0,1.6,0.1,2.6,0.3l0.5,0.1l-0.1,1.8c-1.1-0.1-1.9-0.2-2.5-0.2
		c-1.1,0-1.8,0.2-2.1,0.7c-0.4,0.5-0.5,1.4-0.5,2.7c0,1.3,0.2,2.2,0.5,2.7s1.1,0.8,2.2,0.8l2.5-0.2l0.1,1.8
		c-1.4,0.3-2.5,0.4-3.2,0.4c-1.6,0-2.7-0.4-3.4-1.3c-0.7-0.9-1-2.3-1-4.2c0-2,0.3-3.4,1-4.2C375.8,40,376.9,39.6,378.4,39.6z"/>
	<path style="fill:#565555;" d="M383.8,38v-2.4h2.3V38H383.8z M383.8,50.3V39.8h2.3v10.5H383.8z"/>
	<path style="fill:#565555;" d="M389.4,40.9c0.7-0.9,1.9-1.4,3.6-1.4c1.7,0,2.9,0.5,3.6,1.4c0.7,0.9,1.1,2.3,1.1,4.1s-0.4,3.2-1,4.1
		c-0.7,0.9-1.9,1.4-3.6,1.4c-1.7,0-2.9-0.5-3.6-1.4c-0.7-0.9-1-2.3-1-4.1S388.7,41.9,389.4,40.9z M390.2,36.7l5-2.1l0.7,2l-5.1,1.6
		L390.2,36.7z M391.1,47.8c0.3,0.6,1,0.8,1.9,0.8c0.9,0,1.6-0.3,1.9-0.8c0.3-0.6,0.5-1.5,0.5-2.8c0-1.3-0.2-2.2-0.5-2.7
		c-0.3-0.5-1-0.8-1.9-0.8c-0.9,0-1.5,0.3-1.9,0.8c-0.3,0.5-0.5,1.4-0.5,2.7C390.7,46.3,390.8,47.2,391.1,47.8z"/>
	<path style="fill:#565555;" d="M402.3,50.3H400V39.8h2.3v0.7c1-0.6,2-0.9,2.9-0.9c1.4,0,2.4,0.4,2.9,1.2c0.5,0.8,0.8,2.1,0.8,3.9
		v5.6h-2.3v-5.6c0-1.1-0.1-1.9-0.4-2.4c-0.2-0.5-0.7-0.7-1.5-0.7c-0.7,0-1.4,0.1-2.1,0.4l-0.3,0.1V50.3z"/>
	<path style="fill:#565555;" d="M420.6,37.7c-1.8,0-2.7,0.6-2.7,1.9c0,0.6,0.2,1.1,0.6,1.4c0.4,0.3,1.3,0.6,2.8,1
		c1.4,0.4,2.4,0.9,3,1.4c0.6,0.6,0.9,1.4,0.9,2.6c0,1.5-0.4,2.6-1.3,3.4c-0.9,0.7-2,1.1-3.5,1.1c-1.2,0-2.5-0.1-3.9-0.4l-0.8-0.1
		l0.2-1.9c1.9,0.3,3.3,0.4,4.3,0.4c1.7,0,2.6-0.8,2.6-2.3c0-0.6-0.2-1-0.6-1.3c-0.4-0.3-1.3-0.6-2.6-0.9s-2.4-0.8-3.1-1.4
		c-0.7-0.6-1-1.6-1-2.9c0-1.3,0.4-2.3,1.3-3c0.8-0.7,2-1,3.5-1c1.1,0,2.4,0.1,3.8,0.4l0.7,0.1l-0.2,1.9
		C422.8,37.8,421.4,37.7,420.6,37.7z"/>
	<path style="fill:#565555;" d="M428,40.9c0.7-0.9,1.9-1.4,3.6-1.4c1.7,0,2.9,0.5,3.6,1.4c0.7,0.9,1.1,2.3,1.1,4.1s-0.4,3.2-1,4.1
		c-0.7,0.9-1.9,1.4-3.6,1.4c-1.7,0-2.9-0.5-3.6-1.4c-0.7-0.9-1-2.3-1-4.1S427.3,41.9,428,40.9z M429.8,47.8c0.3,0.6,1,0.8,1.9,0.8
		c0.9,0,1.6-0.3,1.9-0.8c0.3-0.6,0.5-1.5,0.5-2.8c0-1.3-0.2-2.2-0.5-2.7c-0.3-0.5-1-0.8-1.9-0.8c-0.9,0-1.5,0.3-1.9,0.8
		c-0.3,0.5-0.5,1.4-0.5,2.7C429.3,46.3,429.4,47.2,429.8,47.8z"/>
	<path style="fill:#565555;" d="M438.7,50.3V35.4h2.3v14.9H438.7z"/>
	<path style="fill:#565555;" d="M451.7,43v4.8c0,0.3,0.1,0.5,0.2,0.7c0.1,0.1,0.4,0.2,0.7,0.3l-0.1,1.7c-1.2,0-2.1-0.3-2.8-0.8
		c-1.1,0.5-2.2,0.8-3.4,0.8c-2.1,0-3.1-1.1-3.1-3.3c0-1.1,0.3-1.8,0.9-2.3c0.6-0.5,1.4-0.8,2.6-0.9l2.7-0.2V43c0-0.6-0.1-1-0.4-1.2
		c-0.2-0.2-0.6-0.3-1.1-0.3c-0.9,0-2,0.1-3.4,0.2l-0.7,0l-0.1-1.6c1.5-0.4,2.9-0.5,4.2-0.5c1.3,0,2.2,0.3,2.8,0.8
		C451.4,41,451.7,41.8,451.7,43z M447,45.7c-1,0.1-1.4,0.6-1.4,1.6s0.4,1.4,1.3,1.4c0.7,0,1.4-0.1,2.2-0.3l0.4-0.1v-2.8L447,45.7z"
		/>
	<path style="fill:#565555;" d="M454.6,50.3V39.8h2.3v1.3c1.2-0.8,2.4-1.3,3.6-1.5v2.3c-1.2,0.2-2.2,0.5-3.1,0.9l-0.5,0.2v7.3H454.6
		z"/>
	<path style="fill:#565555;" d="M471.2,37.7c-1.8,0-2.7,0.6-2.7,1.9c0,0.6,0.2,1.1,0.6,1.4c0.4,0.3,1.3,0.6,2.8,1
		c1.4,0.4,2.4,0.9,3,1.4c0.6,0.6,0.9,1.4,0.9,2.6c0,1.5-0.4,2.6-1.3,3.4c-0.9,0.7-2,1.1-3.5,1.1c-1.2,0-2.5-0.1-3.9-0.4l-0.8-0.1
		l0.2-1.9c1.9,0.3,3.3,0.4,4.3,0.4c1.7,0,2.6-0.8,2.6-2.3c0-0.6-0.2-1-0.6-1.3c-0.4-0.3-1.3-0.6-2.6-0.9s-2.4-0.8-3.1-1.4
		c-0.7-0.6-1-1.6-1-2.9c0-1.3,0.4-2.3,1.3-3c0.8-0.7,2-1,3.5-1c1.1,0,2.4,0.1,3.8,0.4l0.7,0.1l-0.2,1.9
		C473.4,37.8,472.1,37.7,471.2,37.7z"/>
	<path style="fill:#565555;" d="M485.9,43v4.8c0,0.3,0.1,0.5,0.2,0.7c0.1,0.1,0.4,0.2,0.7,0.3l-0.1,1.7c-1.2,0-2.1-0.3-2.8-0.8
		c-1.1,0.5-2.2,0.8-3.4,0.8c-2.1,0-3.1-1.1-3.1-3.3c0-1.1,0.3-1.8,0.9-2.3c0.6-0.5,1.4-0.8,2.6-0.9l2.7-0.2V43c0-0.6-0.1-1-0.4-1.2
		c-0.2-0.2-0.6-0.3-1.1-0.3c-0.9,0-2,0.1-3.4,0.2l-0.7,0l-0.1-1.6c1.5-0.4,2.9-0.5,4.2-0.5c1.3,0,2.2,0.3,2.8,0.8
		C485.6,41,485.9,41.8,485.9,43z M481.2,45.7c-1,0.1-1.4,0.6-1.4,1.6s0.4,1.4,1.3,1.4c0.7,0,1.4-0.1,2.2-0.3l0.4-0.1v-2.8
		L481.2,45.7z"/>
	<path style="fill:#565555;" d="M488.9,50.3V35.4h2.3v14.9H488.9z"/>
	<path style="fill:#565555;" d="M499.8,41.8h-2.9v4.6c0,0.9,0.1,1.4,0.2,1.7s0.4,0.4,1,0.4l1.7-0.1l0.1,1.8
		c-0.9,0.2-1.7,0.3-2.1,0.3c-1.2,0-2-0.3-2.4-0.8c-0.4-0.5-0.7-1.6-0.7-3.1v-4.9h-1.3v-2h1.3v-3h2.3v3h2.9V41.8z"/>
	<path style="fill:#565555;" d="M509.4,43v4.8c0,0.3,0.1,0.5,0.2,0.7c0.1,0.1,0.4,0.2,0.7,0.3l-0.1,1.7c-1.2,0-2.1-0.3-2.8-0.8
		c-1.1,0.5-2.2,0.8-3.4,0.8c-2.1,0-3.1-1.1-3.1-3.3c0-1.1,0.3-1.8,0.9-2.3c0.6-0.5,1.4-0.8,2.6-0.9l2.7-0.2V43c0-0.6-0.1-1-0.4-1.2
		c-0.2-0.2-0.6-0.3-1.1-0.3c-0.9,0-2,0.1-3.4,0.2l-0.7,0l-0.1-1.6c1.5-0.4,2.9-0.5,4.2-0.5c1.3,0,2.2,0.3,2.8,0.8
		C509.1,41,509.4,41.8,509.4,43z M504.7,45.7c-1,0.1-1.4,0.6-1.4,1.6s0.4,1.4,1.3,1.4c0.7,0,1.4-0.1,2.2-0.3l0.4-0.1v-2.8
		L504.7,45.7z"/>
</g>
</svg>
