<svg xmlns="http://www.w3.org/2000/svg" xmlns:xlink="http://www.w3.org/1999/xlink" viewBox="0 0 125 50"><defs><clipPath id="a"><rect x="1.19" y="12.17" width="122.62" height="25.61" rx="7.05" ry="7.05" fill="none"/></clipPath></defs><title>escalas en blanco con contorno</title><path d="M116.76,38.46H8.24A7.75,7.75,0,0,1,.5,30.72V19.22a7.75,7.75,0,0,1,7.74-7.74H116.76a7.75,7.75,0,0,1,7.74,7.74v11.5A7.75,7.75,0,0,1,116.76,38.46ZM8.24,12.85a6.37,6.37,0,0,0-6.37,6.37v11.5a6.37,6.37,0,0,0,6.37,6.37H116.76a6.37,6.37,0,0,0,6.37-6.37V19.22a6.37,6.37,0,0,0-6.37-6.37H8.24Z" fill="#fff"/><g clip-path="url(#a)"><rect x="106.77" y="20.73" width="25.72" height="8.37" transform="translate(144.54 -94.72) rotate(90)" fill="#be0000"/><rect x="98.61" y="20.73" width="25.72" height="8.37" transform="translate(136.38 -86.56) rotate(90)" fill="#d80000"/><rect x="90.45" y="20.73" width="25.72" height="8.37" transform="translate(128.22 -78.4) rotate(90)" fill="#f20000"/><rect x="82.29" y="20.73" width="25.72" height="8.37" transform="translate(120.06 -70.23) rotate(90)" fill="#ff3000"/><rect x="74.12" y="20.73" width="25.72" height="8.37" transform="translate(111.9 -62.07) rotate(90)" fill="#ff7900"/><rect x="65.96" y="20.73" width="25.72" height="8.37" transform="translate(103.73 -53.91) rotate(90)" fill="#ffb24d"/><rect x="57.8" y="20.73" width="25.72" height="8.37" transform="translate(95.57 -45.75) rotate(90)" fill="#fce155"/><rect x="49.64" y="20.73" width="25.72" height="8.37" transform="translate(87.41 -37.59) rotate(90)" fill="#f7ff5d"/><rect x="41.48" y="20.73" width="25.72" height="8.37" transform="translate(79.25 -29.43) rotate(90)" fill="#ddff73"/><rect x="33.32" y="20.73" width="25.72" height="8.37" transform="translate(71.09 -21.27) rotate(90)" fill="#c4f986"/><rect x="25.16" y="20.73" width="25.72" height="8.37" transform="translate(62.93 -13.11) rotate(90)" fill="#abed98"/><rect x="17" y="20.73" width="25.72" height="8.37" transform="translate(54.77 -4.94) rotate(90)" fill="#8cd9a6"/><rect x="8.83" y="20.73" width="25.72" height="8.37" transform="translate(46.61 3.22) rotate(90)" fill="#6abaae"/><rect x="0.67" y="20.73" width="25.72" height="8.37" transform="translate(38.44 11.38) rotate(90)" fill="#4a9ab5"/><rect x="-7.49" y="20.73" width="25.72" height="8.37" transform="translate(30.28 19.54) rotate(90)" fill="#3279bd"/></g><path d="M39.83,8.92a0.25,0.25,0,0,1-.21-0.11l-0.9-1.34-0.21.21v1a0.25,0.25,0,0,1-.25.25H37.32a0.25,0.25,0,0,1-.25-0.25V3.56a0.25,0.25,0,0,1,.25-0.25h0.94a0.25,0.25,0,0,1,.25.25V6l1-1.16a0.25,0.25,0,0,1,.19-0.08h1a0.25,0.25,0,0,1,.19.42L39.68,6.58,41,8.52a0.25,0.25,0,0,1-.21.39h-1Z" fill="#fff"/><path d="M38.26,3.56v3.1L39.73,5h1L39.37,6.56l1.46,2.11h-1L38.76,7.08l-0.5.5V8.67H37.32V3.56h0.94m0-.5H37.32a0.5,0.5,0,0,0-.5.5V8.67a0.5,0.5,0,0,0,.5.5h0.94a0.5,0.5,0,0,0,.5-0.5V8l0.65,1a0.5,0.5,0,0,0,.42.22h1a0.5,0.5,0,0,0,.41-0.79L40,6.6l1.11-1.26a0.5,0.5,0,0,0-.38-0.83h-1a0.5,0.5,0,0,0-.37.17l-0.6.67V3.56a0.5,0.5,0,0,0-.5-0.5h0Z"/><path d="M45.6,8.92a0.25,0.25,0,0,1-.23-0.15L44.73,7.24,44.1,8.76a0.25,0.25,0,0,1-.23.15H43.06a0.25,0.25,0,0,1-.23-0.16l-2-5a0.25,0.25,0,0,1,.23-0.34h1a0.25,0.25,0,0,1,.23.16l1.19,3.24L43.85,6,43.05,3.8a0.25,0.25,0,0,1,.23-0.34h0.89a0.25,0.25,0,0,1,.24.17l0.32,0.95,0.32-.95a0.25,0.25,0,0,1,.24-0.17h0.9a0.25,0.25,0,0,1,.23.34L45.61,6,46,6.86l1.18-3.25a0.25,0.25,0,0,1,.23-0.16h1a0.25,0.25,0,0,1,.23.34l-2,5a0.25,0.25,0,0,1-.23.16H45.6Z" fill="#fff"/><path d="M48.43,3.7h0m0,0-2,5H45.6L44.73,6.58,43.87,8.67H43.06l-2-5h1L43.5,7.56,44.12,6,43.29,3.71h0.89l0.56,1.65,0.56-1.65h0.9L45.34,6,46,7.56,47.38,3.7h1m-2.24,0h0m2.24-.51H47.38a0.5,0.5,0,0,0-.47.33L46,6.15,45.88,6l0.76-2a0.5,0.5,0,0,0-.45-0.72h-0.9a0.5,0.5,0,0,0-.47.34l-0.09.25-0.09-.25a0.5,0.5,0,0,0-.47-0.34H43.29a0.5,0.5,0,0,0-.47.67L43.58,6l-0.07.17-1-2.62a0.5,0.5,0,0,0-.47-0.33h-1a0.5,0.5,0,0,0-.46.69l2,5a0.5,0.5,0,0,0,.46.31h0.81a0.5,0.5,0,0,0,.46-0.31l0.4-1,0.4,1a0.5,0.5,0,0,0,.46.31h0.81a0.5,0.5,0,0,0,.46-0.31l2-4.93a0.5,0.5,0,0,0-.44-0.73h0Zm0,1h0Z"/><path d="M51.67,8.92a0.25,0.25,0,0,1-.25-0.25V6.61a0.79,0.79,0,0,0-.11-0.49A0.29,0.29,0,0,0,51.06,6a0.48,0.48,0,0,0-.17,0,0.78,0.78,0,0,0-.2.12,1.1,1.1,0,0,0-.19.2,0.7,0.7,0,0,0-.11.23V8.67a0.25,0.25,0,0,1-.25.25H49.2a0.25,0.25,0,0,1-.25-0.25V3.56a0.25,0.25,0,0,1,.25-0.25h0.94a0.25,0.25,0,0,1,.25.25V5l0.18-.11a1.8,1.8,0,0,1,.89-0.22,1.46,1.46,0,0,1,.7.15,1.17,1.17,0,0,1,.44.41,1.6,1.6,0,0,1,.21.55,3.08,3.08,0,0,1,.05.58V8.67a0.25,0.25,0,0,1-.25.25H51.67Z" fill="#fff"/><path d="M50.14,3.56V5.68a1.41,1.41,0,0,1,.55-0.55,1.55,1.55,0,0,1,.77-0.19,1.21,1.21,0,0,1,.58.12,0.92,0.92,0,0,1,.35.33,1.34,1.34,0,0,1,.18.46,2.85,2.85,0,0,1,0,.53V8.67H51.67V6.61A1,1,0,0,0,51.51,6a0.54,0.54,0,0,0-.45-0.21,0.72,0.72,0,0,0-.27.06,1,1,0,0,0-.27.16,1.33,1.33,0,0,0-.23.24,1,1,0,0,0-.15.31V8.67H49.2V3.56h0.94m0-.5H49.2a0.5,0.5,0,0,0-.5.5V8.67a0.5,0.5,0,0,0,.5.5h0.94a0.5,0.5,0,0,0,.5-0.5V6.61l0.05-.09a0.83,0.83,0,0,1,.14-0.15L51,6.28l0.08,0h0.05a0.57,0.57,0,0,1,.06.34V8.67a0.5,0.5,0,0,0,.5.5h0.94a0.5,0.5,0,0,0,.5-0.5V6.38a3.36,3.36,0,0,0-.06-0.62,1.85,1.85,0,0,0-.24-0.63,1.42,1.42,0,0,0-.53-0.5,1.7,1.7,0,0,0-.82-0.18,2.08,2.08,0,0,0-.82.16v-1a0.5,0.5,0,0,0-.5-0.5h0Z"/><path d="M53.54,8.92a0.25,0.25,0,0,1-.21-0.39l3.46-5A0.25,0.25,0,0,1,57,3.45h1a0.25,0.25,0,0,1,.21.39l-3.47,5a0.25,0.25,0,0,1-.21.11h-1Z" fill="#fff"/><path d="M58,3.7l-3.47,5h-1L57,3.7h1m0-.5H57a0.5,0.5,0,0,0-.41.21l-3.46,5a0.5,0.5,0,0,0,.41.79h1A0.5,0.5,0,0,0,55,9l3.47-5A0.5,0.5,0,0,0,58,3.2h0Zm0,1h0Z"/><path d="M63.61,8.92a0.25,0.25,0,0,1-.25-0.25V6.61a0.85,0.85,0,0,0-.1-0.5A0.24,0.24,0,0,0,63,6a0.54,0.54,0,0,0-.36.15,0.92,0.92,0,0,0-.28.44V8.67a0.25,0.25,0,0,1-.25.25H61.23A0.25,0.25,0,0,1,61,8.67V6.61a0.85,0.85,0,0,0-.1-0.5A0.24,0.24,0,0,0,60.66,6a0.55,0.55,0,0,0-.36.15A0.89,0.89,0,0,0,60,6.6V8.67a0.25,0.25,0,0,1-.25.25H58.85a0.25,0.25,0,0,1-.25-0.25V5a0.25,0.25,0,0,1,.25-0.25h0.85a0.25,0.25,0,0,1,.25.25V5l0.19-.12a1.92,1.92,0,0,1,.93-0.22,1.19,1.19,0,0,1,1.1.53,1.74,1.74,0,0,1,.38-0.3,1.79,1.79,0,0,1,.91-0.23,1.34,1.34,0,0,1,.68.16,1.16,1.16,0,0,1,.43.42,1.63,1.63,0,0,1,.2.54,3.24,3.24,0,0,1,0,.57V8.67a0.25,0.25,0,0,1-.25.25H63.61Z" fill="#fff"/><path d="M63.44,4.94a1.09,1.09,0,0,1,.55.13,0.91,0.91,0,0,1,.34.33,1.38,1.38,0,0,1,.17.46,3,3,0,0,1,0,.52V8.67H63.61V6.61A1.09,1.09,0,0,0,63.46,6,0.49,0.49,0,0,0,63,5.76a0.78,0.78,0,0,0-.52.21,1.17,1.17,0,0,0-.35.56V8.67H61.23V6.61A1.09,1.09,0,0,0,61.08,6a0.49,0.49,0,0,0-.42-0.2,0.8,0.8,0,0,0-.52.21,1.14,1.14,0,0,0-.35.55V8.67H58.85V5h0.85V5.68a1.4,1.4,0,0,1,.56-0.55,1.66,1.66,0,0,1,.81-0.19,1,1,0,0,1,.71.22,1,1,0,0,1,.32.55,1.59,1.59,0,0,1,.57-0.58,1.53,1.53,0,0,1,.78-0.2m0-.5a2,2,0,0,0-1,.27l-0.23.16L62.1,4.79a1.52,1.52,0,0,0-1-.35,2.18,2.18,0,0,0-1,.23,0.5,0.5,0,0,0-.37-0.16H58.85a0.5,0.5,0,0,0-.5.5V8.67a0.5,0.5,0,0,0,.5.5h0.94a0.5,0.5,0,0,0,.5-0.5V6.61a0.61,0.61,0,0,1,.18-0.25,0.3,0.3,0,0,1,.2-0.09,0.46,0.46,0,0,1,.07.35V8.67a0.5,0.5,0,0,0,.5.5h0.94a0.5,0.5,0,0,0,.5-0.5V6.61a0.64,0.64,0,0,1,.18-0.26A0.29,0.29,0,0,1,63,6.26a0.46,0.46,0,0,1,.07.35V8.67a0.5,0.5,0,0,0,.5.5h0.94a0.5,0.5,0,0,0,.5-0.5V6.38A3.55,3.55,0,0,0,65,5.77a1.88,1.88,0,0,0-.23-0.63,1.41,1.41,0,0,0-.52-0.51,1.58,1.58,0,0,0-.8-0.19h0Z"/><path d="M65.48,6.92a0.25,0.25,0,0,1-.25-0.25,2.4,2.4,0,0,1,0-.46,1.32,1.32,0,0,1,.15-0.41,1.41,1.41,0,0,1,.29-0.35,2.38,2.38,0,0,1,.43-0.3L66.51,5l0.24-.14a0.4,0.4,0,0,0,.1-0.08,0.2,0.2,0,0,0-.21-0.13l-0.14,0-0.13.06-0.12.09-0.11.12a0.25,0.25,0,0,1-.19.09h0a0.25,0.25,0,0,1-.19-0.09l-0.43-.5a0.25,0.25,0,0,1,0-.33,1.37,1.37,0,0,1,.23-0.19,2,2,0,0,1,.32-0.18,2.32,2.32,0,0,1,.4-0.13,2,2,0,0,1,.48-0.05,1.76,1.76,0,0,1,.53.07,1.23,1.23,0,0,1,.42.22,1,1,0,0,1,.28.36,1.07,1.07,0,0,1,.1.45A1,1,0,0,1,68,5a1.24,1.24,0,0,1-.21.3,1.54,1.54,0,0,1-.26.22l-0.25.15-0.2.11h0.81a0.25,0.25,0,0,1,.25.25v0.6a0.25,0.25,0,0,1-.25.25H65.48Z" fill="#fff"/><path d="M66.76,3.76a1.51,1.51,0,0,1,.46.06,1,1,0,0,1,.34.17,0.76,0.76,0,0,1,.21.27,0.82,0.82,0,0,1,.07.34,0.71,0.71,0,0,1-.06.31,1,1,0,0,1-.17.24,1.3,1.3,0,0,1-.22.18l-0.23.14L67,5.6l-0.23.14-0.21.16a0.75,0.75,0,0,0-.15.16h1.51v0.6H65.48a2.17,2.17,0,0,1,0-.41,1.08,1.08,0,0,1,.12-0.34,1.15,1.15,0,0,1,.24-0.29,2.14,2.14,0,0,1,.39-0.26l0.36-.19L66.89,5A0.64,0.64,0,0,0,67,4.88a0.27,0.27,0,0,0,.06-0.17A0.33,0.33,0,0,0,67,4.45a0.5,0.5,0,0,0-.34-0.11,0.72,0.72,0,0,0-.22,0l-0.19.09-0.16.12-0.13.14-0.43-.5a1.12,1.12,0,0,1,.18-0.15A1.76,1.76,0,0,1,66,3.93a2.08,2.08,0,0,1,.36-0.12,1.79,1.79,0,0,1,.42,0m0-.5a2.27,2.27,0,0,0-.54.06,2.59,2.59,0,0,0-.45.15,2.24,2.24,0,0,0-.36.2,1.59,1.59,0,0,0-.27.22,0.5,0.5,0,0,0,0,.67l0.43,0.5,0.11,0.09-0.13.1a1.66,1.66,0,0,0-.34.42,1.58,1.58,0,0,0-.18.49,2.67,2.67,0,0,0,0,.5,0.5,0.5,0,0,0,.5.5h2.41a0.5,0.5,0,0,0,.5-0.5V6.06a0.5,0.5,0,0,0-.48-0.5L68,5.51a1.47,1.47,0,0,0,.25-0.37,1.21,1.21,0,0,0,.11-0.53,1.32,1.32,0,0,0-.12-0.55,1.26,1.26,0,0,0-.35-0.45,1.49,1.49,0,0,0-.51-0.27,2,2,0,0,0-.6-0.08h0Z"/><path d="M68.55,8.92a0.25,0.25,0,0,1-.21-0.39l3.46-5A0.25,0.25,0,0,1,72,3.45h1a0.25,0.25,0,0,1,.21.39l-3.47,5a0.25,0.25,0,0,1-.21.11h-1Z" fill="#fff"/><path d="M73.05,3.7l-3.47,5h-1L72,3.7h1m0-.5H72a0.5,0.5,0,0,0-.41.21l-3.46,5a0.5,0.5,0,0,0,.41.79h1A0.5,0.5,0,0,0,70,9l3.47-5a0.5,0.5,0,0,0-.41-0.79h0Zm0,1h0Z"/><path d="M74.77,9a1.64,1.64,0,0,1-.59-0.1,1.45,1.45,0,0,1-.48-0.3,1.39,1.39,0,0,1-.32-0.45,1.36,1.36,0,0,1-.12-0.56A1.27,1.27,0,0,1,73.41,7a1.35,1.35,0,0,1,.39-0.46,1.86,1.86,0,0,1,.57-0.28,2.42,2.42,0,0,1,.7-0.1,3,3,0,0,1,.52,0l0.11,0A0.41,0.41,0,0,0,75.59,6a0.63,0.63,0,0,0-.44-0.13,1.37,1.37,0,0,0-.49.09,2.44,2.44,0,0,0-.52.28,0.25,0.25,0,0,1-.14,0H73.94a0.25,0.25,0,0,1-.16-0.13l-0.29-.6a0.25,0.25,0,0,1,.09-0.32,3,3,0,0,1,1.66-.51,2,2,0,0,1,1.39.45,1.67,1.67,0,0,1,.52,1.31V7.59a0.27,0.27,0,0,1,.22.28v0.8a0.25,0.25,0,0,1-.2.24,2.31,2.31,0,0,1-.46.05,0.87,0.87,0,0,1-.57-0.18A0.75,0.75,0,0,1,76,8.58a1.82,1.82,0,0,1-.35.22A2,2,0,0,1,74.77,9Zm0.46-1.82a0.77,0.77,0,0,0-.45.12,0.24,0.24,0,0,0-.12.21,0.25,0.25,0,0,0,.1.21,0.41,0.41,0,0,0,.28.1,1,1,0,0,0,.36-0.07,0.57,0.57,0,0,0,.23-0.15l0.09-.1V7.24l-0.16,0A1.67,1.67,0,0,0,75.23,7.17Z" fill="#fff"/><path d="M75.24,4.94a1.79,1.79,0,0,1,1.23.39,1.42,1.42,0,0,1,.44,1.12V7.59A0.33,0.33,0,0,0,77,7.8a0.23,0.23,0,0,0,.17.07v0.8a2.08,2.08,0,0,1-.41,0,0.63,0.63,0,0,1-.41-0.12,0.51,0.51,0,0,1-.18-0.31l0-.2a1.63,1.63,0,0,1-.6.49,1.7,1.7,0,0,1-.75.17,1.39,1.39,0,0,1-.5-0.09,1.19,1.19,0,0,1-.4-0.25A1.13,1.13,0,0,1,73.61,8a1.11,1.11,0,0,1-.09-0.46,1,1,0,0,1,.12-0.48A1.1,1.1,0,0,1,74,6.72a1.6,1.6,0,0,1,.49-0.24,2.15,2.15,0,0,1,.63-0.09,2.69,2.69,0,0,1,.48,0,1.91,1.91,0,0,1,.42.12V6.34a0.73,0.73,0,0,0-.21-0.56,0.86,0.86,0,0,0-.61-0.2,1.63,1.63,0,0,0-.57.1A2.7,2.7,0,0,0,74,6l-0.29-.6a2.71,2.71,0,0,1,1.53-.47M75,8.05A1.22,1.22,0,0,0,75.49,8a0.81,0.81,0,0,0,.33-0.22A0.34,0.34,0,0,0,76,7.48V7.06A2.28,2.28,0,0,0,75.61,7a1.93,1.93,0,0,0-.38,0,1,1,0,0,0-.59.16,0.49,0.49,0,0,0-.23.42,0.5,0.5,0,0,0,.18.4,0.66,0.66,0,0,0,.45.16m0.21-3.61a3.22,3.22,0,0,0-1.8.55,0.5,0.5,0,0,0-.17.63l0.29,0.6a0.5,0.5,0,0,0,.08.12,1.6,1.6,0,0,0-.45.53,1.53,1.53,0,0,0-.17.71,1.61,1.61,0,0,0,.14.67,1.63,1.63,0,0,0,.38.53,1.69,1.69,0,0,0,.56.35,1.89,1.89,0,0,0,.67.12,2.21,2.21,0,0,0,1-.22l0.19-.1L76,9a1.11,1.11,0,0,0,.73.23,2.54,2.54,0,0,0,.51-0.06,0.5,0.5,0,0,0,.4-0.49V7.87a0.5,0.5,0,0,0-.22-0.42v-1A1.91,1.91,0,0,0,76.8,5a2.27,2.27,0,0,0-1.56-.52h0ZM75,7.55a0.16,0.16,0,0,1-.12,0,0.43,0.43,0,0,1,.32-0.1h0.2L75.3,7.5a0.72,0.72,0,0,1-.27,0h0Z"/><path d="M80.61,8.92a0.25,0.25,0,0,1-.25-0.25V6.61a0.83,0.83,0,0,0-.1-0.49A0.26,0.26,0,0,0,80,6a0.55,0.55,0,0,0-.2,0,0.77,0.77,0,0,0-.21.12,1,1,0,0,0-.19.2,0.73,0.73,0,0,0-.11.23V8.67a0.25,0.25,0,0,1-.25.25H78.13a0.25,0.25,0,0,1-.25-0.25V5a0.25,0.25,0,0,1,.25-0.25H79a0.25,0.25,0,0,1,.25.25V5l0.22-.13a2.07,2.07,0,0,1,.77-0.21A0.91,0.91,0,0,1,80,4.63l-0.25-.12-0.18-.1-0.1,0L79.16,4.3l0.21,0.15a0.28,0.28,0,0,1-.25.28H78.59a0.25,0.25,0,0,1-.25-0.25,1.14,1.14,0,0,1,.05-0.28,1.41,1.41,0,0,1,.17-0.37,1.2,1.2,0,0,1,.32-0.33,0.89,0.89,0,0,1,.54-0.16,0.92,0.92,0,0,1,.38.07L80,3.53l0.19,0.11,0.11,0,0.1,0a0.33,0.33,0,0,1,.27-0.31h0.52a0.25,0.25,0,0,1,.25.25,1,1,0,0,1-.05.27,1.3,1.3,0,0,1-.18.37,1.33,1.33,0,0,1-.32.34,0.86,0.86,0,0,1-.38.16,1.28,1.28,0,0,1,.58.16,1.16,1.16,0,0,1,.43.42,1.63,1.63,0,0,1,.19.54,3.24,3.24,0,0,1,0,.57V8.67a0.25,0.25,0,0,1-.25.25H80.61Z" fill="#fff"/><path d="M81.22,3.56a0.89,0.89,0,0,1,0,.2,1.07,1.07,0,0,1-.14.3,1.1,1.1,0,0,1-.27.28,0.67,0.67,0,0,1-.41.12,0.73,0.73,0,0,1-.28,0l-0.22-.11-0.2-.11a0.48,0.48,0,0,0-.21,0,0.31,0.31,0,0,0-.19,0,0.35,0.35,0,0,0-.1.11,0.32,0.32,0,0,0,0,.12V4.47H78.59a1,1,0,0,1,0-.21A1.15,1.15,0,0,1,78.77,4,1,1,0,0,1,79,3.69a0.64,0.64,0,0,1,.39-0.12,0.67,0.67,0,0,1,.28.05L79.9,3.74l0.2,0.11a0.49,0.49,0,0,0,.23.05,0.35,0.35,0,0,0,.2,0,0.37,0.37,0,0,0,.11-0.11,0.36,0.36,0,0,0,0-.12V3.56h0.52M80.44,4.94a1.1,1.1,0,0,1,.56.13,0.91,0.91,0,0,1,.34.33,1.38,1.38,0,0,1,.16.46,3,3,0,0,1,0,.52V8.67H80.61V6.61A1.07,1.07,0,0,0,80.45,6,0.51,0.51,0,0,0,80,5.76a0.8,0.8,0,0,0-.29.06,1,1,0,0,0-.28.16,1.27,1.27,0,0,0-.24.24,1,1,0,0,0-.15.31V8.67H78.13V5H79V5.68a1.39,1.39,0,0,1,.59-0.55,1.89,1.89,0,0,1,.87-0.2m0.78-1.88H80.7a0.5,0.5,0,0,0-.46.3l-0.09,0-0.26-.14a1.17,1.17,0,0,0-.48-0.1,1.13,1.13,0,0,0-.68.21,1.46,1.46,0,0,0-.38.41,1.65,1.65,0,0,0-.19.43,1.33,1.33,0,0,0-.06.35v0a0.5,0.5,0,0,0-.46.5V8.67a0.5,0.5,0,0,0,.5.5h0.94a0.5,0.5,0,0,0,.5-0.5V6.61l0.06-.09a0.76,0.76,0,0,1,.14-0.14,0.55,0.55,0,0,1,.15-0.09l0.11,0a0.38,0.38,0,0,1,.08.35V8.67a0.5,0.5,0,0,0,.5.5h0.94a0.5,0.5,0,0,0,.5-0.5V6.38A3.55,3.55,0,0,0,82,5.77a1.88,1.88,0,0,0-.22-0.63,1.41,1.41,0,0,0-.52-0.51l0,0a1.54,1.54,0,0,0,.24-0.28,1.57,1.57,0,0,0,.21-0.44,1.2,1.2,0,0,0,.06-0.33,0.5,0.5,0,0,0-.5-0.5h0Zm0,1h0Z"/><path d="M84.41,9a2.27,2.27,0,0,1-.9-0.17,2.06,2.06,0,0,1-.69-0.47,2.11,2.11,0,0,1-.43-0.69,2.3,2.3,0,0,1,0-1.63,2.1,2.1,0,0,1,.43-0.69,2.08,2.08,0,0,1,.69-0.47,2.43,2.43,0,0,1,1.81,0A2.06,2.06,0,0,1,86.43,6a2.28,2.28,0,0,1,.15.82,2.24,2.24,0,0,1-.15.81,2.14,2.14,0,0,1-.43.69,2,2,0,0,1-.69.48A2.26,2.26,0,0,1,84.41,9Zm0-3a0.61,0.61,0,0,0-.27.06,0.69,0.69,0,0,0-.23.17,0.84,0.84,0,0,0-.16.27,1,1,0,0,0-.06.36,1.05,1.05,0,0,0,.06.36,0.87,0.87,0,0,0,.16.27,0.65,0.65,0,0,0,.22.17,0.68,0.68,0,0,0,.55,0,0.66,0.66,0,0,0,.22-0.17,0.84,0.84,0,0,0,.16-0.27,1.08,1.08,0,0,0,.06-0.36,1,1,0,0,0-.06-0.36,0.83,0.83,0,0,0-.16-0.27A0.66,0.66,0,0,0,84.68,6,0.65,0.65,0,0,0,84.41,6Z" fill="#fff"/><path d="M84.41,4.94a2,2,0,0,1,.8.15,1.81,1.81,0,0,1,1,1,2,2,0,0,1,.13.73,2,2,0,0,1-.13.72,1.87,1.87,0,0,1-.38.61,1.78,1.78,0,0,1-.6.42,2.18,2.18,0,0,1-1.61,0A1.8,1.8,0,0,1,83,8.17a1.84,1.84,0,0,1-.38-0.61,2,2,0,0,1-.13-0.72,2,2,0,0,1,.13-0.73A1.84,1.84,0,0,1,83,5.51a1.81,1.81,0,0,1,.61-0.42,2,2,0,0,1,.8-0.15m0,3a0.9,0.9,0,0,0,.38-0.08,0.92,0.92,0,0,0,.3-0.23,1.09,1.09,0,0,0,.2-0.35,1.31,1.31,0,0,0,.07-0.45,1.29,1.29,0,0,0-.07-0.44A1.1,1.1,0,0,0,85.09,6a0.92,0.92,0,0,0-.3-0.23,0.9,0.9,0,0,0-.38-0.08,0.86,0.86,0,0,0-.38.08,1,1,0,0,0-.3.23,1.09,1.09,0,0,0-.2.35,1.38,1.38,0,0,0,0,.89,1.09,1.09,0,0,0,.2.35,0.9,0.9,0,0,0,.68.31m0-3.5a2.51,2.51,0,0,0-1,.19,2.31,2.31,0,0,0-.77.53,2.35,2.35,0,0,0-.48.77,2.54,2.54,0,0,0,0,1.81,2.34,2.34,0,0,0,.49.77A2.3,2.3,0,0,0,83.4,9a2.68,2.68,0,0,0,2,0,2.28,2.28,0,0,0,.77-0.53,2.38,2.38,0,0,0,.48-0.77,2.54,2.54,0,0,0,0-1.81,2.31,2.31,0,0,0-1.25-1.3,2.5,2.5,0,0,0-1-.2h0Zm0,3a0.39,0.39,0,0,1-.17,0,0.4,0.4,0,0,1-.14-0.1A0.59,0.59,0,0,1,84,7.11a0.88,0.88,0,0,1,0-.54,0.59,0.59,0,0,1,.11-0.19,0.45,0.45,0,0,1,.14-0.11,0.37,0.37,0,0,1,.16,0,0.4,0.4,0,0,1,.17,0,0.42,0.42,0,0,1,.14.1,0.6,0.6,0,0,1,.11.19,0.8,0.8,0,0,1,0,.27,0.82,0.82,0,0,1,0,.28,0.59,0.59,0,0,1-.11.19,0.42,0.42,0,0,1-.14.1,0.4,0.4,0,0,1-.17,0h0Z"/><path d="M6.07,46.27a0.25,0.25,0,0,1-.13,0L3,44.49a0.25,0.25,0,0,1-.12-0.22V43.82A0.25,0.25,0,0,1,3,43.6l3-1.78a0.25,0.25,0,0,1,.38.21v1a0.25,0.25,0,0,1-.12.21L5,44,6.2,44.76a0.25,0.25,0,0,1,.12.21v1a0.25,0.25,0,0,1-.13.22A0.25,0.25,0,0,1,6.07,46.27Z" fill="#fff"/><path d="M6.07,42v1L4.48,44l1.59,1v1l-3-1.75V43.82l3-1.78m0-.5a0.5,0.5,0,0,0-.26.07l-3,1.78a0.5,0.5,0,0,0-.24.43v0.46a0.5,0.5,0,0,0,.25.43l3,1.75A0.5,0.5,0,0,0,6.57,46V45a0.5,0.5,0,0,0-.24-0.43L5.44,44l0.9-.56A0.5,0.5,0,0,0,6.57,43V42a0.5,0.5,0,0,0-.5-0.5h0Z"/><path d="M7.3,46.08A0.25,0.25,0,0,1,7,45.83V45a0.25,0.25,0,0,1,.25-0.25H8V43.36l-0.14.07a2.42,2.42,0,0,1-.37.14,1.36,1.36,0,0,1-.37.06,0.25,0.25,0,0,1-.25-0.25V42.5a0.25,0.25,0,0,1,.25-0.25,0.55,0.55,0,0,0,.21-0.06A2.51,2.51,0,0,0,7.69,42L8,41.82a0.63,0.63,0,0,0,.11-0.1,0.28,0.28,0,0,1,.22-0.13h1a0.25,0.25,0,0,1,.25.25v2.9h0.64a0.25,0.25,0,0,1,.25.25v0.85a0.25,0.25,0,0,1-.25.25H7.3Z" fill="#fff"/><path d="M9.25,41.84V45h0.89v0.85H7.3V45h1V42.87a0.77,0.77,0,0,1-.2.17l-0.3.16a2.14,2.14,0,0,1-.33.13,1.12,1.12,0,0,1-.3,0V42.5a0.79,0.79,0,0,0,.31-0.08,2.67,2.67,0,0,0,.36-0.19A3,3,0,0,0,8.13,42a0.74,0.74,0,0,0,.16-0.17h1m0-.5h-1a0.5,0.5,0,0,0-.44.26h0l0,0-0.25.18L7.26,42,7.15,42a0.49,0.49,0,0,0-.49.5v0.88a0.5,0.5,0,0,0,.5.5,1.62,1.62,0,0,0,.44-0.07l0.19-.06v0.74H7.3a0.5,0.5,0,0,0-.5.5v0.85a0.5,0.5,0,0,0,.5.5h2.84a0.5,0.5,0,0,0,.5-0.5V45a0.5,0.5,0,0,0-.5-0.5H9.75V41.84a0.5,0.5,0,0,0-.5-0.5h0Z"/><path d="M12.81,46.15A2.07,2.07,0,0,1,11.94,46a1.81,1.81,0,0,1-.67-0.52,2.31,2.31,0,0,1-.41-0.8,3.62,3.62,0,0,1-.14-1,5.13,5.13,0,0,1,.14-1.26,2.85,2.85,0,0,1,.42-1,1.94,1.94,0,0,1,.7-0.61,2,2,0,0,1,.91-0.21,2.1,2.1,0,0,1,1.74.89,0.25,0.25,0,0,1,0,.31l-0.54.59a0.25,0.25,0,0,1-.18.08h0a0.25,0.25,0,0,1-.19-0.12A0.93,0.93,0,0,0,13.34,42a0.92,0.92,0,0,0-.45-0.12,0.64,0.64,0,0,0-.55.27,1,1,0,0,0-.13.25,1.56,1.56,0,0,1,.68-0.15,2.1,2.1,0,0,1,.77.14,1.94,1.94,0,0,1,.63.4,1.87,1.87,0,0,1,.58,1.36,1.91,1.91,0,0,1-.16.78,2,2,0,0,1-.44.63,2,2,0,0,1-.66.42A2.18,2.18,0,0,1,12.81,46.15Zm0-2.64a0.67,0.67,0,0,0-.26.05,0.66,0.66,0,0,0-.35.35,0.64,0.64,0,0,0-.05.26,0.67,0.67,0,0,0,.05.26,0.69,0.69,0,0,0,.15.22,0.76,0.76,0,0,0,.22.15,0.57,0.57,0,0,0,.25.05,0.61,0.61,0,0,0,.25-0.05,0.66,0.66,0,0,0,.21-0.15,0.73,0.73,0,0,0,.15-0.22,0.67,0.67,0,0,0,.05-0.26,0.61,0.61,0,0,0-.05-0.25,0.72,0.72,0,0,0-.15-0.22,0.66,0.66,0,0,0-.21-0.14A0.64,0.64,0,0,0,12.81,43.51Z" fill="#fff"/><path d="M12.9,40.83a1.85,1.85,0,0,1,1.53.78l-0.54.59a1.19,1.19,0,0,0-.43-0.41,1.17,1.17,0,0,0-.57-0.15,0.89,0.89,0,0,0-.75.37,1.78,1.78,0,0,0-.29,1,1.05,1.05,0,0,1,.42-0.4,1.29,1.29,0,0,1,.63-0.15,1.84,1.84,0,0,1,.68.13,1.69,1.69,0,0,1,.55.35,1.62,1.62,0,0,1,.5,1.18,1.65,1.65,0,0,1-.14.68,1.72,1.72,0,0,1-.39.55,1.77,1.77,0,0,1-.58.37,1.92,1.92,0,0,1-.72.13A1.82,1.82,0,0,1,12,45.75a1.56,1.56,0,0,1-.58-0.45,2.06,2.06,0,0,1-.36-0.72,3.36,3.36,0,0,1-.13-1,4.87,4.87,0,0,1,.13-1.2,2.6,2.6,0,0,1,.38-0.87A1.69,1.69,0,0,1,12.11,41a1.73,1.73,0,0,1,.8-0.18m-0.09,4.28A0.87,0.87,0,0,0,13.16,45a0.91,0.91,0,0,0,.29-0.2,1,1,0,0,0,.2-0.3,0.91,0.91,0,0,0,.07-0.36,0.86,0.86,0,0,0-.07-0.35,1,1,0,0,0-.2-0.29,0.91,0.91,0,0,0-.29-0.2,0.9,0.9,0,0,0-.35-0.07,0.92,0.92,0,0,0-.36.07,0.91,0.91,0,0,0-.49.49,0.89,0.89,0,0,0-.07.35,0.91,0.91,0,0,0,.07.36,0.94,0.94,0,0,0,.2.3,1,1,0,0,0,.29.2,0.82,0.82,0,0,0,.35.08m0.09-4.78a2.24,2.24,0,0,0-1,.24,2.19,2.19,0,0,0-.79.69,3.11,3.11,0,0,0-.46,1,5.39,5.39,0,0,0-.15,1.32,3.87,3.87,0,0,0,.15,1.11,2.56,2.56,0,0,0,.45.89,2.06,2.06,0,0,0,.76.59,2.32,2.32,0,0,0,1,.2,2.43,2.43,0,0,0,.9-0.17,2.28,2.28,0,0,0,.74-0.47,2.23,2.23,0,0,0,.5-0.71,2.16,2.16,0,0,0,.18-0.88,2.12,2.12,0,0,0-.66-1.54l-0.16-.14,0.5-.54a0.5,0.5,0,0,0,0-.63,2.35,2.35,0,0,0-1.94-1h0Zm-0.09,4.28a0.32,0.32,0,0,1-.14,0,0.51,0.51,0,0,1-.15-0.1,0.44,0.44,0,0,1-.09-0.14,0.41,0.41,0,0,1,0-.16,0.39,0.39,0,0,1,0-.16,0.41,0.41,0,0,1,.22-0.22,0.42,0.42,0,0,1,.16,0,0.4,0.4,0,0,1,.16,0,0.41,0.41,0,0,1,.13.09,0.46,0.46,0,0,1,.1.14,0.36,0.36,0,0,1,0,.15,0.41,0.41,0,0,1,0,.16,0.48,0.48,0,0,1-.1.15,0.42,0.42,0,0,1-.13.09,0.37,0.37,0,0,1-.15,0h0Z"/><path d="M17.4,46.15A1.9,1.9,0,0,1,16.58,46a2,2,0,0,1-.65-0.5,2.34,2.34,0,0,1-.42-0.75,3,3,0,0,1,0-1.87,2.35,2.35,0,0,1,.42-0.75,2,2,0,0,1,.65-0.51,1.94,1.94,0,0,1,1.66,0,2,2,0,0,1,.66.51,2.35,2.35,0,0,1,.42.75,3,3,0,0,1,0,1.87,2.35,2.35,0,0,1-.42.75,2,2,0,0,1-.66.5A1.92,1.92,0,0,1,17.4,46.15Zm0-3.39a0.44,0.44,0,0,0-.23.06A0.59,0.59,0,0,0,17,43a1.06,1.06,0,0,0-.14.33,1.74,1.74,0,0,0-.05.45,1.68,1.68,0,0,0,.05.44,1,1,0,0,0,.14.32,0.59,0.59,0,0,0,.19.18,0.44,0.44,0,0,0,.23.06,0.43,0.43,0,0,0,.22-0.06,0.59,0.59,0,0,0,.19-0.18A1,1,0,0,0,18,44.23,1.69,1.69,0,0,0,18,43.78,1.74,1.74,0,0,0,18,43.33,1.06,1.06,0,0,0,17.82,43a0.59,0.59,0,0,0-.19-0.18A0.43,0.43,0,0,0,17.4,42.77Z" fill="#fff"/><path d="M17.4,41.65a1.62,1.62,0,0,1,.72.16,1.75,1.75,0,0,1,.57.44,2.09,2.09,0,0,1,.38.67,2.71,2.71,0,0,1,0,1.7,2.09,2.09,0,0,1-.38.67,1.71,1.71,0,0,1-.57.44,1.72,1.72,0,0,1-1.44,0,1.71,1.71,0,0,1-.57-0.44,2.09,2.09,0,0,1-.38-0.67,2.71,2.71,0,0,1,0-1.7,2.09,2.09,0,0,1,.38-0.67,1.76,1.76,0,0,1,.57-0.44,1.62,1.62,0,0,1,.72-0.16m0,3.39A0.68,0.68,0,0,0,17.75,45,0.84,0.84,0,0,0,18,44.69a1.3,1.3,0,0,0,.18-0.4,1.94,1.94,0,0,0,.06-0.51,2,2,0,0,0-.06-0.51,1.29,1.29,0,0,0-.18-0.4,0.84,0.84,0,0,0-.27-0.26,0.68,0.68,0,0,0-.35-0.09,0.69,0.69,0,0,0-.35.09,0.84,0.84,0,0,0-.27.26,1.29,1.29,0,0,0-.18.4,2,2,0,0,0-.06.51,1.92,1.92,0,0,0,.06.51,1.3,1.3,0,0,0,.18.4,0.84,0.84,0,0,0,.27.26,0.69,0.69,0,0,0,.35.09m0-3.89a2.12,2.12,0,0,0-.94.21,2.26,2.26,0,0,0-.73.57,2.6,2.6,0,0,0-.47.83,3.21,3.21,0,0,0,0,2,2.59,2.59,0,0,0,.47.83,2.22,2.22,0,0,0,.74.57,2.22,2.22,0,0,0,1.87,0,2.22,2.22,0,0,0,.74-0.57,2.59,2.59,0,0,0,.47-0.83,3.21,3.21,0,0,0,0-2,2.6,2.6,0,0,0-.47-0.83,2.26,2.26,0,0,0-.74-0.57,2.13,2.13,0,0,0-.94-0.21h0Zm0,3.39a0.19,0.19,0,0,1-.1,0,0.35,0.35,0,0,1-.11-0.11,0.81,0.81,0,0,1-.11-0.25,1.43,1.43,0,0,1,0-.38,1.47,1.47,0,0,1,0-.38,0.81,0.81,0,0,1,.11-0.25A0.35,0.35,0,0,1,17.3,43a0.19,0.19,0,0,1,.1,0l0.1,0a0.35,0.35,0,0,1,.11.11,0.81,0.81,0,0,1,.11.25,1.49,1.49,0,0,1,0,.38,1.45,1.45,0,0,1,0,.38,0.81,0.81,0,0,1-.11.25,0.35,0.35,0,0,1-.11.11l-0.1,0h0Z"/><path d="M22.05,46.15A1.9,1.9,0,0,1,21.22,46a2,2,0,0,1-.65-0.5,2.34,2.34,0,0,1-.42-0.75,3,3,0,0,1,0-1.87,2.35,2.35,0,0,1,.42-0.75,2,2,0,0,1,.65-0.51,1.94,1.94,0,0,1,1.66,0,2,2,0,0,1,.66.51,2.35,2.35,0,0,1,.42.75,3,3,0,0,1,0,1.87,2.35,2.35,0,0,1-.42.75,2,2,0,0,1-.66.5A1.92,1.92,0,0,1,22.05,46.15Zm0-3.39a0.44,0.44,0,0,0-.23.06,0.59,0.59,0,0,0-.19.18,1.06,1.06,0,0,0-.14.33,1.74,1.74,0,0,0-.05.45,1.68,1.68,0,0,0,.05.44,1,1,0,0,0,.14.32,0.59,0.59,0,0,0,.19.18,0.44,0.44,0,0,0,.23.06,0.43,0.43,0,0,0,.22-0.06,0.59,0.59,0,0,0,.19-0.18,1,1,0,0,0,.14-0.32,1.69,1.69,0,0,0,.05-0.44,1.74,1.74,0,0,0-.05-0.45A1.06,1.06,0,0,0,22.47,43a0.59,0.59,0,0,0-.19-0.18A0.43,0.43,0,0,0,22.05,42.77Z" fill="#fff"/><path d="M22.05,41.65a1.62,1.62,0,0,1,.72.16,1.75,1.75,0,0,1,.57.44,2.09,2.09,0,0,1,.38.67,2.71,2.71,0,0,1,0,1.7,2.09,2.09,0,0,1-.38.67,1.71,1.71,0,0,1-.57.44,1.72,1.72,0,0,1-1.44,0,1.71,1.71,0,0,1-.57-0.44,2.09,2.09,0,0,1-.38-0.67,2.71,2.71,0,0,1,0-1.7,2.09,2.09,0,0,1,.38-0.67,1.76,1.76,0,0,1,.57-0.44,1.62,1.62,0,0,1,.72-0.16m0,3.39A0.68,0.68,0,0,0,22.4,45a0.84,0.84,0,0,0,.27-0.26,1.3,1.3,0,0,0,.18-0.4,1.94,1.94,0,0,0,.06-0.51,2,2,0,0,0-.06-0.51,1.29,1.29,0,0,0-.18-0.4,0.84,0.84,0,0,0-.27-0.26,0.68,0.68,0,0,0-.35-0.09,0.69,0.69,0,0,0-.35.09,0.84,0.84,0,0,0-.27.26,1.29,1.29,0,0,0-.18.4,2,2,0,0,0-.06.51,1.92,1.92,0,0,0,.06.51,1.3,1.3,0,0,0,.18.4,0.84,0.84,0,0,0,.27.26,0.69,0.69,0,0,0,.35.09m0-3.89a2.12,2.12,0,0,0-.94.21,2.26,2.26,0,0,0-.73.57,2.6,2.6,0,0,0-.47.83,3.21,3.21,0,0,0,0,2,2.59,2.59,0,0,0,.47.83,2.22,2.22,0,0,0,.74.57,2.22,2.22,0,0,0,1.87,0,2.22,2.22,0,0,0,.74-0.57,2.59,2.59,0,0,0,.47-0.83,3.21,3.21,0,0,0,0-2,2.6,2.6,0,0,0-.47-0.83A2.26,2.26,0,0,0,23,41.37a2.13,2.13,0,0,0-.94-0.21h0Zm0,3.39a0.19,0.19,0,0,1-.1,0,0.35,0.35,0,0,1-.11-0.11,0.81,0.81,0,0,1-.11-0.25,1.43,1.43,0,0,1,0-.38,1.47,1.47,0,0,1,0-.38,0.81,0.81,0,0,1,.11-0.25A0.35,0.35,0,0,1,21.95,43a0.19,0.19,0,0,1,.1,0l0.1,0a0.35,0.35,0,0,1,.11.11,0.81,0.81,0,0,1,.11.25,1.49,1.49,0,0,1,0,.38,1.45,1.45,0,0,1,0,.38,0.81,0.81,0,0,1-.11.25,0.35,0.35,0,0,1-.11.11l-0.1,0h0Z"/><path d="M104.07,46.27a0.25,0.25,0,0,1-.13,0l-3-1.75a0.25,0.25,0,0,1-.12-0.22V43.82A0.25,0.25,0,0,1,101,43.6l3-1.78a0.25,0.25,0,0,1,.13,0,0.25,0.25,0,0,1,.25.25v1a0.25,0.25,0,0,1-.12.21L103,44l1.24,0.74a0.25,0.25,0,0,1,.12.21v1A0.25,0.25,0,0,1,104.07,46.27Z" fill="#fff"/><path d="M104.07,42v1l-1.59,1,1.59,1v1l-3-1.75V43.82l3-1.78m0-.5a0.5,0.5,0,0,0-.26.07l-3,1.78a0.5,0.5,0,0,0-.24.43v0.46a0.5,0.5,0,0,0,.25.43l3,1.75a0.5,0.5,0,0,0,.75-0.43V45a0.5,0.5,0,0,0-.24-0.43L103.44,44l0.9-.56a0.5,0.5,0,0,0,.23-0.42V42a0.5,0.5,0,0,0-.5-0.5h0Z"/><path d="M105.12,46.08a0.25,0.25,0,0,1-.25-0.25,3.38,3.38,0,0,1,.05-0.62,1.76,1.76,0,0,1,.59-1,3.32,3.32,0,0,1,.59-0.4l0.51-.27,0.35-.2a0.66,0.66,0,0,0,.16-0.14,0.23,0.23,0,0,0-.06-0.26,0.47,0.47,0,0,0-.32-0.09,0.75,0.75,0,0,0-.23,0,0.93,0.93,0,0,0-.21.1,1.17,1.17,0,0,0-.19.14l-0.16.17a0.25,0.25,0,0,1-.19.09h0a0.25,0.25,0,0,1-.19-0.09L105,42.6a0.25,0.25,0,0,1,0-.33,1.85,1.85,0,0,1,.3-0.25,2.82,2.82,0,0,1,.44-0.24,3.25,3.25,0,0,1,.55-0.18,2.8,2.8,0,0,1,.65-0.07,2.4,2.4,0,0,1,.71.1,1.63,1.63,0,0,1,.56.29,1.3,1.3,0,0,1,.36.47,1.38,1.38,0,0,1,.12.58,1.25,1.25,0,0,1-.12.54,1.58,1.58,0,0,1-.27.4,2,2,0,0,1-.35.29l-0.34.2-0.28.16-0.29.18h1.48a0.25,0.25,0,0,1,.25.25v0.85a0.25,0.25,0,0,1-.25.25h-3.37Z" fill="#fff"/><path d="M106.91,41.77a2.14,2.14,0,0,1,.64.09,1.39,1.39,0,0,1,.47.25,1,1,0,0,1,.29.38,1.12,1.12,0,0,1,.1.48,1,1,0,0,1-.09.43,1.32,1.32,0,0,1-.23.34,1.77,1.77,0,0,1-.3.26l-0.32.19-0.29.16-0.32.2-0.29.22a1.06,1.06,0,0,0-.2.23h2.12v0.85h-3.37a3.08,3.08,0,0,1,0-.57,1.55,1.55,0,0,1,.17-0.47,1.57,1.57,0,0,1,.34-0.41,3,3,0,0,1,.54-0.37l0.51-.27,0.37-.21a0.91,0.91,0,0,0,.22-0.2,0.38,0.38,0,0,0,.08-0.23,0.47,0.47,0,0,0-.17-0.36,0.7,0.7,0,0,0-.48-0.15,1,1,0,0,0-.31,0,1.17,1.17,0,0,0-.26.12,1.46,1.46,0,0,0-.22.17,1.78,1.78,0,0,0-.19.2l-0.6-.69a1.6,1.6,0,0,1,.26-0.21,2.56,2.56,0,0,1,.4-0.22,3,3,0,0,1,.5-0.17,2.52,2.52,0,0,1,.59-0.07m0-.5a3,3,0,0,0-.71.08,3.49,3.49,0,0,0-.59.2,3.08,3.08,0,0,0-.48.26,2.07,2.07,0,0,0-.34.29,0.5,0.5,0,0,0,0,.67l0.6,0.69a0.5,0.5,0,0,0,.38.17h0a0.5,0.5,0,0,0,.2,0,3.53,3.53,0,0,0-.62.43,2.08,2.08,0,0,0-.44.54,2.05,2.05,0,0,0-.23.62,3.59,3.59,0,0,0-.06.67,0.5,0.5,0,0,0,.5.5h3.37a0.5,0.5,0,0,0,.5-0.5V45a0.5,0.5,0,0,0-.5-0.5h-0.56l0.14-.09a2.28,2.28,0,0,0,.39-0.33,1.82,1.82,0,0,0,.32-0.46,1.49,1.49,0,0,0,.14-0.65,1.62,1.62,0,0,0-.15-0.69,1.54,1.54,0,0,0-.43-0.55,1.89,1.89,0,0,0-.64-0.33,2.65,2.65,0,0,0-.79-0.11h0ZM106,43.55a0.5,0.5,0,0,0,.12-0.11l0.13-.14,0.15-.12,0.15-.07,0.15,0h0.1l0,0-0.32.19-0.46.25h0Z"/><path d="M111,47.11a2.68,2.68,0,0,1-1-.19,2,2,0,0,1-.78-0.57,0.25,0.25,0,0,1,0-.32l0.53-.67a0.25,0.25,0,0,1,.2-0.09h0a0.25,0.25,0,0,1,.2.1,1,1,0,0,0,.35.29,1.17,1.17,0,0,0,.52.1,0.84,0.84,0,0,0,.5-0.12,0.35,0.35,0,0,0,.13-0.32A0.41,0.41,0,0,0,111.4,45a1.08,1.08,0,0,0-.63-0.15h-0.2a0.25,0.25,0,0,1-.25-0.25v-0.7a0.25,0.25,0,0,1,.25-0.25h0.22a0.81,0.81,0,0,0,.51-0.14,0.36,0.36,0,0,0,.15-0.3,0.24,0.24,0,0,0-.09-0.22,0.62,0.62,0,0,0-.37-0.09,0.88,0.88,0,0,0-.45.11,0.9,0.9,0,0,0-.33.33,0.25,0.25,0,0,1-.19.12h0a0.25,0.25,0,0,1-.19-0.08l-0.59-.66a0.25,0.25,0,0,1,0-.3,1.39,1.39,0,0,1,.34-0.35,2.21,2.21,0,0,1,.45-0.25,2.7,2.7,0,0,1,.53-0.16,2.93,2.93,0,0,1,.58-0.06,2.45,2.45,0,0,1,.72.1,1.89,1.89,0,0,1,.58.29,1.37,1.37,0,0,1,.4.48A1.35,1.35,0,0,1,113,43a1.51,1.51,0,0,1-.08.48,1.43,1.43,0,0,1-.22.42,1.37,1.37,0,0,1-.23.23,1.45,1.45,0,0,1,.29.27,1.54,1.54,0,0,1,.32,1,1.59,1.59,0,0,1-.15.7,1.55,1.55,0,0,1-.43.54,2,2,0,0,1-.65.33A2.89,2.89,0,0,1,111,47.11Z" fill="#fff"/><path d="M111.1,41.8a2.19,2.19,0,0,1,.65.09,1.64,1.64,0,0,1,.51.25,1.11,1.11,0,0,1,.33.39,1.1,1.1,0,0,1,.12.51,1.25,1.25,0,0,1-.06.4,1.17,1.17,0,0,1-.18.34,1.11,1.11,0,0,1-.28.26,1,1,0,0,1-.36.14,1.12,1.12,0,0,1,.7.42,1.29,1.29,0,0,1,.27.83,1.35,1.35,0,0,1-.13.59,1.3,1.3,0,0,1-.36.45,1.71,1.71,0,0,1-.57.29,2.63,2.63,0,0,1-.76.1,2.42,2.42,0,0,1-.94-0.17,1.76,1.76,0,0,1-.68-0.5l0.53-.67a1.27,1.27,0,0,0,.43.36,1.4,1.4,0,0,0,.63.13,1.07,1.07,0,0,0,.65-0.17,0.61,0.61,0,0,0,.22-0.52,0.66,0.66,0,0,0-.26-0.56,1.29,1.29,0,0,0-.78-0.2h-0.2v-0.7h0.22a1,1,0,0,0,.67-0.19,0.6,0.6,0,0,0,.24-0.49,0.49,0.49,0,0,0-.2-0.43,0.86,0.86,0,0,0-.51-0.14,1.14,1.14,0,0,0-.58.15,1.16,1.16,0,0,0-.42.41l-0.59-.66a1.13,1.13,0,0,1,.28-0.29,1.93,1.93,0,0,1,.4-0.22,2.45,2.45,0,0,1,.48-0.15,2.66,2.66,0,0,1,.53-0.05m0-.5a3.18,3.18,0,0,0-.63.06,3,3,0,0,0-.58.18,2.43,2.43,0,0,0-.5.28,1.63,1.63,0,0,0-.4.42,0.5,0.5,0,0,0,0,.61l0.59,0.66a0.5,0.5,0,0,0,.37.17h0.12a0.5,0.5,0,0,0,0,.21v0.7a0.5,0.5,0,0,0,.5.5h0.2a0.82,0.82,0,0,1,.48.09,0.17,0.17,0,0,1,.06.16,0.2,0.2,0,0,1,0,.12,0.6,0.6,0,0,1-.35.07,0.94,0.94,0,0,1-.41-0.07,0.77,0.77,0,0,1-.26-0.22,0.5,0.5,0,0,0-.39-0.19h0a0.5,0.5,0,0,0-.39.19l-0.53.67a0.5,0.5,0,0,0,0,.63,2.26,2.26,0,0,0,.87.64,2.93,2.93,0,0,0,1.13.21,3.14,3.14,0,0,0,.9-0.12,2.22,2.22,0,0,0,.74-0.37,1.8,1.8,0,0,0,.5-0.62,1.85,1.85,0,0,0,.18-0.81,1.78,1.78,0,0,0-.38-1.14l-0.11-.13,0.06-.07a1.67,1.67,0,0,0,.26-0.49A1.76,1.76,0,0,0,113.2,43a1.58,1.58,0,0,0-.64-1.3,2.14,2.14,0,0,0-.66-0.33,2.7,2.7,0,0,0-.8-0.11h0Zm-0.64,2.08a0.62,0.62,0,0,1,.53-0.27,0.4,0.4,0,0,1,.22,0,0.16,0.16,0,0,1-.06.12,0.6,0.6,0,0,1-.36.08h-0.33Z"/><path d="M115.55,46.15a1.9,1.9,0,0,1-.83-0.18,2,2,0,0,1-.65-0.5,2.34,2.34,0,0,1-.42-0.75,3,3,0,0,1,0-1.87,2.36,2.36,0,0,1,.42-0.75,2,2,0,0,1,.65-0.51,1.94,1.94,0,0,1,1.66,0,2,2,0,0,1,.66.51,2.36,2.36,0,0,1,.42.75,3,3,0,0,1,0,1.87,2.34,2.34,0,0,1-.42.75,2,2,0,0,1-.66.5A1.92,1.92,0,0,1,115.55,46.15Zm0-3.39a0.45,0.45,0,0,0-.23.06,0.6,0.6,0,0,0-.19.18,1.07,1.07,0,0,0-.14.33,1.75,1.75,0,0,0-.05.45,1.7,1.7,0,0,0,.05.44,1.05,1.05,0,0,0,.14.32,0.6,0.6,0,0,0,.19.19,0.45,0.45,0,0,0,.23.06,0.43,0.43,0,0,0,.22-0.06,0.6,0.6,0,0,0,.19-0.18,1.07,1.07,0,0,0,.14-0.32,1.7,1.7,0,0,0,.05-0.44,1.75,1.75,0,0,0-.05-0.45A1.05,1.05,0,0,0,116,43a0.59,0.59,0,0,0-.19-0.18A0.43,0.43,0,0,0,115.55,42.77Z" fill="#fff"/><path d="M115.55,41.65a1.62,1.62,0,0,1,.72.16,1.75,1.75,0,0,1,.57.44,2.09,2.09,0,0,1,.38.67,2.71,2.71,0,0,1,0,1.7,2.09,2.09,0,0,1-.38.67,1.71,1.71,0,0,1-.57.44,1.72,1.72,0,0,1-1.44,0,1.71,1.71,0,0,1-.57-0.44,2.09,2.09,0,0,1-.38-0.67,2.71,2.71,0,0,1,0-1.7,2.09,2.09,0,0,1,.38-0.67,1.76,1.76,0,0,1,.57-0.44,1.62,1.62,0,0,1,.72-0.16m0,3.39A0.68,0.68,0,0,0,115.9,45a0.84,0.84,0,0,0,.27-0.26,1.3,1.3,0,0,0,.18-0.4,1.94,1.94,0,0,0,.06-0.51,2,2,0,0,0-.06-0.51,1.29,1.29,0,0,0-.18-0.4,0.84,0.84,0,0,0-.27-0.26,0.68,0.68,0,0,0-.35-0.09,0.7,0.7,0,0,0-.35.09,0.85,0.85,0,0,0-.27.26,1.29,1.29,0,0,0-.18.4,2,2,0,0,0-.06.51,1.94,1.94,0,0,0,.06.51,1.3,1.3,0,0,0,.18.4,0.85,0.85,0,0,0,.27.26,0.7,0.7,0,0,0,.35.09m0-3.89a2.12,2.12,0,0,0-.94.21,2.26,2.26,0,0,0-.73.57,2.6,2.6,0,0,0-.47.83,3.21,3.21,0,0,0,0,2,2.59,2.59,0,0,0,.47.83,2.22,2.22,0,0,0,.74.57,2.22,2.22,0,0,0,1.87,0,2.21,2.21,0,0,0,.74-0.57,2.59,2.59,0,0,0,.47-0.83,3.21,3.21,0,0,0,0-2,2.6,2.6,0,0,0-.47-0.83,2.26,2.26,0,0,0-.74-0.57,2.13,2.13,0,0,0-.94-0.21h0Zm0,3.39a0.2,0.2,0,0,1-.1,0,0.35,0.35,0,0,1-.11-0.11,0.81,0.81,0,0,1-.11-0.25,1.45,1.45,0,0,1,0-.38,1.49,1.49,0,0,1,0-.38,0.81,0.81,0,0,1,.11-0.25,0.35,0.35,0,0,1,.11-0.11,0.19,0.19,0,0,1,.1,0l0.1,0a0.35,0.35,0,0,1,.11.11,0.81,0.81,0,0,1,.11.25,1.49,1.49,0,0,1,0,.38,1.45,1.45,0,0,1,0,.38,0.81,0.81,0,0,1-.11.25,0.35,0.35,0,0,1-.11.11l-0.1,0h0Z"/><path d="M120.2,46.15a1.9,1.9,0,0,1-.83-0.18,2,2,0,0,1-.65-0.5,2.34,2.34,0,0,1-.42-0.75,3,3,0,0,1,0-1.87,2.36,2.36,0,0,1,.42-0.75,2,2,0,0,1,.65-0.51,1.94,1.94,0,0,1,1.66,0,2,2,0,0,1,.65.51,2.36,2.36,0,0,1,.42.75,3,3,0,0,1,0,1.87,2.32,2.32,0,0,1-.42.75,2,2,0,0,1-.66.5A1.91,1.91,0,0,1,120.2,46.15Zm0-3.39a0.44,0.44,0,0,0-.23.06,0.59,0.59,0,0,0-.19.18,1.06,1.06,0,0,0-.14.33,1.72,1.72,0,0,0-.05.45,1.65,1.65,0,0,0,.05.44,1.05,1.05,0,0,0,.14.32,0.6,0.6,0,0,0,.19.18,0.45,0.45,0,0,0,.23.06,0.44,0.44,0,0,0,.22-0.06,0.6,0.6,0,0,0,.19-0.18,1.06,1.06,0,0,0,.14-0.32,1.68,1.68,0,0,0,.05-0.44,1.77,1.77,0,0,0-.05-0.45,1,1,0,0,0-.14-0.33,0.6,0.6,0,0,0-.19-0.19A0.44,0.44,0,0,0,120.2,42.77Z" fill="#fff"/><path d="M120.2,41.65a1.62,1.62,0,0,1,.72.16,1.76,1.76,0,0,1,.57.44,2.09,2.09,0,0,1,.38.67,2.71,2.71,0,0,1,0,1.7,2.09,2.09,0,0,1-.38.67,1.71,1.71,0,0,1-.57.44,1.72,1.72,0,0,1-1.44,0,1.72,1.72,0,0,1-.57-0.44,2.09,2.09,0,0,1-.38-0.67,2.71,2.71,0,0,1,0-1.7,2.09,2.09,0,0,1,.38-0.67,1.76,1.76,0,0,1,.57-0.44,1.61,1.61,0,0,1,.72-0.16m0,3.39a0.68,0.68,0,0,0,.35-0.09,0.85,0.85,0,0,0,.27-0.26,1.3,1.3,0,0,0,.18-0.4,1.94,1.94,0,0,0,.06-0.51,2,2,0,0,0-.06-0.51,1.29,1.29,0,0,0-.18-0.4,0.85,0.85,0,0,0-.27-0.26,0.68,0.68,0,0,0-.35-0.09,0.69,0.69,0,0,0-.35.09,0.84,0.84,0,0,0-.27.26,1.29,1.29,0,0,0-.18.4,1.94,1.94,0,0,0-.06.51,1.9,1.9,0,0,0,.06.51,1.3,1.3,0,0,0,.18.4,0.84,0.84,0,0,0,.27.26,0.69,0.69,0,0,0,.35.09m0-3.89a2.12,2.12,0,0,0-.94.21,2.26,2.26,0,0,0-.73.57,2.6,2.6,0,0,0-.47.83,3.21,3.21,0,0,0,0,2,2.59,2.59,0,0,0,.47.83,2.22,2.22,0,0,0,.74.57,2.22,2.22,0,0,0,1.87,0,2.22,2.22,0,0,0,.74-0.57,2.59,2.59,0,0,0,.47-0.83,3.21,3.21,0,0,0,0-2,2.6,2.6,0,0,0-.47-0.83,2.26,2.26,0,0,0-.74-0.57,2.13,2.13,0,0,0-.94-0.21h0Zm0,3.39a0.19,0.19,0,0,1-.1,0,0.35,0.35,0,0,1-.11-0.11,0.81,0.81,0,0,1-.11-0.25,1.42,1.42,0,0,1,0-.38,1.45,1.45,0,0,1,0-.38,0.82,0.82,0,0,1,.11-0.25A0.35,0.35,0,0,1,120.1,43a0.19,0.19,0,0,1,.1,0l0.1,0a0.35,0.35,0,0,1,.11.11,0.81,0.81,0,0,1,.11.25,1.49,1.49,0,0,1,0,.38,1.45,1.45,0,0,1,0,.38,0.81,0.81,0,0,1-.11.25,0.35,0.35,0,0,1-.11.11l-0.1,0h0Z"/><path d="M38,46.08a0.25,0.25,0,0,1-.25-0.25V45A0.25,0.25,0,0,1,38,44.74h0.74V43.36l-0.14.07a2.42,2.42,0,0,1-.37.14,1.36,1.36,0,0,1-.37.06,0.25,0.25,0,0,1-.25-0.25V42.5a0.25,0.25,0,0,1,.25-0.25,0.55,0.55,0,0,0,.21-0.06A2.51,2.51,0,0,0,38.41,42l0.28-.2a0.63,0.63,0,0,0,.11-0.1A0.28,0.28,0,0,1,39,41.59h1a0.25,0.25,0,0,1,.25.25v2.9h0.64a0.25,0.25,0,0,1,.25.25v0.85a0.25,0.25,0,0,1-.25.25H38Z" fill="#fff"/><path d="M40,41.84V45h0.89v0.85H38V45h1V42.87a0.77,0.77,0,0,1-.2.17l-0.3.16a2.14,2.14,0,0,1-.33.13,1.12,1.12,0,0,1-.3,0V42.5a0.79,0.79,0,0,0,.31-0.08,2.67,2.67,0,0,0,.36-0.19,3,3,0,0,0,.3-0.22A0.74,0.74,0,0,0,39,41.84h1m0-.5H39a0.5,0.5,0,0,0-.44.26h0l0,0-0.25.18L38,42l-0.11,0a0.49,0.49,0,0,0-.49.5v0.88a0.5,0.5,0,0,0,.5.5,1.62,1.62,0,0,0,.44-0.07l0.19-.06v0.74H38a0.5,0.5,0,0,0-.5.5v0.85a0.5,0.5,0,0,0,.5.5h2.84a0.5,0.5,0,0,0,.5-0.5V45a0.5,0.5,0,0,0-.5-0.5H40.47V41.84a0.5,0.5,0,0,0-.5-0.5h0Z"/><path d="M43.49,46.15A2.36,2.36,0,0,1,42.71,46a2,2,0,0,1-.65-0.37,1.79,1.79,0,0,1-.45-0.58,1.66,1.66,0,0,1-.17-0.74,1.3,1.3,0,0,1,.09-0.48,1.58,1.58,0,0,1,.22-0.39A1.83,1.83,0,0,1,42,43.17a1.48,1.48,0,0,1-.2-0.23,1.17,1.17,0,0,1-.23-0.7,1.39,1.39,0,0,1,.19-0.72A1.66,1.66,0,0,1,42.24,41a2.1,2.1,0,0,1,.6-0.3,2.19,2.19,0,0,1,.65-0.1,2.3,2.3,0,0,1,.65.1,2,2,0,0,1,.61.3,1.73,1.73,0,0,1,.46.5,1.38,1.38,0,0,1,.19.72,1.14,1.14,0,0,1-.06.37,1.26,1.26,0,0,1-.17.33,1.4,1.4,0,0,1-.21.23h0a1.77,1.77,0,0,1,.29.31,1.56,1.56,0,0,1,.21.4,1.41,1.41,0,0,1,.08.48,1.62,1.62,0,0,1-.17.74,1.76,1.76,0,0,1-.46.56,2,2,0,0,1-.66.35A2.48,2.48,0,0,1,43.49,46.15Zm0-2.33a0.74,0.74,0,0,0-.24,0,0.56,0.56,0,0,0-.19.1,0.51,0.51,0,0,0-.12.16,0.41,0.41,0,0,0,0,.19,0.38,0.38,0,0,0,0,.19,0.53,0.53,0,0,0,.13.16,0.62,0.62,0,0,0,.19.11,0.73,0.73,0,0,0,.23,0,0.69,0.69,0,0,0,.44-0.15,0.48,0.48,0,0,0,.13-0.16,0.39,0.39,0,0,0,0-.18,0.42,0.42,0,0,0,0-.2A0.46,0.46,0,0,0,43.93,44a0.65,0.65,0,0,0-.2-0.1A0.8,0.8,0,0,0,43.49,43.81Zm0-1.87a0.53,0.53,0,0,0-.34.1,0.29,0.29,0,0,0-.08.35,0.32,0.32,0,0,0,.09.1,0.52,0.52,0,0,0,.15.08l0.17,0,0.17,0a0.46,0.46,0,0,0,.15-0.08,0.37,0.37,0,0,0,.1-0.11,0.26,0.26,0,0,0,0-.13,0.24,0.24,0,0,0-.11-0.21A0.56,0.56,0,0,0,43.49,41.95Z" fill="#fff"/><path d="M43.5,40.86a2,2,0,0,1,.58.09,1.71,1.71,0,0,1,.54.26,1.48,1.48,0,0,1,.39.43,1.12,1.12,0,0,1,.15.59,0.89,0.89,0,0,1,0,.29,1,1,0,0,1-.14.27,1.15,1.15,0,0,1-.21.22,1.2,1.2,0,0,1-.25.16,1.57,1.57,0,0,1,.29.19,1.52,1.52,0,0,1,.25.27,1.31,1.31,0,0,1,.18.33,1.15,1.15,0,0,1,.07.4,1.36,1.36,0,0,1-.14.63,1.5,1.5,0,0,1-.39.48,1.79,1.79,0,0,1-.58.31,2.22,2.22,0,0,1-.7.11,2.09,2.09,0,0,1-.7-0.12,1.76,1.76,0,0,1-.57-0.33,1.53,1.53,0,0,1-.38-0.5,1.41,1.41,0,0,1-.14-0.63,1.05,1.05,0,0,1,.07-0.39,1.35,1.35,0,0,1,.18-0.33,1.55,1.55,0,0,1,.25-0.26,1.49,1.49,0,0,1,.28-0.18A1.17,1.17,0,0,1,42,42.79a0.92,0.92,0,0,1-.18-0.55A1.15,1.15,0,0,1,42,41.65a1.41,1.41,0,0,1,.39-0.43A1.83,1.83,0,0,1,42.92,41a1.92,1.92,0,0,1,.58-0.09m0,2a0.83,0.83,0,0,0,.25,0A0.72,0.72,0,0,0,44,42.7a0.62,0.62,0,0,0,.16-0.19,0.5,0.5,0,0,0,.06-0.26A0.49,0.49,0,0,0,44,41.85a0.81,0.81,0,0,0-.5-0.15,0.77,0.77,0,0,0-.49.16,0.54,0.54,0,0,0-.14.67,0.58,0.58,0,0,0,.16.18,0.77,0.77,0,0,0,.22.11,0.81,0.81,0,0,0,.25,0m0,2.19A0.94,0.94,0,0,0,43.82,45a0.93,0.93,0,0,0,.27-0.15,0.74,0.74,0,0,0,.19-0.23,0.64,0.64,0,0,0,.07-0.3A0.67,0.67,0,0,0,44.28,44a0.71,0.71,0,0,0-.2-0.23,0.9,0.9,0,0,0-.28-0.14,1,1,0,0,0-.31,0,1,1,0,0,0-.32.05,0.81,0.81,0,0,0-.27.15,0.75,0.75,0,0,0-.19.23,0.66,0.66,0,0,0-.07.3,0.63,0.63,0,0,0,.07.3,0.78,0.78,0,0,0,.19.23,0.87,0.87,0,0,0,.27.15,1,1,0,0,0,.31.05m0-4.69a2.43,2.43,0,0,0-.73.11,2.34,2.34,0,0,0-.68.34,1.92,1.92,0,0,0-.53.58,1.65,1.65,0,0,0-.22.85,1.42,1.42,0,0,0,.28.85l0.05,0.07-0.13.15a1.86,1.86,0,0,0-.25.45,1.55,1.55,0,0,0-.1.57,1.91,1.91,0,0,0,.19.85,2,2,0,0,0,.51.66,2.27,2.27,0,0,0,.73.42,2.6,2.6,0,0,0,.86.14,2.74,2.74,0,0,0,.86-0.13,2.29,2.29,0,0,0,.74-0.4,2,2,0,0,0,.52-0.64,1.86,1.86,0,0,0,.2-0.86,1.66,1.66,0,0,0-.1-0.57,1.82,1.82,0,0,0-.25-0.46l-0.14-.17,0.06-.08a1.52,1.52,0,0,0,.2-0.39,1.4,1.4,0,0,0,.08-0.45,1.62,1.62,0,0,0-.23-0.85,2,2,0,0,0-.52-0.58,2.21,2.21,0,0,0-.69-0.34,2.54,2.54,0,0,0-.72-0.11h0Zm0,2-0.1,0-0.08,0,0-.05a0.29,0.29,0,0,1,.19-0.06,0.31,0.31,0,0,1,.2.06,0.05,0.05,0,0,1,0,.05l-0.07,0-0.1,0h0Zm0,2.19-0.15,0-0.12-.06a0.28,0.28,0,0,1-.07-0.08,0.13,0.13,0,0,1,0-.07,0.16,0.16,0,0,1,0-.08,0.25,0.25,0,0,1,.06-0.08l0.11-.06,0.16,0,0.17,0,0.12,0.06a0.21,0.21,0,0,1,.06.07,0.17,0.17,0,0,1,0,.08,0.14,0.14,0,0,1,0,.07,0.24,0.24,0,0,1-.06.08l-0.13.07-0.15,0h0Z"/><path d="M48.11,46.15A1.9,1.9,0,0,1,47.28,46a2,2,0,0,1-.65-0.5,2.34,2.34,0,0,1-.42-0.75,3,3,0,0,1,0-1.87,2.35,2.35,0,0,1,.42-0.75,2,2,0,0,1,.65-0.51,1.94,1.94,0,0,1,1.66,0,2,2,0,0,1,.66.51,2.35,2.35,0,0,1,.42.75,3,3,0,0,1,0,1.87,2.35,2.35,0,0,1-.42.75,2,2,0,0,1-.66.5A1.92,1.92,0,0,1,48.11,46.15Zm0-3.39a0.44,0.44,0,0,0-.23.06,0.59,0.59,0,0,0-.19.18,1.06,1.06,0,0,0-.14.33,1.74,1.74,0,0,0-.05.45,1.68,1.68,0,0,0,.05.44,1,1,0,0,0,.14.32,0.59,0.59,0,0,0,.19.18,0.44,0.44,0,0,0,.23.06,0.43,0.43,0,0,0,.22-0.06,0.59,0.59,0,0,0,.19-0.18,1,1,0,0,0,.14-0.32,1.69,1.69,0,0,0,.05-0.44,1.74,1.74,0,0,0-.05-0.45A1.06,1.06,0,0,0,48.52,43a0.59,0.59,0,0,0-.19-0.18A0.43,0.43,0,0,0,48.11,42.77Z" fill="#fff"/><path d="M48.11,41.65a1.62,1.62,0,0,1,.72.16,1.75,1.75,0,0,1,.57.44,2.09,2.09,0,0,1,.38.67,2.71,2.71,0,0,1,0,1.7,2.09,2.09,0,0,1-.38.67,1.71,1.71,0,0,1-.57.44,1.72,1.72,0,0,1-1.44,0,1.71,1.71,0,0,1-.57-0.44,2.09,2.09,0,0,1-.38-0.67,2.71,2.71,0,0,1,0-1.7,2.09,2.09,0,0,1,.38-0.67,1.76,1.76,0,0,1,.57-0.44,1.62,1.62,0,0,1,.72-0.16m0,3.39A0.68,0.68,0,0,0,48.45,45a0.84,0.84,0,0,0,.27-0.26,1.3,1.3,0,0,0,.18-0.4A1.94,1.94,0,0,0,49,43.78a2,2,0,0,0-.06-0.51,1.29,1.29,0,0,0-.18-0.4,0.84,0.84,0,0,0-.27-0.26,0.68,0.68,0,0,0-.35-0.09,0.69,0.69,0,0,0-.35.09,0.84,0.84,0,0,0-.27.26,1.29,1.29,0,0,0-.18.4,2,2,0,0,0-.06.51,1.92,1.92,0,0,0,.06.51,1.3,1.3,0,0,0,.18.4,0.84,0.84,0,0,0,.27.26,0.69,0.69,0,0,0,.35.09m0-3.89a2.12,2.12,0,0,0-.94.21,2.26,2.26,0,0,0-.73.57,2.6,2.6,0,0,0-.47.83,3.21,3.21,0,0,0,0,2,2.59,2.59,0,0,0,.47.83,2.22,2.22,0,0,0,.74.57,2.22,2.22,0,0,0,1.87,0,2.22,2.22,0,0,0,.74-0.57,2.59,2.59,0,0,0,.47-0.83,3.21,3.21,0,0,0,0-2,2.6,2.6,0,0,0-.47-0.83A2.26,2.26,0,0,0,49,41.37a2.13,2.13,0,0,0-.94-0.21h0Zm0,3.39a0.19,0.19,0,0,1-.1,0,0.35,0.35,0,0,1-.11-0.11,0.81,0.81,0,0,1-.11-0.25,1.43,1.43,0,0,1,0-.38,1.47,1.47,0,0,1,0-.38,0.81,0.81,0,0,1,.11-0.25A0.35,0.35,0,0,1,48,43a0.19,0.19,0,0,1,.1,0l0.1,0a0.35,0.35,0,0,1,.11.11,0.81,0.81,0,0,1,.11.25,1.49,1.49,0,0,1,0,.38,1.45,1.45,0,0,1,0,.38,0.81,0.81,0,0,1-.11.25,0.35,0.35,0,0,1-.11.11l-0.1,0h0Z"/><path d="M52.76,46.15A1.9,1.9,0,0,1,51.93,46a2,2,0,0,1-.65-0.5,2.34,2.34,0,0,1-.42-0.75,3,3,0,0,1,0-1.87,2.35,2.35,0,0,1,.42-0.75,2,2,0,0,1,.65-0.51,1.94,1.94,0,0,1,1.66,0,2,2,0,0,1,.66.51,2.35,2.35,0,0,1,.42.75,3,3,0,0,1,0,1.87,2.35,2.35,0,0,1-.42.75,2,2,0,0,1-.66.5A1.92,1.92,0,0,1,52.76,46.15Zm0-3.39a0.44,0.44,0,0,0-.23.06,0.59,0.59,0,0,0-.19.18,1.06,1.06,0,0,0-.14.33,1.74,1.74,0,0,0-.05.45,1.68,1.68,0,0,0,.05.44,1,1,0,0,0,.14.32,0.59,0.59,0,0,0,.19.18,0.44,0.44,0,0,0,.23.06A0.43,0.43,0,0,0,53,44.73a0.59,0.59,0,0,0,.19-0.18,1,1,0,0,0,.14-0.32,1.69,1.69,0,0,0,.05-0.44,1.74,1.74,0,0,0-.05-0.45A1.06,1.06,0,0,0,53.17,43,0.59,0.59,0,0,0,53,42.82,0.43,0.43,0,0,0,52.76,42.77Z" fill="#fff"/><path d="M52.76,41.65a1.62,1.62,0,0,1,.72.16,1.75,1.75,0,0,1,.57.44,2.09,2.09,0,0,1,.38.67,2.71,2.71,0,0,1,0,1.7,2.09,2.09,0,0,1-.38.67,1.71,1.71,0,0,1-.57.44,1.72,1.72,0,0,1-1.44,0,1.71,1.71,0,0,1-.57-0.44,2.09,2.09,0,0,1-.38-0.67,2.71,2.71,0,0,1,0-1.7,2.09,2.09,0,0,1,.38-0.67A1.76,1.76,0,0,1,52,41.81a1.62,1.62,0,0,1,.72-0.16m0,3.39A0.68,0.68,0,0,0,53.1,45a0.84,0.84,0,0,0,.27-0.26,1.3,1.3,0,0,0,.18-0.4,1.94,1.94,0,0,0,.06-0.51,2,2,0,0,0-.06-0.51,1.29,1.29,0,0,0-.18-0.4,0.84,0.84,0,0,0-.27-0.26,0.68,0.68,0,0,0-.35-0.09,0.69,0.69,0,0,0-.35.09,0.84,0.84,0,0,0-.27.26,1.29,1.29,0,0,0-.18.4,2,2,0,0,0-.06.51,1.92,1.92,0,0,0,.06.51,1.3,1.3,0,0,0,.18.4,0.84,0.84,0,0,0,.27.26,0.69,0.69,0,0,0,.35.09m0-3.89a2.12,2.12,0,0,0-.94.21,2.26,2.26,0,0,0-.73.57,2.6,2.6,0,0,0-.47.83,3.21,3.21,0,0,0,0,2,2.59,2.59,0,0,0,.47.83,2.22,2.22,0,0,0,.74.57,2.22,2.22,0,0,0,1.87,0,2.22,2.22,0,0,0,.74-0.57,2.59,2.59,0,0,0,.47-0.83,3.21,3.21,0,0,0,0-2,2.6,2.6,0,0,0-.47-0.83,2.26,2.26,0,0,0-.74-0.57,2.13,2.13,0,0,0-.94-0.21h0Zm0,3.39a0.19,0.19,0,0,1-.1,0,0.35,0.35,0,0,1-.11-0.11,0.81,0.81,0,0,1-.11-0.25,1.43,1.43,0,0,1,0-.38,1.47,1.47,0,0,1,0-.38,0.81,0.81,0,0,1,.11-0.25A0.35,0.35,0,0,1,52.65,43a0.19,0.19,0,0,1,.1,0l0.1,0a0.35,0.35,0,0,1,.11.11,0.81,0.81,0,0,1,.11.25,1.49,1.49,0,0,1,0,.38,1.45,1.45,0,0,1,0,.38,0.81,0.81,0,0,1-.11.25,0.35,0.35,0,0,1-.11.11l-0.1,0h0Z"/><path d="M70.67,46.08a0.25,0.25,0,0,1-.25-0.25,3.23,3.23,0,0,1,.05-0.62,1.79,1.79,0,0,1,.2-0.55,1.86,1.86,0,0,1,.39-0.47,3.3,3.3,0,0,1,.59-0.4l0.51-.27,0.34-.2a0.66,0.66,0,0,0,.16-0.14,0.23,0.23,0,0,0-.06-0.26,0.47,0.47,0,0,0-.32-0.09,0.76,0.76,0,0,0-.23,0,1,1,0,0,0-.21.1,1.21,1.21,0,0,0-.19.14l-0.16.17a0.25,0.25,0,0,1-.19.09h0a0.25,0.25,0,0,1-.19-0.09l-0.6-.69a0.25,0.25,0,0,1,0-.33,1.77,1.77,0,0,1,.3-0.25,2.8,2.8,0,0,1,.43-0.24,3.16,3.16,0,0,1,.55-0.18,2.8,2.8,0,0,1,.65-0.07,2.4,2.4,0,0,1,.71.1,1.66,1.66,0,0,1,.56.29,1.32,1.32,0,0,1,.36.47,1.39,1.39,0,0,1,.13.58,1.25,1.25,0,0,1-.12.54,1.6,1.6,0,0,1-.28.4,2,2,0,0,1-.35.29l-0.34.2-0.28.16-0.29.18H74a0.25,0.25,0,0,1,.25.25v0.85a0.25,0.25,0,0,1-.25.25H70.67Z" fill="#fff"/><path d="M72.46,41.77a2.14,2.14,0,0,1,.64.09,1.41,1.41,0,0,1,.47.25,1.06,1.06,0,0,1,.29.38A1.14,1.14,0,0,1,74,43a1,1,0,0,1-.09.43,1.32,1.32,0,0,1-.23.34,1.77,1.77,0,0,1-.3.26L73,44.17l-0.29.16-0.32.2-0.29.22a1,1,0,0,0-.2.23H74v0.85H70.67a3,3,0,0,1,0-.57,1.55,1.55,0,0,1,.17-0.47,1.61,1.61,0,0,1,.34-0.41A3,3,0,0,1,71.77,44l0.51-.27,0.37-.21a0.9,0.9,0,0,0,.22-0.2,0.38,0.38,0,0,0,.08-0.23,0.47,0.47,0,0,0-.17-0.36,0.7,0.7,0,0,0-.48-0.15,1,1,0,0,0-.31,0,1.22,1.22,0,0,0-.26.12,1.51,1.51,0,0,0-.22.17l-0.19.2-0.6-.69A1.56,1.56,0,0,1,71,42.22a2.56,2.56,0,0,1,.4-0.22,2.92,2.92,0,0,1,.5-0.17,2.52,2.52,0,0,1,.59-0.07m0-.5a3,3,0,0,0-.71.08,3.43,3.43,0,0,0-.59.2,3.07,3.07,0,0,0-.47.26,2,2,0,0,0-.34.29,0.5,0.5,0,0,0,0,.67l0.6,0.69a0.5,0.5,0,0,0,.38.17h0a0.5,0.5,0,0,0,.2,0,3.53,3.53,0,0,0-.62.43,2.12,2.12,0,0,0-.44.53,2.06,2.06,0,0,0-.23.63,3.46,3.46,0,0,0-.06.66,0.5,0.5,0,0,0,.5.5H74a0.5,0.5,0,0,0,.5-0.5V45a0.5,0.5,0,0,0-.5-0.5H73.48l0.14-.09A2.28,2.28,0,0,0,74,44.07a1.83,1.83,0,0,0,.32-0.46A1.49,1.49,0,0,0,74.47,43a1.64,1.64,0,0,0-.15-0.69,1.57,1.57,0,0,0-.43-0.56,1.91,1.91,0,0,0-.64-0.34,2.65,2.65,0,0,0-.79-0.11h0Zm-0.88,2.28a0.5,0.5,0,0,0,.12-0.11l0.14-.15L72,43.18l0.15-.07,0.15,0h0.1l0,0L72,43.3l-0.46.25h0Z"/><path d="M75.15,46.08a0.25,0.25,0,0,1-.25-0.25V45a0.25,0.25,0,0,1,.25-0.25h0.74V43.36l-0.14.07a2.41,2.41,0,0,1-.37.14,1.36,1.36,0,0,1-.37.06,0.25,0.25,0,0,1-.25-0.25V42.5A0.25,0.25,0,0,1,75,42.25a0.54,0.54,0,0,0,.21-0.06A2.43,2.43,0,0,0,75.54,42l0.28-.2a0.66,0.66,0,0,0,.11-0.1,0.28,0.28,0,0,1,.22-0.13h1a0.25,0.25,0,0,1,.25.25v2.9H78a0.25,0.25,0,0,1,.25.25v0.85a0.25,0.25,0,0,1-.25.25H75.15Z" fill="#fff"/><path d="M77.1,41.84V45H78v0.85H75.15V45h1V42.87a0.77,0.77,0,0,1-.2.17l-0.3.16a2.14,2.14,0,0,1-.33.13,1.12,1.12,0,0,1-.3,0V42.5a0.79,0.79,0,0,0,.31-0.08,2.7,2.7,0,0,0,.36-0.19A2.89,2.89,0,0,0,76,42a0.74,0.74,0,0,0,.17-0.17h1m0-.5h-1a0.5,0.5,0,0,0-.44.26h0l0,0-0.25.18L75.12,42,75,42a0.49,0.49,0,0,0-.49.5v0.88a0.5,0.5,0,0,0,.5.5,1.62,1.62,0,0,0,.44-0.07l0.19-.06v0.74H75.15a0.5,0.5,0,0,0-.5.5v0.85a0.5,0.5,0,0,0,.5.5H78a0.5,0.5,0,0,0,.5-0.5V45a0.5,0.5,0,0,0-.5-0.5H77.6V41.84a0.5,0.5,0,0,0-.5-0.5h0Z"/><path d="M80.66,46.15A1.9,1.9,0,0,1,79.83,46a2,2,0,0,1-.65-0.5,2.34,2.34,0,0,1-.42-0.75,3,3,0,0,1,0-1.87,2.36,2.36,0,0,1,.42-0.75,2,2,0,0,1,.65-0.51,1.94,1.94,0,0,1,1.66,0,2,2,0,0,1,.66.51,2.36,2.36,0,0,1,.42.75,3,3,0,0,1,0,1.87,2.34,2.34,0,0,1-.42.75,2,2,0,0,1-.66.5A1.92,1.92,0,0,1,80.66,46.15Zm0-3.39a0.45,0.45,0,0,0-.23.06,0.6,0.6,0,0,0-.19.18,1.07,1.07,0,0,0-.14.33,1.75,1.75,0,0,0-.05.45,1.7,1.7,0,0,0,.05.44,1.05,1.05,0,0,0,.14.32,0.6,0.6,0,0,0,.19.19,0.45,0.45,0,0,0,.23.06,0.43,0.43,0,0,0,.22-0.06,0.6,0.6,0,0,0,.19-0.18,1.07,1.07,0,0,0,.14-0.32,1.7,1.7,0,0,0,.05-0.44,1.75,1.75,0,0,0-.05-0.45A1.05,1.05,0,0,0,81.07,43a0.59,0.59,0,0,0-.19-0.18A0.43,0.43,0,0,0,80.66,42.77Z" fill="#fff"/><path d="M80.66,41.65a1.62,1.62,0,0,1,.72.16,1.75,1.75,0,0,1,.57.44,2.09,2.09,0,0,1,.38.67,2.71,2.71,0,0,1,0,1.7,2.09,2.09,0,0,1-.38.67,1.71,1.71,0,0,1-.57.44,1.72,1.72,0,0,1-1.44,0,1.71,1.71,0,0,1-.57-0.44A2.09,2.09,0,0,1,79,44.63a2.71,2.71,0,0,1,0-1.7,2.09,2.09,0,0,1,.38-0.67,1.76,1.76,0,0,1,.57-0.44,1.62,1.62,0,0,1,.72-0.16m0,3.39A0.68,0.68,0,0,0,81,45a0.84,0.84,0,0,0,.27-0.26,1.3,1.3,0,0,0,.18-0.4,1.94,1.94,0,0,0,.06-0.51,2,2,0,0,0-.06-0.51,1.29,1.29,0,0,0-.18-0.4A0.84,0.84,0,0,0,81,42.61a0.68,0.68,0,0,0-.35-0.09,0.7,0.7,0,0,0-.35.09,0.85,0.85,0,0,0-.27.26,1.29,1.29,0,0,0-.18.4,2,2,0,0,0-.06.51,1.94,1.94,0,0,0,.06.51,1.3,1.3,0,0,0,.18.4,0.85,0.85,0,0,0,.27.26,0.7,0.7,0,0,0,.35.09m0-3.89a2.12,2.12,0,0,0-.94.21,2.26,2.26,0,0,0-.73.57,2.6,2.6,0,0,0-.47.83,3.21,3.21,0,0,0,0,2,2.59,2.59,0,0,0,.47.83,2.22,2.22,0,0,0,.74.57,2.22,2.22,0,0,0,1.87,0,2.21,2.21,0,0,0,.74-0.57,2.59,2.59,0,0,0,.47-0.83,3.21,3.21,0,0,0,0-2,2.6,2.6,0,0,0-.47-0.83,2.26,2.26,0,0,0-.74-0.57,2.13,2.13,0,0,0-.94-0.21h0Zm0,3.39a0.2,0.2,0,0,1-.1,0,0.35,0.35,0,0,1-.11-0.11,0.81,0.81,0,0,1-.11-0.25,1.45,1.45,0,0,1,0-.38,1.49,1.49,0,0,1,0-.38,0.81,0.81,0,0,1,.11-0.25A0.35,0.35,0,0,1,80.56,43a0.19,0.19,0,0,1,.1,0l0.1,0a0.35,0.35,0,0,1,.11.11,0.81,0.81,0,0,1,.11.25,1.49,1.49,0,0,1,0,.38,1.45,1.45,0,0,1,0,.38,0.81,0.81,0,0,1-.11.25,0.35,0.35,0,0,1-.11.11l-0.1,0h0Z"/><path d="M85.31,46.15A1.9,1.9,0,0,1,84.48,46a2,2,0,0,1-.65-0.5,2.34,2.34,0,0,1-.42-0.75,3,3,0,0,1,0-1.87,2.36,2.36,0,0,1,.42-0.75,2,2,0,0,1,.65-0.51,1.94,1.94,0,0,1,1.66,0,2,2,0,0,1,.65.51,2.36,2.36,0,0,1,.42.75,3,3,0,0,1,0,1.87,2.32,2.32,0,0,1-.42.75,2,2,0,0,1-.66.5A1.91,1.91,0,0,1,85.31,46.15Zm0-3.39a0.44,0.44,0,0,0-.23.06,0.59,0.59,0,0,0-.19.18,1.06,1.06,0,0,0-.14.33,1.72,1.72,0,0,0-.05.45,1.65,1.65,0,0,0,.05.44,1.05,1.05,0,0,0,.14.32,0.6,0.6,0,0,0,.19.18,0.45,0.45,0,0,0,.23.06,0.44,0.44,0,0,0,.22-0.06,0.6,0.6,0,0,0,.19-0.18,1.06,1.06,0,0,0,.14-0.32,1.68,1.68,0,0,0,.05-0.44,1.77,1.77,0,0,0-.05-0.45A1,1,0,0,0,85.72,43a0.6,0.6,0,0,0-.19-0.19A0.44,0.44,0,0,0,85.31,42.77Z" fill="#fff"/><path d="M85.31,41.65a1.62,1.62,0,0,1,.72.16,1.76,1.76,0,0,1,.57.44,2.09,2.09,0,0,1,.38.67,2.71,2.71,0,0,1,0,1.7,2.09,2.09,0,0,1-.38.67,1.71,1.71,0,0,1-.57.44,1.72,1.72,0,0,1-1.44,0A1.72,1.72,0,0,1,84,45.3a2.09,2.09,0,0,1-.38-0.67,2.71,2.71,0,0,1,0-1.7A2.09,2.09,0,0,1,84,42.26a1.76,1.76,0,0,1,.57-0.44,1.61,1.61,0,0,1,.72-0.16m0,3.39A0.68,0.68,0,0,0,85.65,45a0.85,0.85,0,0,0,.27-0.26,1.3,1.3,0,0,0,.18-0.4,1.94,1.94,0,0,0,.06-0.51,2,2,0,0,0-.06-0.51,1.29,1.29,0,0,0-.18-0.4,0.85,0.85,0,0,0-.27-0.26,0.68,0.68,0,0,0-.35-0.09,0.69,0.69,0,0,0-.35.09,0.84,0.84,0,0,0-.27.26,1.29,1.29,0,0,0-.18.4,1.94,1.94,0,0,0-.06.51,1.9,1.9,0,0,0,.06.51,1.3,1.3,0,0,0,.18.4A0.84,0.84,0,0,0,85,45a0.69,0.69,0,0,0,.35.09m0-3.89a2.12,2.12,0,0,0-.94.21,2.26,2.26,0,0,0-.73.57,2.6,2.6,0,0,0-.47.83,3.21,3.21,0,0,0,0,2,2.59,2.59,0,0,0,.47.83,2.22,2.22,0,0,0,.74.57,2.22,2.22,0,0,0,1.87,0A2.22,2.22,0,0,0,87,45.63a2.59,2.59,0,0,0,.47-0.83,3.21,3.21,0,0,0,0-2A2.6,2.6,0,0,0,87,41.94a2.26,2.26,0,0,0-.74-0.57,2.13,2.13,0,0,0-.94-0.21h0Zm0,3.39a0.19,0.19,0,0,1-.1,0,0.35,0.35,0,0,1-.11-0.11A0.81,0.81,0,0,1,85,44.16a1.41,1.41,0,0,1,0-.38,1.45,1.45,0,0,1,0-.38,0.82,0.82,0,0,1,.11-0.25A0.35,0.35,0,0,1,85.2,43a0.19,0.19,0,0,1,.1,0l0.1,0a0.35,0.35,0,0,1,.11.11,0.81,0.81,0,0,1,.11.25,1.49,1.49,0,0,1,0,.38,1.45,1.45,0,0,1,0,.38,0.81,0.81,0,0,1-.11.25,0.35,0.35,0,0,1-.11.11l-0.1,0h0Z"/></svg>