<svg xmlns="http://www.w3.org/2000/svg" xmlns:xlink="http://www.w3.org/1999/xlink" viewBox="0 0 125 50"><defs><clipPath id="a"><rect x="1.19" y="12.17" width="122.62" height="25.61" rx="7.05" ry="7.05" fill="none"/></clipPath></defs><title>escalas en blanco con contorno</title><path d="M116.76,38.46H8.24A7.75,7.75,0,0,1,.5,30.72V19.22a7.75,7.75,0,0,1,7.74-7.74H116.76a7.75,7.75,0,0,1,7.74,7.74v11.5A7.75,7.75,0,0,1,116.76,38.46ZM8.24,12.85a6.37,6.37,0,0,0-6.37,6.37v11.5a6.37,6.37,0,0,0,6.37,6.37H116.76a6.37,6.37,0,0,0,6.37-6.37V19.22a6.37,6.37,0,0,0-6.37-6.37H8.24Z" fill="#fff"/><g clip-path="url(#a)"><rect x="106.77" y="20.73" width="25.72" height="8.37" transform="translate(144.54 -94.72) rotate(90)" fill="#be0000"/><rect x="98.61" y="20.73" width="25.72" height="8.37" transform="translate(136.38 -86.56) rotate(90)" fill="#d80000"/><rect x="90.45" y="20.73" width="25.72" height="8.37" transform="translate(128.22 -78.4) rotate(90)" fill="#f20000"/><rect x="82.29" y="20.73" width="25.72" height="8.37" transform="translate(120.06 -70.24) rotate(90)" fill="#ff3000"/><rect x="74.12" y="20.73" width="25.72" height="8.37" transform="translate(111.9 -62.07) rotate(90)" fill="#ff7900"/><rect x="65.96" y="20.73" width="25.72" height="8.37" transform="translate(103.73 -53.91) rotate(90)" fill="#ffb24d"/><rect x="57.8" y="20.73" width="25.72" height="8.37" transform="translate(95.57 -45.75) rotate(90)" fill="#fce155"/><rect x="49.64" y="20.73" width="25.72" height="8.37" transform="translate(87.41 -37.59) rotate(90)" fill="#f7ff5d"/><rect x="41.48" y="20.73" width="25.72" height="8.37" transform="translate(79.25 -29.43) rotate(90)" fill="#ddff73"/><rect x="33.32" y="20.73" width="25.72" height="8.37" transform="translate(71.09 -21.27) rotate(90)" fill="#c4f986"/><rect x="25.16" y="20.73" width="25.72" height="8.37" transform="translate(62.93 -13.11) rotate(90)" fill="#abed98"/><rect x="17" y="20.73" width="25.72" height="8.37" transform="translate(54.77 -4.94) rotate(90)" fill="#8cd9a6"/><rect x="8.83" y="20.73" width="25.72" height="8.37" transform="translate(46.6 3.22) rotate(90)" fill="#6abaae"/><rect x="0.67" y="20.73" width="25.72" height="8.37" transform="translate(38.44 11.38) rotate(90)" fill="#4a9ab5"/><rect x="-7.49" y="20.73" width="25.72" height="8.37" transform="translate(30.28 19.54) rotate(90)" fill="#3279bd"/></g><path d="M40.39,8.86a0.25,0.25,0,0,1-.21-0.11l-0.9-1.34-0.21.21v1a0.25,0.25,0,0,1-.25.25H37.88a0.25,0.25,0,0,1-.25-0.25V3.5a0.25,0.25,0,0,1,.25-0.25h0.94a0.25,0.25,0,0,1,.25.25V5.94l1-1.16a0.25,0.25,0,0,1,.19-0.08h1a0.25,0.25,0,0,1,.19.42L40.24,6.52l1.35,1.95a0.25,0.25,0,0,1-.21.39h-1Z" fill="#fff"/><path d="M38.82,3.5V6.6l1.47-1.65h1L39.92,6.5l1.46,2.11h-1L39.32,7l-0.5.5V8.61H37.88V3.5h0.94m0-.5H37.88a0.5,0.5,0,0,0-.5.5V8.61a0.5,0.5,0,0,0,.5.5h0.94a0.5,0.5,0,0,0,.5-0.5V7.91l0.65,1a0.5,0.5,0,0,0,.42.22h1a0.5,0.5,0,0,0,.41-0.79L40.56,6.54l1.11-1.26a0.5,0.5,0,0,0-.38-0.83h-1a0.5,0.5,0,0,0-.37.17l-0.6.67V3.5a0.5,0.5,0,0,0-.5-0.5h0Z"/><path d="M46.15,8.86a0.25,0.25,0,0,1-.23-0.15L45.29,7.18,44.66,8.7a0.25,0.25,0,0,1-.23.15H43.62a0.25,0.25,0,0,1-.23-0.16l-2-5a0.25,0.25,0,0,1,.23-0.34h1a0.25,0.25,0,0,1,.23.16l1.19,3.24,0.34-.88-0.8-2.17a0.25,0.25,0,0,1,.23-0.34h0.89a0.25,0.25,0,0,1,.24.17l0.32,0.95,0.32-.95a0.25,0.25,0,0,1,.24-0.17h0.9a0.25,0.25,0,0,1,.23.34L46.17,5.91,46.52,6.8,47.7,3.55a0.25,0.25,0,0,1,.23-0.16h1a0.25,0.25,0,0,1,.23.34l-2,5a0.25,0.25,0,0,1-.23.16H46.15Z" fill="#fff"/><path d="M49,3.64h0m0,0-2,5H46.15L45.29,6.52,44.43,8.61H43.62l-2-5h1L44.06,7.5l0.62-1.59L43.84,3.65h0.89L45.29,5.3l0.56-1.65h0.9L45.9,5.91,46.53,7.5l1.41-3.86h1m-2.24,0h0M49,3.14H47.94a0.5,0.5,0,0,0-.47.33l-1,2.63-0.07-.19,0.76-2a0.5,0.5,0,0,0-.45-0.72h-0.9a0.5,0.5,0,0,0-.47.34l-0.09.25-0.09-.25a0.5,0.5,0,0,0-.47-0.34H43.84a0.5,0.5,0,0,0-.47.67l0.77,2.08-0.07.18-1-2.62a0.5,0.5,0,0,0-.47-0.33h-1a0.5,0.5,0,0,0-.46.69l2,5a0.5,0.5,0,0,0,.46.31h0.81a0.5,0.5,0,0,0,.46-0.31l0.4-1,0.4,1a0.5,0.5,0,0,0,.46.31H47a0.5,0.5,0,0,0,.46-0.31l2-4.93A0.5,0.5,0,0,0,49,3.14h0Zm0,1h0Z"/><path d="M52.23,8.86A0.25,0.25,0,0,1,52,8.61V6.55a0.8,0.8,0,0,0-.11-0.49A0.29,0.29,0,0,0,51.61,6a0.48,0.48,0,0,0-.17,0,0.76,0.76,0,0,0-.2.12,1.08,1.08,0,0,0-.19.2,0.69,0.69,0,0,0-.11.23V8.61a0.25,0.25,0,0,1-.25.25H49.76a0.25,0.25,0,0,1-.25-0.25V3.5a0.25,0.25,0,0,1,.25-0.25H50.7a0.25,0.25,0,0,1,.25.25V5l0.18-.11A1.8,1.8,0,0,1,52,4.63a1.46,1.46,0,0,1,.7.15,1.18,1.18,0,0,1,.44.41,1.61,1.61,0,0,1,.21.55,3.09,3.09,0,0,1,.05.58V8.61a0.25,0.25,0,0,1-.25.25H52.23Z" fill="#fff"/><path d="M50.7,3.5V5.62a1.41,1.41,0,0,1,.55-0.55A1.54,1.54,0,0,1,52,4.88a1.21,1.21,0,0,1,.58.12,0.93,0.93,0,0,1,.35.33,1.35,1.35,0,0,1,.18.46,2.84,2.84,0,0,1,0,.53V8.61H52.23V6.55a1,1,0,0,0-.16-0.64,0.54,0.54,0,0,0-.45-0.21,0.72,0.72,0,0,0-.27.06,1,1,0,0,0-.27.16,1.34,1.34,0,0,0-.23.24,1,1,0,0,0-.15.31V8.61H49.76V3.5H50.7m0-.5H49.76a0.5,0.5,0,0,0-.5.5V8.61a0.5,0.5,0,0,0,.5.5H50.7a0.5,0.5,0,0,0,.5-0.5V6.55l0.05-.09a0.84,0.84,0,0,1,.14-0.15l0.14-.08,0.08,0h0.05a0.57,0.57,0,0,1,.06.34V8.61a0.5,0.5,0,0,0,.5.5h0.94a0.5,0.5,0,0,0,.5-0.5V6.32a3.35,3.35,0,0,0-.06-0.62,1.85,1.85,0,0,0-.24-0.63,1.43,1.43,0,0,0-.53-0.5A1.71,1.71,0,0,0,52,4.38a2.08,2.08,0,0,0-.82.16v-1A0.5,0.5,0,0,0,50.7,3h0Z"/><path d="M54.1,8.86a0.25,0.25,0,0,1-.21-0.39l3.46-5a0.25,0.25,0,0,1,.21-0.11h1a0.25,0.25,0,0,1,.21.39l-3.47,5a0.25,0.25,0,0,1-.21.11h-1Z" fill="#fff"/><path d="M58.61,3.64l-3.47,5h-1l3.46-5h1m0-.5h-1a0.5,0.5,0,0,0-.41.21l-3.46,5a0.5,0.5,0,0,0,.41.79h1a0.5,0.5,0,0,0,.41-0.21l3.47-5a0.5,0.5,0,0,0-.41-0.79h0Zm0,1h0Z"/><path d="M64.17,8.86a0.25,0.25,0,0,1-.25-0.25V6.55a0.85,0.85,0,0,0-.1-0.5A0.24,0.24,0,0,0,63.6,6a0.54,0.54,0,0,0-.36.15,0.92,0.92,0,0,0-.28.44V8.61a0.25,0.25,0,0,1-.25.25H61.79a0.25,0.25,0,0,1-.25-0.25V6.55a0.85,0.85,0,0,0-.1-0.5A0.24,0.24,0,0,0,61.22,6a0.55,0.55,0,0,0-.36.15,0.89,0.89,0,0,0-.28.44V8.61a0.25,0.25,0,0,1-.25.25H59.4a0.25,0.25,0,0,1-.25-0.25V4.94a0.25,0.25,0,0,1,.25-0.25h0.85a0.25,0.25,0,0,1,.25.25V5l0.19-.12a1.91,1.91,0,0,1,.93-0.22,1.2,1.2,0,0,1,1.1.53,1.73,1.73,0,0,1,.38-0.3A1.78,1.78,0,0,1,64,4.63a1.35,1.35,0,0,1,.68.16,1.17,1.17,0,0,1,.43.42,1.63,1.63,0,0,1,.2.54,3.33,3.33,0,0,1,0,.57V8.61a0.25,0.25,0,0,1-.25.25H64.17Z" fill="#fff"/><path d="M64,4.88a1.09,1.09,0,0,1,.55.13,0.91,0.91,0,0,1,.34.33,1.37,1.37,0,0,1,.16.46,3,3,0,0,1,0,.52V8.61H64.17V6.55A1.1,1.1,0,0,0,64,5.91a0.49,0.49,0,0,0-.42-0.2,0.78,0.78,0,0,0-.52.21,1.17,1.17,0,0,0-.35.56V8.61H61.79V6.55a1.1,1.1,0,0,0-.15-0.64,0.49,0.49,0,0,0-.42-0.2,0.8,0.8,0,0,0-.52.21,1.14,1.14,0,0,0-.35.55V8.61H59.4V4.94h0.85V5.62a1.4,1.4,0,0,1,.56-0.55,1.66,1.66,0,0,1,.81-0.19,1,1,0,0,1,.71.22,1,1,0,0,1,.32.55,1.58,1.58,0,0,1,.57-0.58A1.53,1.53,0,0,1,64,4.88m0-.5a2,2,0,0,0-1,.27l-0.23.16-0.08-.07a1.52,1.52,0,0,0-1-.35,2.17,2.17,0,0,0-1,.23,0.5,0.5,0,0,0-.37-0.16H59.4a0.5,0.5,0,0,0-.5.5V8.61a0.5,0.5,0,0,0,.5.5h0.94a0.5,0.5,0,0,0,.5-0.5V6.55A0.61,0.61,0,0,1,61,6.3a0.3,0.3,0,0,1,.2-0.09h0a0.46,0.46,0,0,1,.07.35V8.61a0.5,0.5,0,0,0,.5.5h0.94a0.5,0.5,0,0,0,.5-0.5V6.56a0.65,0.65,0,0,1,.18-0.26,0.29,0.29,0,0,1,.2-0.09h0a0.46,0.46,0,0,1,.07.35V8.61a0.5,0.5,0,0,0,.5.5H65.1a0.5,0.5,0,0,0,.5-0.5V6.32a3.55,3.55,0,0,0-.05-0.61,1.88,1.88,0,0,0-.23-0.63,1.41,1.41,0,0,0-.52-0.51A1.59,1.59,0,0,0,64,4.38h0Z"/><path d="M66,6.86a0.25,0.25,0,0,1-.25-0.25,2.39,2.39,0,0,1,0-.45A1.36,1.36,0,0,1,66,5.74a1.4,1.4,0,0,1,.29-0.35,2.47,2.47,0,0,1,.43-0.3l0.37-.2,0.24-.14a0.43,0.43,0,0,0,.1-0.08,0.21,0.21,0,0,0-.21-0.13l-0.14,0-0.13.06-0.12.09-0.11.12a0.25,0.25,0,0,1-.19.09h0a0.25,0.25,0,0,1-.19-0.09l-0.43-.5a0.25,0.25,0,0,1,0-.33,1.39,1.39,0,0,1,.23-0.19,2.11,2.11,0,0,1,.32-0.18,2.37,2.37,0,0,1,.4-0.14,2.09,2.09,0,0,1,.48-0.05,1.77,1.77,0,0,1,.53.07,1.22,1.22,0,0,1,.42.22,1,1,0,0,1,.28.36,1.08,1.08,0,0,1,.1.45,1,1,0,0,1-.09.42,1.21,1.21,0,0,1-.21.3,1.53,1.53,0,0,1-.26.22l-0.25.15-0.2.11h0.81a0.25,0.25,0,0,1,.25.25v0.6a0.25,0.25,0,0,1-.25.25H66Z" fill="#fff"/><path d="M67.32,3.7a1.51,1.51,0,0,1,.46.06,1,1,0,0,1,.34.17,0.76,0.76,0,0,1,.21.27,0.82,0.82,0,0,1,.07.34,0.71,0.71,0,0,1-.06.31,1,1,0,0,1-.17.24,1.28,1.28,0,0,1-.22.18l-0.23.14-0.21.12-0.23.14-0.21.16a0.74,0.74,0,0,0-.14.16h1.51v0.6H66a2.17,2.17,0,0,1,0-.41,1.1,1.1,0,0,1,.12-0.34,1.15,1.15,0,0,1,.24-0.29,2.2,2.2,0,0,1,.39-0.26l0.36-.19L67.45,5a0.66,0.66,0,0,0,.16-0.14,0.27,0.27,0,0,0,.06-0.17,0.33,0.33,0,0,0-.12-0.26,0.49,0.49,0,0,0-.34-0.11,0.71,0.71,0,0,0-.22,0l-0.19.09-0.16.12-0.13.14-0.43-.5A1.11,1.11,0,0,1,66.25,4a1.77,1.77,0,0,1,.28-0.16,2.18,2.18,0,0,1,.36-0.12,1.83,1.83,0,0,1,.42,0m0-.5a2.34,2.34,0,0,0-.54.06,2.7,2.7,0,0,0-.45.15,2.27,2.27,0,0,0-.37.2,1.58,1.58,0,0,0-.27.23,0.5,0.5,0,0,0,0,.67L66.12,5,66.23,5.1l-0.13.1a1.65,1.65,0,0,0-.34.42,1.6,1.6,0,0,0-.18.49,2.68,2.68,0,0,0,0,.5,0.5,0.5,0,0,0,.5.5h2.41a0.5,0.5,0,0,0,.5-0.5V6a0.5,0.5,0,0,0-.48-0.5l0.05-.05a1.46,1.46,0,0,0,.25-0.37,1.21,1.21,0,0,0,.11-0.53A1.32,1.32,0,0,0,68.77,4a1.27,1.27,0,0,0-.35-0.45,1.48,1.48,0,0,0-.51-0.27,2,2,0,0,0-.6-0.08h0Z"/><path d="M69.11,8.86a0.25,0.25,0,0,1-.21-0.39l3.46-5a0.25,0.25,0,0,1,.21-0.11h1a0.25,0.25,0,0,1,.21.39l-3.47,5a0.25,0.25,0,0,1-.21.11h-1Z" fill="#fff"/><path d="M73.61,3.64l-3.47,5h-1l3.46-5h1m0-.5h-1a0.5,0.5,0,0,0-.41.21l-3.46,5a0.5,0.5,0,0,0,.41.79h1a0.5,0.5,0,0,0,.41-0.21l3.47-5a0.5,0.5,0,0,0-.41-0.79h0Zm0,1h0Z"/><path d="M79.17,8.86a0.25,0.25,0,0,1-.25-0.25V6.55a0.84,0.84,0,0,0-.1-0.5A0.24,0.24,0,0,0,78.6,6a0.54,0.54,0,0,0-.36.15,0.91,0.91,0,0,0-.28.44V8.61a0.25,0.25,0,0,1-.25.25H76.79a0.25,0.25,0,0,1-.25-0.25V6.55a0.84,0.84,0,0,0-.1-0.5A0.24,0.24,0,0,0,76.22,6a0.55,0.55,0,0,0-.36.15,0.88,0.88,0,0,0-.28.43V8.61a0.25,0.25,0,0,1-.25.25H74.41a0.25,0.25,0,0,1-.25-0.25V4.94a0.25,0.25,0,0,1,.25-0.25h0.85a0.25,0.25,0,0,1,.25.25V5l0.19-.12a1.92,1.92,0,0,1,.93-0.22,1.28,1.28,0,0,1,.88.29,1.27,1.27,0,0,1,.22.25,1.73,1.73,0,0,1,.38-0.3A1.78,1.78,0,0,1,79,4.63a1.33,1.33,0,0,1,.68.16,1.15,1.15,0,0,1,.43.42,1.61,1.61,0,0,1,.19.54,3.23,3.23,0,0,1,0,.57V8.61a0.25,0.25,0,0,1-.25.25H79.17Z" fill="#fff"/><path d="M79,4.88a1.09,1.09,0,0,1,.55.13,0.91,0.91,0,0,1,.34.33,1.37,1.37,0,0,1,.16.46,3,3,0,0,1,0,.52V8.61H79.17V6.55A1.09,1.09,0,0,0,79,5.91a0.49,0.49,0,0,0-.42-0.2,0.79,0.79,0,0,0-.53.21,1.18,1.18,0,0,0-.35.56V8.61H76.79V6.55a1.09,1.09,0,0,0-.15-0.64,0.49,0.49,0,0,0-.42-0.2,0.79,0.79,0,0,0-.52.21,1.13,1.13,0,0,0-.35.55V8.61H74.41V4.94h0.85V5.62a1.39,1.39,0,0,1,.56-0.55,1.66,1.66,0,0,1,.81-0.19,1,1,0,0,1,.71.22,1,1,0,0,1,.32.55,1.59,1.59,0,0,1,.57-0.58A1.53,1.53,0,0,1,79,4.88m0-.5a2,2,0,0,0-1,.27l-0.23.16-0.08-.07a1.52,1.52,0,0,0-1-.35,2.18,2.18,0,0,0-1,.23,0.5,0.5,0,0,0-.37-0.16H74.41a0.5,0.5,0,0,0-.5.5V8.61a0.5,0.5,0,0,0,.5.5h0.94a0.5,0.5,0,0,0,.5-0.5V6.55A0.61,0.61,0,0,1,76,6.3a0.3,0.3,0,0,1,.2-0.09,0.46,0.46,0,0,1,.07.35V8.61a0.5,0.5,0,0,0,.5.5h0.94a0.5,0.5,0,0,0,.5-0.5V6.56a0.65,0.65,0,0,1,.18-0.26,0.29,0.29,0,0,1,.2-0.09,0.46,0.46,0,0,1,.07.35V8.61a0.5,0.5,0,0,0,.5.5h0.94a0.5,0.5,0,0,0,.5-0.5V6.32a3.55,3.55,0,0,0-.05-0.61,1.88,1.88,0,0,0-.23-0.63,1.4,1.4,0,0,0-.52-0.51A1.58,1.58,0,0,0,79,4.38h0Z"/><path d="M83,8.93a2.3,2.3,0,0,1-.9-0.17,2.06,2.06,0,0,1-1.13-1.15,2.2,2.2,0,0,1-.15-0.81A2.3,2.3,0,0,1,80.95,6a2.06,2.06,0,0,1,.44-0.69,2.11,2.11,0,0,1,.69-0.47A2.3,2.3,0,0,1,83,4.63a2.25,2.25,0,0,1,.9.17,2.12,2.12,0,0,1,.68.47A2,2,0,0,1,85,6a2.25,2.25,0,0,1,.15.8V6.94a1,1,0,0,1,0,.19,0.25,0.25,0,0,1-.24.19H84.2l0.55,0.15a0.25,0.25,0,0,1,.16.35,1.89,1.89,0,0,1-.74.79A2.26,2.26,0,0,1,83,8.93ZM82.37,7.35a0.73,0.73,0,0,0,.16.21,0.7,0.7,0,0,0,.22.13,0.73,0.73,0,0,0,.26,0,0.82,0.82,0,0,0,.41-0.11,0.48,0.48,0,0,0,.23-0.23,0.24,0.24,0,0,1,0-.08H82.36v0Zm1.25-1.13A0.65,0.65,0,0,0,83.46,6,0.68,0.68,0,0,0,83,5.81a0.7,0.7,0,0,0-.26,0A0.67,0.67,0,0,0,82.5,6a0.71,0.71,0,0,0-.15.21h1.27Z" fill="#fff"/><path d="M83,4.88a2,2,0,0,1,.8.15,1.86,1.86,0,0,1,.6.41,1.75,1.75,0,0,1,.38.6,2,2,0,0,1,.13.71c0,0.06,0,.12,0,0.17a0.81,0.81,0,0,1,0,.14H82a1.09,1.09,0,0,0,.1.39,1,1,0,0,0,.22.29,1,1,0,0,0,.3.18A1,1,0,0,0,83,8a1.08,1.08,0,0,0,.53-0.14,0.72,0.72,0,0,0,.34-0.36l0.8,0.22a1.64,1.64,0,0,1-.65.69A2,2,0,0,1,83,8.68a2,2,0,0,1-.8-0.15,1.8,1.8,0,0,1-1-1A1.93,1.93,0,0,1,81,6.79a2,2,0,0,1,.13-0.74,1.8,1.8,0,0,1,.38-0.61A1.85,1.85,0,0,1,82.18,5,2,2,0,0,1,83,4.88M82,6.47h1.9a1,1,0,0,0-.3-0.66,1,1,0,0,0-1-.18,0.94,0.94,0,0,0-.29.19,1,1,0,0,0-.21.29,1,1,0,0,0-.09.37m1-2.09a2.55,2.55,0,0,0-1,.19,2.36,2.36,0,0,0-.78.53,2.31,2.31,0,0,0-.49.78,2.54,2.54,0,0,0-.17.92,2.44,2.44,0,0,0,.17.91A2.3,2.3,0,0,0,82,9a2.54,2.54,0,0,0,1,.19,2.5,2.5,0,0,0,1.32-.34,2.14,2.14,0,0,0,.84-0.9,0.5,0.5,0,0,0,0-.42h0a0.5,0.5,0,0,0,.23-0.31,1.3,1.3,0,0,0,0-.23c0-.07,0-0.13,0-0.2a2.5,2.5,0,0,0-.16-0.89,2.25,2.25,0,0,0-.48-0.77A2.37,2.37,0,0,0,84,4.57a2.5,2.5,0,0,0-1-.2h0Z"/><path d="M87.21,8.93a3.08,3.08,0,0,1-1-.16,2.46,2.46,0,0,1-.84-0.47A0.25,0.25,0,0,1,85.33,8l0.35-.59a0.25,0.25,0,0,1,.16-0.12H85.9a0.25,0.25,0,0,1,.14,0,2.74,2.74,0,0,0,.6.33,1.53,1.53,0,0,0,.54.11,0.58,0.58,0,0,0,.3-0.06,0.09,0.09,0,0,0,0-.09,1.88,1.88,0,0,0-.62-0.26l-0.63-.19a1.82,1.82,0,0,1-.47-0.24,1,1,0,0,1-.3-0.36,1.12,1.12,0,0,1-.09-0.47,1.39,1.39,0,0,1,.13-0.61A1.34,1.34,0,0,1,85.93,5a1.64,1.64,0,0,1,.54-0.28,2.1,2.1,0,0,1,.65-0.1,2.71,2.71,0,0,1,.85.13,2.16,2.16,0,0,1,.75.44,0.25,0.25,0,0,1,0,.33l-0.38.57a0.25,0.25,0,0,1-.17.11h0a0.25,0.25,0,0,1-.15,0,2,2,0,0,0-.48-0.27,1.24,1.24,0,0,0-.43-0.08,0.51,0.51,0,0,0-.27.06,0.09,0.09,0,0,0,0,.1,0.41,0.41,0,0,0,.21.13l0.32,0.09c0.27,0.07.49,0.14,0.68,0.2a2.09,2.09,0,0,1,.5.26,1,1,0,0,1,.33.38,1.14,1.14,0,0,1,.11.51,1.27,1.27,0,0,1-.49,1A2,2,0,0,1,87.21,8.93Z" fill="#fff"/><path d="M87.11,4.87a2.46,2.46,0,0,1,.77.12,1.9,1.9,0,0,1,.66.39l-0.38.57a2.21,2.21,0,0,0-.54-0.31,1.48,1.48,0,0,0-.52-0.1,0.75,0.75,0,0,0-.4.1,0.34,0.34,0,0,0-.16.31,0.31,0.31,0,0,0,0,.16,0.33,0.33,0,0,0,.12.11l0.22,0.09,0.34,0.09q0.38,0.1.65,0.2a1.79,1.79,0,0,1,.44.22,0.8,0.8,0,0,1,.25.29,0.89,0.89,0,0,1,.08.4,1,1,0,0,1-.4.85,1.72,1.72,0,0,1-1.08.31,2.82,2.82,0,0,1-.9-0.15,2.19,2.19,0,0,1-.76-0.42l0.35-.59a3,3,0,0,0,.65.36,1.75,1.75,0,0,0,.63.12,0.8,0.8,0,0,0,.44-0.11,0.34,0.34,0,0,0,.16-0.3,0.3,0.3,0,0,0-.19-0.29A4.05,4.05,0,0,0,87,7.1l-0.61-.19A1.54,1.54,0,0,1,86,6.71a0.71,0.71,0,0,1-.22-0.27,0.86,0.86,0,0,1-.07-0.36,1.14,1.14,0,0,1,.11-0.5,1.09,1.09,0,0,1,.3-0.38A1.39,1.39,0,0,1,86.54,5a1.84,1.84,0,0,1,.57-0.08m0-.5a2.35,2.35,0,0,0-.72.11,1.88,1.88,0,0,0-.62.33,1.59,1.59,0,0,0-.44.55,1.64,1.64,0,0,0-.16.72,1.36,1.36,0,0,0,.11.57,1.2,1.2,0,0,0,.36.44,0.5,0.5,0,0,0-.18.18l-0.35.59a0.5,0.5,0,0,0,.1.63,2.69,2.69,0,0,0,.93.52,3.33,3.33,0,0,0,1.06.17,2.21,2.21,0,0,0,1.39-.42,1.52,1.52,0,0,0,.59-1.24,1.39,1.39,0,0,0-.13-0.62,1.3,1.3,0,0,0-.4-0.47l-0.16-.1a0.5,0.5,0,0,0,.09-0.11L89,5.65A0.5,0.5,0,0,0,88.88,5,2.41,2.41,0,0,0,88,4.51a3,3,0,0,0-.93-0.14h0Z"/><path d="M6.63,46.21a0.25,0.25,0,0,1-.13,0l-3-1.75a0.25,0.25,0,0,1-.12-0.21V43.76a0.25,0.25,0,0,1,.12-0.21l3-1.78a0.25,0.25,0,0,1,.13,0,0.25,0.25,0,0,1,.25.25v1a0.25,0.25,0,0,1-.12.21L5.52,44,6.76,44.7a0.25,0.25,0,0,1,.12.21v1a0.25,0.25,0,0,1-.13.22A0.24,0.24,0,0,1,6.63,46.21Z" fill="#fff"/><path d="M6.63,42v1L5,44l1.59,1v1l-3-1.75V43.76l3-1.78m0-.5a0.5,0.5,0,0,0-.26.07l-3,1.78a0.5,0.5,0,0,0-.24.43v0.46a0.5,0.5,0,0,0,.25.43l3,1.75A0.5,0.5,0,0,0,7.13,46v-1a0.5,0.5,0,0,0-.24-0.43L6,44l0.9-.56A0.5,0.5,0,0,0,7.13,43V42a0.5,0.5,0,0,0-.5-0.5h0Z"/><path d="M7.86,46a0.25,0.25,0,0,1-.25-0.25V44.93a0.25,0.25,0,0,1,.25-0.25H8.6V43.3l-0.14.07a2.59,2.59,0,0,1-.37.14,1.36,1.36,0,0,1-.37.06,0.25,0.25,0,0,1-.25-0.25V42.44a0.25,0.25,0,0,1,.25-0.25,0.55,0.55,0,0,0,.21-0.06A2.48,2.48,0,0,0,8.25,42l0.28-.2a0.68,0.68,0,0,0,.11-0.11,0.28,0.28,0,0,1,.22-0.12h1a0.25,0.25,0,0,1,.25.25v2.9H10.7a0.25,0.25,0,0,1,.25.25v0.85a0.25,0.25,0,0,1-.25.25H7.86Z" fill="#fff"/><path d="M9.81,41.78v3.15H10.7v0.85H7.86V44.93h1V42.81a0.77,0.77,0,0,1-.2.17l-0.3.17a2.24,2.24,0,0,1-.33.13,1.14,1.14,0,0,1-.3,0V42.44A0.79,0.79,0,0,0,8,42.36a2.65,2.65,0,0,0,.36-0.19,2.76,2.76,0,0,0,.3-0.22,0.74,0.74,0,0,0,.17-0.17h1m0-.5h-1a0.5,0.5,0,0,0-.44.26s0,0,0,0l0,0-0.25.18-0.29.16-0.11,0a0.49,0.49,0,0,0-.49.5v0.88a0.5,0.5,0,0,0,.5.5,1.61,1.61,0,0,0,.44-0.07l0.19-.06v0.74H7.86a0.5,0.5,0,0,0-.5.5v0.85a0.5,0.5,0,0,0,.5.5H10.7a0.5,0.5,0,0,0,.5-0.5V44.93a0.5,0.5,0,0,0-.5-0.5H10.31V41.78a0.5,0.5,0,0,0-.5-0.5h0Z"/><path d="M13.36,46.09a1.9,1.9,0,0,1-.83-0.18,2,2,0,0,1-.65-0.5,2.34,2.34,0,0,1-.42-0.75,3,3,0,0,1,0-1.87A2.36,2.36,0,0,1,11.88,42a2,2,0,0,1,.65-0.51,1.93,1.93,0,0,1,1.66,0,2,2,0,0,1,.65.51,2.34,2.34,0,0,1,.42.75,3,3,0,0,1,0,1.87,2.36,2.36,0,0,1-.42.75,2,2,0,0,1-.66.5A1.9,1.9,0,0,1,13.36,46.09Zm0-3.39a0.44,0.44,0,0,0-.23.06,0.58,0.58,0,0,0-.19.18,1.05,1.05,0,0,0-.14.33,1.71,1.71,0,0,0-.05.45,1.66,1.66,0,0,0,.05.44,1.05,1.05,0,0,0,.14.32,0.59,0.59,0,0,0,.19.19,0.44,0.44,0,0,0,.23.06,0.43,0.43,0,0,0,.22-0.06,0.61,0.61,0,0,0,.19-0.18,1.06,1.06,0,0,0,.14-0.32A1.69,1.69,0,0,0,14,43.72a1.73,1.73,0,0,0-.05-0.45,1.06,1.06,0,0,0-.14-0.32,0.61,0.61,0,0,0-.19-0.19A0.42,0.42,0,0,0,13.36,42.71Z" fill="#fff"/><path d="M13.36,41.59a1.62,1.62,0,0,1,.72.16,1.76,1.76,0,0,1,.57.44,2.09,2.09,0,0,1,.38.67,2.71,2.71,0,0,1,0,1.7,2.09,2.09,0,0,1-.38.67,1.71,1.71,0,0,1-.57.44,1.72,1.72,0,0,1-1.44,0,1.71,1.71,0,0,1-.57-0.44,2.09,2.09,0,0,1-.38-0.67,2.71,2.71,0,0,1,0-1.7,2.09,2.09,0,0,1,.38-0.67,1.77,1.77,0,0,1,.57-0.44,1.61,1.61,0,0,1,.72-0.16m0,3.39a0.68,0.68,0,0,0,.35-0.09A0.85,0.85,0,0,0,14,44.63a1.3,1.3,0,0,0,.18-0.4,1.94,1.94,0,0,0,.06-0.51,2,2,0,0,0-.06-0.51,1.29,1.29,0,0,0-.18-0.4,0.85,0.85,0,0,0-.27-0.26,0.68,0.68,0,0,0-.35-0.09,0.69,0.69,0,0,0-.35.09,0.84,0.84,0,0,0-.27.26,1.29,1.29,0,0,0-.18.4,1.93,1.93,0,0,0-.06.51,1.9,1.9,0,0,0,.06.51,1.3,1.3,0,0,0,.18.4,0.84,0.84,0,0,0,.27.26,0.69,0.69,0,0,0,.35.09m0-3.89a2.12,2.12,0,0,0-.94.21,2.27,2.27,0,0,0-.73.57,2.6,2.6,0,0,0-.47.83,3.21,3.21,0,0,0,0,2,2.6,2.6,0,0,0,.47.83,2.22,2.22,0,0,0,.74.57,2.22,2.22,0,0,0,1.87,0A2.21,2.21,0,0,0,15,45.57a2.6,2.6,0,0,0,.47-0.83,3.21,3.21,0,0,0,0-2A2.6,2.6,0,0,0,15,41.88a2.27,2.27,0,0,0-.74-0.57,2.13,2.13,0,0,0-.94-0.21h0Zm0,3.39a0.19,0.19,0,0,1-.1,0,0.35,0.35,0,0,1-.11-0.11A0.81,0.81,0,0,1,13,44.1a1.61,1.61,0,0,1,0-.76,0.81,0.81,0,0,1,.11-0.25A0.35,0.35,0,0,1,13.26,43a0.19,0.19,0,0,1,.1,0l0.1,0a0.36,0.36,0,0,1,.11.11,0.8,0.8,0,0,1,.11.25,1.49,1.49,0,0,1,0,.38,1.46,1.46,0,0,1,0,.38,0.8,0.8,0,0,1-.11.24,0.36,0.36,0,0,1-.11.11l-0.1,0h0Z"/><path d="M18,46.09a1.9,1.9,0,0,1-.83-0.18,2,2,0,0,1-.65-0.5,2.34,2.34,0,0,1-.42-0.75,3,3,0,0,1,0-1.87A2.36,2.36,0,0,1,16.53,42a2,2,0,0,1,.65-0.51,1.93,1.93,0,0,1,1.66,0,2,2,0,0,1,.65.51,2.34,2.34,0,0,1,.42.75,3,3,0,0,1,0,1.87,2.36,2.36,0,0,1-.42.75,2,2,0,0,1-.66.5A1.9,1.9,0,0,1,18,46.09Zm0-3.39a0.44,0.44,0,0,0-.23.06,0.58,0.58,0,0,0-.19.18,1.05,1.05,0,0,0-.14.33,1.71,1.71,0,0,0-.05.45,1.66,1.66,0,0,0,.05.44,1.05,1.05,0,0,0,.14.32,0.59,0.59,0,0,0,.19.19,0.44,0.44,0,0,0,.23.06,0.43,0.43,0,0,0,.22-0.06,0.61,0.61,0,0,0,.19-0.18,1.06,1.06,0,0,0,.14-0.32,1.69,1.69,0,0,0,.05-0.44,1.73,1.73,0,0,0-.05-0.45,1.06,1.06,0,0,0-.14-0.32,0.61,0.61,0,0,0-.19-0.19A0.42,0.42,0,0,0,18,42.71Z" fill="#fff"/><path d="M18,41.59a1.62,1.62,0,0,1,.72.16,1.76,1.76,0,0,1,.57.44,2.09,2.09,0,0,1,.38.67,2.71,2.71,0,0,1,0,1.7,2.09,2.09,0,0,1-.38.67,1.71,1.71,0,0,1-.57.44,1.72,1.72,0,0,1-1.44,0,1.71,1.71,0,0,1-.57-0.44,2.09,2.09,0,0,1-.38-0.67,2.71,2.71,0,0,1,0-1.7,2.09,2.09,0,0,1,.38-0.67,1.77,1.77,0,0,1,.57-0.44A1.61,1.61,0,0,1,18,41.59M18,45a0.68,0.68,0,0,0,.35-0.09,0.85,0.85,0,0,0,.27-0.26,1.3,1.3,0,0,0,.18-0.4,1.94,1.94,0,0,0,.06-0.51,2,2,0,0,0-.06-0.51,1.29,1.29,0,0,0-.18-0.4,0.85,0.85,0,0,0-.27-0.26A0.68,0.68,0,0,0,18,42.46a0.69,0.69,0,0,0-.35.09,0.84,0.84,0,0,0-.27.26,1.29,1.29,0,0,0-.18.4,1.93,1.93,0,0,0-.06.51,1.9,1.9,0,0,0,.06.51,1.3,1.3,0,0,0,.18.4,0.84,0.84,0,0,0,.27.26A0.69,0.69,0,0,0,18,45m0-3.89a2.12,2.12,0,0,0-.94.21,2.27,2.27,0,0,0-.73.57,2.6,2.6,0,0,0-.47.83,3.21,3.21,0,0,0,0,2,2.6,2.6,0,0,0,.47.83,2.22,2.22,0,0,0,.74.57,2.22,2.22,0,0,0,1.87,0,2.21,2.21,0,0,0,.74-0.57,2.6,2.6,0,0,0,.47-0.83,3.21,3.21,0,0,0,0-2,2.6,2.6,0,0,0-.47-0.83,2.27,2.27,0,0,0-.74-0.57A2.13,2.13,0,0,0,18,41.09h0Zm0,3.39a0.19,0.19,0,0,1-.1,0,0.35,0.35,0,0,1-.11-0.11,0.81,0.81,0,0,1-.11-0.25,1.61,1.61,0,0,1,0-.76,0.81,0.81,0,0,1,.11-0.25A0.35,0.35,0,0,1,17.91,43a0.19,0.19,0,0,1,.1,0l0.1,0a0.36,0.36,0,0,1,.11.11,0.8,0.8,0,0,1,.11.25,1.49,1.49,0,0,1,0,.38,1.46,1.46,0,0,1,0,.38,0.8,0.8,0,0,1-.11.24,0.36,0.36,0,0,1-.11.11l-0.1,0h0Z"/><path d="M107.63,46.21a0.25,0.25,0,0,1-.13,0l-3-1.75a0.25,0.25,0,0,1-.12-0.21V43.76a0.25,0.25,0,0,1,.12-0.21l3-1.78a0.24,0.24,0,0,1,.13,0,0.25,0.25,0,0,1,.25.25v1a0.25,0.25,0,0,1-.12.21l-1.24.78,1.24,0.74a0.25,0.25,0,0,1,.12.21v1A0.25,0.25,0,0,1,107.63,46.21Z" fill="#fff"/><path d="M107.63,42v1L106,44l1.59,1v1l-3-1.75V43.76l3-1.78m0-.5a0.5,0.5,0,0,0-.26.07l-3,1.78a0.5,0.5,0,0,0-.24.43v0.46a0.5,0.5,0,0,0,.25.43l3,1.75a0.5,0.5,0,0,0,.75-0.43v-1a0.5,0.5,0,0,0-.24-0.43L107,44l0.9-.56a0.5,0.5,0,0,0,.23-0.42V42a0.5,0.5,0,0,0-.5-0.5h0Z"/><path d="M108.67,46a0.25,0.25,0,0,1-.25-0.25,3.23,3.23,0,0,1,.05-0.62,1.77,1.77,0,0,1,.2-0.55,1.85,1.85,0,0,1,.39-0.47,3.24,3.24,0,0,1,.59-0.4l0.51-.27,0.34-.2a0.63,0.63,0,0,0,.16-0.14,0.23,0.23,0,0,0-.06-0.26,0.47,0.47,0,0,0-.32-0.09,0.73,0.73,0,0,0-.23,0,0.89,0.89,0,0,0-.21.1l-0.19.14-0.16.17a0.25,0.25,0,0,1-.19.09h0a0.25,0.25,0,0,1-.19-0.09l-0.6-.69a0.25,0.25,0,0,1,0-.33,1.79,1.79,0,0,1,.3-0.25,2.85,2.85,0,0,1,.43-0.24,3.15,3.15,0,0,1,.55-0.18,2.82,2.82,0,0,1,.65-0.07,2.37,2.37,0,0,1,.71.1,1.67,1.67,0,0,1,.56.29,1.31,1.31,0,0,1,.36.47,1.39,1.39,0,0,1,.13.58,1.25,1.25,0,0,1-.12.54,1.6,1.6,0,0,1-.28.4,2,2,0,0,1-.35.29l-0.34.2-0.28.16-0.29.18H112a0.25,0.25,0,0,1,.25.25v0.85A0.25,0.25,0,0,1,112,46h-3.37Z" fill="#fff"/><path d="M110.47,41.71a2.13,2.13,0,0,1,.64.09,1.4,1.4,0,0,1,.47.25,1.05,1.05,0,0,1,.29.38,1.13,1.13,0,0,1,.1.48,1,1,0,0,1-.09.43,1.31,1.31,0,0,1-.23.34,1.75,1.75,0,0,1-.3.26l-0.32.19-0.29.16-0.32.2-0.29.22a1,1,0,0,0-.2.23H112v0.85h-3.37a3,3,0,0,1,0-.57,1.54,1.54,0,0,1,.17-0.47,1.61,1.61,0,0,1,.34-0.41,3,3,0,0,1,.54-0.37l0.51-.27,0.37-.21a0.88,0.88,0,0,0,.22-0.2,0.37,0.37,0,0,0,.08-0.23,0.47,0.47,0,0,0-.17-0.36,0.7,0.7,0,0,0-.48-0.15,1,1,0,0,0-.31,0,1.22,1.22,0,0,0-.26.12,1.5,1.5,0,0,0-.22.17,1.88,1.88,0,0,0-.19.2l-0.6-.69a1.56,1.56,0,0,1,.26-0.21,2.64,2.64,0,0,1,.4-0.22,3,3,0,0,1,.5-0.17,2.55,2.55,0,0,1,.59-0.07m0-.5a3.06,3.06,0,0,0-.71.08,3.48,3.48,0,0,0-.59.2,3.16,3.16,0,0,0-.47.26,2,2,0,0,0-.35.29,0.5,0.5,0,0,0,0,.67l0.6,0.69a0.5,0.5,0,0,0,.38.17h0a0.5,0.5,0,0,0,.19,0,3.52,3.52,0,0,0-.62.43,2.12,2.12,0,0,0-.44.53,2.05,2.05,0,0,0-.23.63,3.45,3.45,0,0,0-.06.66,0.5,0.5,0,0,0,.5.5H112a0.5,0.5,0,0,0,.5-0.5V44.93a0.5,0.5,0,0,0-.5-0.5h-0.56l0.14-.09A2.26,2.26,0,0,0,112,44a1.81,1.81,0,0,0,.32-0.46,1.49,1.49,0,0,0,.14-0.65,1.63,1.63,0,0,0-.15-0.69,1.56,1.56,0,0,0-.43-0.56,1.9,1.9,0,0,0-.64-0.33,2.63,2.63,0,0,0-.79-0.11h0Zm-0.88,2.28a0.5,0.5,0,0,0,.12-0.11l0.14-.15,0.15-.11,0.16-.07,0.15,0h0.1l0,0-0.32.19-0.46.24h0Z"/><path d="M113,46a0.25,0.25,0,0,1-.25-0.25,3.23,3.23,0,0,1,.05-0.62,1.77,1.77,0,0,1,.2-0.55,1.85,1.85,0,0,1,.39-0.47,3.24,3.24,0,0,1,.59-0.4l0.51-.27,0.34-.2a0.61,0.61,0,0,0,.16-0.14,0.23,0.23,0,0,0-.06-0.26,0.47,0.47,0,0,0-.32-0.09,0.73,0.73,0,0,0-.23,0,0.89,0.89,0,0,0-.21.1L114,43l-0.16.17a0.25,0.25,0,0,1-.19.09h0a0.25,0.25,0,0,1-.19-0.09l-0.6-.69a0.25,0.25,0,0,1,0-.33,1.79,1.79,0,0,1,.3-0.25,2.85,2.85,0,0,1,.43-0.24,3.15,3.15,0,0,1,.55-0.18,2.82,2.82,0,0,1,.65-0.07,2.37,2.37,0,0,1,.71.1,1.67,1.67,0,0,1,.56.29,1.31,1.31,0,0,1,.36.47,1.39,1.39,0,0,1,.13.58,1.25,1.25,0,0,1-.12.54,1.6,1.6,0,0,1-.28.4,2,2,0,0,1-.35.29l-0.34.2-0.28.16-0.29.18h1.48a0.25,0.25,0,0,1,.25.25v0.85a0.25,0.25,0,0,1-.25.25H113Z" fill="#fff"/><path d="M114.76,41.71a2.13,2.13,0,0,1,.64.09,1.4,1.4,0,0,1,.47.25,1.05,1.05,0,0,1,.29.38,1.13,1.13,0,0,1,.1.48,1,1,0,0,1-.09.43,1.31,1.31,0,0,1-.23.34,1.75,1.75,0,0,1-.3.26l-0.32.19-0.29.16-0.32.2-0.29.22a1,1,0,0,0-.2.23h2.12v0.85H113a3,3,0,0,1,0-.57,1.54,1.54,0,0,1,.17-0.47,1.61,1.61,0,0,1,.34-0.41,3,3,0,0,1,.54-0.37l0.51-.27,0.37-.21a0.88,0.88,0,0,0,.22-0.2,0.37,0.37,0,0,0,.08-0.23,0.47,0.47,0,0,0-.17-0.36,0.7,0.7,0,0,0-.48-0.15,1,1,0,0,0-.31,0,1.22,1.22,0,0,0-.26.12,1.5,1.5,0,0,0-.22.17,1.88,1.88,0,0,0-.19.2l-0.6-.69a1.56,1.56,0,0,1,.26-0.21,2.64,2.64,0,0,1,.4-0.22,3,3,0,0,1,.5-0.17,2.55,2.55,0,0,1,.59-0.07m0-.5a3.06,3.06,0,0,0-.71.08,3.48,3.48,0,0,0-.59.2,3.16,3.16,0,0,0-.47.26,2,2,0,0,0-.35.29,0.5,0.5,0,0,0,0,.67l0.6,0.69a0.5,0.5,0,0,0,.38.17h0a0.5,0.5,0,0,0,.19,0,3.52,3.52,0,0,0-.62.43,2.12,2.12,0,0,0-.44.53,2.05,2.05,0,0,0-.23.63,3.45,3.45,0,0,0-.06.66,0.5,0.5,0,0,0,.5.5h3.37a0.5,0.5,0,0,0,.5-0.5V44.93a0.5,0.5,0,0,0-.5-0.5h-0.56l0.14-.09a2.26,2.26,0,0,0,.39-0.33,1.81,1.81,0,0,0,.32-0.46,1.49,1.49,0,0,0,.14-0.65,1.63,1.63,0,0,0-.15-0.69,1.56,1.56,0,0,0-.43-0.56,1.9,1.9,0,0,0-.64-0.33,2.63,2.63,0,0,0-.79-0.11h0Zm-0.88,2.28a0.5,0.5,0,0,0,.12-0.11l0.14-.15,0.15-.11,0.16-.07,0.15,0h0.1l0,0-0.32.19-0.46.24h0Z"/><path d="M119.15,46.09a1.9,1.9,0,0,1-.83-0.18,2,2,0,0,1-.65-0.5,2.36,2.36,0,0,1-.42-0.75,3,3,0,0,1,0-1.87,2.37,2.37,0,0,1,.42-0.75,2,2,0,0,1,.65-0.51,1.93,1.93,0,0,1,1.66,0,2,2,0,0,1,.65.51,2.36,2.36,0,0,1,.42.75,3,3,0,0,1,0,1.87,2.35,2.35,0,0,1-.42.75,2,2,0,0,1-.66.5A1.91,1.91,0,0,1,119.15,46.09Zm0-3.39a0.44,0.44,0,0,0-.23.06,0.58,0.58,0,0,0-.19.18,1.05,1.05,0,0,0-.14.33,1.68,1.68,0,0,0-.05.45,1.65,1.65,0,0,0,.05.44,1.05,1.05,0,0,0,.14.32,0.6,0.6,0,0,0,.19.19,0.45,0.45,0,0,0,.23.06,0.44,0.44,0,0,0,.22-0.06,0.61,0.61,0,0,0,.19-0.18,1,1,0,0,0,.14-0.32,1.89,1.89,0,0,0,0-.89,1.08,1.08,0,0,0-.14-0.32,0.61,0.61,0,0,0-.19-0.19A0.43,0.43,0,0,0,119.15,42.71Z" fill="#fff"/><path d="M119.15,41.59a1.62,1.62,0,0,1,.72.16,1.76,1.76,0,0,1,.57.44,2.09,2.09,0,0,1,.38.67,2.71,2.71,0,0,1,0,1.7,2.09,2.09,0,0,1-.38.67,1.71,1.71,0,0,1-.57.44,1.72,1.72,0,0,1-1.44,0,1.71,1.71,0,0,1-.57-0.44,2.09,2.09,0,0,1-.38-0.67,2.71,2.71,0,0,1,0-1.7,2.09,2.09,0,0,1,.38-0.67,1.77,1.77,0,0,1,.57-0.44,1.61,1.61,0,0,1,.72-0.16m0,3.39a0.68,0.68,0,0,0,.35-0.09,0.85,0.85,0,0,0,.27-0.26,1.3,1.3,0,0,0,.18-0.4,1.94,1.94,0,0,0,.06-0.51,2,2,0,0,0-.06-0.51,1.29,1.29,0,0,0-.18-0.4,0.85,0.85,0,0,0-.27-0.26,0.68,0.68,0,0,0-.35-0.09,0.69,0.69,0,0,0-.35.09,0.84,0.84,0,0,0-.27.26,1.29,1.29,0,0,0-.18.4,1.93,1.93,0,0,0-.06.51,1.9,1.9,0,0,0,.06.51,1.3,1.3,0,0,0,.18.4,0.84,0.84,0,0,0,.27.26,0.69,0.69,0,0,0,.35.09m0-3.89a2.12,2.12,0,0,0-.94.21,2.27,2.27,0,0,0-.73.57,2.6,2.6,0,0,0-.47.83,3.21,3.21,0,0,0,0,2,2.6,2.6,0,0,0,.47.83,2.22,2.22,0,0,0,.74.57,2.22,2.22,0,0,0,1.87,0,2.21,2.21,0,0,0,.74-0.57,2.6,2.6,0,0,0,.47-0.83,3.21,3.21,0,0,0,0-2,2.6,2.6,0,0,0-.47-0.83,2.27,2.27,0,0,0-.74-0.57,2.13,2.13,0,0,0-.94-0.21h0Zm0,3.39a0.19,0.19,0,0,1-.1,0,0.35,0.35,0,0,1-.11-0.11,0.81,0.81,0,0,1-.11-0.25,1.61,1.61,0,0,1,0-.76,0.81,0.81,0,0,1,.11-0.25A0.35,0.35,0,0,1,119,43a0.19,0.19,0,0,1,.1,0l0.1,0a0.36,0.36,0,0,1,.11.11,0.8,0.8,0,0,1,.11.25,1.49,1.49,0,0,1,0,.38,1.46,1.46,0,0,1,0,.38,0.8,0.8,0,0,1-.11.24,0.36,0.36,0,0,1-.11.11l-0.1,0h0Z"/><path d="M39.72,46a0.25,0.25,0,0,1-.25-0.25V44.93a0.25,0.25,0,0,1,.25-0.25h0.74V43.3l-0.14.07a2.58,2.58,0,0,1-.37.14,1.36,1.36,0,0,1-.37.06,0.25,0.25,0,0,1-.25-0.25V42.44a0.25,0.25,0,0,1,.25-0.25,0.56,0.56,0,0,0,.21-0.06A2.5,2.5,0,0,0,40.11,42l0.28-.2a0.69,0.69,0,0,0,.11-0.11,0.28,0.28,0,0,1,.22-0.12h1a0.25,0.25,0,0,1,.25.25v2.9h0.64a0.25,0.25,0,0,1,.25.25v0.85a0.25,0.25,0,0,1-.25.25H39.72Z" fill="#fff"/><path d="M41.67,41.78v3.15h0.89v0.85H39.72V44.93h1V42.81a0.77,0.77,0,0,1-.2.17l-0.3.17a2.24,2.24,0,0,1-.33.13,1.14,1.14,0,0,1-.3,0V42.44a0.8,0.8,0,0,0,.31-0.08,2.61,2.61,0,0,0,.36-0.19,2.81,2.81,0,0,0,.3-0.22,0.74,0.74,0,0,0,.16-0.17h1m0-.5h-1a0.5,0.5,0,0,0-.44.26h0l0,0L40,41.75a2.12,2.12,0,0,1-.29.16l-0.11,0a0.49,0.49,0,0,0-.49.5v0.88a0.5,0.5,0,0,0,.5.5A1.62,1.62,0,0,0,40,43.75l0.19-.06v0.74H39.72a0.5,0.5,0,0,0-.5.5v0.85a0.5,0.5,0,0,0,.5.5h2.84a0.5,0.5,0,0,0,.5-0.5V44.93a0.5,0.5,0,0,0-.5-0.5H42.17V41.78a0.5,0.5,0,0,0-.5-0.5h0Z"/><path d="M45.26,46.91A0.25,0.25,0,0,1,45,46.66V45.87H43.22A0.25,0.25,0,0,1,43,45.62V44.79A0.25,0.25,0,0,1,43,44.63l2.34-3a0.25,0.25,0,0,1,.2-0.1H46.2a0.25,0.25,0,0,1,.25.25v2.75h0.37a0.25,0.25,0,0,1,.25.25v0.84a0.25,0.25,0,0,1-.25.25H46.45v0.79a0.25,0.25,0,0,1-.25.25H45.26Zm-0.15-2.38V43.94l-0.45.59h0.45Z" fill="#fff"/><path d="M46.2,41.78v3h0.62v0.84H46.2v1H45.26v-1h-2V44.79l2.34-3H46.2m-2,3h1.21V43.2l-1.21,1.58m2-3.5H45.56a0.5,0.5,0,0,0-.39.19l-2.34,3a0.5,0.5,0,0,0-.11.31v0.83a0.5,0.5,0,0,0,.5.5h1.54v0.54a0.5,0.5,0,0,0,.5.5H46.2a0.5,0.5,0,0,0,.5-0.5V46.12h0.12a0.5,0.5,0,0,0,.5-0.5V44.78a0.5,0.5,0,0,0-.5-0.5H46.7v-2.5a0.5,0.5,0,0,0-.5-0.5h0Z"/><path d="M49.57,46.09a1.9,1.9,0,0,1-.83-0.18,2,2,0,0,1-.65-0.5,2.34,2.34,0,0,1-.42-0.75,3,3,0,0,1,0-1.87A2.36,2.36,0,0,1,48.09,42a2,2,0,0,1,.65-0.51,1.93,1.93,0,0,1,1.66,0,2,2,0,0,1,.65.51,2.34,2.34,0,0,1,.42.75,3,3,0,0,1,0,1.87,2.36,2.36,0,0,1-.42.75,2,2,0,0,1-.66.5A1.9,1.9,0,0,1,49.57,46.09Zm0-3.39a0.44,0.44,0,0,0-.23.06,0.58,0.58,0,0,0-.19.18,1.06,1.06,0,0,0-.14.33,1.74,1.74,0,0,0-.05.45,1.68,1.68,0,0,0,.05.44,1,1,0,0,0,.14.32,0.58,0.58,0,0,0,.19.19,0.44,0.44,0,0,0,.23.06,0.43,0.43,0,0,0,.22-0.06A0.58,0.58,0,0,0,50,44.49a1.05,1.05,0,0,0,.14-0.32,1.69,1.69,0,0,0,.05-0.44,1.75,1.75,0,0,0-.05-0.45A1.06,1.06,0,0,0,50,42.95a0.58,0.58,0,0,0-.19-0.19A0.43,0.43,0,0,0,49.57,42.71Z" fill="#fff"/><path d="M49.57,41.59a1.62,1.62,0,0,1,.72.16,1.76,1.76,0,0,1,.57.44,2.09,2.09,0,0,1,.38.67,2.71,2.71,0,0,1,0,1.7,2.09,2.09,0,0,1-.38.67,1.71,1.71,0,0,1-.57.44,1.72,1.72,0,0,1-1.44,0,1.71,1.71,0,0,1-.57-0.44,2.09,2.09,0,0,1-.38-0.67,2.71,2.71,0,0,1,0-1.7,2.09,2.09,0,0,1,.38-0.67,1.76,1.76,0,0,1,.57-0.44,1.62,1.62,0,0,1,.72-0.16m0,3.39a0.68,0.68,0,0,0,.35-0.09,0.84,0.84,0,0,0,.27-0.26,1.3,1.3,0,0,0,.18-0.4,1.94,1.94,0,0,0,.06-0.51,2,2,0,0,0-.06-0.51,1.29,1.29,0,0,0-.18-0.4,0.84,0.84,0,0,0-.27-0.26,0.68,0.68,0,0,0-.35-0.09,0.69,0.69,0,0,0-.35.09,0.84,0.84,0,0,0-.27.26,1.29,1.29,0,0,0-.18.4,2,2,0,0,0-.06.51,1.92,1.92,0,0,0,.06.51,1.3,1.3,0,0,0,.18.4,0.84,0.84,0,0,0,.27.26,0.69,0.69,0,0,0,.35.09m0-3.89a2.12,2.12,0,0,0-.94.21,2.27,2.27,0,0,0-.73.57,2.6,2.6,0,0,0-.47.83,3.21,3.21,0,0,0,0,2,2.6,2.6,0,0,0,.47.83,2.22,2.22,0,0,0,.74.57,2.22,2.22,0,0,0,1.87,0,2.21,2.21,0,0,0,.74-0.57,2.6,2.6,0,0,0,.47-0.83,3.21,3.21,0,0,0,0-2,2.6,2.6,0,0,0-.47-0.83,2.26,2.26,0,0,0-.74-0.57,2.13,2.13,0,0,0-.94-0.21h0Zm0,3.39a0.19,0.19,0,0,1-.1,0,0.35,0.35,0,0,1-.11-0.11,0.81,0.81,0,0,1-.11-0.25,1.44,1.44,0,0,1,0-.38,1.47,1.47,0,0,1,0-.38,0.8,0.8,0,0,1,.11-0.25A0.36,0.36,0,0,1,49.47,43a0.19,0.19,0,0,1,.1,0l0.1,0a0.35,0.35,0,0,1,.11.11,0.8,0.8,0,0,1,.11.25,1.49,1.49,0,0,1,0,.38,1.45,1.45,0,0,1,0,.38,0.81,0.81,0,0,1-.11.24,0.36,0.36,0,0,1-.11.11l-0.1,0h0Z"/><path d="M73.29,46A0.25,0.25,0,0,1,73,45.77V44.93a0.25,0.25,0,0,1,.25-0.25H74V43.3l-0.14.07a2.6,2.6,0,0,1-.37.14,1.36,1.36,0,0,1-.37.06,0.25,0.25,0,0,1-.25-0.25V42.44a0.25,0.25,0,0,1,.25-0.25,0.54,0.54,0,0,0,.21-0.06A2.48,2.48,0,0,0,73.68,42l0.28-.2a0.69,0.69,0,0,0,.11-0.11,0.28,0.28,0,0,1,.22-0.12h1a0.25,0.25,0,0,1,.25.25v2.9h0.64a0.25,0.25,0,0,1,.25.25v0.85a0.25,0.25,0,0,1-.25.25H73.29Z" fill="#fff"/><path d="M75.25,41.78v3.15h0.89v0.85H73.29V44.93h1V42.81a0.77,0.77,0,0,1-.2.17l-0.3.17a2.24,2.24,0,0,1-.33.13,1.14,1.14,0,0,1-.3,0V42.44a0.79,0.79,0,0,0,.31-0.08,2.65,2.65,0,0,0,.36-0.19,2.76,2.76,0,0,0,.3-0.22,0.74,0.74,0,0,0,.17-0.17h1m0-.5h-1a0.5,0.5,0,0,0-.44.26s0,0,0,0l0,0-0.25.18-0.29.16-0.11,0a0.49,0.49,0,0,0-.49.5v0.88a0.5,0.5,0,0,0,.5.5,1.61,1.61,0,0,0,.44-0.07l0.19-.06v0.74H73.29a0.5,0.5,0,0,0-.5.5v0.85a0.5,0.5,0,0,0,.5.5h2.84a0.5,0.5,0,0,0,.5-0.5V44.93a0.5,0.5,0,0,0-.5-0.5H75.75V41.78a0.5,0.5,0,0,0-.5-0.5h0Z"/><path d="M78.76,46.09A2.34,2.34,0,0,1,78,46a2,2,0,0,1-.65-0.37A1.77,1.77,0,0,1,76.88,45a1.66,1.66,0,0,1-.17-0.74,1.3,1.3,0,0,1,.09-0.48A1.66,1.66,0,0,1,77,43.4a1.8,1.8,0,0,1,.28-0.29,1.61,1.61,0,0,1-.2-0.23,1.18,1.18,0,0,1-.23-0.7,1.39,1.39,0,0,1,.19-0.72A1.66,1.66,0,0,1,77.51,41a2.09,2.09,0,0,1,.61-0.3,2.18,2.18,0,0,1,.65-0.1,2.32,2.32,0,0,1,.65.1A2,2,0,0,1,80,41a1.72,1.72,0,0,1,.46.5,1.37,1.37,0,0,1,.19.72,1.15,1.15,0,0,1-.06.37,1.22,1.22,0,0,1-.17.33,1.37,1.37,0,0,1-.21.23h0a1.87,1.87,0,0,1,.29.31,1.55,1.55,0,0,1,.21.4,1.41,1.41,0,0,1,.08.49,1.62,1.62,0,0,1-.17.75,1.75,1.75,0,0,1-.46.56,2,2,0,0,1-.66.35A2.49,2.49,0,0,1,78.76,46.09Zm0-2.33a0.76,0.76,0,0,0-.24,0,0.56,0.56,0,0,0-.19.1,0.52,0.52,0,0,0-.13.16,0.41,0.41,0,0,0,0,.19,0.4,0.4,0,0,0,0,.19,0.56,0.56,0,0,0,.13.16,0.65,0.65,0,0,0,.2.11,0.74,0.74,0,0,0,.23,0,0.69,0.69,0,0,0,.24,0,0.7,0.7,0,0,0,.2-0.11,0.5,0.5,0,0,0,.13-0.16,0.39,0.39,0,0,0,0-.18,0.42,0.42,0,0,0,0-.2,0.45,0.45,0,0,0-.13-0.15,0.67,0.67,0,0,0-.2-0.1A0.78,0.78,0,0,0,78.76,43.76Zm0-1.87a0.52,0.52,0,0,0-.33.11,0.25,0.25,0,0,0-.11.22,0.26,0.26,0,0,0,0,.13,0.33,0.33,0,0,0,.09.1,0.51,0.51,0,0,0,.15.08l0.17,0,0.17,0a0.49,0.49,0,0,0,.15-0.08,0.39,0.39,0,0,0,.1-0.11,0.26,0.26,0,0,0,0-.13A0.24,0.24,0,0,0,79.11,42,0.57,0.57,0,0,0,78.76,41.89Z" fill="#fff"/><path d="M78.77,40.8a2,2,0,0,1,.58.09,1.7,1.7,0,0,1,.54.26,1.47,1.47,0,0,1,.39.43,1.12,1.12,0,0,1,.15.59,0.88,0.88,0,0,1,0,.29,1,1,0,0,1-.14.27A1.13,1.13,0,0,1,80,43a1.2,1.2,0,0,1-.25.16,1.55,1.55,0,0,1,.55.46,1.35,1.35,0,0,1,.18.33,1.16,1.16,0,0,1,.07.4,1.36,1.36,0,0,1-.14.63,1.5,1.5,0,0,1-.39.48,1.77,1.77,0,0,1-.58.31,2.22,2.22,0,0,1-.7.11,2.09,2.09,0,0,1-.7-0.12,1.78,1.78,0,0,1-.57-0.33,1.52,1.52,0,0,1-.38-0.5A1.41,1.41,0,0,1,77,44.27,1.05,1.05,0,0,1,77,43.88a1.38,1.38,0,0,1,.18-0.33,1.57,1.57,0,0,1,.25-0.26,1.49,1.49,0,0,1,.28-0.18,1.17,1.17,0,0,1-.44-0.38,0.93,0.93,0,0,1-.18-0.55,1.14,1.14,0,0,1,.15-0.59,1.41,1.41,0,0,1,.39-0.43,1.85,1.85,0,0,1,.53-0.27,1.92,1.92,0,0,1,.58-0.09m0,2a0.84,0.84,0,0,0,.25,0,0.72,0.72,0,0,0,.23-0.12,0.62,0.62,0,0,0,.17-0.19,0.5,0.5,0,0,0,.06-0.26,0.49,0.49,0,0,0-.21-0.41,0.82,0.82,0,0,0-.5-0.15,0.77,0.77,0,0,0-.49.16,0.54,0.54,0,0,0-.14.67,0.58,0.58,0,0,0,.17.18,0.76,0.76,0,0,0,.22.11,0.83,0.83,0,0,0,.25,0m0,2.19a0.94,0.94,0,0,0,.6-0.21,0.74,0.74,0,0,0,.19-0.23,0.64,0.64,0,0,0,.07-0.3,0.67,0.67,0,0,0-.07-0.31,0.71,0.71,0,0,0-.2-0.24,0.92,0.92,0,0,0-.28-0.14,1,1,0,0,0-.32,0,1,1,0,0,0-.32.05,0.81,0.81,0,0,0-.27.15,0.75,0.75,0,0,0-.19.23,0.66,0.66,0,0,0-.07.3,0.63,0.63,0,0,0,.07.3,0.78,0.78,0,0,0,.19.23,0.88,0.88,0,0,0,.27.15,1,1,0,0,0,.31.05m0-4.69a2.43,2.43,0,0,0-.73.11,2.35,2.35,0,0,0-.68.34,1.92,1.92,0,0,0-.53.58,1.64,1.64,0,0,0-.22.85,1.42,1.42,0,0,0,.28.85l0.05,0.07-0.13.15a1.9,1.9,0,0,0-.25.45,1.55,1.55,0,0,0-.11.57,1.91,1.91,0,0,0,.19.85,2,2,0,0,0,.51.66,2.28,2.28,0,0,0,.73.42,2.59,2.59,0,0,0,.86.14,2.74,2.74,0,0,0,.86-0.13,2.27,2.27,0,0,0,.74-0.4,2,2,0,0,0,.52-0.64,1.86,1.86,0,0,0,.2-0.86,1.66,1.66,0,0,0-.1-0.57,1.86,1.86,0,0,0-.25-0.46l-0.14-.17L80.65,43a1.48,1.48,0,0,0,.2-0.39,1.38,1.38,0,0,0,.07-0.45,1.62,1.62,0,0,0-.23-0.85,2,2,0,0,0-.53-0.58,2.2,2.2,0,0,0-.69-0.34,2.54,2.54,0,0,0-.72-0.11h0Zm0,2-0.1,0-0.08,0,0,0a0.29,0.29,0,0,1,.19-0.06,0.31,0.31,0,0,1,.2.06,0.06,0.06,0,0,1,0,.05l-0.07,0-0.1,0h0Zm0,2.19-0.15,0L78.5,44.4a0.28,0.28,0,0,1-.07-0.08,0.14,0.14,0,0,1,0-.07,0.16,0.16,0,0,1,0-.08,0.25,0.25,0,0,1,.06-0.08L78.6,44l0.16,0,0.17,0L79,44.1a0.2,0.2,0,0,1,.06.07,0.18,0.18,0,0,1,0,.08,0.14,0.14,0,0,1,0,.07,0.24,0.24,0,0,1-.06.08l-0.13.07-0.15,0h0Z"/><path d="M83.38,46.09a1.9,1.9,0,0,1-.83-0.18,2,2,0,0,1-.65-0.5,2.36,2.36,0,0,1-.42-0.75,3,3,0,0,1,0-1.87A2.37,2.37,0,0,1,81.9,42a2,2,0,0,1,.65-0.51,1.93,1.93,0,0,1,1.66,0,2,2,0,0,1,.65.51,2.36,2.36,0,0,1,.42.75,3,3,0,0,1,0,1.87,2.35,2.35,0,0,1-.42.75,2,2,0,0,1-.66.5A1.91,1.91,0,0,1,83.38,46.09Zm0-3.39a0.44,0.44,0,0,0-.23.06,0.58,0.58,0,0,0-.19.18,1.05,1.05,0,0,0-.14.33,1.69,1.69,0,0,0-.05.45,1.65,1.65,0,0,0,.05.44,1.05,1.05,0,0,0,.14.32,0.6,0.6,0,0,0,.19.19,0.45,0.45,0,0,0,.23.06,0.44,0.44,0,0,0,.22-0.06,0.61,0.61,0,0,0,.19-0.18,1,1,0,0,0,.14-0.32,1.89,1.89,0,0,0,0-.89,1.08,1.08,0,0,0-.14-0.32,0.61,0.61,0,0,0-.19-0.19A0.43,0.43,0,0,0,83.38,42.71Z" fill="#fff"/><path d="M83.38,41.59a1.62,1.62,0,0,1,.72.16,1.76,1.76,0,0,1,.57.44,2.09,2.09,0,0,1,.38.67,2.71,2.71,0,0,1,0,1.7,2.09,2.09,0,0,1-.38.67,1.71,1.71,0,0,1-.57.44,1.72,1.72,0,0,1-1.44,0,1.71,1.71,0,0,1-.57-0.44,2.09,2.09,0,0,1-.38-0.67,2.71,2.71,0,0,1,0-1.7,2.09,2.09,0,0,1,.38-0.67,1.77,1.77,0,0,1,.57-0.44,1.61,1.61,0,0,1,.72-0.16m0,3.39a0.68,0.68,0,0,0,.35-0.09A0.85,0.85,0,0,0,84,44.63a1.3,1.3,0,0,0,.18-0.4,1.94,1.94,0,0,0,.06-0.51,2,2,0,0,0-.06-0.51,1.29,1.29,0,0,0-.18-0.4,0.85,0.85,0,0,0-.27-0.26,0.68,0.68,0,0,0-.35-0.09,0.69,0.69,0,0,0-.35.09,0.84,0.84,0,0,0-.27.26,1.29,1.29,0,0,0-.18.4,1.93,1.93,0,0,0-.06.51,1.9,1.9,0,0,0,.06.51,1.3,1.3,0,0,0,.18.4,0.84,0.84,0,0,0,.27.26,0.69,0.69,0,0,0,.35.09m0-3.89a2.12,2.12,0,0,0-.94.21,2.27,2.27,0,0,0-.73.57,2.6,2.6,0,0,0-.47.83,3.21,3.21,0,0,0,0,2,2.6,2.6,0,0,0,.47.83,2.22,2.22,0,0,0,.74.57,2.22,2.22,0,0,0,1.87,0,2.21,2.21,0,0,0,.74-0.57,2.6,2.6,0,0,0,.47-0.83,3.21,3.21,0,0,0,0-2,2.6,2.6,0,0,0-.47-0.83,2.27,2.27,0,0,0-.74-0.57,2.13,2.13,0,0,0-.94-0.21h0Zm0,3.39a0.19,0.19,0,0,1-.1,0,0.35,0.35,0,0,1-.11-0.11,0.81,0.81,0,0,1-.11-0.25,1.61,1.61,0,0,1,0-.76,0.81,0.81,0,0,1,.11-0.25A0.35,0.35,0,0,1,83.28,43a0.19,0.19,0,0,1,.1,0l0.1,0a0.36,0.36,0,0,1,.11.11,0.8,0.8,0,0,1,.11.25,1.49,1.49,0,0,1,0,.38,1.46,1.46,0,0,1,0,.38,0.8,0.8,0,0,1-.11.24,0.36,0.36,0,0,1-.11.11l-0.1,0h0Z"/></svg>