<svg xmlns="http://www.w3.org/2000/svg" xmlns:xlink="http://www.w3.org/1999/xlink" viewBox="0 0 125 50"><defs><clipPath id="a"><rect x="1.19" y="12.21" width="122.62" height="25.61" rx="7.05" ry="7.05" fill="none"/></clipPath></defs><title>escalas en blanco con contorno</title><path d="M116.76,38.5H8.24A7.75,7.75,0,0,1,.5,30.76V19.26a7.75,7.75,0,0,1,7.74-7.74H116.76a7.75,7.75,0,0,1,7.74,7.74v11.5A7.75,7.75,0,0,1,116.76,38.5ZM8.24,12.9a6.37,6.37,0,0,0-6.37,6.37v11.5a6.37,6.37,0,0,0,6.37,6.37H116.76a6.37,6.37,0,0,0,6.37-6.37V19.26a6.37,6.37,0,0,0-6.37-6.37H8.24Z" fill="#fff"/><g clip-path="url(#a)"><rect x="106.77" y="20.77" width="25.72" height="8.37" transform="translate(144.59 -94.67) rotate(90)" fill="#be0000"/><rect x="98.61" y="20.77" width="25.72" height="8.37" transform="translate(136.43 -86.51) rotate(90)" fill="#d80000"/><rect x="90.45" y="20.77" width="25.72" height="8.37" transform="translate(128.26 -78.35) rotate(90)" fill="#f20000"/><rect x="82.29" y="20.77" width="25.72" height="8.37" transform="translate(120.1 -70.19) rotate(90)" fill="#ff3000"/><rect x="74.12" y="20.77" width="25.72" height="8.37" transform="translate(111.94 -62.03) rotate(90)" fill="#ff7900"/><rect x="65.96" y="20.77" width="25.72" height="8.37" transform="translate(103.78 -53.87) rotate(90)" fill="#ffb24d"/><rect x="57.8" y="20.77" width="25.72" height="8.37" transform="translate(95.62 -45.7) rotate(90)" fill="#fce155"/><rect x="49.64" y="20.77" width="25.72" height="8.37" transform="translate(87.46 -37.54) rotate(90)" fill="#f7ff5d"/><rect x="41.48" y="20.77" width="25.72" height="8.37" transform="translate(79.3 -29.38) rotate(90)" fill="#ddff73"/><rect x="33.32" y="20.77" width="25.72" height="8.37" transform="translate(71.14 -21.22) rotate(90)" fill="#c4f986"/><rect x="25.16" y="20.77" width="25.72" height="8.37" transform="translate(62.97 -13.06) rotate(90)" fill="#abed98"/><rect x="17" y="20.77" width="25.72" height="8.37" transform="translate(54.81 -4.9) rotate(90)" fill="#8cd9a6"/><rect x="8.83" y="20.77" width="25.72" height="8.37" transform="translate(46.65 3.26) rotate(90)" fill="#6abaae"/><rect x="0.67" y="20.77" width="25.72" height="8.37" transform="translate(38.49 11.42) rotate(90)" fill="#4a9ab5"/><rect x="-7.49" y="20.77" width="25.72" height="8.37" transform="translate(30.33 19.59) rotate(90)" fill="#3279bd"/></g><path d="M40.2,8.86A0.25,0.25,0,0,1,40,8.75L39.1,7.41l-0.21.21v1a0.25,0.25,0,0,1-.25.25H37.7a0.25,0.25,0,0,1-.25-0.25V3.5a0.25,0.25,0,0,1,.25-0.25h0.94a0.25,0.25,0,0,1,.25.25V5.94l1-1.16A0.25,0.25,0,0,1,40.1,4.7h1a0.25,0.25,0,0,1,.19.42L40.06,6.52l1.35,1.95a0.25,0.25,0,0,1-.21.39h-1Z" fill="#fff"/><path d="M38.63,3.5V6.6L40.1,4.95h1L39.74,6.5,41.2,8.61h-1L39.14,7l-0.5.5V8.61H37.7V3.5h0.94m0-.5H37.7a0.5,0.5,0,0,0-.5.5V8.61a0.5,0.5,0,0,0,.5.5h0.94a0.5,0.5,0,0,0,.5-0.5V7.91l0.65,1a0.5,0.5,0,0,0,.42.22h1a0.5,0.5,0,0,0,.41-0.79L40.37,6.54l1.11-1.26a0.5,0.5,0,0,0-.38-0.83h-1a0.5,0.5,0,0,0-.37.17l-0.6.67V3.5a0.5,0.5,0,0,0-.5-0.5h0Z"/><path d="M46,8.86a0.25,0.25,0,0,1-.23-0.15L45.11,7.18,44.48,8.7a0.25,0.25,0,0,1-.23.15H43.44A0.25,0.25,0,0,1,43.2,8.7l-2-5a0.25,0.25,0,0,1,.23-0.34h1a0.25,0.25,0,0,1,.23.16l1.19,3.24,0.34-.88-0.8-2.17a0.25,0.25,0,0,1,.23-0.34h0.89a0.25,0.25,0,0,1,.24.17l0.32,0.95,0.32-.95a0.25,0.25,0,0,1,.24-0.17h0.9a0.25,0.25,0,0,1,.23.34L46,5.91,46.34,6.8l1.18-3.25a0.25,0.25,0,0,1,.23-0.16h1a0.25,0.25,0,0,1,.23.34l-2,5a0.25,0.25,0,0,1-.23.16H46Z" fill="#fff"/><path d="M48.81,3.64h0m0,0-2,5H46L45.11,6.52,44.25,8.61H43.44l-2-5h1L43.88,7.5l0.62-1.59L43.66,3.65h0.89L45.11,5.3l0.56-1.65h0.9L45.72,5.91,46.35,7.5l1.41-3.86h1m-2.24,0h0m2.24-.51H47.76a0.5,0.5,0,0,0-.47.33l-1,2.63-0.07-.19,0.76-2a0.5,0.5,0,0,0-.45-0.72h-0.9a0.5,0.5,0,0,0-.47.34l-0.09.25L45,3.49a0.5,0.5,0,0,0-.47-0.34H43.66a0.5,0.5,0,0,0-.47.67L44,5.91l-0.07.17-1-2.62a0.5,0.5,0,0,0-.47-0.33h-1a0.5,0.5,0,0,0-.46.69l2,5a0.5,0.5,0,0,0,.46.31h0.81a0.5,0.5,0,0,0,.46-0.31l0.4-1,0.4,1a0.5,0.5,0,0,0,.46.31h0.81a0.5,0.5,0,0,0,.46-0.31l2-4.93a0.5,0.5,0,0,0-.44-0.73h0Zm0,1h0Z"/><path d="M52,8.86a0.25,0.25,0,0,1-.25-0.25V6.55a0.79,0.79,0,0,0-.11-0.49A0.29,0.29,0,0,0,51.43,6a0.48,0.48,0,0,0-.17,0,0.78,0.78,0,0,0-.2.12,1.1,1.1,0,0,0-.19.2,0.7,0.7,0,0,0-.11.23V8.61a0.25,0.25,0,0,1-.25.25H49.57a0.25,0.25,0,0,1-.25-0.25V3.5a0.25,0.25,0,0,1,.25-0.25h0.94a0.25,0.25,0,0,1,.25.25V5l0.18-.11a1.8,1.8,0,0,1,.89-0.22,1.46,1.46,0,0,1,.7.15,1.17,1.17,0,0,1,.44.41,1.6,1.6,0,0,1,.21.55,3.08,3.08,0,0,1,.05.58V8.61a0.25,0.25,0,0,1-.25.25H52Z" fill="#fff"/><path d="M50.51,3.5V5.62a1.41,1.41,0,0,1,.55-0.55,1.55,1.55,0,0,1,.77-0.19,1.21,1.21,0,0,1,.58.12,0.92,0.92,0,0,1,.35.33,1.34,1.34,0,0,1,.18.46,2.85,2.85,0,0,1,0,.53V8.61H52V6.55a1,1,0,0,0-.16-0.64,0.54,0.54,0,0,0-.45-0.21,0.72,0.72,0,0,0-.27.06,1,1,0,0,0-.27.16,1.33,1.33,0,0,0-.23.24,1,1,0,0,0-.15.31V8.61H49.57V3.5h0.94m0-.5H49.57a0.5,0.5,0,0,0-.5.5V8.61a0.5,0.5,0,0,0,.5.5h0.94a0.5,0.5,0,0,0,.5-0.5V6.55l0.05-.09a0.83,0.83,0,0,1,.14-0.15l0.14-.08,0.08,0h0.05a0.57,0.57,0,0,1,.06.34V8.61a0.5,0.5,0,0,0,.5.5H53a0.5,0.5,0,0,0,.5-0.5V6.32a3.36,3.36,0,0,0-.06-0.62,1.85,1.85,0,0,0-.24-0.63,1.42,1.42,0,0,0-.53-0.5,1.7,1.7,0,0,0-.82-0.18,2.08,2.08,0,0,0-.82.16v-1a0.5,0.5,0,0,0-.5-0.5h0Z"/><path d="M53.92,8.86a0.25,0.25,0,0,1-.21-0.39l3.46-5a0.25,0.25,0,0,1,.21-0.11h1a0.25,0.25,0,0,1,.21.39l-3.47,5a0.25,0.25,0,0,1-.21.11h-1Z" fill="#fff"/><path d="M58.42,3.64L55,8.61h-1l3.46-5h1m0-.5h-1a0.5,0.5,0,0,0-.41.21l-3.46,5a0.5,0.5,0,0,0,.41.79h1a0.5,0.5,0,0,0,.41-0.21l3.47-5a0.5,0.5,0,0,0-.41-0.79h0Zm0,1h0Z"/><path d="M64,8.86a0.25,0.25,0,0,1-.25-0.25V6.55a0.85,0.85,0,0,0-.1-0.5A0.24,0.24,0,0,0,63.41,6a0.54,0.54,0,0,0-.36.15,0.92,0.92,0,0,0-.28.44V8.61a0.25,0.25,0,0,1-.25.25H61.6a0.25,0.25,0,0,1-.25-0.25V6.55a0.85,0.85,0,0,0-.1-0.5A0.24,0.24,0,0,0,61,6a0.55,0.55,0,0,0-.36.15,0.89,0.89,0,0,0-.27.44V8.61a0.25,0.25,0,0,1-.25.25H59.22A0.25,0.25,0,0,1,59,8.61V4.94a0.25,0.25,0,0,1,.25-0.25h0.85a0.25,0.25,0,0,1,.25.25V5l0.19-.12a1.92,1.92,0,0,1,.93-0.22,1.19,1.19,0,0,1,1.1.53,1.74,1.74,0,0,1,.38-0.3,1.79,1.79,0,0,1,.91-0.23,1.34,1.34,0,0,1,.68.16,1.16,1.16,0,0,1,.43.42,1.63,1.63,0,0,1,.2.54,3.24,3.24,0,0,1,0,.57V8.61a0.25,0.25,0,0,1-.25.25H64Z" fill="#fff"/><path d="M63.82,4.88a1.09,1.09,0,0,1,.55.13,0.91,0.91,0,0,1,.34.33,1.38,1.38,0,0,1,.17.46,3,3,0,0,1,0,.52V8.61H64V6.55a1.09,1.09,0,0,0-.15-0.64,0.49,0.49,0,0,0-.42-0.2,0.78,0.78,0,0,0-.52.21,1.17,1.17,0,0,0-.35.56V8.61H61.6V6.55a1.09,1.09,0,0,0-.15-0.64A0.49,0.49,0,0,0,61,5.7a0.8,0.8,0,0,0-.52.21,1.14,1.14,0,0,0-.35.55V8.61H59.22V4.94h0.85V5.62a1.4,1.4,0,0,1,.56-0.55,1.66,1.66,0,0,1,.81-0.19,1,1,0,0,1,.71.22,1,1,0,0,1,.32.55A1.59,1.59,0,0,1,63,5.08a1.53,1.53,0,0,1,.78-0.2m0-.5a2,2,0,0,0-1,.27l-0.23.16-0.08-.07a1.52,1.52,0,0,0-1-.35,2.18,2.18,0,0,0-1,.23,0.5,0.5,0,0,0-.37-0.16H59.22a0.5,0.5,0,0,0-.5.5V8.61a0.5,0.5,0,0,0,.5.5h0.94a0.5,0.5,0,0,0,.5-0.5V6.55a0.61,0.61,0,0,1,.18-0.25A0.3,0.3,0,0,1,61,6.2a0.46,0.46,0,0,1,.07.35V8.61a0.5,0.5,0,0,0,.5.5h0.94a0.5,0.5,0,0,0,.5-0.5V6.56a0.64,0.64,0,0,1,.18-0.26,0.29,0.29,0,0,1,.2-0.09,0.46,0.46,0,0,1,.07.35V8.61a0.5,0.5,0,0,0,.5.5h0.94a0.5,0.5,0,0,0,.5-0.5V6.32a3.55,3.55,0,0,0-.05-0.61,1.88,1.88,0,0,0-.23-0.63,1.41,1.41,0,0,0-.52-0.51,1.58,1.58,0,0,0-.8-0.19h0Z"/><path d="M65.85,6.86a0.25,0.25,0,0,1-.25-0.25,2.4,2.4,0,0,1,0-.46,1.32,1.32,0,0,1,.15-0.41,1.41,1.41,0,0,1,.29-0.35,2.38,2.38,0,0,1,.43-0.3l0.36-.19,0.24-.14a0.4,0.4,0,0,0,.1-0.08A0.2,0.2,0,0,0,67,4.54l-0.14,0-0.13.06-0.12.09-0.11.12a0.25,0.25,0,0,1-.19.09h0a0.25,0.25,0,0,1-.19-0.09l-0.43-.5a0.25,0.25,0,0,1,0-.33,1.37,1.37,0,0,1,.23-0.19,2,2,0,0,1,.32-0.18,2.32,2.32,0,0,1,.4-0.13,2,2,0,0,1,.48-0.05,1.76,1.76,0,0,1,.53.07,1.23,1.23,0,0,1,.42.22,1,1,0,0,1,.28.36,1.07,1.07,0,0,1,.1.45,1,1,0,0,1-.09.42,1.24,1.24,0,0,1-.21.3,1.54,1.54,0,0,1-.26.22l-0.25.15-0.2.11h0.81a0.25,0.25,0,0,1,.25.25v0.6a0.25,0.25,0,0,1-.25.25H65.85Z" fill="#fff"/><path d="M67.13,3.7a1.51,1.51,0,0,1,.46.06,1,1,0,0,1,.34.17,0.76,0.76,0,0,1,.21.27,0.82,0.82,0,0,1,.07.34,0.71,0.71,0,0,1-.06.31A1,1,0,0,1,68,5.1a1.3,1.3,0,0,1-.22.18l-0.23.14-0.21.12-0.23.14-0.21.16a0.75,0.75,0,0,0-.15.16h1.51v0.6H65.85a2.17,2.17,0,0,1,0-.41A1.08,1.08,0,0,1,66,5.86a1.15,1.15,0,0,1,.24-0.29,2.14,2.14,0,0,1,.39-0.26L67,5.12,67.26,5a0.64,0.64,0,0,0,.16-0.14,0.27,0.27,0,0,0,.06-0.17,0.33,0.33,0,0,0-.12-0.26A0.5,0.5,0,0,0,67,4.29a0.72,0.72,0,0,0-.22,0l-0.19.09-0.16.12-0.13.14-0.43-.5A1.12,1.12,0,0,1,66.07,4a1.76,1.76,0,0,1,.28-0.15,2.08,2.08,0,0,1,.36-0.12,1.79,1.79,0,0,1,.42,0m0-.5a2.27,2.27,0,0,0-.54.06,2.59,2.59,0,0,0-.45.15,2.24,2.24,0,0,0-.36.2,1.59,1.59,0,0,0-.27.22,0.5,0.5,0,0,0,0,.67L65.93,5,66,5.1l-0.13.1a1.66,1.66,0,0,0-.34.42,1.58,1.58,0,0,0-.18.49,2.67,2.67,0,0,0,0,.5,0.5,0.5,0,0,0,.5.5h2.41a0.5,0.5,0,0,0,.5-0.5V6a0.5,0.5,0,0,0-.48-0.5l0.05-.05a1.47,1.47,0,0,0,.25-0.37,1.21,1.21,0,0,0,.11-0.53A1.32,1.32,0,0,0,68.59,4a1.26,1.26,0,0,0-.35-0.45,1.49,1.49,0,0,0-.51-0.27,2,2,0,0,0-.6-0.08h0Z"/><path d="M68.92,8.86a0.25,0.25,0,0,1-.21-0.39l3.46-5a0.25,0.25,0,0,1,.21-0.11h1a0.25,0.25,0,0,1,.21.39l-3.47,5a0.25,0.25,0,0,1-.21.11h-1Z" fill="#fff"/><path d="M73.43,3.64L70,8.61h-1l3.46-5h1m0-.5h-1a0.5,0.5,0,0,0-.41.21l-3.46,5a0.5,0.5,0,0,0,.41.79h1a0.5,0.5,0,0,0,.41-0.21l3.47-5a0.5,0.5,0,0,0-.41-0.79h0Zm0,1h0Z"/><path d="M75.63,8.93a1.92,1.92,0,0,1-.8-0.17,1.89,1.89,0,0,1-.64-0.47,2.18,2.18,0,0,1-.41-0.68,2.39,2.39,0,0,1-.14-0.83,2.46,2.46,0,0,1,.14-0.83,2.21,2.21,0,0,1,.38-0.68,1.82,1.82,0,0,1,.6-0.47,1.74,1.74,0,0,1,.77-0.17,1.65,1.65,0,0,1,.86.23l0.13,0.09V3.5a0.25,0.25,0,0,1,.25-0.25H77.7a0.25,0.25,0,0,1,.25.25v4a0.27,0.27,0,0,1,.22.28v0.8a0.25,0.25,0,0,1-.2.25,2.38,2.38,0,0,1-.45.05,0.9,0.9,0,0,1-.57-0.18,0.74,0.74,0,0,1-.18-0.21,1.56,1.56,0,0,1-.3.2A1.82,1.82,0,0,1,75.63,8.93Zm0.19-3a0.59,0.59,0,0,0-.27.06,0.67,0.67,0,0,0-.22.18,1,1,0,0,0-.16.29,1,1,0,0,0-.06.34,0.89,0.89,0,0,0,.06.33,0.85,0.85,0,0,0,.16.27,0.7,0.7,0,0,0,.24.17,0.73,0.73,0,0,0,.31.06,0.64,0.64,0,0,0,.2,0,0.71,0.71,0,0,0,.19-0.1,0.89,0.89,0,0,0,.17-0.15,0.6,0.6,0,0,0,.1-0.17l0-.79h0a0.66,0.66,0,0,1-.1-0.13,0.94,0.94,0,0,0-.18-0.18A1,1,0,0,0,76,6,0.54,0.54,0,0,0,75.81,5.92Z" fill="#fff"/><path d="M77.7,3.5v4a0.34,0.34,0,0,0,0,.21,0.22,0.22,0,0,0,.17.07v0.8a2.13,2.13,0,0,1-.4,0,0.65,0.65,0,0,1-.41-0.13,0.46,0.46,0,0,1-.18-0.33l0-.23a1.33,1.33,0,0,1-.55.53,1.56,1.56,0,0,1-.72.18,1.66,1.66,0,0,1-.7-0.15,1.63,1.63,0,0,1-.55-0.41A1.91,1.91,0,0,1,74,7.52a2.12,2.12,0,0,1-.13-0.75A2.21,2.21,0,0,1,74,6a2,2,0,0,1,.34-0.6A1.57,1.57,0,0,1,74.86,5a1.48,1.48,0,0,1,.66-0.15,1.39,1.39,0,0,1,.73.2,1.42,1.42,0,0,1,.51.51V3.5H77.7M75.87,7.88a0.88,0.88,0,0,0,.27,0,1,1,0,0,0,.26-0.13,1.13,1.13,0,0,0,.21-0.2,0.84,0.84,0,0,0,.14-0.25V6.39a1,1,0,0,0-.16-0.28,1.2,1.2,0,0,0-.23-0.22,1.22,1.22,0,0,0-.27-0.15,0.78,0.78,0,0,0-.28-0.06,0.84,0.84,0,0,0-.39.09,0.92,0.92,0,0,0-.3.25,1.2,1.2,0,0,0-.2.36,1.27,1.27,0,0,0-.07.42,1.15,1.15,0,0,0,.08.43,1.12,1.12,0,0,0,.21.34,1,1,0,0,0,.32.23,1,1,0,0,0,.41.08M77.7,3H76.76a0.5,0.5,0,0,0-.5.5v1a1.93,1.93,0,0,0-.74-0.14,2,2,0,0,0-.88.2,2.08,2.08,0,0,0-.68.53,2.47,2.47,0,0,0-.43.75,2.72,2.72,0,0,0-.15.91,2.63,2.63,0,0,0,.16.92,2.42,2.42,0,0,0,.46.76,2.13,2.13,0,0,0,.72.53,2.17,2.17,0,0,0,.91.19,2.07,2.07,0,0,0,1-.23l0.14-.08,0.07,0.06a1.14,1.14,0,0,0,.72.23A2.59,2.59,0,0,0,78,9.1a0.5,0.5,0,0,0,.4-0.49V7.81A0.5,0.5,0,0,0,78.2,7.4V3.5A0.5,0.5,0,0,0,77.7,3h0ZM75.87,7.38a0.49,0.49,0,0,1-.2,0,0.46,0.46,0,0,1-.15-0.11A0.62,0.62,0,0,1,75.4,7a0.66,0.66,0,0,1,0-.24,0.77,0.77,0,0,1,0-.26,0.7,0.7,0,0,1,.11-0.21,0.42,0.42,0,0,1,.14-0.12,0.34,0.34,0,0,1,.16,0l0.1,0,0.16,0.09a0.69,0.69,0,0,1,.13.13l0,0.08V7.15l0,0-0.12.11L76,7.36l-0.12,0h0Z"/><path d="M79,8.86a0.25,0.25,0,0,1-.25-0.25V4.94A0.25,0.25,0,0,1,79,4.69h0.94a0.25,0.25,0,0,1,.25.25V8.61a0.25,0.25,0,0,1-.25.25H79Zm0-4.18a0.25,0.25,0,0,1-.25-0.25V3.5A0.25,0.25,0,0,1,79,3.25h0.94a0.25,0.25,0,0,1,.25.25V4.43a0.25,0.25,0,0,1-.25.25H79Z" fill="#fff"/><path d="M79.91,3.5V4.43H79V3.5h0.94m0,1.44V8.61H79V4.94h0.94m0-1.94H79a0.5,0.5,0,0,0-.5.5V4.43a0.5,0.5,0,0,0,.07.26,0.5,0.5,0,0,0-.07.26V8.61a0.5,0.5,0,0,0,.5.5h0.94a0.5,0.5,0,0,0,.5-0.5V4.94a0.5,0.5,0,0,0-.07-0.26,0.5,0.5,0,0,0,.07-0.26V3.5a0.5,0.5,0,0,0-.5-0.5h0Z"/><path d="M82.11,8.93a1.64,1.64,0,0,1-.59-0.1A1.45,1.45,0,0,1,81,8.53a1.39,1.39,0,0,1-.32-0.45,1.36,1.36,0,0,1-.12-0.56,1.27,1.27,0,0,1,.14-0.59,1.35,1.35,0,0,1,.39-0.46,1.86,1.86,0,0,1,.57-0.28,2.42,2.42,0,0,1,.7-0.1,3,3,0,0,1,.52,0l0.11,0a0.41,0.41,0,0,0-.12-0.25,0.63,0.63,0,0,0-.44-0.13,1.37,1.37,0,0,0-.49.09,2.44,2.44,0,0,0-.52.28,0.25,0.25,0,0,1-.14,0H81.28A0.25,0.25,0,0,1,81.12,6l-0.29-.6a0.25,0.25,0,0,1,.09-0.32,3,3,0,0,1,1.66-.51A2,2,0,0,1,84,5.08a1.67,1.67,0,0,1,.52,1.31V7.53a0.27,0.27,0,0,1,.22.28v0.8a0.25,0.25,0,0,1-.2.24,2.31,2.31,0,0,1-.46.05,0.87,0.87,0,0,1-.57-0.18,0.75,0.75,0,0,1-.18-0.21,1.82,1.82,0,0,1-.35.22A2,2,0,0,1,82.11,8.93Zm0.46-1.82a0.77,0.77,0,0,0-.45.12,0.24,0.24,0,0,0-.12.21,0.25,0.25,0,0,0,.1.21,0.41,0.41,0,0,0,.28.1,1,1,0,0,0,.36-0.07A0.57,0.57,0,0,0,83,7.52l0.09-.1V7.18l-0.16,0A1.67,1.67,0,0,0,82.57,7.11Z" fill="#fff"/><path d="M82.58,4.88a1.79,1.79,0,0,1,1.23.39,1.42,1.42,0,0,1,.44,1.12V7.53a0.33,0.33,0,0,0,.05.21,0.23,0.23,0,0,0,.17.07v0.8a2.08,2.08,0,0,1-.41,0,0.63,0.63,0,0,1-.41-0.12,0.51,0.51,0,0,1-.18-0.31l0-.2a1.63,1.63,0,0,1-.6.49,1.7,1.7,0,0,1-.75.17,1.39,1.39,0,0,1-.5-0.09,1.19,1.19,0,0,1-.4-0.25A1.13,1.13,0,0,1,80.95,8a1.11,1.11,0,0,1-.09-0.46A1,1,0,0,1,81,7a1.1,1.1,0,0,1,.32-0.37,1.6,1.6,0,0,1,.49-0.24,2.15,2.15,0,0,1,.63-0.09,2.69,2.69,0,0,1,.48,0,1.91,1.91,0,0,1,.42.12V6.28a0.73,0.73,0,0,0-.21-0.56,0.86,0.86,0,0,0-.61-0.2,1.63,1.63,0,0,0-.57.1,2.7,2.7,0,0,0-.57.31l-0.29-.6a2.71,2.71,0,0,1,1.53-.47M82.37,8a1.22,1.22,0,0,0,.45-0.08,0.81,0.81,0,0,0,.33-0.22,0.34,0.34,0,0,0,.15-0.27V7a2.28,2.28,0,0,0-.36-0.1,1.93,1.93,0,0,0-.38,0A1,1,0,0,0,82,7a0.49,0.49,0,0,0-.23.42,0.5,0.5,0,0,0,.18.4,0.66,0.66,0,0,0,.45.16m0.21-3.61a3.22,3.22,0,0,0-1.8.55,0.5,0.5,0,0,0-.17.63l0.29,0.6a0.5,0.5,0,0,0,.08.12,1.6,1.6,0,0,0-.45.53,1.53,1.53,0,0,0-.17.71,1.61,1.61,0,0,0,.14.67,1.63,1.63,0,0,0,.38.53,1.69,1.69,0,0,0,.56.35,1.89,1.89,0,0,0,.67.12,2.21,2.21,0,0,0,1-.22l0.19-.1,0.07,0.06a1.11,1.11,0,0,0,.73.23,2.54,2.54,0,0,0,.51-0.06A0.5,0.5,0,0,0,85,8.61V7.81a0.5,0.5,0,0,0-.22-0.42v-1a1.91,1.91,0,0,0-.61-1.5,2.27,2.27,0,0,0-1.56-.52h0ZM82.37,7.49a0.16,0.16,0,0,1-.12,0,0.43,0.43,0,0,1,.32-0.1h0.2l-0.12.07a0.72,0.72,0,0,1-.27,0h0Z"/><path d="M6.45,46.21a0.25,0.25,0,0,1-.13,0l-3-1.75a0.25,0.25,0,0,1-.12-0.21V43.76a0.25,0.25,0,0,1,.12-0.21l3-1.79a0.25,0.25,0,0,1,.13,0A0.25,0.25,0,0,1,6.7,42v1a0.25,0.25,0,0,1-.12.21L5.34,44,6.58,44.7a0.25,0.25,0,0,1,.12.21v1a0.25,0.25,0,0,1-.13.22A0.24,0.24,0,0,1,6.45,46.21Z" fill="#fff"/><path d="M6.45,42v1L4.86,44l1.59,1v1l-3-1.75V43.76l3-1.79m0-.5a0.5,0.5,0,0,0-.26.07l-3,1.79a0.5,0.5,0,0,0-.24.43v0.46a0.5,0.5,0,0,0,.25.43l3,1.75A0.5,0.5,0,0,0,6.95,46v-1a0.5,0.5,0,0,0-.24-0.43L5.82,44l0.9-.56A0.5,0.5,0,0,0,6.95,43V42a0.5,0.5,0,0,0-.5-0.5h0Z"/><path d="M9,47.05a2.68,2.68,0,0,1-1-.19,2,2,0,0,1-.78-0.57,0.25,0.25,0,0,1,0-.32l0.53-.67A0.25,0.25,0,0,1,8,45.22H8a0.25,0.25,0,0,1,.2.1,1,1,0,0,0,.35.29,1.16,1.16,0,0,0,.52.1,0.84,0.84,0,0,0,.5-0.12,0.35,0.35,0,0,0,.12-0.32,0.41,0.41,0,0,0-.16-0.36,1.09,1.09,0,0,0-.63-0.15H8.65a0.25,0.25,0,0,1-.25-0.25v-0.7a0.25,0.25,0,0,1,.25-0.25H8.87a0.82,0.82,0,0,0,.52-0.14,0.36,0.36,0,0,0,.15-0.3,0.24,0.24,0,0,0-.09-0.22,0.63,0.63,0,0,0-.37-0.09,0.89,0.89,0,0,0-.45.11,0.91,0.91,0,0,0-.33.33,0.25,0.25,0,0,1-.19.12h0a0.25,0.25,0,0,1-.19-0.08L7.3,42.62a0.25,0.25,0,0,1,0-.3A1.39,1.39,0,0,1,7.62,42a2.23,2.23,0,0,1,.45-0.25,2.72,2.72,0,0,1,.53-0.16,2.94,2.94,0,0,1,.58-0.06,2.45,2.45,0,0,1,.72.1,1.89,1.89,0,0,1,.58.29A1.33,1.33,0,0,1,11,43a1.51,1.51,0,0,1-.08.48,1.41,1.41,0,0,1-.22.42,1.37,1.37,0,0,1-.23.23,1.4,1.4,0,0,1,.29.27,1.54,1.54,0,0,1,.32,1,1.6,1.6,0,0,1-.15.7,1.55,1.55,0,0,1-.43.54,2,2,0,0,1-.65.33A2.89,2.89,0,0,1,9,47.05Z" fill="#fff"/><path d="M9.18,41.74a2.2,2.2,0,0,1,.65.09,1.63,1.63,0,0,1,.51.25,1.09,1.09,0,0,1,.44.9,1.25,1.25,0,0,1-.06.4,1.16,1.16,0,0,1-.18.34,1.1,1.1,0,0,1-.28.26,1,1,0,0,1-.36.14,1.11,1.11,0,0,1,.7.42,1.29,1.29,0,0,1,.27.83,1.35,1.35,0,0,1-.13.59,1.3,1.3,0,0,1-.36.45,1.69,1.69,0,0,1-.57.29,2.62,2.62,0,0,1-.76.1,2.42,2.42,0,0,1-.94-0.17,1.76,1.76,0,0,1-.68-0.5L8,45.47a1.27,1.27,0,0,0,.43.36,1.4,1.4,0,0,0,.63.13,1.07,1.07,0,0,0,.65-0.17,0.6,0.6,0,0,0,.22-0.52,0.66,0.66,0,0,0-.26-0.56,1.29,1.29,0,0,0-.78-0.2H8.65v-0.7H8.87a1,1,0,0,0,.67-0.19,0.61,0.61,0,0,0,.24-0.49,0.49,0.49,0,0,0-.2-0.43,0.86,0.86,0,0,0-.51-0.14,1.14,1.14,0,0,0-.58.15,1.17,1.17,0,0,0-.42.41l-0.59-.66a1.14,1.14,0,0,1,.28-0.29,2,2,0,0,1,.4-0.22,2.43,2.43,0,0,1,.48-0.15,2.66,2.66,0,0,1,.53-0.05m0-.5a3.18,3.18,0,0,0-.63.06,3,3,0,0,0-.58.18,2.45,2.45,0,0,0-.49.28,1.65,1.65,0,0,0-.4.42,0.5,0.5,0,0,0,0,.61l0.59,0.66a0.5,0.5,0,0,0,.37.17H8.2a0.5,0.5,0,0,0,0,.21v0.7a0.5,0.5,0,0,0,.5.5h0.2a0.82,0.82,0,0,1,.48.09,0.16,0.16,0,0,1,.06.16,0.2,0.2,0,0,1,0,.12,0.6,0.6,0,0,1-.35.07,0.94,0.94,0,0,1-.41-0.07,0.77,0.77,0,0,1-.26-0.22A0.5,0.5,0,0,0,8,45H8a0.5,0.5,0,0,0-.39.19L7,45.82a0.5,0.5,0,0,0,0,.63,2.26,2.26,0,0,0,.87.64A2.93,2.93,0,0,0,9,47.3a3.13,3.13,0,0,0,.9-0.12,2.2,2.2,0,0,0,.74-0.37,1.8,1.8,0,0,0,.5-0.62,1.85,1.85,0,0,0,.18-0.81A1.79,1.79,0,0,0,11,44.23l-0.11-.13L10.93,44a1.66,1.66,0,0,0,.26-0.49A1.76,1.76,0,0,0,11.28,43a1.59,1.59,0,0,0-.64-1.29A2.14,2.14,0,0,0,10,41.36a2.7,2.7,0,0,0-.8-0.11h0ZM8.54,43.32a0.65,0.65,0,0,1,.2-0.19,0.64,0.64,0,0,1,.33-0.08,0.41,0.41,0,0,1,.22,0,0.17,0.17,0,0,1-.07.12,0.61,0.61,0,0,1-.36.08H8.54Z"/><path d="M116.11,46.21a0.25,0.25,0,0,1-.13,0l-3-1.75a0.25,0.25,0,0,1-.12-0.21V43.76a0.25,0.25,0,0,1,.12-0.21l3-1.79a0.24,0.24,0,0,1,.13,0,0.25,0.25,0,0,1,.25.25v1a0.25,0.25,0,0,1-.12.21L115,44l1.24,0.74a0.25,0.25,0,0,1,.12.21v1A0.25,0.25,0,0,1,116.11,46.21Z" fill="#fff"/><path d="M116.11,42v1l-1.59,1,1.59,1v1l-3-1.75V43.76l3-1.79m0-.5a0.5,0.5,0,0,0-.26.07l-3,1.79a0.5,0.5,0,0,0-.24.43v0.46a0.5,0.5,0,0,0,.25.43l3,1.75a0.5,0.5,0,0,0,.75-0.43v-1a0.5,0.5,0,0,0-.24-0.43L115.48,44l0.9-.56a0.5,0.5,0,0,0,.23-0.42V42a0.5,0.5,0,0,0-.5-0.5h0Z"/><path d="M118.84,47.1a2.13,2.13,0,0,1-1-.23,2.11,2.11,0,0,1-.76-0.66,0.25,0.25,0,0,1,0-.32l0.54-.59a0.25,0.25,0,0,1,.18-0.08h0a0.25,0.25,0,0,1,.19.12,0.93,0.93,0,0,0,.8.44,0.63,0.63,0,0,0,.55-0.27,1,1,0,0,0,.13-0.25,1.58,1.58,0,0,1-.69.15,2.1,2.1,0,0,1-.78-0.14,1.92,1.92,0,0,1-.63-0.4,1.9,1.9,0,0,1-.42-0.61,1.88,1.88,0,0,1-.15-0.75,1.91,1.91,0,0,1,.16-0.78,2,2,0,0,1,.44-0.63,2,2,0,0,1,.66-0.42,2.16,2.16,0,0,1,.81-0.15,2.08,2.08,0,0,1,.86.18,1.81,1.81,0,0,1,.67.52,2.36,2.36,0,0,1,.41.8,3.58,3.58,0,0,1,.14,1,5,5,0,0,1-.14,1.26,3,3,0,0,1-.42,1,1.92,1.92,0,0,1-.7.61A2,2,0,0,1,118.84,47.1Zm0.09-4.28a0.58,0.58,0,0,0-.25.05,0.69,0.69,0,0,0-.21.15,0.76,0.76,0,0,0-.15.23,0.65,0.65,0,0,0-.05.26,0.62,0.62,0,0,0,.05.25,0.75,0.75,0,0,0,.15.22,0.62,0.62,0,0,0,.21.14,0.69,0.69,0,0,0,.52,0A0.62,0.62,0,0,0,119.4,44a0.74,0.74,0,0,0,.15-0.22,0.62,0.62,0,0,0,.05-0.25,0.66,0.66,0,0,0-.05-0.26A0.71,0.71,0,0,0,119.4,43a0.79,0.79,0,0,0-.22-0.15A0.6,0.6,0,0,0,118.93,42.82Z" fill="#fff"/><path d="M118.93,41.78a1.82,1.82,0,0,1,.76.15,1.56,1.56,0,0,1,.58.45,2.1,2.1,0,0,1,.37.72,3.31,3.31,0,0,1,.13,1,4.72,4.72,0,0,1-.14,1.2,2.68,2.68,0,0,1-.38.88,1.66,1.66,0,0,1-.61.54,1.73,1.73,0,0,1-.8.18,1.88,1.88,0,0,1-.87-0.2,1.86,1.86,0,0,1-.67-0.58l0.54-.59a1.18,1.18,0,0,0,1,.56,0.88,0.88,0,0,0,.75-0.37,1.8,1.8,0,0,0,.29-1,1,1,0,0,1-.41.4,1.31,1.31,0,0,1-.63.15,1.83,1.83,0,0,1-.69-0.13,1.64,1.64,0,0,1-.91-0.88,1.61,1.61,0,0,1-.13-0.65,1.64,1.64,0,0,1,.14-0.68,1.72,1.72,0,0,1,1-.92,1.91,1.91,0,0,1,.72-0.13m0,2.64a0.92,0.92,0,0,0,.36-0.07,0.87,0.87,0,0,0,.29-0.2,1,1,0,0,0,.2-0.29,0.86,0.86,0,0,0,.07-0.35,0.91,0.91,0,0,0-.07-0.36,0.94,0.94,0,0,0-.2-0.3,1,1,0,0,0-.29-0.2,0.83,0.83,0,0,0-.35-0.08,0.84,0.84,0,0,0-.35.07,0.93,0.93,0,0,0-.29.2,1,1,0,0,0-.2.3,0.91,0.91,0,0,0-.07.36,0.86,0.86,0,0,0,.07.35,1,1,0,0,0,.2.29,0.87,0.87,0,0,0,.29.2,0.91,0.91,0,0,0,.36.07m0-3.14a2.42,2.42,0,0,0-.9.17,2.22,2.22,0,0,0-1.23,1.18,2.15,2.15,0,0,0-.18.88,2.12,2.12,0,0,0,.17.85,2.15,2.15,0,0,0,.47.69l0.16,0.14-0.5.54a0.5,0.5,0,0,0,0,.63,2.36,2.36,0,0,0,.85.73,2.39,2.39,0,0,0,1.09.26,2.24,2.24,0,0,0,1-.24,2.16,2.16,0,0,0,.79-0.69,3.19,3.19,0,0,0,.46-1,5.24,5.24,0,0,0,.15-1.33,3.83,3.83,0,0,0-.15-1.11,2.61,2.61,0,0,0-.46-0.89,2.06,2.06,0,0,0-.76-0.59,2.33,2.33,0,0,0-1-.2h0Zm0,2.64a0.41,0.41,0,0,1-.16,0,0.37,0.37,0,0,1-.13-0.08,0.51,0.51,0,0,1-.1-0.15,0.36,0.36,0,0,1,0-.15,0.41,0.41,0,0,1,0-.16,0.51,0.51,0,0,1,.1-0.15,0.43,0.43,0,0,1,.13-0.09,0.35,0.35,0,0,1,.15,0,0.33,0.33,0,0,1,.14,0,0.53,0.53,0,0,1,.15.1,0.44,0.44,0,0,1,.09.14,0.41,0.41,0,0,1,0,.16,0.36,0.36,0,0,1,0,.15,0.49,0.49,0,0,1-.1.14,0.37,0.37,0,0,1-.13.08,0.42,0.42,0,0,1-.16,0h0Z"/><path d="M43.69,47.07a2.3,2.3,0,0,1-1.09-.26,1.86,1.86,0,0,1-.75-0.73,0.25,0.25,0,0,1,0-.3l0.54-.56a0.25,0.25,0,0,1,.18-0.08h0a0.25,0.25,0,0,1,.19.1,1.2,1.2,0,0,0,.41.36,1,1,0,0,0,.49.13,0.62,0.62,0,0,0,.45-0.16,0.54,0.54,0,0,0,.16-0.42,0.55,0.55,0,0,0-.15-0.41,0.54,0.54,0,0,0-.4-0.15,0.67,0.67,0,0,0-.32.08,0.59,0.59,0,0,0-.22.2A0.25,0.25,0,0,1,43,45H42.18a0.25,0.25,0,0,1-.25-0.25,1.07,1.07,0,0,1,0-.21l0.55-2.8a0.25,0.25,0,0,1,.25-0.2h2.45a0.25,0.25,0,0,1,.25.25v0.85a0.25,0.25,0,0,1-.25.25H43.64l-0.08.44,0.32,0a2,2,0,0,1,.74.13,1.78,1.78,0,0,1,.6.38,1.74,1.74,0,0,1,.4.59,2,2,0,0,1,0,1.54,1.8,1.8,0,0,1-.44.61,2,2,0,0,1-.66.39A2.37,2.37,0,0,1,43.69,47.07Z" fill="#fff"/><path d="M45.21,41.78v0.85H43.43l-0.2,1.11a0.58,0.58,0,0,1,.25-0.15,1.27,1.27,0,0,1,.4-0.06,1.8,1.8,0,0,1,.65.12,1.53,1.53,0,0,1,.52.33,1.5,1.5,0,0,1,.34.5,1.79,1.79,0,0,1,0,1.34,1.55,1.55,0,0,1-.38.53,1.77,1.77,0,0,1-.58.34,2.13,2.13,0,0,1-.73.12,2,2,0,0,1-1-.23A1.6,1.6,0,0,1,42.06,46l0.54-.56a1.45,1.45,0,0,0,.49.43,1.26,1.26,0,0,0,.61.16,0.86,0.86,0,0,0,.62-0.23,0.81,0.81,0,0,0-.56-1.42,0.92,0.92,0,0,0-.43.1,0.85,0.85,0,0,0-.32.29H42.18a1.52,1.52,0,0,1,0-.16l0.07-.35,0.09-.48q0-.26.1-0.54l0.28-1.44h2.45m0-.5H42.76a0.5,0.5,0,0,0-.49.41L42,43.12c0,0.18-.07.36-0.11,0.54l-0.09.47-0.07.35a1.26,1.26,0,0,0,0,.26,0.5,0.5,0,0,0,.38.49l-0.37.39a0.5,0.5,0,0,0-.08.59,2.1,2.1,0,0,0,.85.83,2.54,2.54,0,0,0,1.21.29,2.63,2.63,0,0,0,.9-0.15,2.28,2.28,0,0,0,.74-0.44,2.05,2.05,0,0,0,.51-0.7,2.29,2.29,0,0,0,0-1.73,2,2,0,0,0-.45-0.67,2,2,0,0,0-.69-0.43l-0.17-.06h0.67a0.5,0.5,0,0,0,.5-0.5V41.78a0.5,0.5,0,0,0-.5-0.5h0Zm-2.1,4A0.5,0.5,0,0,0,43.42,45a0.35,0.35,0,0,1,.13-0.12,0.42,0.42,0,0,1,.2,0,0.29,0.29,0,0,1,.23.08,0.38,0.38,0,0,1,0,.47,0.36,0.36,0,0,1-.28.09,0.76,0.76,0,0,1-.37-0.1,1,1,0,0,1-.22-0.16h0Z"/><path d="M78.83,46.91a0.25,0.25,0,0,1-.22-0.36l1.87-3.75H78.62a0.25,0.25,0,0,1-.25-0.25V41.69a0.25,0.25,0,0,1,.25-0.25h3.74a0.25,0.25,0,0,1,.22.36l-2.46,5a0.25,0.25,0,0,1-.22.14H78.83Z" fill="#fff"/><path d="M82.35,41.69h0m0,0-2.46,5H78.83l2.05-4.12H78.62V41.69h3.74m0-.5H78.62a0.5,0.5,0,0,0-.5.5v0.85a0.5,0.5,0,0,0,.5.5h1.45l-1.69,3.39a0.5,0.5,0,0,0,.45.72h1.06a0.5,0.5,0,0,0,.45-0.28L82.78,42a0.5,0.5,0,0,0-.43-0.76h0Zm0,1h0Z"/></svg>