<svg xmlns="http://www.w3.org/2000/svg" xmlns:xlink="http://www.w3.org/1999/xlink" viewBox="0 0 125 50"><defs><clipPath id="a"><rect x="0.69" y="16.17" width="122.62" height="25.61" rx="7.05" ry="7.05" fill="none"/></clipPath></defs><title>escalas en blanco con contorno</title><path d="M19.49,6.9a0.25,0.25,0,0,1-.25-0.25V3.36H18.13a0.25,0.25,0,0,1-.25-0.25V2.39a0.25,0.25,0,0,1,.25-0.25h3.55a0.25,0.25,0,0,1,.25.25V3.11a0.25,0.25,0,0,1-.25.25H20.56V6.65a0.25,0.25,0,0,1-.25.25H19.49Z" fill="#fff"/><path d="M21.67,2.39V3.11H20.31V6.65H19.49V3.11H18.13V2.39h3.55m0-.5H18.13a0.5,0.5,0,0,0-.5.5V3.11a0.5,0.5,0,0,0,.5.5H19v3a0.5,0.5,0,0,0,.5.5h0.82a0.5,0.5,0,0,0,.5-0.5v-3h0.86a0.5,0.5,0,0,0,.5-0.5V2.39a0.5,0.5,0,0,0-.5-0.5h0Z"/><path d="M23.2,7a2,2,0,0,1-.78-0.15,1.81,1.81,0,0,1-.6-0.41,1.78,1.78,0,0,1-.39-0.6,1.9,1.9,0,0,1-.13-0.71,2,2,0,0,1,.13-0.72,1.8,1.8,0,0,1,.38-0.61,1.83,1.83,0,0,1,.61-0.41A2,2,0,0,1,23.2,3.2a2,2,0,0,1,.79.15,1.86,1.86,0,0,1,.6.41,1.76,1.76,0,0,1,.38.6,2,2,0,0,1,.13.7V5.23a0.91,0.91,0,0,1,0,.17,0.25,0.25,0,0,1-.24.19H24.51l0.22,0.06a0.25,0.25,0,0,1,.16.14,0.25,0.25,0,0,1,0,.21,1.64,1.64,0,0,1-.65.7A2,2,0,0,1,23.2,7ZM22.72,5.59a0.54,0.54,0,0,0,.11.14,0.56,0.56,0,0,0,.18.11,0.59,0.59,0,0,0,.21,0,0.67,0.67,0,0,0,.33-0.09,0.38,0.38,0,0,0,.18-0.18v0h-1Zm1-1a0.53,0.53,0,0,0-.11-0.13,0.54,0.54,0,0,0-.39-0.15,0.57,0.57,0,0,0-.21,0,0.54,0.54,0,0,0-.17.11,0.55,0.55,0,0,0-.1.13h1Z" fill="#fff"/><path d="M23.2,3.45a1.7,1.7,0,0,1,.69.13,1.59,1.59,0,0,1,.52.35,1.52,1.52,0,0,1,.32.52,1.71,1.71,0,0,1,.11.61c0,0.05,0,.1,0,0.15a0.63,0.63,0,0,1,0,.12H22.39a1,1,0,0,0,.09.33,0.84,0.84,0,0,0,.19.25,0.83,0.83,0,0,0,.26.16,0.84,0.84,0,0,0,.3.05A0.92,0.92,0,0,0,23.68,6,0.62,0.62,0,0,0,24,5.69l0.69,0.19a1.4,1.4,0,0,1-.56.59,1.72,1.72,0,0,1-.91.23,1.75,1.75,0,0,1-.68-0.13A1.55,1.55,0,0,1,22,6.23a1.53,1.53,0,0,1-.33-0.52,1.66,1.66,0,0,1-.12-0.62,1.75,1.75,0,0,1,.11-0.63A1.54,1.54,0,0,1,22,3.94a1.59,1.59,0,0,1,.53-0.36,1.75,1.75,0,0,1,.69-0.13M22.38,4.81H24a0.84,0.84,0,0,0-.26-0.57,0.81,0.81,0,0,0-1.29.25,0.86,0.86,0,0,0-.08.32M23.2,3a2.25,2.25,0,0,0-.89.17,2.09,2.09,0,0,0-.69.47,2,2,0,0,0-.44.69A2.25,2.25,0,0,0,21,5.1a2.16,2.16,0,0,0,.15.8,2,2,0,0,0,.44.68,2.06,2.06,0,0,0,.68.46,2.25,2.25,0,0,0,.88.17,2.21,2.21,0,0,0,1.17-.3,1.9,1.9,0,0,0,.75-0.8,0.5,0.5,0,0,0,0-.38,0.5,0.5,0,0,0,.17-0.27,1.12,1.12,0,0,0,0-.22c0-.05,0-0.11,0-0.17a2.21,2.21,0,0,0-.14-0.79,2,2,0,0,0-.43-0.68,2.1,2.1,0,0,0-.68-0.47A2.21,2.21,0,0,0,23.2,3h0Z"/><path d="M29.71,6.9a0.25,0.25,0,0,1-.25-0.25V4.89a0.69,0.69,0,0,0-.08-0.4,0.17,0.17,0,0,0-.16-0.07,0.43,0.43,0,0,0-.29.12,0.76,0.76,0,0,0-.22.36V6.65a0.25,0.25,0,0,1-.25.25h-0.8a0.25,0.25,0,0,1-.25-0.25V4.89a0.69,0.69,0,0,0-.08-0.4,0.17,0.17,0,0,0-.16-0.07,0.44,0.44,0,0,0-.28.12,0.73,0.73,0,0,0-.23.36V6.65a0.25,0.25,0,0,1-.25.25h-0.8a0.25,0.25,0,0,1-.25-0.25V3.51a0.25,0.25,0,0,1,.25-0.25h0.73a0.25,0.25,0,0,1,.25.21l0.11-.07a1.69,1.69,0,0,1,.81-0.2,1.13,1.13,0,0,1,.78.26,1.09,1.09,0,0,1,.17.18,1.52,1.52,0,0,1,.3-0.23,1.56,1.56,0,0,1,.8-0.21,1.18,1.18,0,0,1,.6.14,1,1,0,0,1,.38.37,1.42,1.42,0,0,1,.17.48,2.75,2.75,0,0,1,0,.49v2a0.25,0.25,0,0,1-.25.25h-0.8Z" fill="#fff"/><path d="M29.58,3.45a0.93,0.93,0,0,1,.47.11,0.78,0.78,0,0,1,.29.28,1.16,1.16,0,0,1,.14.4,2.57,2.57,0,0,1,0,.45v2h-0.8V4.89a0.94,0.94,0,0,0-.13-0.55,0.42,0.42,0,0,0-.36-0.17,0.68,0.68,0,0,0-.45.18,1,1,0,0,0-.3.48V6.65h-0.8V4.89a0.94,0.94,0,0,0-.13-0.55,0.42,0.42,0,0,0-.36-0.17,0.68,0.68,0,0,0-.45.18,1,1,0,0,0-.3.47V6.65h-0.8V3.51h0.73V4.09a1.21,1.21,0,0,1,.48-0.47,1.43,1.43,0,0,1,.69-0.17,0.89,0.89,0,0,1,.61.19,0.86,0.86,0,0,1,.28.47,1.35,1.35,0,0,1,.49-0.49,1.31,1.31,0,0,1,.67-0.17m0-.5a1.8,1.8,0,0,0-.92.24l-0.15.1,0,0A1.37,1.37,0,0,0,27.53,3a2,2,0,0,0-.84.18A0.5,0.5,0,0,0,26.36,3H25.63a0.5,0.5,0,0,0-.5.5V6.65a0.5,0.5,0,0,0,.5.5h0.8a0.5,0.5,0,0,0,.5-0.5V4.9a0.46,0.46,0,0,1,.13-0.18l0.09-.06a0.94,0.94,0,0,1,0,.22V6.65a0.5,0.5,0,0,0,.5.5h0.8a0.5,0.5,0,0,0,.5-0.5V4.9a0.49,0.49,0,0,1,.13-0.19l0.09-.05a0.94,0.94,0,0,1,0,.22V6.65a0.5,0.5,0,0,0,.5.5h0.8a0.5,0.5,0,0,0,.5-0.5v-2a3.08,3.08,0,0,0,0-.54,1.66,1.66,0,0,0-.2-0.56,1.28,1.28,0,0,0-.47-0.46A1.42,1.42,0,0,0,29.58,3h0Z"/><path d="M31.52,8.18a0.25,0.25,0,0,1-.25-0.25V3.51a0.25,0.25,0,0,1,.25-0.25h0.7a0.25,0.25,0,0,1,.24.19l0.08-.05a1.51,1.51,0,0,1,.76-0.19,1.6,1.6,0,0,1,.7.15,1.71,1.71,0,0,1,.54.41,1.92,1.92,0,0,1,.35.59,2.06,2.06,0,0,1,.13.71,2.26,2.26,0,0,1-.11.72,1.9,1.9,0,0,1-.33.6,1.55,1.55,0,0,1-.52.41A1.46,1.46,0,0,1,33.4,7a1.49,1.49,0,0,1-.78-0.2l-0.05,0v1.2a0.25,0.25,0,0,1-.25.25h-0.8Zm1.57-3.79-0.16,0-0.15.08a0.76,0.76,0,0,0-.14.13,0.46,0.46,0,0,0-.08.13l0,0.65a1.51,1.51,0,0,0,.24.25,0.51,0.51,0,0,0,.32.12,0.47,0.47,0,0,0,.22-0.05,0.54,0.54,0,0,0,.18-0.15,0.7,0.7,0,0,0,.13-0.23,0.84,0.84,0,0,0,0-.28,0.76,0.76,0,0,0,0-.28,0.67,0.67,0,0,0-.13-0.22,0.62,0.62,0,0,0-.2-0.14A0.57,0.57,0,0,0,33.09,4.39Z" fill="#fff"/><path d="M33.31,3.45a1.35,1.35,0,0,1,.59.13,1.45,1.45,0,0,1,.46.35,1.64,1.64,0,0,1,.31.52,1.79,1.79,0,0,1,.11.63,2,2,0,0,1-.1.64,1.64,1.64,0,0,1-.29.52,1.32,1.32,0,0,1-.44.35,1.22,1.22,0,0,1-.55.13,1.24,1.24,0,0,1-.65-0.17,1.17,1.17,0,0,1-.43-0.45V7.93h-0.8V3.51h0.7V4a1.28,1.28,0,0,1,.45-0.44,1.25,1.25,0,0,1,.64-0.16M33.13,6a0.71,0.71,0,0,0,.33-0.08,0.8,0.8,0,0,0,.26-0.21,1,1,0,0,0,.17-0.31A1.1,1.1,0,0,0,34,5.07a1,1,0,0,0-.07-0.37,0.93,0.93,0,0,0-.18-0.3,0.86,0.86,0,0,0-.28-0.2,0.81,0.81,0,0,0-.34-0.07,0.75,0.75,0,0,0-.23,0,0.8,0.8,0,0,0-.22.11,1,1,0,0,0-.18.17,0.7,0.7,0,0,0-.12.21V5.4a1.07,1.07,0,0,0,.33.45,0.76,0.76,0,0,0,.48.18M33.31,3a1.78,1.78,0,0,0-.77.17A0.5,0.5,0,0,0,32.22,3h-0.7a0.5,0.5,0,0,0-.5.5V7.93a0.5,0.5,0,0,0,.5.5h0.8a0.5,0.5,0,0,0,.5-0.5V7.12a1.85,1.85,0,0,0,.58.09A1.72,1.72,0,0,0,34.18,7a1.82,1.82,0,0,0,.6-0.48,2.14,2.14,0,0,0,.37-0.68,2.51,2.51,0,0,0,.13-0.8,2.3,2.3,0,0,0-.14-0.8,2.15,2.15,0,0,0-.4-0.67,2,2,0,0,0-.62-0.47A1.85,1.85,0,0,0,33.31,3h0ZM32.82,4.78h0l0.09-.08,0.09,0h0.08a0.32,0.32,0,0,1,.14,0,0.36,0.36,0,0,1,.12.08,0.43,0.43,0,0,1,.08.14,0.51,0.51,0,0,1,0,.19,0.6,0.6,0,0,1,0,.2,0.48,0.48,0,0,1-.08.15,0.3,0.3,0,0,1-.1.08l-0.11,0A0.26,0.26,0,0,1,33,5.46a0.57,0.57,0,0,1-.14-0.17V4.78h0Z"/><path d="M37.08,7a2,2,0,0,1-.78-0.15,1.81,1.81,0,0,1-.6-0.41,1.78,1.78,0,0,1-.39-0.6,1.9,1.9,0,0,1-.13-0.71,2,2,0,0,1,.13-0.72,1.8,1.8,0,0,1,.38-0.61,1.83,1.83,0,0,1,.61-0.41,2,2,0,0,1,.79-0.15,2,2,0,0,1,.79.15,1.85,1.85,0,0,1,.6.41,1.76,1.76,0,0,1,.38.6,2,2,0,0,1,.13.7V5.23a0.91,0.91,0,0,1,0,.17,0.25,0.25,0,0,1-.24.19H38.39l0.22,0.06a0.25,0.25,0,0,1,.16.14,0.25,0.25,0,0,1,0,.21,1.64,1.64,0,0,1-.65.7A2,2,0,0,1,37.08,7ZM36.61,5.59a0.55,0.55,0,0,0,.29.25,0.59,0.59,0,0,0,.21,0,0.67,0.67,0,0,0,.33-0.09,0.38,0.38,0,0,0,.18-0.18v0h-1Zm1-1a0.53,0.53,0,0,0-.11-0.13,0.54,0.54,0,0,0-.39-0.15,0.57,0.57,0,0,0-.21,0,0.54,0.54,0,0,0-.17.11,0.55,0.55,0,0,0-.1.13h1Z" fill="#fff"/><path d="M37.09,3.45a1.7,1.7,0,0,1,.69.13,1.59,1.59,0,0,1,.52.35,1.52,1.52,0,0,1,.32.52,1.71,1.71,0,0,1,.11.61c0,0.05,0,.1,0,0.15a0.63,0.63,0,0,1,0,.12H36.28a1,1,0,0,0,.09.33,0.84,0.84,0,0,0,.19.25,0.83,0.83,0,0,0,.26.16,0.84,0.84,0,0,0,.3.05A0.92,0.92,0,0,0,37.56,6a0.62,0.62,0,0,0,.29-0.31l0.69,0.19a1.4,1.4,0,0,1-.56.59,1.72,1.72,0,0,1-.91.23,1.75,1.75,0,0,1-.68-0.13,1.55,1.55,0,0,1-.52-0.35,1.53,1.53,0,0,1-.33-0.52,1.66,1.66,0,0,1-.12-0.62,1.75,1.75,0,0,1,.11-0.63,1.54,1.54,0,0,1,.33-0.52,1.59,1.59,0,0,1,.53-0.36,1.75,1.75,0,0,1,.69-0.13M36.27,4.81H37.9a0.84,0.84,0,0,0-.26-0.57,0.81,0.81,0,0,0-1.29.25,0.86,0.86,0,0,0-.08.32M37.09,3a2.25,2.25,0,0,0-.89.17,2.09,2.09,0,0,0-.69.47,2,2,0,0,0-.44.69,2.25,2.25,0,0,0-.15.81,2.16,2.16,0,0,0,.15.8,2,2,0,0,0,.44.68A2.06,2.06,0,0,0,36.2,7a2.25,2.25,0,0,0,.88.17,2.21,2.21,0,0,0,1.17-.3A1.9,1.9,0,0,0,39,6.11a0.5,0.5,0,0,0,0-.38,0.5,0.5,0,0,0,.17-0.27,1.12,1.12,0,0,0,0-.22c0-.05,0-0.11,0-0.17a2.21,2.21,0,0,0-.14-0.79,2,2,0,0,0-.43-0.68A2.1,2.1,0,0,0,38,3.13,2.21,2.21,0,0,0,37.09,3h0Z"/><path d="M39.52,6.9a0.25,0.25,0,0,1-.25-0.25V3.51a0.25,0.25,0,0,1,.25-0.25h0.74a0.25,0.25,0,0,1,.25.24l0,0a1.39,1.39,0,0,1,.33-0.18,1,1,0,0,1,.35-0.07h0.21a0.25,0.25,0,0,1,.2.25V4.2a0.25,0.25,0,0,1-.25.25,1.37,1.37,0,0,0-.55.12,0.58,0.58,0,0,0-.27.24V6.65a0.25,0.25,0,0,1-.25.25h-0.8Z" fill="#fff"/><path d="M41.33,3.46h0.06V4.2a1.6,1.6,0,0,0-.65.14,0.83,0.83,0,0,0-.41.41v1.9h-0.8V3.51h0.74V4.18a1.44,1.44,0,0,1,.2-0.29,1.52,1.52,0,0,1,.25-0.22A1.14,1.14,0,0,1,41,3.51a0.73,0.73,0,0,1,.26-0.05h0.1m0-.5h-0.1a1.23,1.23,0,0,0-.44.08l-0.2.09A0.5,0.5,0,0,0,40.26,3H39.52a0.5,0.5,0,0,0-.5.5V6.65a0.5,0.5,0,0,0,.5.5h0.8a0.5,0.5,0,0,0,.5-0.5V4.89a0.38,0.38,0,0,1,.13-0.09A1.1,1.1,0,0,1,41.4,4.7a0.5,0.5,0,0,0,.49-0.5V3.47A0.5,0.5,0,0,0,41.48,3H41.33Z"/><path d="M43,7a1.46,1.46,0,0,1-.51-0.09A1.27,1.27,0,0,1,42,6.61a1.24,1.24,0,0,1-.28-0.4,1.2,1.2,0,0,1-.1-0.5,1.13,1.13,0,0,1,.13-0.53,1.2,1.2,0,0,1,.35-0.41,1.66,1.66,0,0,1,.5-0.25,2.14,2.14,0,0,1,.61-0.09,2.58,2.58,0,0,1,.45,0h0a0.29,0.29,0,0,0-.08-0.14,0.51,0.51,0,0,0-.35-0.1,1.17,1.17,0,0,0-.41.07,2,2,0,0,0-.44.24,0.25,0.25,0,0,1-.14,0H42.24a0.25,0.25,0,0,1-.16-0.13L41.83,4a0.25,0.25,0,0,1,.09-0.32,2.58,2.58,0,0,1,1.45-.44,1.78,1.78,0,0,1,1.22.4A1.47,1.47,0,0,1,45,4.75v1a0.21,0.21,0,0,1,.19.24V6.65a0.25,0.25,0,0,1-.2.25,2,2,0,0,1-.4,0,0.78,0.78,0,0,1-.51-0.16A0.67,0.67,0,0,1,44,6.62a1.63,1.63,0,0,1-.27.17A1.7,1.7,0,0,1,43,7Zm0.4-1.56a0.62,0.62,0,0,0-.36.09,0.18,0.18,0,0,0-.09.15A0.18,0.18,0,0,0,43,5.8a0.32,0.32,0,0,0,.22.08,0.82,0.82,0,0,0,.3-0.05,0.46,0.46,0,0,0,.18-0.12l0.07-.07V5.45l-0.11,0Z" fill="#fff"/><path d="M43.36,3.45a1.54,1.54,0,0,1,1.05.33,1.22,1.22,0,0,1,.38,1v1a0.28,0.28,0,0,0,0,.18A0.2,0.2,0,0,0,45,6V6.65a1.76,1.76,0,0,1-.35,0,0.54,0.54,0,0,1-.35-0.1,0.44,0.44,0,0,1-.15-0.27l0-.17a1.38,1.38,0,0,1-.51.42,1.46,1.46,0,0,1-.64.14,1.2,1.2,0,0,1-.43-0.08,1,1,0,0,1-.34-0.21A1,1,0,0,1,42,6.11a0.94,0.94,0,0,1-.08-0.4A0.88,0.88,0,0,1,42,5.3,1,1,0,0,1,42.26,5a1.39,1.39,0,0,1,.42-0.21,1.85,1.85,0,0,1,.54-0.08,2.38,2.38,0,0,1,.41,0,1.69,1.69,0,0,1,.36.1V4.66a0.63,0.63,0,0,0-.18-0.48A0.73,0.73,0,0,0,43.29,4a1.4,1.4,0,0,0-.49.09,2.29,2.29,0,0,0-.49.26l-0.25-.51a2.32,2.32,0,0,1,1.31-.4M43.18,6.12A1.05,1.05,0,0,0,43.57,6a0.7,0.7,0,0,0,.29-0.19A0.29,0.29,0,0,0,44,5.63V5.27l-0.31-.09a1.72,1.72,0,0,0-.32,0,0.85,0.85,0,0,0-.51.14,0.42,0.42,0,0,0-.2.36A0.43,0.43,0,0,0,42.8,6a0.57,0.57,0,0,0,.38.14M43.36,3a2.83,2.83,0,0,0-1.58.49,0.5,0.5,0,0,0-.17.63l0.25,0.51,0,0.06a1.44,1.44,0,0,0-.35.43,1.38,1.38,0,0,0-.16.64,1.44,1.44,0,0,0,.13.6,1.47,1.47,0,0,0,.34.47,1.52,1.52,0,0,0,.51.31,1.71,1.71,0,0,0,.6.11A2,2,0,0,0,43.82,7L43.93,7l0,0a1,1,0,0,0,.67.22,2.26,2.26,0,0,0,.46-0.05,0.5,0.5,0,0,0,.4-0.49V6a0.5,0.5,0,0,0-.19-0.39V4.75a1.71,1.71,0,0,0-.54-1.34A2,2,0,0,0,43.36,3h0Z"/><path d="M46.81,7a1.45,1.45,0,0,1-.38-0.05,1,1,0,0,1-.35-0.19,0.9,0.9,0,0,1-.24-0.33,1.11,1.11,0,0,1-.09-0.46V4.37H45.58a0.25,0.25,0,0,1-.25-0.25V3.51a0.25,0.25,0,0,1,.25-0.25h0.16V2.49A0.25,0.25,0,0,1,46,2.24h0.8a0.25,0.25,0,0,1,.25.25V3.26h0.41a0.25,0.25,0,0,1,.25.25V4.12a0.25,0.25,0,0,1-.25.25H47.05V5.66a0.3,0.3,0,0,0,.14,0h0.07l0.18-.07,0.1,0,0.11,0a0.25,0.25,0,0,1,.13.16l0.16,0.64a0.25,0.25,0,0,1-.14.29,3.64,3.64,0,0,1-.43.16A2,2,0,0,1,46.81,7Z" fill="#fff"/><path d="M46.8,2.49v1h0.66V4.12H46.8V5.66a0.28,0.28,0,0,0,.09.24A0.33,0.33,0,0,0,47.1,6a0.73,0.73,0,0,0,.25,0l0.19-.07L47.7,6.49l-0.4.14a1.67,1.67,0,0,1-.49.07,1.17,1.17,0,0,1-.32,0,0.7,0.7,0,0,1-.26-0.14,0.65,0.65,0,0,1-.18-0.24A0.87,0.87,0,0,1,46,5.93V4.12H45.58V3.51H46v-1h0.8m0-.5H46a0.5,0.5,0,0,0-.5.5V3a0.5,0.5,0,0,0-.41.49V4.12a0.5,0.5,0,0,0,.41.49V5.93a1.37,1.37,0,0,0,.11.56,1.15,1.15,0,0,0,.31.42,1.19,1.19,0,0,0,.44.23,1.69,1.69,0,0,0,.45.06,2.18,2.18,0,0,0,.64-0.09,3.89,3.89,0,0,0,.46-0.17,0.5,0.5,0,0,0,.28-0.58L48,5.73a0.5,0.5,0,0,0-.68-0.34l0,0V4.62h0.16a0.5,0.5,0,0,0,.5-0.5V3.51a0.5,0.5,0,0,0-.5-0.5H47.3V2.49A0.5,0.5,0,0,0,46.8,2h0Z"/><path d="M49.38,7a1.14,1.14,0,0,1-.93-0.41,1.69,1.69,0,0,1-.31-1.08v-2a0.25,0.25,0,0,1,.25-0.25h0.8a0.25,0.25,0,0,1,.25.25V5.3c0,0.48.18,0.48,0.27,0.48A0.58,0.58,0,0,0,50,5.67a0.74,0.74,0,0,0,.24-0.28V3.51a0.25,0.25,0,0,1,.25-0.25h0.8a0.25,0.25,0,0,1,.25.25V5.73a0.21,0.21,0,0,1,.19.24V6.65a0.25,0.25,0,0,1-.2.25l-0.23,0H51.18a0.83,0.83,0,0,1-.5-0.15,0.65,0.65,0,0,1-.18-0.2,1.65,1.65,0,0,1-.28.18A1.89,1.89,0,0,1,49.38,7Z" fill="#fff"/><path d="M51.33,3.51V5.73a0.28,0.28,0,0,0,0,.18,0.2,0.2,0,0,0,.15.06V6.65l-0.2,0H51.18a0.58,0.58,0,0,1-.35-0.1,0.39,0.39,0,0,1-.16-0.27l0-.25a1.34,1.34,0,0,1-.54.49,1.63,1.63,0,0,1-.73.16,0.89,0.89,0,0,1-.74-0.31,1.45,1.45,0,0,1-.25-0.92v-2h0.8V5.3Q49.2,6,49.72,6a0.83,0.83,0,0,0,.45-0.14,1,1,0,0,0,.36-0.43v-2h0.8m0-.5h-0.8a0.5,0.5,0,0,0-.5.5V5.33a0.44,0.44,0,0,1-.13.14,0.34,0.34,0,0,1-.18.06,0.82,0.82,0,0,1,0-.23V3.51A0.5,0.5,0,0,0,49.2,3h-0.8a0.5,0.5,0,0,0-.5.5v2a1.93,1.93,0,0,0,.36,1.24,1.38,1.38,0,0,0,1.13.5A2.13,2.13,0,0,0,50.33,7l0.13-.07L50.53,7a1.07,1.07,0,0,0,.65.2h0.18l0.27,0A0.5,0.5,0,0,0,52,6.65V6a0.5,0.5,0,0,0-.19-0.39V3.51a0.5,0.5,0,0,0-.5-0.5h0Z"/><path d="M52.43,6.9a0.25,0.25,0,0,1-.25-0.25V3.51a0.25,0.25,0,0,1,.25-0.25h0.74a0.25,0.25,0,0,1,.25.24l0,0a1.39,1.39,0,0,1,.32-0.18,1,1,0,0,1,.35-0.07h0.21a0.25,0.25,0,0,1,.2.25V4.2a0.25,0.25,0,0,1-.25.25,1.35,1.35,0,0,0-.55.12,0.58,0.58,0,0,0-.27.24V6.65a0.25,0.25,0,0,1-.25.25h-0.8Z" fill="#fff"/><path d="M54.24,3.46H54.3V4.2a1.6,1.6,0,0,0-.65.14,0.82,0.82,0,0,0-.41.41v1.9h-0.8V3.51h0.74V4.18a1.44,1.44,0,0,1,.2-0.29,1.52,1.52,0,0,1,.25-0.22,1.13,1.13,0,0,1,.27-0.15,0.74,0.74,0,0,1,.26-0.05h0.1m0-.5h-0.1A1.23,1.23,0,0,0,53.7,3l-0.19.09A0.5,0.5,0,0,0,53.17,3H52.43a0.5,0.5,0,0,0-.5.5V6.65a0.5,0.5,0,0,0,.5.5h0.8a0.5,0.5,0,0,0,.5-0.5V4.89a0.37,0.37,0,0,1,.13-0.09,1.11,1.11,0,0,1,.45-0.09,0.5,0.5,0,0,0,.49-0.5V3.47A0.5,0.5,0,0,0,54.4,3L54.24,3h0Z"/><path d="M55.87,7a1.43,1.43,0,0,1-.51-0.09,1.26,1.26,0,0,1-.42-0.26,1.22,1.22,0,0,1-.28-0.39,1.21,1.21,0,0,1-.1-0.5,1.11,1.11,0,0,1,.13-0.53A1.17,1.17,0,0,1,55,4.78a1.64,1.64,0,0,1,.5-0.25,2.13,2.13,0,0,1,.61-0.09,2.58,2.58,0,0,1,.45,0h0a0.3,0.3,0,0,0-.08-0.14,0.51,0.51,0,0,0-.35-0.1,1.17,1.17,0,0,0-.41.07,2,2,0,0,0-.44.24,0.25,0.25,0,0,1-.14,0H55.15A0.25,0.25,0,0,1,55,4.47L54.74,4a0.25,0.25,0,0,1,.09-0.32,2.58,2.58,0,0,1,1.45-.44,1.78,1.78,0,0,1,1.22.4A1.47,1.47,0,0,1,58,4.75v1a0.21,0.21,0,0,1,.19.24V6.65a0.25,0.25,0,0,1-.2.25,2,2,0,0,1-.41,0A0.78,0.78,0,0,1,57,6.78a0.66,0.66,0,0,1-.14-0.16,1.66,1.66,0,0,1-.27.17A1.71,1.71,0,0,1,55.87,7Zm0.4-1.56a0.62,0.62,0,0,0-.37.09,0.17,0.17,0,0,0-.09.15,0.18,0.18,0,0,0,.07.15,0.32,0.32,0,0,0,.22.07,0.82,0.82,0,0,0,.3-0.05,0.46,0.46,0,0,0,.19-0.12l0.07-.07V5.45l-0.11,0Z" fill="#fff"/><path d="M56.28,3.45a1.53,1.53,0,0,1,1.05.33,1.22,1.22,0,0,1,.38,1v1a0.28,0.28,0,0,0,0,.18A0.2,0.2,0,0,0,57.9,6V6.65a1.76,1.76,0,0,1-.35,0,0.54,0.54,0,0,1-.35-0.1A0.44,0.44,0,0,1,57,6.32l0-.17a1.39,1.39,0,0,1-.51.42,1.46,1.46,0,0,1-.64.14,1.19,1.19,0,0,1-.43-0.08,1,1,0,0,1-.34-0.21,1,1,0,0,1-.23-0.32,1,1,0,0,1-.08-0.4,0.87,0.87,0,0,1,.1-0.41A0.93,0.93,0,0,1,55.17,5a1.39,1.39,0,0,1,.42-0.21,1.84,1.84,0,0,1,.54-0.08,2.38,2.38,0,0,1,.41,0,1.7,1.7,0,0,1,.36.1V4.66a0.63,0.63,0,0,0-.18-0.48A0.74,0.74,0,0,0,56.2,4a1.4,1.4,0,0,0-.49.09,2.29,2.29,0,0,0-.49.26L55,3.85a2.32,2.32,0,0,1,1.31-.4M56.1,6.12A1.05,1.05,0,0,0,56.48,6a0.7,0.7,0,0,0,.29-0.19,0.29,0.29,0,0,0,.13-0.23V5.27l-0.31-.09a1.71,1.71,0,0,0-.32,0,0.86,0.86,0,0,0-.51.14,0.42,0.42,0,0,0-.2.36,0.43,0.43,0,0,0,.16.34,0.57,0.57,0,0,0,.38.14M56.28,3a2.82,2.82,0,0,0-1.58.49,0.5,0.5,0,0,0-.17.63l0.25,0.51,0,0.06a1.42,1.42,0,0,0-.35.43,1.36,1.36,0,0,0-.16.64,1.46,1.46,0,0,0,.12.6,1.49,1.49,0,0,0,.34.48,1.52,1.52,0,0,0,.51.31,1.7,1.7,0,0,0,.6.11A2,2,0,0,0,56.73,7L56.85,7l0,0a1,1,0,0,0,.67.22A2.26,2.26,0,0,0,58,7.14a0.5,0.5,0,0,0,.4-0.49V6a0.5,0.5,0,0,0-.19-0.39V4.75a1.71,1.71,0,0,0-.54-1.34A2,2,0,0,0,56.28,3h0Z"/><path d="M64,6.9a0.25,0.25,0,0,1-.25-0.25V4.85L63.17,6a0.25,0.25,0,0,1-.22.13H62.5A0.25,0.25,0,0,1,62.28,6l-0.63-1.2v1.8a0.25,0.25,0,0,1-.25.25H60.57a0.25,0.25,0,0,1-.25-0.25V2.39a0.25,0.25,0,0,1,.25-0.25h0.89a0.25,0.25,0,0,1,.22.13l1,2,1-2A0.25,0.25,0,0,1,64,2.14h0.88a0.25,0.25,0,0,1,.25.25V6.65a0.25,0.25,0,0,1-.25.25H64Z" fill="#fff"/><path d="M64.87,2.39V6.65H64V3.83l-1.1,2.1H62.5l-1.1-2.1V6.65H60.57V2.39h0.89l1.26,2.42L64,2.39h0.88m0-.5H64a0.5,0.5,0,0,0-.44.27L62.72,3.73,61.9,2.16a0.5,0.5,0,0,0-.44-0.27H60.57a0.5,0.5,0,0,0-.5.5V6.65a0.5,0.5,0,0,0,.5.5H61.4a0.5,0.5,0,0,0,.5-0.5V5.87l0.15,0.3a0.5,0.5,0,0,0,.44.27h0.45a0.5,0.5,0,0,0,.44-0.27l0.15-.3V6.65a0.5,0.5,0,0,0,.5.5h0.83a0.5,0.5,0,0,0,.5-0.5V2.39a0.5,0.5,0,0,0-.5-0.5h0Z"/><path d="M67.4,7a2,2,0,0,1-.78-0.15,1.8,1.8,0,0,1-1-1,1.91,1.91,0,0,1-.13-0.71,2,2,0,0,1,.13-0.72A1.79,1.79,0,0,1,66,3.77a1.82,1.82,0,0,1,.61-0.41,2,2,0,0,1,.79-0.15,2,2,0,0,1,.79.15,1.84,1.84,0,0,1,.6.41,1.77,1.77,0,0,1,.38.6,2,2,0,0,1,.13.7V5.23a0.91,0.91,0,0,1,0,.17,0.25,0.25,0,0,1-.24.19H68.71l0.22,0.06a0.25,0.25,0,0,1,.16.14,0.25,0.25,0,0,1,0,.21,1.64,1.64,0,0,1-.65.7A2,2,0,0,1,67.4,7ZM66.93,5.59a0.56,0.56,0,0,0,.11.14,0.56,0.56,0,0,0,.18.11,0.59,0.59,0,0,0,.21,0,0.68,0.68,0,0,0,.33-0.09,0.38,0.38,0,0,0,.18-0.19h-1Zm1-1a0.51,0.51,0,0,0-.1-0.13,0.59,0.59,0,0,0-.6-0.11,0.53,0.53,0,0,0-.17.11,0.58,0.58,0,0,0-.1.13h1Z" fill="#fff"/><path d="M67.41,3.45a1.71,1.71,0,0,1,.69.13,1.59,1.59,0,0,1,.52.35,1.52,1.52,0,0,1,.32.52,1.71,1.71,0,0,1,.11.61c0,0.05,0,.1,0,0.15a0.63,0.63,0,0,1,0,.12H66.6a0.93,0.93,0,0,0,.09.33,0.8,0.8,0,0,0,.44.4,0.84,0.84,0,0,0,.3.05A0.93,0.93,0,0,0,67.88,6a0.63,0.63,0,0,0,.29-0.31l0.69,0.19a1.4,1.4,0,0,1-.55.59,1.72,1.72,0,0,1-.91.23,1.74,1.74,0,0,1-.68-0.13,1.55,1.55,0,0,1-.86-0.87,1.66,1.66,0,0,1-.12-0.62,1.75,1.75,0,0,1,.11-0.63,1.54,1.54,0,0,1,.33-0.52,1.58,1.58,0,0,1,.53-0.36,1.74,1.74,0,0,1,.69-0.13M66.58,4.81h1.63A0.84,0.84,0,0,0,68,4.25a0.84,0.84,0,0,0-.86-0.16,0.77,0.77,0,0,0-.25.16,0.8,0.8,0,0,0-.18.25,0.88,0.88,0,0,0-.08.32M67.41,3a2.24,2.24,0,0,0-.89.17,2.08,2.08,0,0,0-.69.47,2,2,0,0,0-.44.69,2.26,2.26,0,0,0-.15.81,2.16,2.16,0,0,0,.15.8A2,2,0,0,0,66.52,7a2.25,2.25,0,0,0,.88.17,2.22,2.22,0,0,0,1.17-.3,1.89,1.89,0,0,0,.75-0.8,0.5,0.5,0,0,0,0-.38,0.5,0.5,0,0,0,.17-0.27,1.12,1.12,0,0,0,0-.22c0-.05,0-0.11,0-0.17a2.21,2.21,0,0,0-.14-0.79A2,2,0,0,0,69,3.59a2.09,2.09,0,0,0-.68-0.47A2.21,2.21,0,0,0,67.41,3h0Z"/><path d="M71.14,7a1.69,1.69,0,0,1-.7-0.15,1.66,1.66,0,0,1-.56-0.41,1.84,1.84,0,0,1-.36-0.6,2.06,2.06,0,0,1-.13-0.73,2.14,2.14,0,0,1,.12-0.72,1.91,1.91,0,0,1,.33-0.59,1.58,1.58,0,0,1,.53-0.41A1.51,1.51,0,0,1,71,3.2a1.44,1.44,0,0,1,.76.21l0.06,0V2.27A0.25,0.25,0,0,1,72.11,2h0.8a0.25,0.25,0,0,1,.25.25V5.73a0.2,0.2,0,0,1,.19.24V6.65a0.25,0.25,0,0,1-.2.25,2.06,2.06,0,0,1-.39,0,0.81,0.81,0,0,1-.51-0.16,0.66,0.66,0,0,1-.14-0.15,1.39,1.39,0,0,1-.23.15A1.6,1.6,0,0,1,71.14,7ZM71.3,4.39a0.48,0.48,0,0,0-.22.05,0.57,0.57,0,0,0-.18.15,0.81,0.81,0,0,0-.13.23,0.83,0.83,0,0,0,0,.28,0.71,0.71,0,0,0,0,.27,0.7,0.7,0,0,0,.13.22,0.59,0.59,0,0,0,.19.14,0.6,0.6,0,0,0,.25,0l0.16,0a0.56,0.56,0,0,0,.16-0.08,0.77,0.77,0,0,0,.14-0.12,0.5,0.5,0,0,0,.08-0.14l0-.66h0a0.42,0.42,0,0,1-.08-0.09,0.76,0.76,0,0,0-.15-0.14l-0.18-.1A0.4,0.4,0,0,0,71.3,4.39Z" fill="#fff"/><path d="M72.91,2.27V5.73a0.3,0.3,0,0,0,0,.18A0.19,0.19,0,0,0,73.1,6V6.65a1.8,1.8,0,0,1-.34,0,0.56,0.56,0,0,1-.35-0.11,0.4,0.4,0,0,1-.16-0.28l0-.2a1.14,1.14,0,0,1-.47.45,1.35,1.35,0,0,1-.62.15,1.43,1.43,0,0,1-.6-0.13,1.41,1.41,0,0,1-.47-0.35,1.6,1.6,0,0,1-.31-0.52,1.81,1.81,0,0,1-.11-0.64,1.9,1.9,0,0,1,.1-0.64A1.67,1.67,0,0,1,70,3.93a1.34,1.34,0,0,1,.44-0.35A1.27,1.27,0,0,1,71,3.45a1.19,1.19,0,0,1,.63.17,1.21,1.21,0,0,1,.43.44V2.27h0.8M71.35,6a0.74,0.74,0,0,0,.23,0,0.82,0.82,0,0,0,.22-0.11A1,1,0,0,0,72,5.71a0.73,0.73,0,0,0,.12-0.21V4.75A0.9,0.9,0,0,0,72,4.5a1,1,0,0,0-.2-0.19,1.08,1.08,0,0,0-.23-0.13,0.66,0.66,0,0,0-.24,0,0.72,0.72,0,0,0-.33.08,0.79,0.79,0,0,0-.26.21,1,1,0,0,0-.17.31,1.1,1.1,0,0,0-.06.36,1,1,0,0,0,.07.37,1,1,0,0,0,.18.29A0.84,0.84,0,0,0,71,6a0.85,0.85,0,0,0,.35.07m1.57-4.26h-0.8a0.5,0.5,0,0,0-.5.5V3A1.74,1.74,0,0,0,71,3a1.77,1.77,0,0,0-.78.18,1.84,1.84,0,0,0-.61.48,2.18,2.18,0,0,0-.38.67,2.41,2.41,0,0,0-.13.81,2.31,2.31,0,0,0,.14.81,2.11,2.11,0,0,0,.4.68,1.91,1.91,0,0,0,.64.47,1.94,1.94,0,0,0,.81.17A1.85,1.85,0,0,0,72,7l0.08,0,0,0a1.05,1.05,0,0,0,.66.21,2.26,2.26,0,0,0,.44-0.05,0.5,0.5,0,0,0,.4-0.49V6a0.5,0.5,0,0,0-.19-0.39V2.27a0.5,0.5,0,0,0-.5-0.5h0ZM71.35,5.53a0.35,0.35,0,0,1-.15,0,0.33,0.33,0,0,1-.11-0.08A0.46,0.46,0,0,1,71,5.28a0.48,0.48,0,0,1,0-.18,0.6,0.6,0,0,1,0-.2,0.55,0.55,0,0,1,.09-0.16,0.28,0.28,0,0,1,.1-0.08l0.11,0h0.06l0.12,0.07,0.1,0.1,0,0V5.38h0l-0.09.08-0.08,0-0.08,0h0Z"/><path d="M74,6.9a0.25,0.25,0,0,1-.25-0.25V3.51a0.25,0.25,0,0,1,.13-0.22,0.25,0.25,0,0,1-.13-0.22V2.27A0.25,0.25,0,0,1,74,2h0.8a0.25,0.25,0,0,1,.25.25v0.8a0.25,0.25,0,0,1-.13.22,0.25,0.25,0,0,1,.13.22V6.65a0.25,0.25,0,0,1-.25.25H74Z" fill="#fff"/><path d="M74.81,2.27v0.8H74V2.27h0.8m0,1.24V6.65H74V3.51h0.8m0-1.74H74a0.5,0.5,0,0,0-.5.5v0.8a0.5,0.5,0,0,0,.05.22,0.5,0.5,0,0,0-.05.22V6.65a0.5,0.5,0,0,0,.5.5h0.8a0.5,0.5,0,0,0,.5-0.5V3.51a0.5,0.5,0,0,0-.05-0.22,0.5,0.5,0,0,0,.05-0.22V2.27a0.5,0.5,0,0,0-.5-0.5h0Z"/><path d="M76.69,7a1.46,1.46,0,0,1-.51-0.09,1.27,1.27,0,0,1-.42-0.26,1.24,1.24,0,0,1-.28-0.4,1.2,1.2,0,0,1-.1-0.5,1.13,1.13,0,0,1,.13-0.53,1.2,1.2,0,0,1,.35-0.41,1.66,1.66,0,0,1,.5-0.25A2.14,2.14,0,0,1,77,4.45a2.58,2.58,0,0,1,.45,0h0a0.29,0.29,0,0,0-.08-0.14A0.51,0.51,0,0,0,77,4.26a1.17,1.17,0,0,0-.41.07,2,2,0,0,0-.44.24,0.25,0.25,0,0,1-.14,0H76a0.25,0.25,0,0,1-.16-0.13L75.57,4a0.25,0.25,0,0,1,.09-0.32A2.58,2.58,0,0,1,77.1,3.2a1.78,1.78,0,0,1,1.22.4,1.47,1.47,0,0,1,.46,1.15v1A0.21,0.21,0,0,1,79,6V6.65a0.25,0.25,0,0,1-.2.25,2,2,0,0,1-.4,0,0.78,0.78,0,0,1-.51-0.16,0.67,0.67,0,0,1-.14-0.16,1.63,1.63,0,0,1-.27.17A1.7,1.7,0,0,1,76.69,7Zm0.4-1.56a0.62,0.62,0,0,0-.36.09,0.18,0.18,0,0,0-.09.15,0.18,0.18,0,0,0,.07.15,0.32,0.32,0,0,0,.22.08,0.82,0.82,0,0,0,.3-0.05A0.46,0.46,0,0,0,77.4,5.7l0.07-.07V5.45l-0.11,0Z" fill="#fff"/><path d="M77.1,3.45a1.54,1.54,0,0,1,1.05.33,1.22,1.22,0,0,1,.38,1v1a0.28,0.28,0,0,0,0,.18,0.2,0.2,0,0,0,.15.06V6.65a1.76,1.76,0,0,1-.35,0A0.54,0.54,0,0,1,78,6.59a0.44,0.44,0,0,1-.15-0.27l0-.17a1.38,1.38,0,0,1-.51.42,1.46,1.46,0,0,1-.64.14,1.2,1.2,0,0,1-.43-0.08,1,1,0,0,1-.34-0.21,1,1,0,0,1-.22-0.32,0.94,0.94,0,0,1-.08-0.4,0.88,0.88,0,0,1,.1-0.41A1,1,0,0,1,76,5a1.39,1.39,0,0,1,.42-0.21A1.85,1.85,0,0,1,77,4.7a2.38,2.38,0,0,1,.41,0,1.69,1.69,0,0,1,.36.1V4.66a0.63,0.63,0,0,0-.18-0.48A0.73,0.73,0,0,0,77,4a1.4,1.4,0,0,0-.49.09,2.29,2.29,0,0,0-.49.26l-0.25-.51a2.32,2.32,0,0,1,1.31-.4M76.92,6.12A1.05,1.05,0,0,0,77.31,6a0.7,0.7,0,0,0,.29-0.19,0.29,0.29,0,0,0,.13-0.23V5.27l-0.31-.09a1.72,1.72,0,0,0-.32,0,0.85,0.85,0,0,0-.51.14,0.42,0.42,0,0,0-.2.36,0.43,0.43,0,0,0,.16.34,0.57,0.57,0,0,0,.38.14M77.1,3a2.83,2.83,0,0,0-1.58.49,0.5,0.5,0,0,0-.17.63l0.25,0.51,0,0.06a1.44,1.44,0,0,0-.35.43,1.38,1.38,0,0,0-.16.64,1.44,1.44,0,0,0,.13.6,1.47,1.47,0,0,0,.34.47,1.52,1.52,0,0,0,.51.31,1.71,1.71,0,0,0,.6.11A2,2,0,0,0,77.55,7L77.67,7l0,0a1,1,0,0,0,.67.22,2.26,2.26,0,0,0,.46-0.05,0.5,0.5,0,0,0,.4-0.49V6A0.5,0.5,0,0,0,79,5.57V4.75a1.71,1.71,0,0,0-.54-1.34A2,2,0,0,0,77.1,3h0Z"/><path d="M83.92,6.9a0.25,0.25,0,0,1-.23-0.16l-0.33-.9H82.21l-0.33.9a0.25,0.25,0,0,1-.23.16H80.8a0.25,0.25,0,0,1-.23-0.34L82.19,2.3a0.25,0.25,0,0,1,.23-0.16h0.73a0.25,0.25,0,0,1,.23.16L85,6.56a0.25,0.25,0,0,1-.23.34H83.92ZM83,4.76l-0.24-.68-0.25.68H83Z" fill="#fff"/><path d="M83.16,2.39l1.62,4.26H83.92l-0.4-1.06H82L81.65,6.65H80.8l1.63-4.26h0.73M82.18,5h1.2L82.79,3.33,82.18,5m1-3.12H82.42a0.5,0.5,0,0,0-.47.32L80.33,6.47a0.5,0.5,0,0,0,.47.68h0.85a0.5,0.5,0,0,0,.47-0.33l0.27-.73h0.79l0.27,0.74a0.5,0.5,0,0,0,.47.33h0.85a0.5,0.5,0,0,0,.47-0.68L83.62,2.21a0.5,0.5,0,0,0-.47-0.32h0Z"/><path d="M87.58,6.9a0.25,0.25,0,0,1-.25-0.25V4.89a0.68,0.68,0,0,0-.08-0.4,0.18,0.18,0,0,0-.17-0.08l-0.16,0a0.64,0.64,0,0,0-.17.1,0.82,0.82,0,0,0-.15.16,0.59,0.59,0,0,0-.09.18V6.65a0.25,0.25,0,0,1-.25.25h-0.8a0.25,0.25,0,0,1-.25-0.25V3.51a0.25,0.25,0,0,1,.25-0.25h0.73a0.25,0.25,0,0,1,.25.22l0.14-.08a1.87,1.87,0,0,1,.86-0.2,1.19,1.19,0,0,1,.61.14,1,1,0,0,1,.38.37,1.42,1.42,0,0,1,.17.48,2.89,2.89,0,0,1,0,.49v2a0.25,0.25,0,0,1-.25.25h-0.8Z" fill="#fff"/><path d="M87.44,3.45a0.94,0.94,0,0,1,.48.11,0.78,0.78,0,0,1,.29.28,1.18,1.18,0,0,1,.14.4,2.67,2.67,0,0,1,0,.45v2h-0.8V4.89a0.92,0.92,0,0,0-.13-0.55,0.43,0.43,0,0,0-.37-0.17,0.68,0.68,0,0,0-.25,0,0.88,0.88,0,0,0-.24.13,1.07,1.07,0,0,0-.2.21,0.82,0.82,0,0,0-.13.26V6.65h-0.8V3.51h0.73V4.09a1.19,1.19,0,0,1,.5-0.47,1.61,1.61,0,0,1,.74-0.17m0-.5a2.13,2.13,0,0,0-.9.19A0.5,0.5,0,0,0,86.19,3H85.47a0.5,0.5,0,0,0-.5.5V6.65a0.5,0.5,0,0,0,.5.5h0.8a0.5,0.5,0,0,0,.5-0.5V4.9l0-.05,0.11-.11L87,4.68l0.06,0s0,0.09,0,.23V6.65a0.5,0.5,0,0,0,.5.5h0.8a0.5,0.5,0,0,0,.5-0.5v-2a3.18,3.18,0,0,0,0-.53,1.69,1.69,0,0,0-.2-0.56,1.27,1.27,0,0,0-.47-0.46A1.44,1.44,0,0,0,87.44,3h0Z"/><path d="M90.35,7a1.14,1.14,0,0,1-.93-0.41,1.69,1.69,0,0,1-.31-1.08v-2a0.25,0.25,0,0,1,.25-0.25h0.8a0.25,0.25,0,0,1,.25.25V5.3c0,0.48.18,0.48,0.27,0.48A0.58,0.58,0,0,0,91,5.67a0.74,0.74,0,0,0,.24-0.28V3.51a0.25,0.25,0,0,1,.25-0.25h0.8a0.25,0.25,0,0,1,.25.25V5.73a0.21,0.21,0,0,1,.19.24V6.65a0.25,0.25,0,0,1-.2.25l-0.23,0H92.14a0.83,0.83,0,0,1-.5-0.15,0.65,0.65,0,0,1-.18-0.2,1.65,1.65,0,0,1-.28.18A1.89,1.89,0,0,1,90.35,7Z" fill="#fff"/><path d="M92.3,3.51V5.73a0.27,0.27,0,0,0,0,.18,0.19,0.19,0,0,0,.15.06V6.65l-0.2,0H92.14a0.58,0.58,0,0,1-.35-0.1,0.39,0.39,0,0,1-.16-0.27l0-.25a1.34,1.34,0,0,1-.54.49,1.63,1.63,0,0,1-.73.16,0.89,0.89,0,0,1-.74-0.31,1.45,1.45,0,0,1-.25-0.92v-2h0.8V5.3q0,0.73.52,0.73a0.83,0.83,0,0,0,.45-0.14,1,1,0,0,0,.36-0.43v-2h0.8m0-.5H91.5a0.5,0.5,0,0,0-.5.5V5.33a0.44,0.44,0,0,1-.13.14,0.34,0.34,0,0,1-.18.06,0.82,0.82,0,0,1,0-.23V3.51a0.5,0.5,0,0,0-.5-0.5h-0.8a0.5,0.5,0,0,0-.5.5v2a1.93,1.93,0,0,0,.36,1.24,1.38,1.38,0,0,0,1.13.5A2.13,2.13,0,0,0,91.29,7l0.13-.07L91.49,7a1.07,1.07,0,0,0,.65.2h0.18l0.27,0A0.5,0.5,0,0,0,93,6.65V6a0.5,0.5,0,0,0-.19-0.39V3.51A0.5,0.5,0,0,0,92.3,3h0Z"/><path d="M94.25,7a1.43,1.43,0,0,1-.51-0.09,1.26,1.26,0,0,1-.42-0.26A1.24,1.24,0,0,1,93,6.21a1.2,1.2,0,0,1-.1-0.5,1.11,1.11,0,0,1,.13-0.53,1.2,1.2,0,0,1,.35-0.41,1.63,1.63,0,0,1,.5-0.25,2.14,2.14,0,0,1,.61-0.09,2.6,2.6,0,0,1,.45,0h0a0.29,0.29,0,0,0-.08-0.14,0.51,0.51,0,0,0-.35-0.1,1.17,1.17,0,0,0-.41.07,2,2,0,0,0-.44.24,0.25,0.25,0,0,1-.14,0H93.54a0.25,0.25,0,0,1-.16-0.13L93.13,4a0.25,0.25,0,0,1,.09-0.32,2.58,2.58,0,0,1,1.45-.44,1.78,1.78,0,0,1,1.22.4,1.47,1.47,0,0,1,.46,1.15v1a0.21,0.21,0,0,1,.19.24V6.65a0.25,0.25,0,0,1-.2.25,2,2,0,0,1-.4,0,0.78,0.78,0,0,1-.51-0.16,0.67,0.67,0,0,1-.14-0.16,1.63,1.63,0,0,1-.27.17A1.7,1.7,0,0,1,94.25,7Zm0.4-1.56a0.62,0.62,0,0,0-.36.09,0.17,0.17,0,0,0-.09.15,0.18,0.18,0,0,0,.07.15,0.32,0.32,0,0,0,.22.08,0.82,0.82,0,0,0,.3-0.05A0.46,0.46,0,0,0,95,5.69L95,5.62V5.45l-0.11,0Z" fill="#fff"/><path d="M94.66,3.45a1.53,1.53,0,0,1,1.05.33,1.22,1.22,0,0,1,.38,1v1a0.28,0.28,0,0,0,0,.18,0.19,0.19,0,0,0,.15.06V6.65a1.76,1.76,0,0,1-.35,0,0.54,0.54,0,0,1-.35-0.1,0.44,0.44,0,0,1-.15-0.27l0-.17a1.38,1.38,0,0,1-.51.42,1.46,1.46,0,0,1-.64.14,1.2,1.2,0,0,1-.43-0.08,1,1,0,0,1-.34-0.21,1,1,0,0,1-.22-0.32,0.94,0.94,0,0,1-.08-0.4,0.87,0.87,0,0,1,.1-0.41A1,1,0,0,1,93.56,5,1.38,1.38,0,0,1,94,4.77a1.85,1.85,0,0,1,.54-0.08,2.39,2.39,0,0,1,.41,0,1.69,1.69,0,0,1,.36.1V4.66a0.63,0.63,0,0,0-.18-0.48A0.74,0.74,0,0,0,94.58,4a1.4,1.4,0,0,0-.49.09,2.31,2.31,0,0,0-.49.26l-0.25-.51a2.32,2.32,0,0,1,1.31-.4M94.48,6.12A1.05,1.05,0,0,0,94.87,6a0.7,0.7,0,0,0,.29-0.19,0.29,0.29,0,0,0,.13-0.23V5.27L95,5.18a1.73,1.73,0,0,0-.32,0,0.85,0.85,0,0,0-.51.14,0.42,0.42,0,0,0-.2.36A0.43,0.43,0,0,0,94.1,6a0.57,0.57,0,0,0,.38.14M94.66,3a2.82,2.82,0,0,0-1.58.49,0.5,0.5,0,0,0-.17.63l0.25,0.51,0,0.06a1.44,1.44,0,0,0-.35.43,1.37,1.37,0,0,0-.16.64,1.44,1.44,0,0,0,.13.6,1.47,1.47,0,0,0,.34.47,1.52,1.52,0,0,0,.51.31,1.7,1.7,0,0,0,.6.11A2,2,0,0,0,95.11,7L95.23,7l0,0a1,1,0,0,0,.67.22,2.26,2.26,0,0,0,.46-0.05,0.5,0.5,0,0,0,.4-0.49V6a0.5,0.5,0,0,0-.19-0.39V4.75A1.71,1.71,0,0,0,96,3.41,2,2,0,0,0,94.66,3h0Z"/><path d="M97.93,6.95a1,1,0,0,1-.76-0.27,1,1,0,0,1-.28-0.75V2.27A0.25,0.25,0,0,1,97.13,2h0.8a0.25,0.25,0,0,1,.25.25V5.64a0.19,0.19,0,0,0,0,.11h0.14l0.13,0,0.1,0a0.24,0.24,0,0,1,.12,0,0.25,0.25,0,0,1,.13.18l0.11,0.61a0.25,0.25,0,0,1-.14.27,1.75,1.75,0,0,1-.44.14A2.23,2.23,0,0,1,97.93,6.95Z" fill="#fff"/><path d="M97.94,2.27V5.64a0.4,0.4,0,0,0,.08.27,0.3,0.3,0,0,0,.24.1l0.16,0,0.16-.06,0.11,0.61a1.55,1.55,0,0,1-.38.12,2,2,0,0,1-.39,0,0.81,0.81,0,0,1-.58-0.2,0.76,0.76,0,0,1-.21-0.57V2.27h0.8m0-.5h-0.8a0.5,0.5,0,0,0-.5.5V5.92a1.24,1.24,0,0,0,.36.93,1.29,1.29,0,0,0,.93.34,2.53,2.53,0,0,0,.49-0.05A2,2,0,0,0,98.91,7a0.5,0.5,0,0,0,.28-0.54l-0.11-.61a0.5,0.5,0,0,0-.49-0.41l-0.15,0V2.27a0.5,0.5,0,0,0-.5-0.5h0Z"/><path d="M101.38,3.79a0.83,0.83,0,0,1-.62-0.25,0.88,0.88,0,0,1-.24-0.63,0.82,0.82,0,0,1,.24-0.6,0.84,0.84,0,0,1,.62-0.24,0.85,0.85,0,0,1,.62.24,0.82,0.82,0,0,1,.25.6,0.86,0.86,0,0,1-.25.64A0.84,0.84,0,0,1,101.38,3.79Z" fill="#fff"/><path d="M101.38,2.31a0.61,0.61,0,0,1,.44.17,0.57,0.57,0,0,1,.17.42,0.62,0.62,0,0,1-.17.46,0.6,0.6,0,0,1-.44.17,0.59,0.59,0,0,1-.44-0.18,0.63,0.63,0,0,1-.17-0.46,0.57,0.57,0,0,1,.17-0.42,0.6,0.6,0,0,1,.44-0.17m0,0.84a0.2,0.2,0,0,0,.16-0.07,0.2,0.2,0,0,0,.06-0.15,0.25,0.25,0,0,0-.06-0.16l-0.07,0-0.09,0a0.22,0.22,0,0,0-.22.23,0.2,0.2,0,0,0,.06.15,0.25,0.25,0,0,0,.16.07m0-1.34a1.1,1.1,0,0,0-.79.32,1.07,1.07,0,0,0-.32.78,1.13,1.13,0,0,0,.31.81,1.09,1.09,0,0,0,.8.33,1.1,1.1,0,0,0,.8-0.32,1.12,1.12,0,0,0,.32-0.82,1.07,1.07,0,0,0-.32-0.78,1.11,1.11,0,0,0-.79-0.31h0Z"/><path d="M104.79,6.94a2.06,2.06,0,0,1-.95-0.22,2.48,2.48,0,0,1-.73-0.56,2.59,2.59,0,0,1-.47-0.78,2.42,2.42,0,0,1,0-1.75,2.32,2.32,0,0,1,1.2-1.31,2.3,2.3,0,0,1,1-.21,2.18,2.18,0,0,1,1.15.29,1.9,1.9,0,0,1,.73.77,0.25,0.25,0,0,1-.08.32L106,3.94a0.25,0.25,0,0,1-.14,0h-0.07a0.25,0.25,0,0,1-.16-0.14,0.84,0.84,0,0,0-.16-0.23,0.8,0.8,0,0,0-.19-0.15A0.9,0.9,0,0,0,105,3.37l-0.24,0a0.87,0.87,0,0,0-.42.1,0.94,0.94,0,0,0-.3.26,1.22,1.22,0,0,0-.19.38,1.47,1.47,0,0,0-.07.43,1.36,1.36,0,0,0,.08.46,1.19,1.19,0,0,0,.21.38,1.06,1.06,0,0,0,.32.26,0.83,0.83,0,0,0,.39.09l0.25,0a0.91,0.91,0,0,0,.23-0.09,0.86,0.86,0,0,0,.2-0.16,0.67,0.67,0,0,0,.14-0.22,0.25,0.25,0,0,1,.15-0.14h0.08a0.25,0.25,0,0,1,.13,0l0.68,0.39a0.25,0.25,0,0,1,.1.31,1.54,1.54,0,0,1-.35.51,2.14,2.14,0,0,1-.48.35,2.48,2.48,0,0,1-.56.21A2.51,2.51,0,0,1,104.79,6.94Z" fill="#fff"/><path d="M104.83,2.36a1.94,1.94,0,0,1,1,.26,1.65,1.65,0,0,1,.64.67l-0.64.44a1.08,1.08,0,0,0-.2-0.3,1,1,0,0,0-.26-0.2,1.13,1.13,0,0,0-.29-0.1,1.33,1.33,0,0,0-.29,0,1.12,1.12,0,0,0-.54.13,1.2,1.2,0,0,0-.38.33,1.47,1.47,0,0,0-.23.46,1.73,1.73,0,0,0-.08.51,1.64,1.64,0,0,0,.09.54,1.43,1.43,0,0,0,.25.46,1.29,1.29,0,0,0,.4.32,1.08,1.08,0,0,0,.51.12,1.37,1.37,0,0,0,.3,0,1.17,1.17,0,0,0,.3-0.11,1.12,1.12,0,0,0,.26-0.2,0.92,0.92,0,0,0,.19-0.3l0.68,0.39a1.29,1.29,0,0,1-.29.42,1.89,1.89,0,0,1-.43.31,2.18,2.18,0,0,1-.51.19,2.23,2.23,0,0,1-.53.07A1.82,1.82,0,0,1,104,6.49a2.2,2.2,0,0,1-.65-0.5,2.33,2.33,0,0,1-.43-0.7,2.17,2.17,0,0,1,0-1.57,2.07,2.07,0,0,1,1.07-1.17,2,2,0,0,1,.89-0.19m0-.5a2.54,2.54,0,0,0-1.1.24,2.57,2.57,0,0,0-1.32,1.45,2.67,2.67,0,0,0,0,1.93,2.84,2.84,0,0,0,.52.85,2.71,2.71,0,0,0,.8.62,2.32,2.32,0,0,0,1.06.25,2.74,2.74,0,0,0,.65-0.08,2.69,2.69,0,0,0,.62-0.24,2.4,2.4,0,0,0,.54-0.39,1.79,1.79,0,0,0,.4-0.59,0.5,0.5,0,0,0-.21-0.63l-0.68-.39a0.5,0.5,0,0,0-.25-0.07l-0.16,0a0.5,0.5,0,0,0-.3.28,0.42,0.42,0,0,1-.09.14,0.63,0.63,0,0,1-.14.11L105,5.43l-0.18,0a0.59,0.59,0,0,1-.28-0.06,0.79,0.79,0,0,1-.24-0.2,0.94,0.94,0,0,1-.17-0.3,1.14,1.14,0,0,1-.06-0.38,1.24,1.24,0,0,1,.06-0.36,1,1,0,0,1,.15-0.3,0.7,0.7,0,0,1,.23-0.19,0.63,0.63,0,0,1,.3-0.06l0.18,0,0.17,0.06a0.53,0.53,0,0,1,.13.1,0.59,0.59,0,0,1,.11.16,0.5,0.5,0,0,0,.32.27l0.13,0a0.5,0.5,0,0,0,.28-0.09l0.64-.44a0.5,0.5,0,0,0,.16-0.64,2.15,2.15,0,0,0-.83-0.87,2.44,2.44,0,0,0-1.27-.33h0Z"/><path d="M4.57,48.56a0.25,0.25,0,0,1-.13,0L1.91,47a0.25,0.25,0,0,1-.12-0.21V46.42a0.25,0.25,0,0,1,.12-0.21l2.53-1.53a0.24,0.24,0,0,1,.13,0,0.25,0.25,0,0,1,.25.25v0.85a0.25,0.25,0,0,1-.12.21l-1,.63,1,0.61a0.25,0.25,0,0,1,.12.21v0.9A0.25,0.25,0,0,1,4.57,48.56Z" fill="#fff"/><path d="M4.57,44.89v0.85l-1.36.85,1.36,0.82v0.9L2,46.81V46.42l2.53-1.53m0-.5a0.5,0.5,0,0,0-.26.07L1.78,46a0.5,0.5,0,0,0-.24.43v0.39a0.5,0.5,0,0,0,.25.43l2.53,1.5a0.5,0.5,0,0,0,.75-0.43v-0.9A0.5,0.5,0,0,0,4.83,47l-0.66-.4,0.67-.42a0.5,0.5,0,0,0,.23-0.42V44.89a0.5,0.5,0,0,0-.5-0.5h0Z"/><path d="M5.62,48.4a0.25,0.25,0,0,1-.25-0.25V47.42a0.25,0.25,0,0,1,.25-0.25h0.6V46.08l-0.07,0-0.32.12a1.24,1.24,0,0,1-.33.05A0.25,0.25,0,0,1,5.25,46V45.29A0.25,0.25,0,0,1,5.5,45a0.44,0.44,0,0,0,.16,0l0.27-.15,0.24-.17,0.08-.08a0.29,0.29,0,0,1,.21-0.12H7.3a0.25,0.25,0,0,1,.25.25v2.45H8.06a0.25,0.25,0,0,1,.25.25v0.73a0.25,0.25,0,0,1-.25.25H5.62Z" fill="#fff"/><path d="M7.3,44.72v2.7H8.06v0.73H5.62V47.42H6.47V45.61a0.66,0.66,0,0,1-.17.15L6,45.89,5.76,46a1,1,0,0,1-.26,0V45.29a0.68,0.68,0,0,0,.26-0.07,2.17,2.17,0,0,0,.31-0.17l0.26-.19a0.67,0.67,0,0,0,.14-0.15H7.3m0-.5H6.47a0.5,0.5,0,0,0-.43.25H6l0,0-0.21.15-0.24.13-0.08,0a0.49,0.49,0,0,0-.48.5V46a0.5,0.5,0,0,0,.5.5,1.48,1.48,0,0,0,.4-0.06l0.08,0v0.46H5.62a0.5,0.5,0,0,0-.5.5v0.73a0.5,0.5,0,0,0,.5.5H8.06a0.5,0.5,0,0,0,.5-0.5V47.42a0.5,0.5,0,0,0-.5-0.5H7.8v-2.2a0.5,0.5,0,0,0-.5-0.5h0Z"/><path d="M10.07,49.29a2,2,0,0,1-1-.23,1.62,1.62,0,0,1-.66-0.64,0.25,0.25,0,0,1,0-.3L9,47.65a0.25,0.25,0,0,1,.18-0.08h0a0.25,0.25,0,0,1,.18.1,1,1,0,0,0,.34.3,0.81,0.81,0,0,0,.4.11A0.5,0.5,0,0,0,10.44,48a0.5,0.5,0,0,0,0-.66,0.43,0.43,0,0,0-.32-0.12,0.54,0.54,0,0,0-.25.06,0.45,0.45,0,0,0-.18.16,0.25,0.25,0,0,1-.21.11H8.78a0.25,0.25,0,0,1-.25-0.25,0.86,0.86,0,0,1,0-.19L9,44.68a0.25,0.25,0,0,1,.25-0.2h2.1a0.25,0.25,0,0,1,.25.25v0.73a0.25,0.25,0,0,1-.25.25H10.07L10,46l0.23,0a1.79,1.79,0,0,1,.65.12,1.51,1.51,0,0,1,.88.85,1.78,1.78,0,0,1,0,1.34,1.59,1.59,0,0,1-.39.54,1.76,1.76,0,0,1-.58.34A2.06,2.06,0,0,1,10.07,49.29Z" fill="#fff"/><path d="M11.38,44.72v0.73H9.86l-0.17,1a0.52,0.52,0,0,1,.21-0.13,1.1,1.1,0,0,1,.35,0,1.54,1.54,0,0,1,.56.1,1.26,1.26,0,0,1,.74.71,1.53,1.53,0,0,1,0,1.15,1.32,1.32,0,0,1-.33.45,1.5,1.5,0,0,1-.5.29,1.79,1.79,0,0,1-.62.11,1.75,1.75,0,0,1-.84-0.2,1.37,1.37,0,0,1-.56-0.54l0.46-.48a1.24,1.24,0,0,0,.42.37,1.06,1.06,0,0,0,.52.14,0.75,0.75,0,0,0,.53-0.2,0.7,0.7,0,0,0-.48-1.21,0.79,0.79,0,0,0-.37.09,0.71,0.71,0,0,0-.27.25H8.78a1.2,1.2,0,0,1,0-.13l0.06-.3,0.08-.41L9,46l0.24-1.24h2.1m0-.5H9.28a0.5,0.5,0,0,0-.49.41l-0.18.92-0.06.32-0.07.38,0,0.08-0.08.4,0,0.18,0,0.12a1.05,1.05,0,0,0,0,.23,0.5,0.5,0,0,0,.27.45L8.32,48a0.5,0.5,0,0,0-.08.59,1.86,1.86,0,0,0,.76.74,2.25,2.25,0,0,0,1.07.26,2.3,2.3,0,0,0,.8-0.14A2,2,0,0,0,11.53,49,1.82,1.82,0,0,0,12,48.39a2,2,0,0,0,0-1.54,1.75,1.75,0,0,0-.82-0.9h0.2a0.5,0.5,0,0,0,.5-0.5V44.72a0.5,0.5,0,0,0-.5-0.5h0ZM9.72,47.71a0.5,0.5,0,0,0,.19-0.17A0.21,0.21,0,0,1,10,47.46a0.29,0.29,0,0,1,.14,0,0.18,0.18,0,0,1,.14,0,0.26,0.26,0,0,1,0,.3,0.25,0.25,0,0,1-.19.06,0.57,0.57,0,0,1-.28-0.08l-0.08-.05h0Z"/><path d="M113.88,48.56a0.25,0.25,0,0,1-.13,0L111.22,47a0.25,0.25,0,0,1-.12-0.21V46.42a0.25,0.25,0,0,1,.12-0.21l2.53-1.53a0.24,0.24,0,0,1,.13,0,0.25,0.25,0,0,1,.25.25v0.85A0.25,0.25,0,0,1,114,46l-1,.63,1,0.61a0.25,0.25,0,0,1,.12.21v0.9A0.25,0.25,0,0,1,113.88,48.56Z" fill="#fff"/><path d="M113.88,44.89v0.85l-1.36.85,1.36,0.82v0.9l-2.53-1.5V46.42l2.53-1.53m0-.5a0.5,0.5,0,0,0-.26.07L111.09,46a0.5,0.5,0,0,0-.24.43v0.39a0.5,0.5,0,0,0,.25.43l2.53,1.5a0.5,0.5,0,0,0,.75-0.43v-0.9a0.5,0.5,0,0,0-.24-0.43l-0.66-.4,0.67-.42a0.5,0.5,0,0,0,.23-0.42V44.89a0.5,0.5,0,0,0-.5-0.5h0Z"/><path d="M114.77,48.4a0.25,0.25,0,0,1-.25-0.25,3,3,0,0,1,0-.53,1.59,1.59,0,0,1,.18-0.48,1.61,1.61,0,0,1,.34-0.41,2.78,2.78,0,0,1,.51-0.35l0.44-.23,0.29-.17a0.53,0.53,0,0,0,.13-0.11,0.15,0.15,0,0,0,0-.17,0.37,0.37,0,0,0-.25-0.07,0.62,0.62,0,0,0-.19,0l-0.17.08-0.16.12-0.13.14a0.25,0.25,0,0,1-.19.09h0a0.25,0.25,0,0,1-.19-0.09l-0.52-.59a0.25,0.25,0,0,1,0-.33,1.48,1.48,0,0,1,.26-0.22,2.38,2.38,0,0,1,.38-0.21,2.8,2.8,0,0,1,.48-0.16,2.43,2.43,0,0,1,.57-0.06,2.06,2.06,0,0,1,.62.09,1.48,1.48,0,0,1,.49.25,1.17,1.17,0,0,1,.32.42,1.23,1.23,0,0,1,.11.51,1.1,1.1,0,0,1-.1.48,1.36,1.36,0,0,1-.24.35,1.78,1.78,0,0,1-.3.25l-0.29.18-0.24.14-0.15.09h1.15a0.25,0.25,0,0,1,.25.25v0.73a0.25,0.25,0,0,1-.25.25h-2.89Z" fill="#fff"/><path d="M116.31,44.66a1.84,1.84,0,0,1,.55.07,1.21,1.21,0,0,1,.41.21,0.9,0.9,0,0,1,.25.32,1,1,0,0,1,.09.41,0.85,0.85,0,0,1-.08.37,1.1,1.1,0,0,1-.2.29,1.49,1.49,0,0,1-.26.22l-0.27.17-0.25.14-0.27.17-0.25.19a0.89,0.89,0,0,0-.17.2h1.82v0.73h-2.89a2.65,2.65,0,0,1,0-.49,1.32,1.32,0,0,1,.15-0.41,1.36,1.36,0,0,1,.29-0.35,2.59,2.59,0,0,1,.46-0.32l0.43-.23,0.32-.18a0.78,0.78,0,0,0,.19-0.17,0.33,0.33,0,0,0,.07-0.2,0.4,0.4,0,0,0-.14-0.31,0.6,0.6,0,0,0-.41-0.13,0.87,0.87,0,0,0-.26,0,1,1,0,0,0-.22.11l-0.19.15-0.16.17-0.52-.59a1.34,1.34,0,0,1,.22-0.18,2.15,2.15,0,0,1,.34-0.19,2.51,2.51,0,0,1,.43-0.14,2.16,2.16,0,0,1,.51-0.06m0-.5a2.67,2.67,0,0,0-.62.07,3,3,0,0,0-.52.17,2.64,2.64,0,0,0-.42.23,1.8,1.8,0,0,0-.3.25,0.5,0.5,0,0,0,0,.67l0.52,0.59a0.5,0.5,0,0,0,.26.16,2.7,2.7,0,0,0-.29.22,1.86,1.86,0,0,0-.39.48,1.83,1.83,0,0,0-.2.55,3.17,3.17,0,0,0-.05.58,0.5,0.5,0,0,0,.5.5h2.89a0.5,0.5,0,0,0,.5-0.5V47.42a0.5,0.5,0,0,0-.5-0.5h-0.25a2,2,0,0,0,.27-0.24,1.61,1.61,0,0,0,.29-0.42,1.35,1.35,0,0,0,.13-0.59,1.48,1.48,0,0,0-.13-0.62,1.4,1.4,0,0,0-.39-0.5,1.72,1.72,0,0,0-.57-0.3,2.35,2.35,0,0,0-.7-0.1h0Z"/><path d="M120,48.45a2,2,0,0,1-.68-0.11,1.74,1.74,0,0,1-.57-0.33,1.55,1.55,0,0,1-.39-0.51,1.46,1.46,0,0,1-.15-0.65,1.15,1.15,0,0,1,.08-0.42,1.36,1.36,0,0,1,.19-0.34,1.64,1.64,0,0,1,.22-0.23l-0.15-.17a1,1,0,0,1-.2-0.62,1.24,1.24,0,0,1,.16-0.63,1.5,1.5,0,0,1,.4-0.44,1.85,1.85,0,0,1,.53-0.26,1.91,1.91,0,0,1,.57-0.09,2,2,0,0,1,.57.08,1.71,1.71,0,0,1,.54.26,1.52,1.52,0,0,1,.4.44,1.22,1.22,0,0,1,.17.64,1,1,0,0,1-.06.33,1.12,1.12,0,0,1-.15.29,1.27,1.27,0,0,1-.16.18,1.53,1.53,0,0,1,.23.25,1.38,1.38,0,0,1,.19.35,1.26,1.26,0,0,1,.07.43,1.42,1.42,0,0,1-.15.65,1.54,1.54,0,0,1-.4.49,1.74,1.74,0,0,1-.58.31A2.13,2.13,0,0,1,120,48.45Zm0-2a0.61,0.61,0,0,0-.2,0,0.44,0.44,0,0,0-.15.08,0.39,0.39,0,0,0-.1.13,0.31,0.31,0,0,0,0,.15,0.3,0.3,0,0,0,0,.14,0.43,0.43,0,0,0,.1.13,0.5,0.5,0,0,0,.16.09,0.56,0.56,0,0,0,.19,0,0.55,0.55,0,0,0,.19,0,0.54,0.54,0,0,0,.16-0.09,0.39,0.39,0,0,0,.1-0.12,0.3,0.3,0,0,0,0-.14,0.32,0.32,0,0,0,0-.15,0.35,0.35,0,0,0-.1-0.12,0.51,0.51,0,0,0-.16-0.08A0.64,0.64,0,0,0,120,46.46Zm0-1.6a0.42,0.42,0,0,0-.27.08,0.18,0.18,0,0,0-.08.16,0.28,0.28,0,0,0,.09.17l0.12,0.06,0.14,0,0.13,0,0.12-.06a0.27,0.27,0,0,0,.08-0.08,0.22,0.22,0,0,0-.06-0.25A0.45,0.45,0,0,0,120,44.85Z" fill="#fff"/><path d="M120,43.89a1.76,1.76,0,0,1,.5.08,1.47,1.47,0,0,1,.46.22,1.28,1.28,0,0,1,.34.37,1,1,0,0,1,.13.51,0.76,0.76,0,0,1,0,.25,0.87,0.87,0,0,1-.12.23,1,1,0,0,1-.18.19,1,1,0,0,1-.22.14,1.36,1.36,0,0,1,.25.16,1.3,1.3,0,0,1,.22.23,1.1,1.1,0,0,1,.15.29,1,1,0,0,1,.06.34,1.17,1.17,0,0,1-.12.54,1.28,1.28,0,0,1-.34.41,1.51,1.51,0,0,1-.5.27,1.89,1.89,0,0,1-.6.09,1.78,1.78,0,0,1-.6-0.1,1.5,1.5,0,0,1-.49-0.28,1.3,1.3,0,0,1-.33-0.43,1.21,1.21,0,0,1-.12-0.54,0.91,0.91,0,0,1,.06-0.33,1.14,1.14,0,0,1,.16-0.28,1.4,1.4,0,0,1,.21-0.22,1.3,1.3,0,0,1,.24-0.16,1,1,0,0,1-.38-0.32,0.79,0.79,0,0,1-.16-0.47,1,1,0,0,1,.13-0.51,1.22,1.22,0,0,1,.34-0.37,1.58,1.58,0,0,1,.46-0.23,1.66,1.66,0,0,1,.5-0.08m0,1.71a0.7,0.7,0,0,0,.21,0,0.6,0.6,0,0,0,.2-0.1,0.54,0.54,0,0,0,.14-0.16,0.43,0.43,0,0,0,.05-0.22,0.42,0.42,0,0,0-.18-0.35A0.7,0.7,0,0,0,120,44.6a0.67,0.67,0,0,0-.42.13,0.43,0.43,0,0,0-.17.36,0.42,0.42,0,0,0,.05.22,0.49,0.49,0,0,0,.14.16,0.64,0.64,0,0,0,.19.1,0.7,0.7,0,0,0,.21,0m0,1.88a0.8,0.8,0,0,0,.51-0.18,0.63,0.63,0,0,0,.16-0.2,0.55,0.55,0,0,0,.06-0.25,0.58,0.58,0,0,0-.06-0.27,0.6,0.6,0,0,0-.17-0.2,0.73,0.73,0,0,0-.24-0.12,0.88,0.88,0,0,0-.27,0,0.85,0.85,0,0,0-.28,0,0.68,0.68,0,0,0-.23.13,0.64,0.64,0,0,0-.16.2,0.56,0.56,0,0,0-.06.26,0.54,0.54,0,0,0,.06.26,0.66,0.66,0,0,0,.17.2,0.76,0.76,0,0,0,.23.13,0.82,0.82,0,0,0,.27,0m0-4.09a2.16,2.16,0,0,0-.64.1,2.09,2.09,0,0,0-.6.3,1.73,1.73,0,0,0-.47.52,1.48,1.48,0,0,0-.2.76,1.29,1.29,0,0,0,.25.77h0l-0.07.09a1.65,1.65,0,0,0-.23.4,1.41,1.41,0,0,0-.09.51,1.72,1.72,0,0,0,.17.76,1.8,1.8,0,0,0,.46.59,2,2,0,0,0,.65.37,2.29,2.29,0,0,0,.76.13,2.39,2.39,0,0,0,.76-0.12,2,2,0,0,0,.65-0.35,1.79,1.79,0,0,0,.46-0.57,1.67,1.67,0,0,0,.18-0.77,1.49,1.49,0,0,0-.09-0.51,1.6,1.6,0,0,0-.22-0.41l-0.08-.11v0a1.38,1.38,0,0,0,.19-0.37,1.25,1.25,0,0,0,.07-0.41,1.46,1.46,0,0,0-.2-0.76,1.78,1.78,0,0,0-.47-0.51,2,2,0,0,0-.62-0.3,2.26,2.26,0,0,0-.64-0.1h0Z"/><path d="M42,48.4a0.25,0.25,0,0,1-.25-0.25,3,3,0,0,1,0-.53,1.59,1.59,0,0,1,.18-0.48,1.61,1.61,0,0,1,.34-0.41,2.78,2.78,0,0,1,.51-0.35l0.44-.23L43.52,46a0.53,0.53,0,0,0,.13-0.11,0.15,0.15,0,0,0,0-.17,0.37,0.37,0,0,0-.25-0.07,0.62,0.62,0,0,0-.19,0L43,45.72l-0.16.12L42.71,46a0.25,0.25,0,0,1-.19.09h0A0.25,0.25,0,0,1,42.33,46l-0.52-.59a0.25,0.25,0,0,1,0-.33,1.48,1.48,0,0,1,.26-0.22,2.38,2.38,0,0,1,.38-0.21,2.8,2.8,0,0,1,.48-0.16,2.43,2.43,0,0,1,.57-0.06,2.06,2.06,0,0,1,.62.09,1.48,1.48,0,0,1,.49.25,1.17,1.17,0,0,1,.32.42,1.23,1.23,0,0,1,.11.51,1.1,1.1,0,0,1-.1.48,1.36,1.36,0,0,1-.24.35,1.78,1.78,0,0,1-.3.25l-0.29.18-0.24.14-0.15.09h1.15a0.25,0.25,0,0,1,.25.25v0.73a0.25,0.25,0,0,1-.25.25H42Z" fill="#fff"/><path d="M43.5,44.66a1.84,1.84,0,0,1,.55.07,1.21,1.21,0,0,1,.41.21,0.9,0.9,0,0,1,.25.32,1,1,0,0,1,.09.41,0.85,0.85,0,0,1-.08.37,1.1,1.1,0,0,1-.2.29,1.49,1.49,0,0,1-.26.22L44,46.73l-0.25.14L43.46,47l-0.25.19a0.89,0.89,0,0,0-.17.2h1.82v0.73H42a2.65,2.65,0,0,1,0-.49,1.32,1.32,0,0,1,.15-0.41,1.36,1.36,0,0,1,.29-0.35,2.59,2.59,0,0,1,.46-0.32l0.43-.23,0.32-.18A0.78,0.78,0,0,0,43.85,46a0.33,0.33,0,0,0,.07-0.2,0.4,0.4,0,0,0-.14-0.31,0.6,0.6,0,0,0-.41-0.13,0.87,0.87,0,0,0-.26,0,1,1,0,0,0-.22.11l-0.19.15-0.16.17L42,45.23a1.34,1.34,0,0,1,.22-0.18,2.15,2.15,0,0,1,.34-0.19A2.51,2.51,0,0,1,43,44.72a2.16,2.16,0,0,1,.51-0.06m0-.5a2.67,2.67,0,0,0-.62.07,3,3,0,0,0-.52.17,2.64,2.64,0,0,0-.42.23,1.8,1.8,0,0,0-.3.25,0.5,0.5,0,0,0,0,.67l0.52,0.59a0.5,0.5,0,0,0,.26.16,2.7,2.7,0,0,0-.29.22,1.86,1.86,0,0,0-.39.48,1.83,1.83,0,0,0-.2.55,3.17,3.17,0,0,0-.05.58,0.5,0.5,0,0,0,.5.5h2.89a0.5,0.5,0,0,0,.5-0.5V47.42a0.5,0.5,0,0,0-.5-0.5H44.61a2,2,0,0,0,.27-0.24,1.61,1.61,0,0,0,.29-0.42,1.35,1.35,0,0,0,.13-0.59,1.48,1.48,0,0,0-.13-0.62,1.4,1.4,0,0,0-.39-0.5,1.72,1.72,0,0,0-.57-0.3,2.35,2.35,0,0,0-.7-0.1h0Z"/><path d="M47.26,48.46a1.64,1.64,0,0,1-.73-0.16A1.71,1.71,0,0,1,46,47.86a2,2,0,0,1-.37-0.65,2.57,2.57,0,0,1,0-1.62A2,2,0,0,1,46,44.92a1.75,1.75,0,0,1,.57-0.44,1.63,1.63,0,0,1,.73-0.16,1.64,1.64,0,0,1,.73.16,1.76,1.76,0,0,1,.57.44,2.07,2.07,0,0,1,.37.66,2.58,2.58,0,0,1,0,1.62,2.06,2.06,0,0,1-.37.65,1.71,1.71,0,0,1-.58.44A1.66,1.66,0,0,1,47.26,48.46Zm0-2.9a0.34,0.34,0,0,0-.18,0,0.48,0.48,0,0,0-.15.15,0.88,0.88,0,0,0-.12.27,1.44,1.44,0,0,0,0,.38,1.41,1.41,0,0,0,0,.37,0.86,0.86,0,0,0,.12.27,0.47,0.47,0,0,0,.15.15,0.37,0.37,0,0,0,.35,0A0.48,0.48,0,0,0,47.59,47a0.87,0.87,0,0,0,.12-0.27,1.4,1.4,0,0,0,0-.37,1.45,1.45,0,0,0,0-.38,0.87,0.87,0,0,0-.12-0.27,0.48,0.48,0,0,0-.15-0.15A0.34,0.34,0,0,0,47.26,45.56Z" fill="#fff"/><path d="M47.26,44.57a1.38,1.38,0,0,1,.62.14,1.49,1.49,0,0,1,.49.38,1.8,1.8,0,0,1,.32.58,2.33,2.33,0,0,1,0,1.46,1.8,1.8,0,0,1-.32.58,1.45,1.45,0,0,1-.49.38,1.47,1.47,0,0,1-1.23,0,1.46,1.46,0,0,1-.49-0.38,1.8,1.8,0,0,1-.32-0.58,2.33,2.33,0,0,1,0-1.46,1.8,1.8,0,0,1,.32-0.58,1.49,1.49,0,0,1,.49-0.38,1.37,1.37,0,0,1,.62-0.14m0,2.9a0.59,0.59,0,0,0,.3-0.08,0.72,0.72,0,0,0,.23-0.22,1.12,1.12,0,0,0,.15-0.34A1.66,1.66,0,0,0,48,46.39a1.7,1.7,0,0,0-.05-0.44,1.11,1.11,0,0,0-.15-0.34,0.72,0.72,0,0,0-.23-0.22,0.59,0.59,0,0,0-.3-0.08,0.6,0.6,0,0,0-.3.08,0.72,0.72,0,0,0-.23.22,1.11,1.11,0,0,0-.15.34,1.7,1.7,0,0,0-.05.44,1.66,1.66,0,0,0,.05.44,1.12,1.12,0,0,0,.15.34,0.72,0.72,0,0,0,.23.22,0.6,0.6,0,0,0,.3.08m0-3.4a1.87,1.87,0,0,0-.84.19,2,2,0,0,0-.65.51,2.31,2.31,0,0,0-.41.73,2.82,2.82,0,0,0,0,1.79,2.31,2.31,0,0,0,.41.73,2,2,0,0,0,.66.51,2,2,0,0,0,1.66,0A2,2,0,0,0,48.75,48a2.31,2.31,0,0,0,.41-0.73,2.82,2.82,0,0,0,0-1.79,2.31,2.31,0,0,0-.41-0.73,2,2,0,0,0-.66-0.51,1.88,1.88,0,0,0-.83-0.19h0Zm0,2.9H47.21a0.23,0.23,0,0,1-.07-0.07,0.63,0.63,0,0,1-.08-0.19,1.18,1.18,0,0,1,0-.31,1.2,1.2,0,0,1,0-.31,0.62,0.62,0,0,1,.08-0.19,0.23,0.23,0,0,1,.07-0.07h0.1a0.23,0.23,0,0,1,.07.07,0.62,0.62,0,0,1,.08.19,1.19,1.19,0,0,1,0,.31,1.18,1.18,0,0,1,0,.31,0.63,0.63,0,0,1-.08.19,0.23,0.23,0,0,1-.07.07h0Z"/><path d="M78.66,48.4a0.25,0.25,0,0,1-.25-0.25,2.81,2.81,0,0,1,0-.54,1.58,1.58,0,0,1,.17-0.48A1.6,1.6,0,0,1,79,46.72a2.9,2.9,0,0,1,.51-0.35l0.44-.23L80.21,46a0.54,0.54,0,0,0,.13-0.11,0.15,0.15,0,0,0,0-.17,0.39,0.39,0,0,0-.25-0.07,0.61,0.61,0,0,0-.19,0l-0.17.08-0.15.12L79.41,46a0.25,0.25,0,0,1-.19.09h0A0.25,0.25,0,0,1,79,46l-0.52-.59a0.25,0.25,0,0,1,0-.33,1.48,1.48,0,0,1,.26-0.22,2.36,2.36,0,0,1,.38-0.21,2.74,2.74,0,0,1,.48-0.16,2.44,2.44,0,0,1,.57-0.06,2.06,2.06,0,0,1,.62.09,1.48,1.48,0,0,1,.49.25,1.17,1.17,0,0,1,.32.41,1.21,1.21,0,0,1,.11.51,1.1,1.1,0,0,1-.1.48,1.38,1.38,0,0,1-.24.35,1.78,1.78,0,0,1-.3.25l-0.29.18-0.24.14-0.15.09h1.15a0.25,0.25,0,0,1,.25.25v0.73a0.25,0.25,0,0,1-.25.25H78.66Z" fill="#fff"/><path d="M80.2,44.66a1.84,1.84,0,0,1,.55.07,1.21,1.21,0,0,1,.4.21,0.9,0.9,0,0,1,.25.32,1,1,0,0,1,.09.41,0.85,0.85,0,0,1-.08.37,1.13,1.13,0,0,1-.2.29,1.49,1.49,0,0,1-.26.22l-0.27.17-0.25.14L80.16,47l-0.25.19a0.89,0.89,0,0,0-.17.2h1.82v0.73H78.66a2.57,2.57,0,0,1,0-.49,1.32,1.32,0,0,1,.15-0.41,1.38,1.38,0,0,1,.29-0.35,2.63,2.63,0,0,1,.46-0.32L80,46.36l0.31-.18A0.79,0.79,0,0,0,80.54,46a0.33,0.33,0,0,0,.07-0.2,0.4,0.4,0,0,0-.14-0.31,0.6,0.6,0,0,0-.41-0.13,0.87,0.87,0,0,0-.26,0,1,1,0,0,0-.23.11l-0.19.15-0.16.17-0.52-.59a1.34,1.34,0,0,1,.22-0.18,2.14,2.14,0,0,1,.34-0.19,2.54,2.54,0,0,1,.43-0.14,2.16,2.16,0,0,1,.51-0.06m0-.5a2.68,2.68,0,0,0-.62.07,3.05,3.05,0,0,0-.52.17,2.62,2.62,0,0,0-.42.23,1.79,1.79,0,0,0-.3.25,0.5,0.5,0,0,0,0,.67l0.52,0.59a0.5,0.5,0,0,0,.26.16,2.7,2.7,0,0,0-.29.22,1.88,1.88,0,0,0-.39.48,1.83,1.83,0,0,0-.2.56,3.07,3.07,0,0,0-.05.58,0.5,0.5,0,0,0,.5.5h2.89a0.5,0.5,0,0,0,.5-0.5V47.42a0.5,0.5,0,0,0-.5-0.5H81.31a2,2,0,0,0,.27-0.24,1.64,1.64,0,0,0,.29-0.41A1.36,1.36,0,0,0,82,45.68a1.46,1.46,0,0,0-.13-0.62,1.4,1.4,0,0,0-.39-0.5,1.71,1.71,0,0,0-.57-0.3,2.35,2.35,0,0,0-.7-0.1h0Z"/><path d="M84,49.16a0.25,0.25,0,0,1-.25-0.25V48.27h-1.5A0.25,0.25,0,0,1,82,48V47.3A0.25,0.25,0,0,1,82,47.15l2-2.58a0.25,0.25,0,0,1,.2-0.1h0.55a0.25,0.25,0,0,1,.25.25V47h0.28a0.25,0.25,0,0,1,.25.25V48a0.25,0.25,0,0,1-.25.25H85v0.64a0.25,0.25,0,0,1-.25.25H84ZM83.83,47V46.68L83.55,47h0.28Z" fill="#fff"/><path d="M84.79,44.72V47.3h0.53V48H84.79v0.89H84V48H82.24V47.3l2-2.58h0.55M83,47.3h1V45.94L83,47.3m1.75-3.07H84.25a0.5,0.5,0,0,0-.39.19l-2,2.58a0.5,0.5,0,0,0-.11.31V48a0.5,0.5,0,0,0,.5.5h1.25v0.39a0.5,0.5,0,0,0,.5.5h0.8a0.5,0.5,0,0,0,.5-0.5V48.52h0a0.5,0.5,0,0,0,.5-0.5V47.3a0.5,0.5,0,0,0-.5-0.5h0V44.72a0.5,0.5,0,0,0-.5-0.5h0Z"/><path d="M4.08,14.56a0.25,0.25,0,0,1-.13,0L1.42,13a0.25,0.25,0,0,1-.12-0.21V12.42a0.25,0.25,0,0,1,.12-0.21l2.53-1.53a0.24,0.24,0,0,1,.13,0,0.25,0.25,0,0,1,.25.25v0.85a0.25,0.25,0,0,1-.12.21l-1,.63,1,0.61a0.25,0.25,0,0,1,.12.21v0.9A0.25,0.25,0,0,1,4.08,14.56Z" fill="#fff"/><path d="M4.08,10.89v0.85l-1.36.85,1.36,0.82v0.9l-2.53-1.5V12.42l2.53-1.53m0-.5a0.5,0.5,0,0,0-.26.07L1.28,12a0.5,0.5,0,0,0-.24.43v0.39a0.5,0.5,0,0,0,.25.43l2.53,1.5a0.5,0.5,0,0,0,.75-0.43v-0.9A0.5,0.5,0,0,0,4.33,13l-0.66-.4,0.67-.42a0.5,0.5,0,0,0,.23-0.42V10.89a0.5,0.5,0,0,0-.5-0.5h0Z"/><rect x="4.84" y="11.89" width="2.32" height="1.23" rx="0.25" ry="0.25" fill="#fff"/><path d="M6.91,12.14v0.73H5.09V12.14H6.91m0-.5H5.09a0.5,0.5,0,0,0-.5.5v0.73a0.5,0.5,0,0,0,.5.5H6.91a0.5,0.5,0,0,0,.5-0.5V12.14a0.5,0.5,0,0,0-.5-0.5h0Z"/><path d="M7.81,14.4a0.25,0.25,0,0,1-.25-0.25V13.42a0.25,0.25,0,0,1,.25-0.25h0.6V12.09l-0.07,0a2.13,2.13,0,0,1-.32.12,1.22,1.22,0,0,1-.33.05A0.25,0.25,0,0,1,7.44,12V11.29A0.25,0.25,0,0,1,7.69,11a0.46,0.46,0,0,0,.16,0l0.27-.15,0.24-.17,0.08-.08a0.24,0.24,0,0,1,.22-0.12H9.48a0.25,0.25,0,0,1,.25.25v2.45h0.51a0.25,0.25,0,0,1,.25.25v0.73a0.25,0.25,0,0,1-.25.25H7.81Z" fill="#fff"/><path d="M9.48,10.72v2.7h0.76v0.73H7.81V13.42H8.66V11.61a0.63,0.63,0,0,1-.17.15l-0.26.14L7.95,12a1,1,0,0,1-.26,0V11.29A0.69,0.69,0,0,0,8,11.22a2.27,2.27,0,0,0,.31-0.17l0.26-.19a0.62,0.62,0,0,0,.14-0.15H9.48m0-.5H8.66a0.5,0.5,0,0,0-.42.23l0,0L8,10.64l-0.24.13-0.08,0a0.49,0.49,0,0,0-.48.5V12a0.5,0.5,0,0,0,.5.5,1.46,1.46,0,0,0,.39-0.06l0.08,0v0.46H7.81a0.5,0.5,0,0,0-.5.5v0.73a0.5,0.5,0,0,0,.5.5h2.44a0.5,0.5,0,0,0,.5-0.5V13.42a0.5,0.5,0,0,0-.5-0.5H10v-2.2a0.5,0.5,0,0,0-.5-0.5h0Z"/><path d="M12.26,15.29a2,2,0,0,1-1-.23,1.61,1.61,0,0,1-.66-0.64,0.25,0.25,0,0,1,0-.29l0.46-.48a0.25,0.25,0,0,1,.18-0.08h0a0.25,0.25,0,0,1,.19.1,1,1,0,0,0,.34.3,0.81,0.81,0,0,0,.4.11A0.5,0.5,0,0,0,12.62,14a0.45,0.45,0,0,0-.31-0.78,0.54,0.54,0,0,0-.25.06,0.47,0.47,0,0,0-.18.16,0.25,0.25,0,0,1-.21.11H11a0.25,0.25,0,0,1-.25-0.25,0.86,0.86,0,0,1,0-.19l0.47-2.4a0.25,0.25,0,0,1,.25-0.2h2.1a0.25,0.25,0,0,1,.25.25v0.73a0.25,0.25,0,0,1-.25.25H12.25L12.2,12l0.23,0a1.78,1.78,0,0,1,.65.12,1.5,1.5,0,0,1,.88.85,1.79,1.79,0,0,1,0,1.34,1.58,1.58,0,0,1-.39.54,1.77,1.77,0,0,1-.58.34A2.05,2.05,0,0,1,12.26,15.29Z" fill="#fff"/><path d="M13.56,10.72v0.73H12l-0.17,1a0.51,0.51,0,0,1,.21-0.13,1.1,1.1,0,0,1,.35,0,1.53,1.53,0,0,1,.56.1,1.32,1.32,0,0,1,.45.28,1.3,1.3,0,0,1,.29.43,1.54,1.54,0,0,1,0,1.15,1.32,1.32,0,0,1-.33.45,1.51,1.51,0,0,1-.5.29,1.8,1.8,0,0,1-.62.11,1.75,1.75,0,0,1-.84-0.2,1.36,1.36,0,0,1-.56-0.54l0.46-.48a1.25,1.25,0,0,0,.42.37,1.07,1.07,0,0,0,.52.14,0.74,0.74,0,0,0,.53-0.2,0.7,0.7,0,0,0-.48-1.21,0.79,0.79,0,0,0-.37.09,0.71,0.71,0,0,0-.27.25H11a1.2,1.2,0,0,1,0-.13l0.06-.3,0.08-.41L11.22,12l0.24-1.24h2.1m0-.5h-2.1a0.5,0.5,0,0,0-.49.41l-0.24,1.23-0.09.46-0.08.4,0,0.25V13a1.05,1.05,0,0,0,0,.23,0.5,0.5,0,0,0,.27.45L10.5,14a0.5,0.5,0,0,0-.08.59,1.86,1.86,0,0,0,.76.74,2.25,2.25,0,0,0,1.07.26,2.3,2.3,0,0,0,.8-0.14A2,2,0,0,0,13.71,15a1.82,1.82,0,0,0,.45-0.62,2,2,0,0,0,0-1.54,1.74,1.74,0,0,0-.82-0.9h0.2a0.5,0.5,0,0,0,.5-0.5V10.72a0.5,0.5,0,0,0-.5-0.5h0ZM11.9,13.71a0.5,0.5,0,0,0,.19-0.17,0.21,0.21,0,0,1,.08-0.07,0.29,0.29,0,0,1,.14,0,0.21,0.21,0,0,1,.14.35,0.25,0.25,0,0,1-.19.06A0.57,0.57,0,0,1,12,13.76l-0.08-.05h0Z"/><path d="M115.07,14.56a0.25,0.25,0,0,1-.13,0L112.41,13a0.25,0.25,0,0,1-.12-0.21V12.42a0.25,0.25,0,0,1,.12-0.21l2.53-1.53a0.24,0.24,0,0,1,.13,0,0.25,0.25,0,0,1,.25.25v0.85a0.25,0.25,0,0,1-.12.21l-1,.63,1,0.61a0.25,0.25,0,0,1,.12.21v0.9A0.25,0.25,0,0,1,115.07,14.56Z" fill="#fff"/><path d="M115.07,10.89v0.85l-1.36.85,1.36,0.82v0.9l-2.53-1.5V12.42l2.53-1.53m0-.5a0.5,0.5,0,0,0-.26.07L112.28,12a0.5,0.5,0,0,0-.24.43v0.39a0.5,0.5,0,0,0,.25.43l2.53,1.5a0.5,0.5,0,0,0,.75-0.43v-0.9a0.5,0.5,0,0,0-.24-0.43l-0.66-.4,0.67-.42a0.5,0.5,0,0,0,.23-0.42V10.89a0.5,0.5,0,0,0-.5-0.5h0Z"/><path d="M116.12,14.4a0.25,0.25,0,0,1-.25-0.25V13.42a0.25,0.25,0,0,1,.25-0.25h0.6V12.09l-0.07,0a2.13,2.13,0,0,1-.32.12,1.22,1.22,0,0,1-.33.05,0.25,0.25,0,0,1-.25-0.25V11.29A0.25,0.25,0,0,1,116,11a0.44,0.44,0,0,0,.16,0l0.27-.15,0.24-.17,0.08-.08a0.24,0.24,0,0,1,.22-0.12h0.82a0.25,0.25,0,0,1,.25.25v2.45h0.51a0.25,0.25,0,0,1,.25.25v0.73a0.25,0.25,0,0,1-.25.25h-2.44Z" fill="#fff"/><path d="M117.79,10.72v2.7h0.76v0.73h-2.44V13.42H117V11.61a0.64,0.64,0,0,1-.17.15l-0.25.14-0.29.11a1,1,0,0,1-.26,0V11.29a0.68,0.68,0,0,0,.26-0.07,2.23,2.23,0,0,0,.31-0.17l0.26-.19a0.62,0.62,0,0,0,.14-0.15h0.82m0-.5H117a0.5,0.5,0,0,0-.42.23l0,0-0.21.15-0.24.13-0.08,0a0.49,0.49,0,0,0-.48.5V12a0.5,0.5,0,0,0,.5.5,1.46,1.46,0,0,0,.4-0.06l0.08,0v0.46h-0.35a0.5,0.5,0,0,0-.5.5v0.73a0.5,0.5,0,0,0,.5.5h2.44a0.5,0.5,0,0,0,.5-0.5V13.42a0.5,0.5,0,0,0-.5-0.5h-0.26v-2.2a0.5,0.5,0,0,0-.5-0.5h0Z"/><path d="M120.56,15.28a2.33,2.33,0,0,1-.9-0.17,1.76,1.76,0,0,1-.68-0.5,0.25,0.25,0,0,1,0-.32l0.46-.57a0.25,0.25,0,0,1,.2-0.09h0a0.25,0.25,0,0,1,.2.1,0.83,0.83,0,0,0,.29.24,1,1,0,0,0,.43.08,0.7,0.7,0,0,0,.41-0.09,0.27,0.27,0,0,0,.09-0.24,0.32,0.32,0,0,0-.12-0.28,0.87,0.87,0,0,0-.52-0.12h-0.17a0.25,0.25,0,0,1-.25-0.25v-0.6a0.25,0.25,0,0,1,.25-0.25h0.19a0.66,0.66,0,0,0,.42-0.11,0.27,0.27,0,0,0,.11-0.23,0.17,0.17,0,0,0-.06-0.16,0.5,0.5,0,0,0-.29-0.07,0.72,0.72,0,0,0-.37.09,0.74,0.74,0,0,0-.27.27,0.25,0.25,0,0,1-.19.12h0a0.25,0.25,0,0,1-.19-0.08l-0.5-.56a0.25,0.25,0,0,1,0-.3,1.25,1.25,0,0,1,.3-0.31,2,2,0,0,1,.39-0.22,2.39,2.39,0,0,1,.46-0.14,2.62,2.62,0,0,1,.51,0,2.16,2.16,0,0,1,.63.09,1.69,1.69,0,0,1,.51.25,1.23,1.23,0,0,1,.35.42,1.22,1.22,0,0,1,.13.55,1.38,1.38,0,0,1-.07.42,1.25,1.25,0,0,1-.2.37,1.2,1.2,0,0,1-.17.18,1.21,1.21,0,0,1,.22.21,1.35,1.35,0,0,1,.29.87,1.4,1.4,0,0,1-.14.62,1.35,1.35,0,0,1-.38.47,1.69,1.69,0,0,1-.57.29A2.49,2.49,0,0,1,120.56,15.28Z" fill="#fff"/><path d="M120.67,10.69a1.89,1.89,0,0,1,.56.08,1.41,1.41,0,0,1,.44.22,0.93,0.93,0,0,1,.38.77,1.1,1.1,0,0,1-.05.34,1,1,0,0,1-.16.29,1,1,0,0,1-.24.22,0.83,0.83,0,0,1-.31.12,1,1,0,0,1,.6.36,1.11,1.11,0,0,1,.23.71,1.15,1.15,0,0,1-.11.51,1.09,1.09,0,0,1-.31.39,1.44,1.44,0,0,1-.49.25,2.22,2.22,0,0,1-.65.09,2.08,2.08,0,0,1-.81-0.15,1.51,1.51,0,0,1-.58-0.43l0.46-.57a1.07,1.07,0,0,0,.37.31,1.19,1.19,0,0,0,.54.11,0.91,0.91,0,0,0,.56-0.14,0.52,0.52,0,0,0,.19-0.44,0.57,0.57,0,0,0-.22-0.48,1.11,1.11,0,0,0-.67-0.17h-0.17v-0.6h0.19A0.89,0.89,0,0,0,121,12.3a0.52,0.52,0,0,0,.2-0.42,0.42,0.42,0,0,0-.17-0.37,0.73,0.73,0,0,0-.44-0.12,1,1,0,0,0-.5.13,1,1,0,0,0-.36.35l-0.5-.56a1,1,0,0,1,.24-0.25,1.69,1.69,0,0,1,.34-0.19,2.13,2.13,0,0,1,.41-0.13,2.34,2.34,0,0,1,.46,0m0-.5a2.85,2.85,0,0,0-.55.05,2.65,2.65,0,0,0-.51.16,2.21,2.21,0,0,0-.44.25,1.5,1.5,0,0,0-.36.37,0.5,0.5,0,0,0,0,.61l0.5,0.56a0.5,0.5,0,0,0,.37.17h0a0.5,0.5,0,0,0,0,.09v0.6a0.5,0.5,0,0,0,.5.5h0.17a0.66,0.66,0,0,1,.37.07,0.08,0.08,0,0,1,0,.08,0.19,0.19,0,0,1,0,.06h0a1.07,1.07,0,0,1-.24,0,0.71,0.71,0,0,1-.32-0.05,0.58,0.58,0,0,1-.2-0.17,0.5,0.5,0,0,0-.39-0.19h0a0.5,0.5,0,0,0-.39.19l-0.46.57a0.5,0.5,0,0,0,0,.63,2,2,0,0,0,.78.57,2.58,2.58,0,0,0,1,.19,2.73,2.73,0,0,0,.79-0.11,1.94,1.94,0,0,0,.65-0.33,1.59,1.59,0,0,0,.45-0.56,1.65,1.65,0,0,0,.16-0.73,1.6,1.6,0,0,0-.34-1l-0.06-.07h0a1.51,1.51,0,0,0,.24-0.44,1.61,1.61,0,0,0,.08-0.5,1.46,1.46,0,0,0-.15-0.66,1.47,1.47,0,0,0-.43-0.51,1.91,1.91,0,0,0-.59-0.3,2.39,2.39,0,0,0-.7-0.1h0ZM120.31,12h0a0.48,0.48,0,0,1,.25-0.06h0.09a0.43,0.43,0,0,1-.26.05h-0.1Z"/><path d="M45.17,14.4a0.25,0.25,0,0,1-.25-0.25V13.42a0.25,0.25,0,0,1,.25-0.25h0.6V12.09l-0.07,0-0.32.12a1.24,1.24,0,0,1-.33.05A0.25,0.25,0,0,1,44.8,12V11.29A0.25,0.25,0,0,1,45,11a0.46,0.46,0,0,0,.16,0l0.27-.15,0.24-.17,0.08-.08A0.29,0.29,0,0,1,46,10.47h0.82a0.25,0.25,0,0,1,.25.25v2.45H47.6a0.25,0.25,0,0,1,.25.25v0.73a0.25,0.25,0,0,1-.25.25H45.17Z" fill="#fff"/><path d="M46.84,10.72v2.7H47.6v0.73H45.17V13.42H46V11.61a0.65,0.65,0,0,1-.17.15l-0.25.14L45.31,12A1,1,0,0,1,45,12V11.29a0.69,0.69,0,0,0,.26-0.07,2.22,2.22,0,0,0,.31-0.17l0.26-.19A0.67,0.67,0,0,0,46,10.72h0.82m0-.5H46a0.5,0.5,0,0,0-.43.25h0l0,0-0.2.15-0.24.13-0.08,0a0.49,0.49,0,0,0-.48.5V12a0.5,0.5,0,0,0,.5.5,1.47,1.47,0,0,0,.39-0.06l0.08,0v0.46H45.17a0.5,0.5,0,0,0-.5.5v0.73a0.5,0.5,0,0,0,.5.5H47.6a0.5,0.5,0,0,0,.5-0.5V13.42a0.5,0.5,0,0,0-.5-0.5H47.34v-2.2a0.5,0.5,0,0,0-.5-0.5h0Z"/><path d="M82.83,14.45a2,2,0,0,1-.68-0.11A1.74,1.74,0,0,1,81.57,14a1.55,1.55,0,0,1-.39-0.51A1.46,1.46,0,0,1,81,12.86a1.15,1.15,0,0,1,.08-0.42,1.36,1.36,0,0,1,.19-0.34,1.64,1.64,0,0,1,.22-0.23l-0.15-.17a1,1,0,0,1-.2-0.62,1.24,1.24,0,0,1,.16-0.63,1.5,1.5,0,0,1,.4-0.44,1.85,1.85,0,0,1,.53-0.26,1.91,1.91,0,0,1,.57-0.09,2,2,0,0,1,.57.08,1.71,1.71,0,0,1,.54.26,1.52,1.52,0,0,1,.4.44,1.22,1.22,0,0,1,.17.64,1,1,0,0,1-.06.33,1.12,1.12,0,0,1-.15.29,1.27,1.27,0,0,1-.16.18,1.53,1.53,0,0,1,.23.25,1.38,1.38,0,0,1,.19.35,1.26,1.26,0,0,1,.07.43,1.42,1.42,0,0,1-.15.65,1.54,1.54,0,0,1-.4.49,1.74,1.74,0,0,1-.58.31A2.13,2.13,0,0,1,82.83,14.45Zm0-2a0.61,0.61,0,0,0-.2,0,0.44,0.44,0,0,0-.15.08,0.39,0.39,0,0,0-.1.13,0.31,0.31,0,0,0,0,.15,0.3,0.3,0,0,0,0,.14,0.43,0.43,0,0,0,.1.13,0.5,0.5,0,0,0,.16.09,0.56,0.56,0,0,0,.19,0,0.55,0.55,0,0,0,.19,0,0.54,0.54,0,0,0,.16-0.09,0.39,0.39,0,0,0,.1-0.12,0.3,0.3,0,0,0,0-.14,0.32,0.32,0,0,0,0-.15,0.35,0.35,0,0,0-.1-0.12A0.51,0.51,0,0,0,83,12.49,0.64,0.64,0,0,0,82.83,12.46Zm0-1.6a0.42,0.42,0,0,0-.27.08,0.18,0.18,0,0,0-.08.16,0.28,0.28,0,0,0,.09.17l0.12,0.06,0.14,0,0.13,0,0.12-.06a0.27,0.27,0,0,0,.08-0.08,0.22,0.22,0,0,0-.06-0.25A0.45,0.45,0,0,0,82.83,10.85Z" fill="#fff"/><path d="M82.83,9.89a1.76,1.76,0,0,1,.5.08,1.47,1.47,0,0,1,.46.22,1.28,1.28,0,0,1,.34.37,1,1,0,0,1,.13.51,0.76,0.76,0,0,1,0,.25,0.87,0.87,0,0,1-.12.23,1,1,0,0,1-.18.19,1,1,0,0,1-.22.14A1.36,1.36,0,0,1,84,12a1.3,1.3,0,0,1,.22.23,1.1,1.1,0,0,1,.15.29,1,1,0,0,1,.06.34,1.17,1.17,0,0,1-.12.54,1.28,1.28,0,0,1-.34.41,1.51,1.51,0,0,1-.5.27,1.89,1.89,0,0,1-.6.09,1.78,1.78,0,0,1-.6-0.1,1.5,1.5,0,0,1-.49-0.28,1.3,1.3,0,0,1-.33-0.43,1.21,1.21,0,0,1-.12-0.54,0.91,0.91,0,0,1,.06-0.33,1.14,1.14,0,0,1,.16-0.28A1.4,1.4,0,0,1,81.71,12a1.3,1.3,0,0,1,.24-0.16,1,1,0,0,1-.38-0.32,0.79,0.79,0,0,1-.16-0.47,1,1,0,0,1,.13-0.51,1.22,1.22,0,0,1,.34-0.37A1.58,1.58,0,0,1,82.34,10a1.66,1.66,0,0,1,.5-0.08m0,1.71a0.7,0.7,0,0,0,.21,0,0.6,0.6,0,0,0,.2-0.1,0.54,0.54,0,0,0,.14-0.16,0.43,0.43,0,0,0,.05-0.22,0.42,0.42,0,0,0-.18-0.35,0.7,0.7,0,0,0-.43-0.13,0.67,0.67,0,0,0-.42.13,0.43,0.43,0,0,0-.17.36,0.42,0.42,0,0,0,.05.22,0.49,0.49,0,0,0,.14.16,0.64,0.64,0,0,0,.19.1,0.7,0.7,0,0,0,.21,0m0,1.88a0.8,0.8,0,0,0,.51-0.18,0.63,0.63,0,0,0,.16-0.2,0.55,0.55,0,0,0,.06-0.25,0.58,0.58,0,0,0-.06-0.27,0.6,0.6,0,0,0-.17-0.2,0.73,0.73,0,0,0-.24-0.12,0.88,0.88,0,0,0-.27,0,0.85,0.85,0,0,0-.28,0,0.68,0.68,0,0,0-.23.13,0.64,0.64,0,0,0-.16.2,0.56,0.56,0,0,0-.06.26,0.54,0.54,0,0,0,.06.26,0.66,0.66,0,0,0,.17.2,0.76,0.76,0,0,0,.23.13,0.82,0.82,0,0,0,.27,0m0-4.09a2.16,2.16,0,0,0-.64.1,2.09,2.09,0,0,0-.6.3,1.73,1.73,0,0,0-.47.52,1.48,1.48,0,0,0-.2.76,1.29,1.29,0,0,0,.25.77h0l-0.07.09a1.65,1.65,0,0,0-.23.4,1.41,1.41,0,0,0-.09.51,1.72,1.72,0,0,0,.17.76,1.8,1.8,0,0,0,.46.59,2,2,0,0,0,.65.37,2.29,2.29,0,0,0,.76.13,2.39,2.39,0,0,0,.76-0.12,2,2,0,0,0,.65-0.35,1.79,1.79,0,0,0,.46-0.57,1.67,1.67,0,0,0,.18-0.77,1.49,1.49,0,0,0-.09-0.51A1.6,1.6,0,0,0,84.57,12l-0.08-.11v0a1.38,1.38,0,0,0,.19-0.37,1.25,1.25,0,0,0,.07-0.41,1.46,1.46,0,0,0-.2-0.76,1.78,1.78,0,0,0-.47-0.51,2,2,0,0,0-.62-0.3,2.26,2.26,0,0,0-.64-0.1h0Z"/><path d="M116.26,42.46H7.74A7.75,7.75,0,0,1,0,34.72V23.22a7.75,7.75,0,0,1,7.74-7.74H116.26A7.75,7.75,0,0,1,124,23.22v11.5A7.75,7.75,0,0,1,116.26,42.46ZM7.74,16.86a6.37,6.37,0,0,0-6.37,6.37v11.5a6.37,6.37,0,0,0,6.37,6.37H116.26a6.37,6.37,0,0,0,6.37-6.37V23.22a6.37,6.37,0,0,0-6.37-6.37H7.74Z" fill="#fff"/><rect x="0.83" y="22.33" width="122.33" height="11" fill="#fff"/><g clip-path="url(#a)"><rect x="115.15" y="15.42" width="8.16" height="12.86" fill="#2dfd73"/><rect x="115.15" y="29.66" width="8.16" height="12.86" fill="#800600"/><rect x="106.99" y="29.66" width="7.96" height="12.86" fill="#992302"/><rect x="106.99" y="15.42" width="7.96" height="12.86" fill="#2dfea3"/><rect x="98.83" y="15.42" width="7.96" height="12.86" fill="#23fdd8"/><rect x="98.83" y="29.66" width="7.96" height="12.86" fill="#b63f02"/><rect x="90.67" y="29.66" width="7.96" height="12.86" fill="#d25702"/><rect x="90.67" y="15.42" width="7.96" height="12.86" fill="#1beffe"/><rect x="82.51" y="29.66" width="7.96" height="12.86" fill="#f47501"/><rect x="82.51" y="15.42" width="7.96" height="12.86" fill="#37b5fe"/><rect x="74.34" y="29.66" width="7.96" height="12.86" fill="#fd8f02"/><rect x="74.34" y="15.42" width="7.96" height="12.86" fill="#3a7efe"/><rect x="66.18" y="15.42" width="7.96" height="12.86" fill="#2f4bfe"/><rect x="66.18" y="29.66" width="7.96" height="12.86" fill="#ffae00"/><rect x="58.02" y="29.66" width="7.96" height="12.86" fill="#fec701"/><rect x="58.02" y="15.42" width="7.96" height="12.86" fill="#0c10fe"/><rect x="49.86" y="29.66" width="7.96" height="12.86" fill="#fee401"/><rect x="49.86" y="15.42" width="7.96" height="12.86" fill="#5302f9"/><rect x="41.7" y="15.42" width="7.96" height="12.86" fill="#8701fe"/><rect x="41.7" y="29.66" width="7.96" height="12.86" fill="#f9fd02"/><rect x="33.54" y="29.66" width="7.96" height="12.86" fill="#cafd02"/><rect x="33.54" y="15.42" width="7.96" height="12.86" fill="#b502fd"/><rect x="25.38" y="15.42" width="7.96" height="12.86" fill="#e501fe"/><rect x="25.38" y="29.66" width="7.96" height="12.86" fill="#9cfe01"/><rect x="17.21" y="29.66" width="7.96" height="12.86" fill="#69fe01"/><rect x="17.21" y="15.42" width="7.96" height="12.86" fill="#f3f"/><rect x="9.05" y="15.42" width="7.96" height="12.86" fill="#ff70ff"/><rect x="9.05" y="29.66" width="7.96" height="12.86" fill="#25fe01"/><rect x="0.69" y="15.42" width="8.16" height="12.86" fill="#ffb3ff"/><rect x="0.69" y="29.66" width="8.16" height="12.86" fill="#21ff3f"/></g></svg>