<svg xmlns="http://www.w3.org/2000/svg" xmlns:xlink="http://www.w3.org/1999/xlink" viewBox="0 0 125 50"><defs><clipPath id="a"><rect x="1.19" y="15.84" width="122.62" height="25.61" rx="7.05" ry="7.05" fill="none"/></clipPath></defs><title>escalas en blanco con contorno</title><path d="M15.22,6.57A0.25,0.25,0,0,1,15,6.32V3H13.86a0.25,0.25,0,0,1-.25-0.25V2.06a0.25,0.25,0,0,1,.25-0.25h3.55a0.25,0.25,0,0,1,.25.25V2.78a0.25,0.25,0,0,1-.25.25H16.3V6.32a0.25,0.25,0,0,1-.25.25H15.22Z" fill="#fff"/><path d="M17.41,2.06V2.78H16V6.32H15.22V2.78H13.86V2.06h3.55m0-.5H13.86a0.5,0.5,0,0,0-.5.5V2.78a0.5,0.5,0,0,0,.5.5h0.86v3a0.5,0.5,0,0,0,.5.5H16a0.5,0.5,0,0,0,.5-0.5v-3h0.86a0.5,0.5,0,0,0,.5-0.5V2.06a0.5,0.5,0,0,0-.5-0.5h0Z"/><path d="M18.93,6.63a2,2,0,0,1-.78-0.15,1.83,1.83,0,0,1-.6-0.41,1.79,1.79,0,0,1-.39-0.6A1.91,1.91,0,0,1,17,4.76,2,2,0,0,1,17.16,4a1.79,1.79,0,0,1,.38-0.6A1.84,1.84,0,0,1,18.15,3a2,2,0,0,1,.79-0.15,2,2,0,0,1,.79.15,1.84,1.84,0,0,1,.6.41,1.76,1.76,0,0,1,.38.6,2,2,0,0,1,.13.7V4.89a0.91,0.91,0,0,1,0,.17,0.25,0.25,0,0,1-.24.19H20.25l0.22,0.06a0.25,0.25,0,0,1,.16.14,0.24,0.24,0,0,1,0,.21,1.65,1.65,0,0,1-.65.7A2,2,0,0,1,18.93,6.63ZM18.46,5.25a0.55,0.55,0,0,0,.29.25,0.6,0.6,0,0,0,.21,0,0.67,0.67,0,0,0,.33-0.09,0.38,0.38,0,0,0,.18-0.18v0h-1Zm1-1a0.56,0.56,0,0,0-.11-0.13A0.55,0.55,0,0,0,18.93,4a0.54,0.54,0,0,0-.38.15,0.57,0.57,0,0,0-.1.13h1Z" fill="#fff"/><path d="M18.94,3.12a1.7,1.7,0,0,1,.69.13,1.59,1.59,0,0,1,.52.35,1.51,1.51,0,0,1,.32.52,1.71,1.71,0,0,1,.11.61c0,0.05,0,.1,0,0.15a0.63,0.63,0,0,1,0,.12H18.13a1,1,0,0,0,.09.33,0.84,0.84,0,0,0,.19.25,0.82,0.82,0,0,0,.26.16,0.84,0.84,0,0,0,.3.05,0.92,0.92,0,0,0,.45-0.12,0.62,0.62,0,0,0,.29-0.31L20.4,5.55a1.4,1.4,0,0,1-.56.59,1.72,1.72,0,0,1-.91.23,1.75,1.75,0,0,1-.68-0.13,1.56,1.56,0,0,1-.52-0.35,1.53,1.53,0,0,1-.33-0.52,1.65,1.65,0,0,1-.12-0.62,1.75,1.75,0,0,1,.11-0.63,1.54,1.54,0,0,1,.33-0.52,1.58,1.58,0,0,1,.53-0.36,1.75,1.75,0,0,1,.69-0.13M18.12,4.48h1.63a0.84,0.84,0,0,0-.26-0.57,0.82,0.82,0,0,0-1.11,0,0.81,0.81,0,0,0-.18.25,0.86,0.86,0,0,0-.08.32m0.82-1.86a2.25,2.25,0,0,0-.89.17,2.09,2.09,0,0,0-.69.47,2,2,0,0,0-.44.69,2.25,2.25,0,0,0-.15.81,2.16,2.16,0,0,0,.15.8,2,2,0,0,0,.44.68,2.06,2.06,0,0,0,.69.46,2.25,2.25,0,0,0,.88.17,2.22,2.22,0,0,0,1.17-.3,1.9,1.9,0,0,0,.75-0.8,0.5,0.5,0,0,0,0-.38A0.5,0.5,0,0,0,21,5.12a1.12,1.12,0,0,0,0-.22c0-.05,0-0.11,0-0.17a2.22,2.22,0,0,0-.14-0.79,2,2,0,0,0-.43-0.68,2.09,2.09,0,0,0-.68-0.47,2.21,2.21,0,0,0-.89-0.17h0Z"/><path d="M25.45,6.57a0.25,0.25,0,0,1-.25-0.25V4.55a0.69,0.69,0,0,0-.08-0.4A0.17,0.17,0,0,0,25,4.08a0.43,0.43,0,0,0-.29.12,0.76,0.76,0,0,0-.22.36V6.32a0.25,0.25,0,0,1-.25.25h-0.8a0.25,0.25,0,0,1-.25-0.25V4.55a0.69,0.69,0,0,0-.08-0.4,0.17,0.17,0,0,0-.16-0.07,0.44,0.44,0,0,0-.28.12,0.73,0.73,0,0,0-.23.36V6.32a0.25,0.25,0,0,1-.25.25h-0.8a0.25,0.25,0,0,1-.25-0.25V3.17a0.25,0.25,0,0,1,.25-0.25h0.73a0.25,0.25,0,0,1,.25.21l0.11-.07a1.68,1.68,0,0,1,.81-0.2,1.06,1.06,0,0,1,.94.44,1.51,1.51,0,0,1,.3-0.23,1.56,1.56,0,0,1,.8-0.21,1.18,1.18,0,0,1,.6.14,1,1,0,0,1,.38.37,1.41,1.41,0,0,1,.17.48,2.75,2.75,0,0,1,0,.49v2a0.25,0.25,0,0,1-.25.25h-0.8Z" fill="#fff"/><path d="M25.31,3.12a0.93,0.93,0,0,1,.47.11,0.78,0.78,0,0,1,.29.28,1.16,1.16,0,0,1,.14.4,2.56,2.56,0,0,1,0,.45v2h-0.8V4.55A0.94,0.94,0,0,0,25.32,4,0.42,0.42,0,0,0,25,3.83a0.68,0.68,0,0,0-.45.18,1,1,0,0,0-.3.48V6.32h-0.8V4.55A0.94,0.94,0,0,0,23.28,4a0.42,0.42,0,0,0-.36-0.17,0.68,0.68,0,0,0-.45.18,1,1,0,0,0-.3.47V6.32h-0.8V3.17h0.73V3.75a1.2,1.2,0,0,1,.48-0.47,1.43,1.43,0,0,1,.69-0.17,0.89,0.89,0,0,1,.61.19,0.86,0.86,0,0,1,.28.47,1.35,1.35,0,0,1,.49-0.49,1.31,1.31,0,0,1,.67-0.17m0-.5a1.8,1.8,0,0,0-.92.24L24.23,3l0,0a1.37,1.37,0,0,0-.94-0.32,2,2,0,0,0-.84.18,0.5,0.5,0,0,0-.33-0.12H21.37a0.5,0.5,0,0,0-.5.5V6.32a0.5,0.5,0,0,0,.5.5h0.8a0.5,0.5,0,0,0,.5-0.5V4.57a0.45,0.45,0,0,1,.13-0.18l0.09-.06a0.94,0.94,0,0,1,0,.22V6.32a0.5,0.5,0,0,0,.5.5h0.8a0.5,0.5,0,0,0,.5-0.5V4.57a0.49,0.49,0,0,1,.13-0.19l0.09-.05a0.94,0.94,0,0,1,0,.22V6.32a0.5,0.5,0,0,0,.5.5h0.8a0.5,0.5,0,0,0,.5-0.5v-2a3.07,3.07,0,0,0,0-.54,1.66,1.66,0,0,0-.2-0.56A1.28,1.28,0,0,0,26,2.79a1.42,1.42,0,0,0-.72-0.18h0Z"/><path d="M27.25,7.84A0.25,0.25,0,0,1,27,7.59V3.17a0.25,0.25,0,0,1,.25-0.25H28a0.25,0.25,0,0,1,.24.19l0.08-.05A1.5,1.5,0,0,1,29,2.87a1.6,1.6,0,0,1,.7.15,1.7,1.7,0,0,1,.54.41,1.91,1.91,0,0,1,.35.59,2.05,2.05,0,0,1,.13.71,2.28,2.28,0,0,1-.11.72,1.92,1.92,0,0,1-.33.6,1.58,1.58,0,0,1-.52.41,1.47,1.47,0,0,1-.66.15,1.48,1.48,0,0,1-.78-0.2l-0.05,0v1.2a0.25,0.25,0,0,1-.25.25h-0.8Zm1.57-3.79-0.16,0-0.15.08a0.71,0.71,0,0,0-.14.13,0.46,0.46,0,0,0-.08.13l0,0.65a1.49,1.49,0,0,0,.24.25,0.51,0.51,0,0,0,.32.12,0.48,0.48,0,0,0,.22-0.05,0.56,0.56,0,0,0,.18-0.15A0.73,0.73,0,0,0,29.39,5a0.83,0.83,0,0,0,0-.28,0.78,0.78,0,0,0,0-.28,0.69,0.69,0,0,0-.13-0.22,0.6,0.6,0,0,0-.2-0.14A0.57,0.57,0,0,0,28.82,4.05Z" fill="#fff"/><path d="M29,3.12a1.35,1.35,0,0,1,.59.13,1.46,1.46,0,0,1,.46.35,1.64,1.64,0,0,1,.31.52,1.79,1.79,0,0,1,.11.63,2,2,0,0,1-.1.64,1.65,1.65,0,0,1-.29.52,1.32,1.32,0,0,1-.44.35,1.22,1.22,0,0,1-.55.13,1.24,1.24,0,0,1-.65-0.17,1.17,1.17,0,0,1-.43-0.45V7.59h-0.8V3.17H28V3.71a1.28,1.28,0,0,1,.45-0.44A1.25,1.25,0,0,1,29,3.12M28.87,5.69a0.72,0.72,0,0,0,.33-0.08,0.81,0.81,0,0,0,.26-0.21,1,1,0,0,0,.17-0.31,1.1,1.1,0,0,0,.06-0.36,1,1,0,0,0-.07-0.37,0.93,0.93,0,0,0-.18-0.3,0.86,0.86,0,0,0-.28-0.2,0.82,0.82,0,0,0-.34-0.07,0.76,0.76,0,0,0-.23,0,0.81,0.81,0,0,0-.22.11,1,1,0,0,0-.18.17,0.71,0.71,0,0,0-.12.21V5.07a1.08,1.08,0,0,0,.33.45,0.76,0.76,0,0,0,.48.18M29,2.62a1.78,1.78,0,0,0-.77.17A0.5,0.5,0,0,0,28,2.67h-0.7a0.5,0.5,0,0,0-.5.5V7.59a0.5,0.5,0,0,0,.5.5h0.8a0.5,0.5,0,0,0,.5-0.5V6.79a1.86,1.86,0,0,0,.58.09,1.72,1.72,0,0,0,.78-0.18,1.83,1.83,0,0,0,.6-0.48,2.15,2.15,0,0,0,.37-0.68A2.51,2.51,0,0,0,31,4.74a2.3,2.3,0,0,0-.14-0.8,2.14,2.14,0,0,0-.4-0.67,2,2,0,0,0-.62-0.47A1.85,1.85,0,0,0,29,2.62h0ZM28.56,4.45h0l0.09-.08,0.09,0h0.08a0.32,0.32,0,0,1,.14,0,0.36,0.36,0,0,1,.12.08,0.42,0.42,0,0,1,.08.14,0.52,0.52,0,0,1,0,.19,0.6,0.6,0,0,1,0,.2,0.48,0.48,0,0,1-.08.15,0.31,0.31,0,0,1-.1.08l-0.11,0a0.26,0.26,0,0,1-.17-0.07A0.56,0.56,0,0,1,28.56,5V4.45h0Z"/><path d="M32.82,6.63A2,2,0,0,1,32,6.48a1.83,1.83,0,0,1-.6-0.41A1.79,1.79,0,0,1,31,5.47a1.91,1.91,0,0,1-.13-0.71A2,2,0,0,1,31,4a1.79,1.79,0,0,1,.38-0.6A1.84,1.84,0,0,1,32,3a2,2,0,0,1,.79-0.15,2,2,0,0,1,.79.15,1.84,1.84,0,0,1,.6.41,1.76,1.76,0,0,1,.38.6,2,2,0,0,1,.13.7V4.89a0.91,0.91,0,0,1,0,.17,0.25,0.25,0,0,1-.24.19H34.13l0.22,0.06a0.25,0.25,0,0,1,.16.14,0.24,0.24,0,0,1,0,.21,1.65,1.65,0,0,1-.65.7A2,2,0,0,1,32.82,6.63ZM32.34,5.25a0.55,0.55,0,0,0,.29.25,0.6,0.6,0,0,0,.21,0,0.67,0.67,0,0,0,.33-0.09,0.38,0.38,0,0,0,.18-0.18v0h-1Zm1-1A0.56,0.56,0,0,0,33.2,4.1,0.55,0.55,0,0,0,32.81,4a0.54,0.54,0,0,0-.38.15,0.57,0.57,0,0,0-.1.13h1Z" fill="#fff"/><path d="M32.82,3.12a1.7,1.7,0,0,1,.69.13A1.59,1.59,0,0,1,34,3.6a1.51,1.51,0,0,1,.32.52,1.71,1.71,0,0,1,.11.61c0,0.05,0,.1,0,0.15a0.63,0.63,0,0,1,0,.12H32a1,1,0,0,0,.09.33,0.84,0.84,0,0,0,.19.25,0.82,0.82,0,0,0,.26.16,0.84,0.84,0,0,0,.3.05,0.92,0.92,0,0,0,.45-0.12,0.62,0.62,0,0,0,.29-0.31l0.69,0.19a1.4,1.4,0,0,1-.56.59,1.72,1.72,0,0,1-.91.23,1.75,1.75,0,0,1-.68-0.13,1.56,1.56,0,0,1-.52-0.35,1.53,1.53,0,0,1-.33-0.52,1.65,1.65,0,0,1-.12-0.62,1.75,1.75,0,0,1,.11-0.63,1.54,1.54,0,0,1,.33-0.52,1.58,1.58,0,0,1,.53-0.36,1.75,1.75,0,0,1,.69-0.13M32,4.48h1.63a0.84,0.84,0,0,0-.26-0.57,0.82,0.82,0,0,0-1.11,0,0.81,0.81,0,0,0-.18.25,0.86,0.86,0,0,0-.08.32m0.82-1.86a2.25,2.25,0,0,0-.89.17,2.09,2.09,0,0,0-.69.47,2,2,0,0,0-.44.69,2.25,2.25,0,0,0-.15.81,2.16,2.16,0,0,0,.15.8,2,2,0,0,0,.44.68,2.06,2.06,0,0,0,.69.46,2.25,2.25,0,0,0,.88.17A2.22,2.22,0,0,0,34,6.57a1.9,1.9,0,0,0,.75-0.8,0.5,0.5,0,0,0,0-.38,0.5,0.5,0,0,0,.17-0.27,1.12,1.12,0,0,0,0-.22c0-.05,0-0.11,0-0.17a2.22,2.22,0,0,0-.14-0.79,2,2,0,0,0-.43-0.68,2.09,2.09,0,0,0-.68-0.47,2.21,2.21,0,0,0-.89-0.17h0Z"/><path d="M35.25,6.57A0.25,0.25,0,0,1,35,6.32V3.17a0.25,0.25,0,0,1,.25-0.25H36a0.25,0.25,0,0,1,.25.24l0,0a1.4,1.4,0,0,1,.33-0.18A1,1,0,0,1,37,2.88h0.21a0.25,0.25,0,0,1,.2.25V3.87a0.25,0.25,0,0,1-.25.25,1.37,1.37,0,0,0-.55.12,0.59,0.59,0,0,0-.27.24V6.32a0.25,0.25,0,0,1-.25.25h-0.8Z" fill="#fff"/><path d="M37.06,3.13h0.06V3.87a1.6,1.6,0,0,0-.65.14,0.83,0.83,0,0,0-.41.41v1.9h-0.8V3.17H36V3.84a1.47,1.47,0,0,1,.2-0.29,1.54,1.54,0,0,1,.25-0.22,1.13,1.13,0,0,1,.27-0.15A0.73,0.73,0,0,1,37,3.13h0.1m0-.5H37a1.23,1.23,0,0,0-.44.08l-0.19.09A0.5,0.5,0,0,0,36,2.67H35.25a0.5,0.5,0,0,0-.5.5V6.32a0.5,0.5,0,0,0,.5.5h0.8a0.5,0.5,0,0,0,.5-0.5V4.55a0.38,0.38,0,0,1,.13-0.09,1.09,1.09,0,0,1,.45-0.09,0.5,0.5,0,0,0,.49-0.5V3.14a0.5,0.5,0,0,0-.41-0.49H37.06Z"/><path d="M38.69,6.63a1.45,1.45,0,0,1-.52-0.09,1.27,1.27,0,0,1-.42-0.26,1.24,1.24,0,0,1-.28-0.39,1.2,1.2,0,0,1-.1-0.5,1.13,1.13,0,0,1,.13-0.53,1.19,1.19,0,0,1,.35-0.41,1.64,1.64,0,0,1,.5-0.25A2.11,2.11,0,0,1,39,4.12a2.6,2.6,0,0,1,.46,0h0A0.29,0.29,0,0,0,39.37,4,0.51,0.51,0,0,0,39,3.93a1.15,1.15,0,0,0-.4.07,2,2,0,0,0-.44.24,0.25,0.25,0,0,1-.14,0H38a0.25,0.25,0,0,1-.16-0.13l-0.25-.51a0.25,0.25,0,0,1,.09-0.32,2.58,2.58,0,0,1,1.45-.44,1.78,1.78,0,0,1,1.22.4,1.46,1.46,0,0,1,.46,1.15v1a0.21,0.21,0,0,1,.19.24V6.32a0.25,0.25,0,0,1-.2.25,2,2,0,0,1-.4,0,0.78,0.78,0,0,1-.51-0.16,0.67,0.67,0,0,1-.14-0.16,1.63,1.63,0,0,1-.27.17A1.71,1.71,0,0,1,38.69,6.63Zm0.4-1.56a0.62,0.62,0,0,0-.36.09,0.17,0.17,0,0,0-.09.15,0.18,0.18,0,0,0,.07.15,0.32,0.32,0,0,0,.22.07,0.79,0.79,0,0,0,.29-0.05,0.45,0.45,0,0,0,.19-0.12l0.07-.07V5.12l-0.11,0Z" fill="#fff"/><path d="M39.1,3.12a1.54,1.54,0,0,1,1.05.33,1.22,1.22,0,0,1,.38,1v1a0.28,0.28,0,0,0,0,.18,0.2,0.2,0,0,0,.15.06V6.32a1.8,1.8,0,0,1-.35,0A0.54,0.54,0,0,1,40,6.26,0.43,0.43,0,0,1,39.86,6l0-.17a1.39,1.39,0,0,1-.51.42,1.46,1.46,0,0,1-.64.14,1.19,1.19,0,0,1-.43-0.08,1,1,0,0,1-.34-0.21,1,1,0,0,1-.22-0.31,0.94,0.94,0,0,1-.08-0.4A0.88,0.88,0,0,1,37.72,5,0.94,0.94,0,0,1,38,4.65a1.38,1.38,0,0,1,.42-0.21A1.85,1.85,0,0,1,39,4.37a2.34,2.34,0,0,1,.41,0,1.66,1.66,0,0,1,.36.1V4.32a0.63,0.63,0,0,0-.18-0.48A0.74,0.74,0,0,0,39,3.68a1.39,1.39,0,0,0-.49.09A2.27,2.27,0,0,0,38,4l-0.25-.51a2.32,2.32,0,0,1,1.31-.4M38.92,5.79a1,1,0,0,0,.39-0.07,0.7,0.7,0,0,0,.29-0.19,0.29,0.29,0,0,0,.13-0.23V4.94l-0.31-.09a1.68,1.68,0,0,0-.32,0,0.86,0.86,0,0,0-.51.14,0.42,0.42,0,0,0-.2.36,0.43,0.43,0,0,0,.16.34,0.57,0.57,0,0,0,.38.14M39.1,2.62a2.82,2.82,0,0,0-1.58.49,0.5,0.5,0,0,0-.17.63l0.25,0.51,0,0.06a1.44,1.44,0,0,0-.35.43,1.38,1.38,0,0,0-.16.64,1.45,1.45,0,0,0,.13.6,1.47,1.47,0,0,0,.34.47,1.51,1.51,0,0,0,.51.31,1.7,1.7,0,0,0,.6.11,2,2,0,0,0,.86-0.19l0.12-.06,0,0a1,1,0,0,0,.67.22,2.27,2.27,0,0,0,.45-0.05,0.5,0.5,0,0,0,.4-0.49V5.63A0.5,0.5,0,0,0,41,5.24V4.41a1.7,1.7,0,0,0-.54-1.34,2,2,0,0,0-1.39-.46h0Z"/><path d="M42.55,6.62a1.41,1.41,0,0,1-.38-0.05,1,1,0,0,1-.35-0.18,0.9,0.9,0,0,1-.24-0.33,1.11,1.11,0,0,1-.09-0.46V4H41.32a0.25,0.25,0,0,1-.25-0.25V3.17a0.25,0.25,0,0,1,.25-0.25h0.16V2.15a0.25,0.25,0,0,1,.25-0.25h0.8a0.25,0.25,0,0,1,.25.25V2.92H43.2a0.25,0.25,0,0,1,.25.25V3.79A0.25,0.25,0,0,1,43.2,4H42.79V5.33a0.3,0.3,0,0,0,.14,0H43l0.18-.07,0.1,0,0.11,0a0.25,0.25,0,0,1,.13.16l0.16,0.64a0.25,0.25,0,0,1-.14.29l-0.42.15A1.91,1.91,0,0,1,42.55,6.62Z" fill="#fff"/><path d="M42.54,2.15v1H43.2V3.79H42.54V5.33a0.28,0.28,0,0,0,.09.24,0.33,0.33,0,0,0,.21.07,0.73,0.73,0,0,0,.25,0l0.19-.07,0.16,0.64L43,6.3a1.67,1.67,0,0,1-.49.07,1.15,1.15,0,0,1-.32,0A0.7,0.7,0,0,1,42,6.19,0.66,0.66,0,0,1,41.8,6a0.87,0.87,0,0,1-.07-0.36V3.79H41.32V3.17h0.41v-1h0.8m0-.5h-0.8a0.5,0.5,0,0,0-.5.5V2.68a0.5,0.5,0,0,0-.41.49V3.79a0.5,0.5,0,0,0,.41.49V5.6a1.37,1.37,0,0,0,.11.56,1.16,1.16,0,0,0,.31.42,1.2,1.2,0,0,0,.44.23,1.67,1.67,0,0,0,.45.06,2.18,2.18,0,0,0,.64-0.09,4,4,0,0,0,.45-0.17A0.5,0.5,0,0,0,43.92,6L43.76,5.4a0.5,0.5,0,0,0-.68-0.34l0,0V4.29H43.2a0.5,0.5,0,0,0,.5-0.5V3.17a0.5,0.5,0,0,0-.5-0.5H43V2.15a0.5,0.5,0,0,0-.5-0.5h0Z"/><path d="M45.12,6.63a1.13,1.13,0,0,1-.93-0.4,1.69,1.69,0,0,1-.31-1.08v-2a0.25,0.25,0,0,1,.25-0.25h0.8a0.25,0.25,0,0,1,.25.25V5c0,0.48.17,0.48,0.27,0.48a0.58,0.58,0,0,0,.32-0.1A0.73,0.73,0,0,0,46,5.06V3.17a0.25,0.25,0,0,1,.25-0.25h0.8a0.25,0.25,0,0,1,.25.25V5.39a0.21,0.21,0,0,1,.19.24V6.32a0.25,0.25,0,0,1-.2.25l-0.23,0H46.91a0.82,0.82,0,0,1-.5-0.15,0.62,0.62,0,0,1-.18-0.19,1.57,1.57,0,0,1-.28.18A1.88,1.88,0,0,1,45.12,6.63Z" fill="#fff"/><path d="M47.07,3.17V5.39a0.29,0.29,0,0,0,0,.18,0.2,0.2,0,0,0,.15.06V6.32l-0.2,0H46.91a0.58,0.58,0,0,1-.35-0.1A0.39,0.39,0,0,1,46.4,6l0-.25a1.34,1.34,0,0,1-.54.49,1.62,1.62,0,0,1-.73.16,0.89,0.89,0,0,1-.74-0.31,1.45,1.45,0,0,1-.25-0.92v-2h0.8V5q0,0.73.52,0.73a0.83,0.83,0,0,0,.45-0.14,1,1,0,0,0,.36-0.43v-2h0.8m0-.5h-0.8a0.5,0.5,0,0,0-.5.5V5a0.44,0.44,0,0,1-.13.14,0.32,0.32,0,0,1-.18.06,0.82,0.82,0,0,1,0-.23V3.17a0.5,0.5,0,0,0-.5-0.5h-0.8a0.5,0.5,0,0,0-.5.5v2A1.93,1.93,0,0,0,44,6.38a1.38,1.38,0,0,0,1.13.5,2.13,2.13,0,0,0,.95-0.21l0.13-.07,0.07,0.06a1.07,1.07,0,0,0,.65.2H47.1l0.26,0a0.5,0.5,0,0,0,.4-0.49V5.63a0.5,0.5,0,0,0-.19-0.39V3.17a0.5,0.5,0,0,0-.5-0.5h0Z"/><path d="M48.17,6.57a0.25,0.25,0,0,1-.25-0.25V3.17a0.25,0.25,0,0,1,.25-0.25H48.9a0.25,0.25,0,0,1,.25.24l0,0a1.4,1.4,0,0,1,.33-0.18,1,1,0,0,1,.35-0.07h0.21a0.25,0.25,0,0,1,.2.25V3.87a0.25,0.25,0,0,1-.25.25,1.36,1.36,0,0,0-.55.12,0.59,0.59,0,0,0-.27.24V6.32a0.25,0.25,0,0,1-.25.25h-0.8Z" fill="#fff"/><path d="M50,3.13H50V3.87a1.59,1.59,0,0,0-.65.14,0.83,0.83,0,0,0-.41.41v1.9h-0.8V3.17H48.9V3.84a1.47,1.47,0,0,1,.2-0.29,1.54,1.54,0,0,1,.25-0.22,1.13,1.13,0,0,1,.27-0.15,0.74,0.74,0,0,1,.26-0.05H50m0-.5h-0.1a1.23,1.23,0,0,0-.44.08l-0.19.09a0.5,0.5,0,0,0-.34-0.13H48.17a0.5,0.5,0,0,0-.5.5V6.32a0.5,0.5,0,0,0,.5.5H49a0.5,0.5,0,0,0,.5-0.5V4.55a0.38,0.38,0,0,1,.13-0.09A1.1,1.1,0,0,1,50,4.37a0.5,0.5,0,0,0,.49-0.5V3.14a0.5,0.5,0,0,0-.4-0.49L50,2.63h0Z"/><path d="M51.6,6.63a1.43,1.43,0,0,1-.51-0.09,1.26,1.26,0,0,1-.42-0.26,1.24,1.24,0,0,1-.28-0.39,1.21,1.21,0,0,1-.1-0.5,1.11,1.11,0,0,1,.13-0.53,1.18,1.18,0,0,1,.35-0.4,1.66,1.66,0,0,1,.5-0.25,2.1,2.1,0,0,1,.61-0.09,2.59,2.59,0,0,1,.46,0h0A0.31,0.31,0,0,0,52.29,4a0.51,0.51,0,0,0-.35-0.1,1.15,1.15,0,0,0-.4.07,2,2,0,0,0-.44.24,0.25,0.25,0,0,1-.14,0H50.88a0.25,0.25,0,0,1-.16-0.13l-0.25-.51a0.25,0.25,0,0,1,.09-0.32A2.57,2.57,0,0,1,52,2.87a1.78,1.78,0,0,1,1.22.4,1.46,1.46,0,0,1,.46,1.15v1a0.21,0.21,0,0,1,.19.24V6.32a0.25,0.25,0,0,1-.2.25,2,2,0,0,1-.4,0,0.78,0.78,0,0,1-.51-0.16,0.68,0.68,0,0,1-.14-0.16,1.58,1.58,0,0,1-.27.17A1.72,1.72,0,0,1,51.6,6.63ZM52,5.07a0.62,0.62,0,0,0-.37.1,0.17,0.17,0,0,0-.09.15,0.18,0.18,0,0,0,.07.15,0.32,0.32,0,0,0,.22.07,0.79,0.79,0,0,0,.29-0.05,0.46,0.46,0,0,0,.19-0.12l0.07-.07V5.12l-0.11,0Z" fill="#fff"/><path d="M52,3.12a1.53,1.53,0,0,1,1.05.33,1.22,1.22,0,0,1,.38,1v1a0.29,0.29,0,0,0,0,.18,0.2,0.2,0,0,0,.15.06V6.32a1.8,1.8,0,0,1-.35,0,0.54,0.54,0,0,1-.35-0.1A0.44,0.44,0,0,1,52.77,6l0-.17a1.4,1.4,0,0,1-.51.42,1.46,1.46,0,0,1-.64.14,1.18,1.18,0,0,1-.43-0.08,1,1,0,0,1-.34-0.21,1,1,0,0,1-.23-0.31,1,1,0,0,1-.08-0.4A0.87,0.87,0,0,1,50.63,5a0.93,0.93,0,0,1,.28-0.32,1.38,1.38,0,0,1,.42-0.21,1.84,1.84,0,0,1,.54-0.08,2.33,2.33,0,0,1,.41,0,1.67,1.67,0,0,1,.36.1V4.32a0.63,0.63,0,0,0-.18-0.48,0.74,0.74,0,0,0-.53-0.17,1.39,1.39,0,0,0-.49.09,2.27,2.27,0,0,0-.49.26L50.7,3.52A2.32,2.32,0,0,1,52,3.12M51.83,5.79a1,1,0,0,0,.39-0.07,0.7,0.7,0,0,0,.29-0.19,0.29,0.29,0,0,0,.13-0.23V4.94l-0.31-.09a1.67,1.67,0,0,0-.32,0,0.86,0.86,0,0,0-.51.14,0.42,0.42,0,0,0-.2.36,0.43,0.43,0,0,0,.16.34,0.57,0.57,0,0,0,.38.14M52,2.62a2.82,2.82,0,0,0-1.58.49,0.5,0.5,0,0,0-.17.63L50.5,4.25l0,0.06a1.42,1.42,0,0,0-.35.43,1.36,1.36,0,0,0-.16.64,1.46,1.46,0,0,0,.12.6,1.48,1.48,0,0,0,.34.48,1.51,1.51,0,0,0,.51.31,1.69,1.69,0,0,0,.6.11,2,2,0,0,0,.86-0.19l0.12-.06,0,0a1,1,0,0,0,.67.22,2.27,2.27,0,0,0,.45-0.05,0.5,0.5,0,0,0,.4-0.49V5.63a0.5,0.5,0,0,0-.19-0.39V4.41a1.7,1.7,0,0,0-.54-1.34A2,2,0,0,0,52,2.62h0Z"/><path d="M59.78,6.57a0.25,0.25,0,0,1-.25-0.25V4.51L58.9,5.71a0.25,0.25,0,0,1-.22.13H58.23A0.25,0.25,0,0,1,58,5.71l-0.63-1.2v1.8a0.25,0.25,0,0,1-.25.25H56.31a0.25,0.25,0,0,1-.25-0.25V2.06a0.25,0.25,0,0,1,.25-0.25h0.89a0.25,0.25,0,0,1,.22.13l1,2,1-2a0.25,0.25,0,0,1,.22-0.13h0.88a0.25,0.25,0,0,1,.25.25V6.32a0.25,0.25,0,0,1-.25.25H59.78Z" fill="#fff"/><path d="M60.61,2.06V6.32H59.78V3.5l-1.1,2.1H58.23l-1.1-2.1V6.32H56.31V2.06h0.89l1.26,2.42,1.27-2.42h0.88m0-.5H59.73a0.5,0.5,0,0,0-.44.27L58.46,3.4,57.64,1.83a0.5,0.5,0,0,0-.44-0.27H56.31a0.5,0.5,0,0,0-.5.5V6.32a0.5,0.5,0,0,0,.5.5h0.83a0.5,0.5,0,0,0,.5-0.5V5.53l0.15,0.3a0.5,0.5,0,0,0,.44.27h0.45a0.5,0.5,0,0,0,.44-0.27l0.15-.3V6.32a0.5,0.5,0,0,0,.5.5h0.83a0.5,0.5,0,0,0,.5-0.5V2.06a0.5,0.5,0,0,0-.5-0.5h0Z"/><path d="M63.13,6.63a2,2,0,0,1-.78-0.15,1.79,1.79,0,0,1-1-1,1.92,1.92,0,0,1-.13-0.71A2,2,0,0,1,61.36,4a1.79,1.79,0,0,1,1-1,2,2,0,0,1,.79-0.15,2,2,0,0,1,.79.15,1.83,1.83,0,0,1,.6.41,1.76,1.76,0,0,1,.38.6,2,2,0,0,1,.13.7V4.89a0.91,0.91,0,0,1,0,.17,0.25,0.25,0,0,1-.24.19H64.45l0.22,0.06a0.25,0.25,0,0,1,.16.35,1.65,1.65,0,0,1-.65.7A2,2,0,0,1,63.13,6.63ZM62.66,5.25a0.57,0.57,0,0,0,.11.14A0.56,0.56,0,0,0,63,5.5a0.59,0.59,0,0,0,.21,0,0.68,0.68,0,0,0,.33-0.09,0.38,0.38,0,0,0,.18-0.19h-1Zm1-1a0.52,0.52,0,0,0-.1-0.13A0.59,0.59,0,0,0,62.92,4a0.53,0.53,0,0,0-.17.11,0.57,0.57,0,0,0-.1.13h1Z" fill="#fff"/><path d="M63.14,3.12a1.71,1.71,0,0,1,.69.13,1.58,1.58,0,0,1,.52.35,1.51,1.51,0,0,1,.32.52,1.71,1.71,0,0,1,.11.61c0,0.05,0,.1,0,0.15a0.63,0.63,0,0,1,0,.12H62.33a0.93,0.93,0,0,0,.09.33,0.8,0.8,0,0,0,.44.4,0.84,0.84,0,0,0,.3.05,0.93,0.93,0,0,0,.45-0.12,0.63,0.63,0,0,0,.29-0.31L64.6,5.55a1.4,1.4,0,0,1-.55.59,1.72,1.72,0,0,1-.91.23,1.74,1.74,0,0,1-.68-0.13,1.54,1.54,0,0,1-.86-0.87,1.65,1.65,0,0,1-.12-0.62,1.75,1.75,0,0,1,.11-0.63,1.54,1.54,0,0,1,.33-0.52,1.57,1.57,0,0,1,.53-0.36,1.74,1.74,0,0,1,.69-0.13M62.32,4.48H64a0.84,0.84,0,0,0-.26-0.57,0.84,0.84,0,0,0-.86-0.16,0.78,0.78,0,0,0-.25.16,0.82,0.82,0,0,0-.18.25,0.88,0.88,0,0,0-.08.32m0.82-1.86a2.24,2.24,0,0,0-.89.17,2.07,2.07,0,0,0-.69.47,2,2,0,0,0-.44.69,2.26,2.26,0,0,0-.15.81,2.16,2.16,0,0,0,.15.8,2,2,0,0,0,1.13,1.14,2.25,2.25,0,0,0,.88.17,2.22,2.22,0,0,0,1.17-.3A1.9,1.9,0,0,0,65,5.77a0.5,0.5,0,0,0,0-.38,0.5,0.5,0,0,0,.17-0.27,1.12,1.12,0,0,0,0-.22c0-.05,0-0.11,0-0.17a2.22,2.22,0,0,0-.14-0.79,2,2,0,0,0-.43-0.68A2.08,2.08,0,0,0,64,2.79a2.21,2.21,0,0,0-.89-0.17h0Z"/><path d="M66.87,6.63a1.67,1.67,0,0,1-1.26-.56,1.86,1.86,0,0,1-.36-0.6,2.06,2.06,0,0,1-.13-0.73A2.14,2.14,0,0,1,65.25,4a1.92,1.92,0,0,1,.33-0.59A1.59,1.59,0,0,1,66.11,3a1.52,1.52,0,0,1,.67-0.15,1.45,1.45,0,0,1,.76.2l0.06,0V1.94a0.25,0.25,0,0,1,.25-0.25h0.8a0.25,0.25,0,0,1,.25.25V5.39a0.2,0.2,0,0,1,.19.24V6.32a0.25,0.25,0,0,1-.2.25,2.1,2.1,0,0,1-.39,0A0.8,0.8,0,0,1,68,6.45a0.66,0.66,0,0,1-.14-0.15,1.45,1.45,0,0,1-.23.15A1.6,1.6,0,0,1,66.87,6.63ZM67,4.05a0.48,0.48,0,0,0-.22.05,0.55,0.55,0,0,0-.18.15,0.82,0.82,0,0,0-.13.23,0.86,0.86,0,0,0,0,.28,0.71,0.71,0,0,0,0,.27,0.69,0.69,0,0,0,.13.22,0.56,0.56,0,0,0,.19.14,0.59,0.59,0,0,0,.25,0l0.16,0,0.16-.08a0.74,0.74,0,0,0,.13-0.12,0.47,0.47,0,0,0,.08-0.14l0-.66h0a0.4,0.4,0,0,1-.08-0.09,0.74,0.74,0,0,0-.15-0.14,0.76,0.76,0,0,0-.18-0.1A0.41,0.41,0,0,0,67,4.05Z" fill="#fff"/><path d="M68.65,1.94V5.39a0.3,0.3,0,0,0,0,.18,0.19,0.19,0,0,0,.14.06V6.32a1.84,1.84,0,0,1-.34,0,0.56,0.56,0,0,1-.35-0.11A0.4,0.4,0,0,1,68,6l0-.2a1.14,1.14,0,0,1-.47.45,1.35,1.35,0,0,1-.62.15,1.43,1.43,0,0,1-.6-0.13A1.42,1.42,0,0,1,65.8,5.9a1.61,1.61,0,0,1-.31-0.52,1.8,1.8,0,0,1-.11-0.64,1.89,1.89,0,0,1,.1-0.64,1.68,1.68,0,0,1,.29-0.52,1.34,1.34,0,0,1,.44-0.35,1.27,1.27,0,0,1,.56-0.13,1.19,1.19,0,0,1,.63.17,1.21,1.21,0,0,1,.43.44V1.94h0.8M67.08,5.69a0.74,0.74,0,0,0,.23,0,0.83,0.83,0,0,0,.22-0.11,1,1,0,0,0,.18-0.17,0.71,0.71,0,0,0,.12-0.21V4.41a0.9,0.9,0,0,0-.13-0.24A1,1,0,0,0,67.51,4a1,1,0,0,0-.23-0.13,0.66,0.66,0,0,0-.24,0,0.72,0.72,0,0,0-.33.08,0.79,0.79,0,0,0-.26.21,1,1,0,0,0-.17.31,1.1,1.1,0,0,0-.06.36,1,1,0,0,0,.07.37,1,1,0,0,0,.18.29,0.83,0.83,0,0,0,.27.2,0.85,0.85,0,0,0,.35.07m1.57-4.26h-0.8a0.5,0.5,0,0,0-.5.5V2.71a1.74,1.74,0,0,0-.56-0.09A1.77,1.77,0,0,0,66,2.8a1.85,1.85,0,0,0-.61.48,2.18,2.18,0,0,0-.38.67,2.4,2.4,0,0,0-.13.81,2.31,2.31,0,0,0,.14.81,2.11,2.11,0,0,0,.4.68,1.92,1.92,0,0,0,1.45.64,1.85,1.85,0,0,0,.85-0.21l0.08,0,0,0a1,1,0,0,0,.66.22,2.31,2.31,0,0,0,.44-0.05,0.5,0.5,0,0,0,.4-0.49V5.63a0.5,0.5,0,0,0-.19-0.39V1.94a0.5,0.5,0,0,0-.5-0.5h0ZM67.08,5.19a0.35,0.35,0,0,1-.15,0,0.33,0.33,0,0,1-.11-0.08,0.45,0.45,0,0,1-.08-0.14,0.48,0.48,0,0,1,0-.18,0.59,0.59,0,0,1,0-.2,0.55,0.55,0,0,1,.09-0.16,0.29,0.29,0,0,1,.1-0.08L67,4.3H67.1l0.12,0.07,0.1,0.1,0,0V5h0l-0.09.08-0.09,0H67.08Z"/><path d="M69.74,6.57a0.25,0.25,0,0,1-.25-0.25V3.17A0.25,0.25,0,0,1,69.62,3a0.25,0.25,0,0,1-.13-0.22V1.94a0.25,0.25,0,0,1,.25-0.25h0.8a0.25,0.25,0,0,1,.25.25v0.8a0.25,0.25,0,0,1-.13.22,0.25,0.25,0,0,1,.13.22V6.32a0.25,0.25,0,0,1-.25.25h-0.8Z" fill="#fff"/><path d="M70.54,1.94v0.8h-0.8V1.94h0.8m0,1.24V6.32h-0.8V3.17h0.8m0-1.74h-0.8a0.5,0.5,0,0,0-.5.5v0.8a0.5,0.5,0,0,0,.05.22,0.5,0.5,0,0,0-.05.22V6.32a0.5,0.5,0,0,0,.5.5h0.8a0.5,0.5,0,0,0,.5-0.5V3.17A0.5,0.5,0,0,0,71,3,0.5,0.5,0,0,0,71,2.73V1.94a0.5,0.5,0,0,0-.5-0.5h0Z"/><path d="M72.43,6.63a1.45,1.45,0,0,1-.52-0.09,1.27,1.27,0,0,1-.42-0.26,1.24,1.24,0,0,1-.28-0.39,1.2,1.2,0,0,1-.1-0.5,1.13,1.13,0,0,1,.13-0.53,1.19,1.19,0,0,1,.35-0.41,1.64,1.64,0,0,1,.5-0.25,2.11,2.11,0,0,1,.61-0.09,2.6,2.6,0,0,1,.46,0h0A0.29,0.29,0,0,0,73.11,4a0.51,0.51,0,0,0-.35-0.1,1.15,1.15,0,0,0-.4.07,2,2,0,0,0-.44.24,0.25,0.25,0,0,1-.14,0H71.71a0.25,0.25,0,0,1-.16-0.13L71.3,3.63a0.25,0.25,0,0,1,.09-0.32,2.58,2.58,0,0,1,1.45-.44,1.78,1.78,0,0,1,1.22.4,1.46,1.46,0,0,1,.46,1.15v1a0.21,0.21,0,0,1,.19.24V6.32a0.25,0.25,0,0,1-.2.25,2,2,0,0,1-.4,0,0.78,0.78,0,0,1-.51-0.16,0.67,0.67,0,0,1-.14-0.16,1.63,1.63,0,0,1-.27.17A1.71,1.71,0,0,1,72.43,6.63Zm0.4-1.56a0.62,0.62,0,0,0-.36.09,0.17,0.17,0,0,0-.09.15,0.18,0.18,0,0,0,.07.15,0.32,0.32,0,0,0,.22.07A0.79,0.79,0,0,0,73,5.48a0.45,0.45,0,0,0,.19-0.12l0.07-.07V5.12l-0.11,0Z" fill="#fff"/><path d="M72.84,3.12a1.54,1.54,0,0,1,1.05.33,1.22,1.22,0,0,1,.38,1v1a0.28,0.28,0,0,0,0,.18,0.2,0.2,0,0,0,.15.06V6.32a1.8,1.8,0,0,1-.35,0,0.54,0.54,0,0,1-.35-0.1A0.43,0.43,0,0,1,73.6,6l0-.17a1.39,1.39,0,0,1-.51.42,1.46,1.46,0,0,1-.64.14A1.19,1.19,0,0,1,72,6.3a1,1,0,0,1-.34-0.21,1,1,0,0,1-.22-0.31,0.94,0.94,0,0,1-.08-0.4A0.88,0.88,0,0,1,71.45,5a0.94,0.94,0,0,1,.28-0.32,1.38,1.38,0,0,1,.42-0.21,1.85,1.85,0,0,1,.54-0.08,2.34,2.34,0,0,1,.41,0,1.66,1.66,0,0,1,.36.1V4.32a0.63,0.63,0,0,0-.18-0.48,0.74,0.74,0,0,0-.52-0.17,1.39,1.39,0,0,0-.49.09,2.27,2.27,0,0,0-.49.26l-0.25-.51a2.32,2.32,0,0,1,1.31-.4M72.66,5.79A1,1,0,0,0,73,5.72a0.7,0.7,0,0,0,.29-0.19,0.29,0.29,0,0,0,.13-0.23V4.94l-0.31-.09a1.68,1.68,0,0,0-.32,0,0.86,0.86,0,0,0-.51.14,0.42,0.42,0,0,0-.2.36,0.43,0.43,0,0,0,.16.34,0.57,0.57,0,0,0,.38.14m0.18-3.17a2.82,2.82,0,0,0-1.58.49,0.5,0.5,0,0,0-.17.63l0.25,0.51,0,0.06a1.44,1.44,0,0,0-.35.43,1.38,1.38,0,0,0-.16.64A1.45,1.45,0,0,0,71,6a1.47,1.47,0,0,0,.34.47,1.51,1.51,0,0,0,.51.31,1.7,1.7,0,0,0,.6.11,2,2,0,0,0,.86-0.19l0.12-.06,0,0a1,1,0,0,0,.67.22,2.27,2.27,0,0,0,.45-0.05A0.5,0.5,0,0,0,75,6.32V5.63a0.5,0.5,0,0,0-.19-0.39V4.41a1.7,1.7,0,0,0-.54-1.34,2,2,0,0,0-1.39-.46h0Z"/><path d="M80.61,6.57a0.25,0.25,0,0,1-.25-0.25V4.51l-0.63,1.2a0.25,0.25,0,0,1-.22.13H79.06a0.25,0.25,0,0,1-.22-0.13l-0.63-1.2v1.8a0.25,0.25,0,0,1-.25.25H77.13a0.25,0.25,0,0,1-.25-0.25V2.06a0.25,0.25,0,0,1,.25-0.25H78a0.25,0.25,0,0,1,.22.13l1,2,1-2a0.25,0.25,0,0,1,.22-0.13h0.88a0.25,0.25,0,0,1,.25.25V6.32a0.25,0.25,0,0,1-.25.25H80.61Z" fill="#fff"/><path d="M81.43,2.06V6.32H80.61V3.5l-1.1,2.1H79.06L78,3.5V6.32H77.13V2.06H78l1.26,2.42,1.27-2.42h0.88m0-.5H80.55a0.5,0.5,0,0,0-.44.27L79.28,3.4,78.46,1.83A0.5,0.5,0,0,0,78,1.56H77.13a0.5,0.5,0,0,0-.5.5V6.32a0.5,0.5,0,0,0,.5.5H78a0.5,0.5,0,0,0,.5-0.5V5.53l0.16,0.3a0.5,0.5,0,0,0,.44.27h0.45A0.5,0.5,0,0,0,80,5.83l0.16-.3V6.32a0.5,0.5,0,0,0,.5.5h0.83a0.5,0.5,0,0,0,.5-0.5V2.06a0.5,0.5,0,0,0-.5-0.5h0Z"/><path d="M84,6.63a2,2,0,0,1-.78-0.15,1.83,1.83,0,0,1-.6-0.41,1.79,1.79,0,0,1-.39-0.6,1.91,1.91,0,0,1-.13-0.71A2,2,0,0,1,82.19,4a1.79,1.79,0,0,1,.38-0.6A1.84,1.84,0,0,1,83.18,3,2,2,0,0,1,84,2.87a2,2,0,0,1,.79.15,1.84,1.84,0,0,1,.6.41,1.76,1.76,0,0,1,.38.6,2,2,0,0,1,.13.7V4.89a0.91,0.91,0,0,1,0,.17,0.25,0.25,0,0,1-.24.19H85.27l0.22,0.06a0.25,0.25,0,0,1,.16.14,0.24,0.24,0,0,1,0,.21,1.65,1.65,0,0,1-.65.7A2,2,0,0,1,84,6.63ZM83.49,5.25a0.55,0.55,0,0,0,.29.25,0.6,0.6,0,0,0,.21,0,0.67,0.67,0,0,0,.33-0.09,0.38,0.38,0,0,0,.18-0.18v0h-1Zm1-1a0.56,0.56,0,0,0-.11-0.13A0.55,0.55,0,0,0,84,4a0.54,0.54,0,0,0-.38.15,0.57,0.57,0,0,0-.1.13h1Z" fill="#fff"/><path d="M84,3.12a1.7,1.7,0,0,1,.69.13,1.59,1.59,0,0,1,.52.35,1.51,1.51,0,0,1,.32.52,1.71,1.71,0,0,1,.11.61c0,0.05,0,.1,0,0.15a0.63,0.63,0,0,1,0,.12H83.16a1,1,0,0,0,.09.33,0.84,0.84,0,0,0,.19.25,0.82,0.82,0,0,0,.26.16,0.84,0.84,0,0,0,.3.05,0.92,0.92,0,0,0,.45-0.12,0.62,0.62,0,0,0,.29-0.31l0.69,0.19a1.4,1.4,0,0,1-.56.59,1.72,1.72,0,0,1-.91.23,1.75,1.75,0,0,1-.68-0.13,1.56,1.56,0,0,1-.52-0.35,1.53,1.53,0,0,1-.33-0.52,1.65,1.65,0,0,1-.12-0.62,1.75,1.75,0,0,1,.11-0.63,1.54,1.54,0,0,1,.33-0.52,1.58,1.58,0,0,1,.53-0.36A1.75,1.75,0,0,1,84,3.12M83.14,4.48h1.63a0.84,0.84,0,0,0-.26-0.57,0.82,0.82,0,0,0-1.11,0,0.81,0.81,0,0,0-.18.25,0.86,0.86,0,0,0-.08.32M84,2.62a2.25,2.25,0,0,0-.89.17,2.09,2.09,0,0,0-.69.47A2,2,0,0,0,82,4a2.25,2.25,0,0,0-.15.81,2.16,2.16,0,0,0,.15.8,2,2,0,0,0,.44.68,2.06,2.06,0,0,0,.69.46,2.25,2.25,0,0,0,.88.17,2.22,2.22,0,0,0,1.17-.3,1.9,1.9,0,0,0,.75-0.8,0.5,0.5,0,0,0,0-.38,0.5,0.5,0,0,0,.17-0.27,1.12,1.12,0,0,0,0-.22c0-.05,0-0.11,0-0.17A2.22,2.22,0,0,0,86,3.94a2,2,0,0,0-.43-0.68,2.09,2.09,0,0,0-.68-0.47A2.21,2.21,0,0,0,84,2.62h0Z"/><path d="M88.51,6.57a0.25,0.25,0,0,1-.25-0.25V4.55a0.68,0.68,0,0,0-.08-0.4A0.18,0.18,0,0,0,88,4.08l-0.16,0a0.68,0.68,0,0,0-.17.1,0.86,0.86,0,0,0-.16.16,0.56,0.56,0,0,0-.09.18V6.32a0.25,0.25,0,0,1-.25.25H86.4a0.25,0.25,0,0,1-.25-0.25V3.17a0.25,0.25,0,0,1,.25-0.25h0.73a0.25,0.25,0,0,1,.25.22l0.14-.08a1.87,1.87,0,0,1,.86-0.2A1.19,1.19,0,0,1,89,3a1,1,0,0,1,.38.37,1.41,1.41,0,0,1,.17.48,2.75,2.75,0,0,1,0,.49v2a0.25,0.25,0,0,1-.25.25h-0.8Z" fill="#fff"/><path d="M88.37,3.12a1,1,0,0,1,.48.11,0.78,0.78,0,0,1,.29.28,1.18,1.18,0,0,1,.14.4,2.56,2.56,0,0,1,0,.45v2h-0.8V4.55A0.92,0.92,0,0,0,88.38,4,0.43,0.43,0,0,0,88,3.83a0.68,0.68,0,0,0-.25,0,0.91,0.91,0,0,0-.24.13,1.11,1.11,0,0,0-.2.21,0.83,0.83,0,0,0-.13.26V6.32H86.4V3.17h0.73V3.75a1.19,1.19,0,0,1,.5-0.47,1.61,1.61,0,0,1,.74-0.17m0-.5a2.13,2.13,0,0,0-.9.19,0.5,0.5,0,0,0-.34-0.14H86.4a0.5,0.5,0,0,0-.5.5V6.32a0.5,0.5,0,0,0,.5.5h0.8a0.5,0.5,0,0,0,.5-0.5V4.57l0-.05,0.11-.11,0.11-.06H88s0,0.09,0,.22V6.32a0.5,0.5,0,0,0,.5.5h0.8a0.5,0.5,0,0,0,.5-0.5v-2a3.07,3.07,0,0,0,0-.54,1.68,1.68,0,0,0-.2-0.56,1.28,1.28,0,0,0-.47-0.46,1.44,1.44,0,0,0-.73-0.18h0Z"/><path d="M91.51,6.63a2.7,2.7,0,0,1-.85-0.14,2.16,2.16,0,0,1-.73-0.41,0.25,0.25,0,0,1-.05-0.32l0.3-.5a0.25,0.25,0,0,1,.16-0.12h0.05a0.25,0.25,0,0,1,.14,0,2.31,2.31,0,0,0,.51.28,1.25,1.25,0,0,0,.45.09,0.45,0.45,0,0,0,.24,0,0.9,0.9,0,0,0-.48-0.23L90.71,5.1a1.6,1.6,0,0,1-.41-0.21A0.86,0.86,0,0,1,90,4.56a1,1,0,0,1-.08-0.41,1.24,1.24,0,0,1,.12-0.54,1.2,1.2,0,0,1,.33-0.41,1.44,1.44,0,0,1,.47-0.25,1.85,1.85,0,0,1,.57-0.08,2.36,2.36,0,0,1,.74.11,1.87,1.87,0,0,1,.65.38,0.25,0.25,0,0,1,0,.33l-0.32.49a0.25,0.25,0,0,1-.17.11h0a0.25,0.25,0,0,1-.15,0A1.66,1.66,0,0,0,91.78,4a1,1,0,0,0-.36-0.07,0.41,0.41,0,0,0-.21,0,0.18,0.18,0,0,0,.14.13l0.27,0.08c0.23,0.06.42,0.12,0.58,0.18a1.73,1.73,0,0,1,.44.23,0.94,0.94,0,0,1,.29.34,1,1,0,0,1,.09.45,1.11,1.11,0,0,1-.44.93A1.72,1.72,0,0,1,91.51,6.63Z" fill="#fff"/><path d="M91.43,3.11a2.11,2.11,0,0,1,.66.1,1.62,1.62,0,0,1,.57.33L92.34,4a1.88,1.88,0,0,0-.47-0.26,1.26,1.26,0,0,0-.45-0.08,0.65,0.65,0,0,0-.34.08,0.29,0.29,0,0,0-.14.27,0.26,0.26,0,0,0,0,.14,0.28,0.28,0,0,0,.1.1l0.19,0.08,0.29,0.08L92.12,4.6a1.49,1.49,0,0,1,.38.19,0.68,0.68,0,0,1,.22.25,0.78,0.78,0,0,1,.07.34,0.87,0.87,0,0,1-.34.73,1.47,1.47,0,0,1-.93.27,2.43,2.43,0,0,1-.77-0.13,1.9,1.9,0,0,1-.65-0.36l0.3-.5a2.56,2.56,0,0,0,.56.31,1.5,1.5,0,0,0,.54.1,0.68,0.68,0,0,0,.38-0.09A0.29,0.29,0,0,0,92,5.45a0.26,0.26,0,0,0-.16-0.25A3.47,3.47,0,0,0,91.32,5l-0.52-.16a1.34,1.34,0,0,1-.35-0.18,0.61,0.61,0,0,1-.19-0.23,0.73,0.73,0,0,1-.06-0.31,1,1,0,0,1,.09-0.43,0.94,0.94,0,0,1,.26-0.33,1.19,1.19,0,0,1,.39-0.21,1.59,1.59,0,0,1,.49-0.07m0-.5a2.1,2.1,0,0,0-.64.1,1.69,1.69,0,0,0-.55.29,1.44,1.44,0,0,0-.4.5,1.49,1.49,0,0,0-.14.65,1.22,1.22,0,0,0,.11.52,1.07,1.07,0,0,0,.25.34,0.5,0.5,0,0,0-.1.12l-0.3.5a0.5,0.5,0,0,0,.1.63,2.41,2.41,0,0,0,.82.46,2.94,2.94,0,0,0,.93.15,2,2,0,0,0,1.24-.37,1.37,1.37,0,0,0,.53-1.12,1.27,1.27,0,0,0-.12-0.55,1.19,1.19,0,0,0-.37-0.44l-0.06,0,0,0,0.32-.49A0.5,0.5,0,0,0,93,3.17a2.12,2.12,0,0,0-.74-0.43,2.61,2.61,0,0,0-.82-0.13h0Z"/><path d="M94.56,6.63a1.13,1.13,0,0,1-.93-0.4,1.69,1.69,0,0,1-.31-1.08v-2a0.25,0.25,0,0,1,.25-0.25h0.8a0.25,0.25,0,0,1,.25.25V5c0,0.48.18,0.48,0.27,0.48a0.58,0.58,0,0,0,.32-0.1,0.73,0.73,0,0,0,.24-0.28V3.17a0.25,0.25,0,0,1,.25-0.25h0.8a0.25,0.25,0,0,1,.25.25V5.39a0.21,0.21,0,0,1,.19.24V6.32a0.25,0.25,0,0,1-.2.25l-0.23,0H96.36a0.83,0.83,0,0,1-.5-0.15,0.62,0.62,0,0,1-.18-0.2,1.57,1.57,0,0,1-.28.18A1.88,1.88,0,0,1,94.56,6.63Z" fill="#fff"/><path d="M96.51,3.17V5.39a0.28,0.28,0,0,0,0,.18,0.2,0.2,0,0,0,.15.06V6.32l-0.2,0H96.36A0.58,0.58,0,0,1,96,6.25,0.39,0.39,0,0,1,95.85,6l0-.25a1.34,1.34,0,0,1-.54.49,1.62,1.62,0,0,1-.73.16,0.89,0.89,0,0,1-.74-0.31,1.45,1.45,0,0,1-.25-0.92v-2h0.8V5q0,0.73.52,0.73a0.83,0.83,0,0,0,.45-0.14,1,1,0,0,0,.36-0.43v-2h0.8m0-.5h-0.8a0.5,0.5,0,0,0-.5.5V5a0.44,0.44,0,0,1-.13.14,0.32,0.32,0,0,1-.18.06,0.82,0.82,0,0,1,0-.23V3.17a0.5,0.5,0,0,0-.5-0.5h-0.8a0.5,0.5,0,0,0-.5.5v2a1.93,1.93,0,0,0,.36,1.24,1.38,1.38,0,0,0,1.13.5,2.13,2.13,0,0,0,.95-0.21l0.13-.07,0.07,0.06a1.07,1.07,0,0,0,.65.2h0.19l0.26,0a0.5,0.5,0,0,0,.4-0.49V5.63A0.5,0.5,0,0,0,97,5.24V3.17a0.5,0.5,0,0,0-.5-0.5h0Z"/><path d="M98.47,6.63A1.43,1.43,0,0,1,98,6.53a1.26,1.26,0,0,1-.42-0.26,1.24,1.24,0,0,1-.28-0.39,1.2,1.2,0,0,1-.1-0.5,1.12,1.12,0,0,1,.13-0.53,1.19,1.19,0,0,1,.35-0.4,1.63,1.63,0,0,1,.5-0.25,2.11,2.11,0,0,1,.61-0.09,2.61,2.61,0,0,1,.46,0h0A0.29,0.29,0,0,0,99.15,4a0.51,0.51,0,0,0-.35-0.1,1.15,1.15,0,0,0-.4.07,2.06,2.06,0,0,0-.44.24,0.25,0.25,0,0,1-.14,0H97.75a0.25,0.25,0,0,1-.16-0.13l-0.25-.51a0.25,0.25,0,0,1,.09-0.32,2.57,2.57,0,0,1,1.45-.44,1.78,1.78,0,0,1,1.22.4,1.46,1.46,0,0,1,.46,1.15v1a0.21,0.21,0,0,1,.19.24V6.32a0.25,0.25,0,0,1-.2.25,2,2,0,0,1-.4,0,0.78,0.78,0,0,1-.51-0.16,0.66,0.66,0,0,1-.14-0.16,1.63,1.63,0,0,1-.27.17A1.72,1.72,0,0,1,98.47,6.63Zm0.4-1.56a0.62,0.62,0,0,0-.36.09,0.17,0.17,0,0,0-.09.15,0.18,0.18,0,0,0,.07.15,0.32,0.32,0,0,0,.22.07A0.79,0.79,0,0,0,99,5.48a0.46,0.46,0,0,0,.19-0.12l0.07-.07V5.12l-0.11,0Z" fill="#fff"/><path d="M98.88,3.12a1.53,1.53,0,0,1,1.05.33,1.22,1.22,0,0,1,.37,1v1a0.28,0.28,0,0,0,0,.18,0.19,0.19,0,0,0,.15.06V6.32a1.8,1.8,0,0,1-.35,0,0.54,0.54,0,0,1-.35-0.1A0.44,0.44,0,0,1,99.64,6l0-.17a1.39,1.39,0,0,1-.51.42,1.46,1.46,0,0,1-.64.14A1.19,1.19,0,0,1,98,6.3a1,1,0,0,1-.34-0.21,1,1,0,0,1-.22-0.31,0.94,0.94,0,0,1-.08-0.4A0.87,0.87,0,0,1,97.49,5a0.94,0.94,0,0,1,.28-0.32,1.37,1.37,0,0,1,.42-0.21,1.85,1.85,0,0,1,.54-0.08,2.34,2.34,0,0,1,.41,0,1.66,1.66,0,0,1,.36.1V4.32a0.63,0.63,0,0,0-.18-0.48,0.74,0.74,0,0,0-.53-0.17,1.39,1.39,0,0,0-.49.09,2.29,2.29,0,0,0-.49.26l-0.25-.51a2.32,2.32,0,0,1,1.31-.4M98.7,5.79a1,1,0,0,0,.39-0.07,0.7,0.7,0,0,0,.29-0.19A0.29,0.29,0,0,0,99.5,5.3V4.94l-0.31-.09a1.69,1.69,0,0,0-.32,0,0.86,0.86,0,0,0-.51.14,0.42,0.42,0,0,0-.2.36,0.43,0.43,0,0,0,.16.34,0.57,0.57,0,0,0,.38.14m0.18-3.17a2.82,2.82,0,0,0-1.58.49,0.5,0.5,0,0,0-.17.63l0.25,0.51,0,0.06a1.44,1.44,0,0,0-.35.43,1.37,1.37,0,0,0-.16.64A1.45,1.45,0,0,0,97,6a1.47,1.47,0,0,0,.34.47,1.51,1.51,0,0,0,.51.31,1.69,1.69,0,0,0,.6.11,2,2,0,0,0,.86-0.19l0.12-.06,0,0a1,1,0,0,0,.67.22,2.27,2.27,0,0,0,.45-0.05,0.5,0.5,0,0,0,.4-0.49V5.63a0.5,0.5,0,0,0-.19-0.39V4.41a1.7,1.7,0,0,0-.54-1.34,2,2,0,0,0-1.38-.46h0Z"/><path d="M102.14,6.61a1,1,0,0,1-.76-0.27,1,1,0,0,1-.28-0.75V1.94a0.25,0.25,0,0,1,.25-0.25h0.8a0.25,0.25,0,0,1,.25.25V5.31a0.17,0.17,0,0,0,0,.11l0.21,0.24-0.07-.24,0.13,0,0.1,0a0.25,0.25,0,0,1,.12,0,0.25,0.25,0,0,1,.13.18l0.11,0.61a0.25,0.25,0,0,1-.14.27,1.81,1.81,0,0,1-.44.14A2.28,2.28,0,0,1,102.14,6.61Z" fill="#fff"/><path d="M102.15,1.94V5.31a0.4,0.4,0,0,0,.08.27,0.3,0.3,0,0,0,.24.1l0.16,0,0.16-.06,0.11,0.61a1.57,1.57,0,0,1-.38.12,2,2,0,0,1-.39,0,0.81,0.81,0,0,1-.58-0.2,0.76,0.76,0,0,1-.21-0.57V1.94h0.8m0-.5h-0.8a0.5,0.5,0,0,0-.5.5V5.59a1.24,1.24,0,0,0,.36.93,1.29,1.29,0,0,0,.93.34,2.53,2.53,0,0,0,.49-0.05,2.07,2.07,0,0,0,.5-0.16,0.5,0.5,0,0,0,.28-0.54l-0.11-.61a0.5,0.5,0,0,0-.49-0.41l-0.15,0V1.94a0.5,0.5,0,0,0-.5-0.5h0Z"/><path d="M105.6,3.45A0.83,0.83,0,0,1,105,3.2a0.88,0.88,0,0,1-.24-0.63A0.83,0.83,0,0,1,105,2a0.84,0.84,0,0,1,.62-0.24,0.85,0.85,0,0,1,.62.24,0.82,0.82,0,0,1,.25.6,0.87,0.87,0,0,1-.25.64A0.85,0.85,0,0,1,105.6,3.45Z" fill="#fff"/><path d="M105.6,2a0.61,0.61,0,0,1,.44.17,0.57,0.57,0,0,1,.17.42A0.62,0.62,0,0,1,106,3a0.6,0.6,0,0,1-.44.17A0.59,0.59,0,0,1,105.16,3,0.63,0.63,0,0,1,105,2.57a0.57,0.57,0,0,1,.17-0.42A0.6,0.6,0,0,1,105.6,2m0,0.84a0.2,0.2,0,0,0,.16-0.07,0.2,0.2,0,0,0,.06-0.15,0.25,0.25,0,0,0-.06-0.16l-0.07,0-0.09,0a0.22,0.22,0,0,0-.22.23,0.2,0.2,0,0,0,.06.15,0.25,0.25,0,0,0,.16.07m0-1.34a1.1,1.1,0,0,0-.79.32,1.07,1.07,0,0,0-.32.78,1.13,1.13,0,0,0,.31.81,1.09,1.09,0,0,0,.8.33,1.1,1.1,0,0,0,.8-0.32,1.12,1.12,0,0,0,.32-0.82,1.07,1.07,0,0,0-.32-0.78,1.11,1.11,0,0,0-.79-0.31h0Z"/><path d="M109,6.6a2.07,2.07,0,0,1-.95-0.22,2.47,2.47,0,0,1-.73-0.56A2.61,2.61,0,0,1,106.86,5a2.42,2.42,0,0,1,0-1.75A2.32,2.32,0,0,1,108,2a2.29,2.29,0,0,1,1-.21,2.19,2.19,0,0,1,1.15.29,1.91,1.91,0,0,1,.73.77,0.25,0.25,0,0,1-.08.32l-0.64.44a0.25,0.25,0,0,1-.14,0H110a0.25,0.25,0,0,1-.16-0.14,0.83,0.83,0,0,0-.16-0.23,0.8,0.8,0,0,0-.19-0.15A0.91,0.91,0,0,0,109.26,3L109,3a0.87,0.87,0,0,0-.42.1,1,1,0,0,0-.3.26,1.21,1.21,0,0,0-.19.38,1.48,1.48,0,0,0-.07.43,1.37,1.37,0,0,0,.08.46,1.19,1.19,0,0,0,.21.38,1,1,0,0,0,.32.26,0.83,0.83,0,0,0,.39.09l0.24,0a0.88,0.88,0,0,0,.23-0.09,0.87,0.87,0,0,0,.2-0.16,0.68,0.68,0,0,0,.14-0.22A0.25,0.25,0,0,1,110,4.74h0.08a0.25,0.25,0,0,1,.13,0l0.68,0.39a0.25,0.25,0,0,1,.1.31,1.53,1.53,0,0,1-.35.5,2.14,2.14,0,0,1-.48.35,2.43,2.43,0,0,1-.56.21A2.48,2.48,0,0,1,109,6.6Z" fill="#fff"/><path d="M109,2a1.94,1.94,0,0,1,1,.26,1.65,1.65,0,0,1,.64.67l-0.64.44a1.08,1.08,0,0,0-.2-0.3,1,1,0,0,0-.26-0.19,1.15,1.15,0,0,0-.29-0.1,1.36,1.36,0,0,0-.29,0,1.12,1.12,0,0,0-.54.13,1.2,1.2,0,0,0-.38.33,1.47,1.47,0,0,0-.23.46,1.73,1.73,0,0,0-.08.51,1.64,1.64,0,0,0,.09.54,1.44,1.44,0,0,0,.25.46,1.29,1.29,0,0,0,.4.32,1.08,1.08,0,0,0,.51.12,1.34,1.34,0,0,0,.3,0,1.13,1.13,0,0,0,.56-0.31,0.92,0.92,0,0,0,.19-0.3l0.68,0.39a1.29,1.29,0,0,1-.29.42,1.88,1.88,0,0,1-.43.31,2.18,2.18,0,0,1-.51.19,2.23,2.23,0,0,1-.53.07,1.82,1.82,0,0,1-.83-0.19,2.19,2.19,0,0,1-.65-0.5,2.34,2.34,0,0,1-.43-0.7,2.17,2.17,0,0,1,0-1.57,2.07,2.07,0,0,1,1.07-1.17A2,2,0,0,1,109,2m0-.5a2.54,2.54,0,0,0-1.1.23,2.57,2.57,0,0,0-1.32,1.45,2.67,2.67,0,0,0,0,1.93,2.85,2.85,0,0,0,.52.85,2.7,2.7,0,0,0,.8.62,2.32,2.32,0,0,0,1.06.25,2.74,2.74,0,0,0,.65-0.08,2.69,2.69,0,0,0,.62-0.24,2.39,2.39,0,0,0,.54-0.39,1.79,1.79,0,0,0,.4-0.59A0.5,0.5,0,0,0,111,4.93l-0.68-.39a0.5,0.5,0,0,0-.25-0.07l-0.16,0a0.5,0.5,0,0,0-.3.28,0.43,0.43,0,0,1-.09.14,0.62,0.62,0,0,1-.14.11l-0.17.06-0.19,0a0.59,0.59,0,0,1-.28-0.06,0.78,0.78,0,0,1-.24-0.2,0.93,0.93,0,0,1-.17-0.3,1.14,1.14,0,0,1-.06-0.38,1.24,1.24,0,0,1,.06-0.36,1,1,0,0,1,.15-0.3,0.69,0.69,0,0,1,.23-0.19,0.63,0.63,0,0,1,.3-0.06l0.19,0,0.16,0.06a0.54,0.54,0,0,1,.13.1,0.59,0.59,0,0,1,.11.16,0.5,0.5,0,0,0,.32.27l0.13,0a0.5,0.5,0,0,0,.28-0.09L111,3.37a0.5,0.5,0,0,0,.16-0.64,2.15,2.15,0,0,0-.83-0.87A2.44,2.44,0,0,0,109,1.53h0Z"/><path d="M5.07,48.23a0.25,0.25,0,0,1-.13,0l-2.53-1.5a0.25,0.25,0,0,1-.12-0.21V46.09a0.25,0.25,0,0,1,.12-0.21l2.53-1.53a0.24,0.24,0,0,1,.13,0,0.25,0.25,0,0,1,.25.25v0.85a0.25,0.25,0,0,1-.12.21l-1,.63,1,0.61a0.25,0.25,0,0,1,.12.21V48A0.25,0.25,0,0,1,5.07,48.23Z" fill="#fff"/><path d="M5.07,44.56v0.85l-1.36.85,1.36,0.82V48l-2.53-1.5V46.09l2.53-1.53m0-.5a0.5,0.5,0,0,0-.26.07L2.28,45.66a0.5,0.5,0,0,0-.24.43v0.39a0.5,0.5,0,0,0,.25.43l2.53,1.5A0.5,0.5,0,0,0,5.57,48v-0.9a0.5,0.5,0,0,0-.24-0.43l-0.66-.4,0.67-.42a0.5,0.5,0,0,0,.23-0.42V44.56a0.5,0.5,0,0,0-.5-0.5h0Z"/><path d="M6.12,48.07a0.25,0.25,0,0,1-.25-0.25V47.09a0.25,0.25,0,0,1,.25-0.25h0.6V45.75l-0.07,0a2.06,2.06,0,0,1-.33.12A1.19,1.19,0,0,1,6,46a0.25,0.25,0,0,1-.25-0.25V45A0.25,0.25,0,0,1,6,44.71a0.44,0.44,0,0,0,.16,0l0.27-.15,0.24-.17,0.09-.08A0.28,0.28,0,0,1,7,44.14H7.8a0.25,0.25,0,0,1,.25.25v2.45H8.56a0.25,0.25,0,0,1,.25.25v0.73a0.25,0.25,0,0,1-.25.25H6.12Z" fill="#fff"/><path d="M7.8,44.39v2.7H8.56v0.73H6.12V47.09H7V45.27a0.66,0.66,0,0,1-.17.15l-0.25.14-0.29.11a1,1,0,0,1-.26,0V45a0.67,0.67,0,0,0,.26-0.07,2.28,2.28,0,0,0,.31-0.17l0.26-.19A0.67,0.67,0,0,0,7,44.39H7.8m0-.5H7a0.5,0.5,0,0,0-.43.25h0l0,0-0.21.15-0.24.13L6,44.46a0.49,0.49,0,0,0-.49.5v0.75a0.5,0.5,0,0,0,.5.5,1.44,1.44,0,0,0,.4-0.06l0.07,0v0.46H6.12a0.5,0.5,0,0,0-.5.5v0.73a0.5,0.5,0,0,0,.5.5H8.56a0.5,0.5,0,0,0,.5-0.5V47.09a0.5,0.5,0,0,0-.5-0.5H8.3v-2.2a0.5,0.5,0,0,0-.5-0.5h0Z"/><path d="M10.57,49a2,2,0,0,1-1-.23A1.61,1.61,0,0,1,9,48.09a0.25,0.25,0,0,1,0-.3l0.46-.48a0.25,0.25,0,0,1,.18-0.08h0a0.25,0.25,0,0,1,.18.1,1,1,0,0,0,.34.3,0.82,0.82,0,0,0,.4.11,0.5,0.5,0,0,0,.36-0.13,0.43,0.43,0,0,0,.13-0.34,0.42,0.42,0,0,0-.44-0.45,0.53,0.53,0,0,0-.25.06,0.46,0.46,0,0,0-.18.16,0.25,0.25,0,0,1-.21.11H9.28A0.25,0.25,0,0,1,9,46.93a0.86,0.86,0,0,1,0-.19l0.47-2.4a0.25,0.25,0,0,1,.25-0.2h2.1a0.25,0.25,0,0,1,.25.25v0.73a0.25,0.25,0,0,1-.25.25H10.57l-0.05.29h0.23a1.81,1.81,0,0,1,.65.12,1.51,1.51,0,0,1,.88.85,1.78,1.78,0,0,1,0,1.34,1.59,1.59,0,0,1-.39.54,1.76,1.76,0,0,1-.58.34A2.08,2.08,0,0,1,10.57,49Z" fill="#fff"/><path d="M11.88,44.39v0.73H10.36l-0.17,1A0.52,0.52,0,0,1,10.4,46a1.07,1.07,0,0,1,.35,0,1.56,1.56,0,0,1,.56.1,1.26,1.26,0,0,1,.74.71,1.53,1.53,0,0,1,0,1.15,1.32,1.32,0,0,1-.33.45,1.5,1.5,0,0,1-.5.29,1.82,1.82,0,0,1-.62.1,1.74,1.74,0,0,1-.84-0.2A1.36,1.36,0,0,1,9.18,48l0.46-.48a1.24,1.24,0,0,0,.42.37,1.07,1.07,0,0,0,.52.14,0.75,0.75,0,0,0,.53-0.19,0.68,0.68,0,0,0,.21-0.52,0.66,0.66,0,0,0-.69-0.7,0.78,0.78,0,0,0-.37.09,0.71,0.71,0,0,0-.27.25H9.28a1.2,1.2,0,0,1,0-.13l0.06-.3,0.08-.41,0.09-.46,0.24-1.24h2.1m0-.5H9.78a0.5,0.5,0,0,0-.49.41l-0.16.84L9,45.53,9,45.88,9,46l-0.08.41,0,0.18,0,0.12a1.05,1.05,0,0,0,0,.23,0.5,0.5,0,0,0,.27.45l-0.24.25a0.5,0.5,0,0,0-.08.59A1.86,1.86,0,0,0,9.5,49a2.24,2.24,0,0,0,1.07.26,2.32,2.32,0,0,0,.79-0.13A2,2,0,0,0,12,48.68a1.82,1.82,0,0,0,.45-0.62,2,2,0,0,0,0-1.54,1.8,1.8,0,0,0-.4-0.6,1.77,1.77,0,0,0-.42-0.3h0.2a0.5,0.5,0,0,0,.5-0.5V44.39a0.5,0.5,0,0,0-.5-0.5h0Zm-1.66,3.48a0.5,0.5,0,0,0,.19-0.17,0.21,0.21,0,0,1,.08-0.07,0.28,0.28,0,0,1,.14,0,0.17,0.17,0,0,1,.19.2,0.18,0.18,0,0,1-.05.16,0.25,0.25,0,0,1-.19.06,0.58,0.58,0,0,1-.28-0.08l-0.08-.05h0Z"/><path d="M114.38,48.23a0.25,0.25,0,0,1-.13,0l-2.53-1.5a0.25,0.25,0,0,1-.12-0.21V46.09a0.25,0.25,0,0,1,.12-0.21l2.53-1.53a0.24,0.24,0,0,1,.13,0,0.25,0.25,0,0,1,.25.25v0.85a0.25,0.25,0,0,1-.12.21l-1,.63,1,0.61a0.25,0.25,0,0,1,.12.21V48A0.25,0.25,0,0,1,114.38,48.23Z" fill="#fff"/><path d="M114.38,44.56v0.85l-1.36.85,1.36,0.82V48l-2.53-1.5V46.09l2.53-1.53m0-.5a0.5,0.5,0,0,0-.26.07l-2.53,1.53a0.5,0.5,0,0,0-.24.43v0.39a0.5,0.5,0,0,0,.25.43l2.53,1.5a0.5,0.5,0,0,0,.75-0.43v-0.9a0.5,0.5,0,0,0-.24-0.43l-0.66-.4,0.67-.42a0.5,0.5,0,0,0,.23-0.42V44.56a0.5,0.5,0,0,0-.5-0.5h0Z"/><path d="M115.27,48.07a0.25,0.25,0,0,1-.25-0.25,3,3,0,0,1,0-.54,1.54,1.54,0,0,1,.52-0.89,2.8,2.8,0,0,1,.51-0.35l0.44-.23,0.29-.17a0.5,0.5,0,0,0,.13-0.11,0.15,0.15,0,0,0,0-.17,0.38,0.38,0,0,0-.25-0.06,0.6,0.6,0,0,0-.19,0l-0.17.08-0.16.12-0.13.14a0.25,0.25,0,0,1-.19.09h0a0.25,0.25,0,0,1-.19-0.09l-0.52-.59a0.25,0.25,0,0,1,0-.33,1.57,1.57,0,0,1,.26-0.22,2.36,2.36,0,0,1,.38-0.21,2.72,2.72,0,0,1,.47-0.16,2.5,2.5,0,0,1,.57-0.06,2.09,2.09,0,0,1,.62.09,1.45,1.45,0,0,1,.49.25,1.16,1.16,0,0,1,.32.42,1.23,1.23,0,0,1,.11.51,1.09,1.09,0,0,1-.1.48,1.37,1.37,0,0,1-.24.35,1.78,1.78,0,0,1-.3.25l-0.29.18-0.39.23h1.15a0.25,0.25,0,0,1,.25.25v0.73a0.25,0.25,0,0,1-.25.25h-2.89Z" fill="#fff"/><path d="M116.81,44.33a1.84,1.84,0,0,1,.55.08,1.2,1.2,0,0,1,.41.21,0.89,0.89,0,0,1,.25.32,1,1,0,0,1,.09.41,0.85,0.85,0,0,1-.08.37,1.1,1.1,0,0,1-.2.29,1.54,1.54,0,0,1-.26.22l-0.27.17-0.25.14-0.27.17-0.25.19a0.88,0.88,0,0,0-.17.19h1.82v0.73h-2.89a2.66,2.66,0,0,1,0-.49,1.33,1.33,0,0,1,.15-0.41,1.35,1.35,0,0,1,.29-0.35,2.59,2.59,0,0,1,.46-0.32l0.43-.23,0.32-.18a0.76,0.76,0,0,0,.19-0.17,0.32,0.32,0,0,0,.07-0.2,0.4,0.4,0,0,0-.14-0.31,0.6,0.6,0,0,0-.41-0.13,0.84,0.84,0,0,0-.26,0,1,1,0,0,0-.22.1l-0.19.15-0.16.17-0.52-.59a1.34,1.34,0,0,1,.22-0.18,2.15,2.15,0,0,1,.34-0.19,2.51,2.51,0,0,1,.43-0.14,2.21,2.21,0,0,1,.51-0.06m0-.5a2.72,2.72,0,0,0-.62.07,3,3,0,0,0-.52.17,2.66,2.66,0,0,0-.42.23,1.8,1.8,0,0,0-.31.26,0.5,0.5,0,0,0,0,.67l0.52,0.59a0.5,0.5,0,0,0,.26.16,2.61,2.61,0,0,0-.29.22,1.86,1.86,0,0,0-.39.48,1.83,1.83,0,0,0-.2.55,3.19,3.19,0,0,0-.05.58,0.5,0.5,0,0,0,.5.5h2.89a0.5,0.5,0,0,0,.5-0.5V47.09a0.5,0.5,0,0,0-.5-0.5h-0.25a2.06,2.06,0,0,0,.27-0.24,1.61,1.61,0,0,0,.29-0.42,1.34,1.34,0,0,0,.13-0.59,1.48,1.48,0,0,0-.13-0.62,1.39,1.39,0,0,0-.39-0.5,1.7,1.7,0,0,0-.57-0.3,2.34,2.34,0,0,0-.69-0.1h0Z"/><path d="M120.53,48.12a2.07,2.07,0,0,1-.68-0.11,1.78,1.78,0,0,1-.57-0.33,1.55,1.55,0,0,1-.39-0.51,1.46,1.46,0,0,1-.15-0.65,1.15,1.15,0,0,1,.08-0.42,1.36,1.36,0,0,1,.19-0.34,1.64,1.64,0,0,1,.22-0.23,1.34,1.34,0,0,1-.15-0.17,1,1,0,0,1-.2-0.62A1.22,1.22,0,0,1,119,44.1a1.44,1.44,0,0,1,.4-0.44A1.86,1.86,0,0,1,120,43.4a1.9,1.9,0,0,1,.57-0.09,2,2,0,0,1,.57.08,1.74,1.74,0,0,1,.54.26,1.51,1.51,0,0,1,.4.44,1.22,1.22,0,0,1,.17.64,1,1,0,0,1-.06.33,1.1,1.1,0,0,1-.15.29,1.24,1.24,0,0,1-.16.18,1.52,1.52,0,0,1,.23.25,1.38,1.38,0,0,1,.19.35,1.25,1.25,0,0,1,.07.43,1.42,1.42,0,0,1-.15.65,1.53,1.53,0,0,1-.4.49,1.79,1.79,0,0,1-.57.31A2.17,2.17,0,0,1,120.53,48.12Zm0-2a0.61,0.61,0,0,0-.2,0,0.5,0.5,0,0,0-.15.08,0.39,0.39,0,0,0-.1.12,0.31,0.31,0,0,0,0,.15,0.3,0.3,0,0,0,0,.14,0.44,0.44,0,0,0,.1.13,0.48,0.48,0,0,0,.16.09,0.6,0.6,0,0,0,.19,0,0.55,0.55,0,0,0,.19,0,0.52,0.52,0,0,0,.16-0.09,0.36,0.36,0,0,0,.1-0.12,0.3,0.3,0,0,0,0-.14,0.32,0.32,0,0,0,0-.15,0.36,0.36,0,0,0-.1-0.12,0.54,0.54,0,0,0-.16-0.08A0.61,0.61,0,0,0,120.53,46.12Zm0-1.6a0.42,0.42,0,0,0-.27.08,0.18,0.18,0,0,0-.08.16,0.28,0.28,0,0,0,.09.17L120.4,45l0.14,0,0.14,0,0.11-.06a0.29,0.29,0,0,0,.08-0.09,0.22,0.22,0,0,0-.06-0.25A0.45,0.45,0,0,0,120.53,44.52Z" fill="#fff"/><path d="M120.54,43.56a1.76,1.76,0,0,1,.5.07,1.47,1.47,0,0,1,.46.23,1.25,1.25,0,0,1,.34.37,1,1,0,0,1,.13.51,0.76,0.76,0,0,1,0,.25,0.85,0.85,0,0,1-.12.23,1,1,0,0,1-.18.19,1,1,0,0,1-.22.14,1.32,1.32,0,0,1,.25.17,1.29,1.29,0,0,1,.22.23,1.13,1.13,0,0,1,.15.29,1,1,0,0,1,.06.34,1.16,1.16,0,0,1-.12.54,1.27,1.27,0,0,1-.34.41,1.53,1.53,0,0,1-.5.27,1.91,1.91,0,0,1-.6.09,1.81,1.81,0,0,1-.6-0.1,1.52,1.52,0,0,1-.49-0.28,1.31,1.31,0,0,1-.33-0.43,1.21,1.21,0,0,1-.12-0.54,0.9,0.9,0,0,1,.06-0.33,1.13,1.13,0,0,1,.16-0.28,1.35,1.35,0,0,1,.21-0.22,1.26,1.26,0,0,1,.24-0.16,1,1,0,0,1-.38-0.32,0.79,0.79,0,0,1-.16-0.47,1,1,0,0,1,.13-0.51,1.2,1.2,0,0,1,.34-0.37,1.61,1.61,0,0,1,.46-0.23,1.66,1.66,0,0,1,.5-0.08m0,1.71a0.73,0.73,0,0,0,.21,0,0.61,0.61,0,0,0,.2-0.1,0.54,0.54,0,0,0,.14-0.16,0.43,0.43,0,0,0,.05-0.22A0.42,0.42,0,0,0,121,44.4a0.7,0.7,0,0,0-.43-0.13,0.67,0.67,0,0,0-.42.13A0.46,0.46,0,0,0,120,45a0.5,0.5,0,0,0,.14.16,0.67,0.67,0,0,0,.19.1,0.73,0.73,0,0,0,.21,0m0,1.88a0.8,0.8,0,0,0,.28,0A0.75,0.75,0,0,0,121,47a0.62,0.62,0,0,0,.16-0.2,0.55,0.55,0,0,0,.06-0.25,0.57,0.57,0,0,0-.06-0.27A0.6,0.6,0,0,0,121,46a0.77,0.77,0,0,0-.24-0.12,0.88,0.88,0,0,0-.27,0,0.85,0.85,0,0,0-.28,0A0.72,0.72,0,0,0,120,46a0.65,0.65,0,0,0-.16.2,0.56,0.56,0,0,0-.06.26,0.54,0.54,0,0,0,.06.26,0.67,0.67,0,0,0,.17.2,0.74,0.74,0,0,0,.23.13,0.85,0.85,0,0,0,.27,0m0-4.09a2.16,2.16,0,0,0-.64.1,2.12,2.12,0,0,0-.6.3,1.71,1.71,0,0,0-.48.52,1.47,1.47,0,0,0-.2.76,1.28,1.28,0,0,0,.25.77h0l-0.07.09a1.64,1.64,0,0,0-.23.41,1.39,1.39,0,0,0-.09.51,1.72,1.72,0,0,0,.17.76,1.81,1.81,0,0,0,.45.59,2,2,0,0,0,.65.37,2.32,2.32,0,0,0,.77.13,2.42,2.42,0,0,0,.76-0.12,2,2,0,0,0,.66-0.36,1.77,1.77,0,0,0,.46-0.57,1.66,1.66,0,0,0,.18-0.77A1.5,1.5,0,0,0,122.5,46a1.64,1.64,0,0,0-.22-0.41l-0.09-.11,0,0a1.35,1.35,0,0,0,.19-0.36,1.25,1.25,0,0,0,.07-0.41,1.46,1.46,0,0,0-.2-0.77,1.75,1.75,0,0,0-.47-0.51,2,2,0,0,0-.61-0.3,2.27,2.27,0,0,0-.64-0.1h0Zm0,3.59-0.11,0-0.07,0,0-.05V46.48l0,0,0.07,0,0.11,0,0.12,0,0.08,0,0,0.08a0.12,0.12,0,0,1,0,.07l-0.09,0-0.11,0h0Z"/><path d="M42.46,48.07a0.25,0.25,0,0,1-.25-0.25,3,3,0,0,1,0-.54,1.54,1.54,0,0,1,.52-0.89A2.8,2.8,0,0,1,43.29,46l0.44-.23L44,45.63a0.5,0.5,0,0,0,.13-0.11,0.15,0.15,0,0,0,0-.17,0.38,0.38,0,0,0-.25-0.06,0.6,0.6,0,0,0-.19,0l-0.17.08-0.16.12-0.13.14a0.25,0.25,0,0,1-.19.09h0a0.25,0.25,0,0,1-.19-0.09l-0.52-.59a0.25,0.25,0,0,1,0-.33,1.57,1.57,0,0,1,.26-0.22A2.36,2.36,0,0,1,43,44.3a2.72,2.72,0,0,1,.47-0.16A2.5,2.5,0,0,1,44,44.08a2.09,2.09,0,0,1,.62.09,1.45,1.45,0,0,1,.49.25,1.16,1.16,0,0,1,.32.42,1.23,1.23,0,0,1,.11.51,1.09,1.09,0,0,1-.1.48,1.37,1.37,0,0,1-.24.35,1.78,1.78,0,0,1-.3.25l-0.29.18-0.39.23h1.15a0.25,0.25,0,0,1,.25.25v0.73a0.25,0.25,0,0,1-.25.25H42.46Z" fill="#fff"/><path d="M44,44.33a1.84,1.84,0,0,1,.55.08,1.2,1.2,0,0,1,.41.21,0.89,0.89,0,0,1,.25.32,1,1,0,0,1,.09.41,0.85,0.85,0,0,1-.08.37A1.1,1.1,0,0,1,45,46a1.54,1.54,0,0,1-.26.22l-0.27.17-0.25.14L44,46.7l-0.25.19a0.88,0.88,0,0,0-.17.19h1.82v0.73H42.46a2.66,2.66,0,0,1,0-.49,1.33,1.33,0,0,1,.15-0.41,1.35,1.35,0,0,1,.29-0.35,2.59,2.59,0,0,1,.46-0.32L43.84,46l0.32-.18a0.76,0.76,0,0,0,.19-0.17,0.32,0.32,0,0,0,.07-0.2,0.4,0.4,0,0,0-.14-0.31A0.6,0.6,0,0,0,43.86,45a0.84,0.84,0,0,0-.26,0,1,1,0,0,0-.22.1l-0.19.15L43,45.49,42.5,44.9a1.34,1.34,0,0,1,.22-0.18,2.15,2.15,0,0,1,.34-0.19,2.51,2.51,0,0,1,.43-0.14A2.21,2.21,0,0,1,44,44.33m0-.5a2.72,2.72,0,0,0-.62.07,3,3,0,0,0-.52.17,2.66,2.66,0,0,0-.42.23,1.8,1.8,0,0,0-.31.26,0.5,0.5,0,0,0,0,.67l0.52,0.59a0.5,0.5,0,0,0,.26.16,2.61,2.61,0,0,0-.29.22,1.86,1.86,0,0,0-.39.48,1.83,1.83,0,0,0-.2.55,3.19,3.19,0,0,0-.05.58,0.5,0.5,0,0,0,.5.5h2.89a0.5,0.5,0,0,0,.5-0.5V47.09a0.5,0.5,0,0,0-.5-0.5H45.11a2.06,2.06,0,0,0,.27-0.24,1.61,1.61,0,0,0,.29-0.42,1.34,1.34,0,0,0,.13-0.59,1.48,1.48,0,0,0-.13-0.62,1.39,1.39,0,0,0-.39-0.5,1.7,1.7,0,0,0-.57-0.3,2.34,2.34,0,0,0-.69-0.1h0Z"/><path d="M47.76,48.13A1.67,1.67,0,0,1,47,48a1.72,1.72,0,0,1-.57-0.44,2.08,2.08,0,0,1-.37-0.66,2.57,2.57,0,0,1,0-1.62,2.06,2.06,0,0,1,.37-0.66A1.75,1.75,0,0,1,47,44.15a1.7,1.7,0,0,1,1.45,0,1.75,1.75,0,0,1,.57.44,2.06,2.06,0,0,1,.37.66,2.57,2.57,0,0,1,0,1.62,2.06,2.06,0,0,1-.37.66,1.71,1.71,0,0,1-.58.44A1.68,1.68,0,0,1,47.76,48.13Zm0-2.9a0.34,0.34,0,0,0-.18,0,0.48,0.48,0,0,0-.15.15,0.87,0.87,0,0,0-.12.27,1.48,1.48,0,0,0,0,.38,1.39,1.39,0,0,0,0,.37,0.87,0.87,0,0,0,.12.27,0.48,0.48,0,0,0,.16.15,0.34,0.34,0,0,0,.18,0,0.34,0.34,0,0,0,.17,0,0.48,0.48,0,0,0,.15-0.15,0.87,0.87,0,0,0,.12-0.27,1.39,1.39,0,0,0,0-.37,1.48,1.48,0,0,0,0-.38,0.87,0.87,0,0,0-.12-0.27,0.48,0.48,0,0,0-.16-0.15A0.33,0.33,0,0,0,47.76,45.22Z" fill="#fff"/><path d="M47.76,44.23a1.39,1.39,0,0,1,.62.14,1.49,1.49,0,0,1,.49.38,1.81,1.81,0,0,1,.32.58,2.33,2.33,0,0,1,0,1.46,1.81,1.81,0,0,1-.32.58,1.45,1.45,0,0,1-.49.38,1.48,1.48,0,0,1-1.23,0,1.46,1.46,0,0,1-.49-0.38,1.81,1.81,0,0,1-.32-0.58,2.33,2.33,0,0,1,0-1.46,1.81,1.81,0,0,1,.32-0.58,1.49,1.49,0,0,1,.49-0.38,1.39,1.39,0,0,1,.62-0.14m0,2.9a0.59,0.59,0,0,0,.3-0.08,0.72,0.72,0,0,0,.23-0.22,1.11,1.11,0,0,0,.15-0.34,1.66,1.66,0,0,0,.05-0.44,1.69,1.69,0,0,0-.05-0.44,1.11,1.11,0,0,0-.15-0.34A0.72,0.72,0,0,0,48.06,45a0.59,0.59,0,0,0-.3-0.08,0.6,0.6,0,0,0-.3.08,0.72,0.72,0,0,0-.23.22,1.11,1.11,0,0,0-.15.34,1.69,1.69,0,0,0-.05.44,1.66,1.66,0,0,0,.05.44,1.11,1.11,0,0,0,.15.34,0.72,0.72,0,0,0,.23.22,0.6,0.6,0,0,0,.3.08m0-3.4a1.89,1.89,0,0,0-.84.19,2,2,0,0,0-.65.51,2.31,2.31,0,0,0-.41.73,2.82,2.82,0,0,0,0,1.79,2.31,2.31,0,0,0,.41.73,2,2,0,0,0,.66.51,2,2,0,0,0,1.66,0,2,2,0,0,0,.66-0.51A2.31,2.31,0,0,0,49.66,47a2.82,2.82,0,0,0,0-1.79,2.31,2.31,0,0,0-.41-0.73,2,2,0,0,0-.66-0.51,1.89,1.89,0,0,0-.83-0.19h0Zm0,2.9H47.71a0.22,0.22,0,0,1-.07-0.07,0.62,0.62,0,0,1-.09-0.19,1.17,1.17,0,0,1,0-.31,1.2,1.2,0,0,1,0-.31,0.62,0.62,0,0,1,.08-0.19,0.23,0.23,0,0,1,.08-0.08h0.1a0.22,0.22,0,0,1,.07.07,0.62,0.62,0,0,1,.08.19,1.2,1.2,0,0,1,0,.31,1.17,1.17,0,0,1,0,.31,0.62,0.62,0,0,1-.08.19,0.23,0.23,0,0,1-.08.08h0Z"/><path d="M79.16,48.07a0.25,0.25,0,0,1-.25-0.25,2.82,2.82,0,0,1,0-.54,1.56,1.56,0,0,1,.17-0.48,1.6,1.6,0,0,1,.34-0.41A2.84,2.84,0,0,1,80,46l0.44-.23,0.29-.17a0.52,0.52,0,0,0,.13-0.11,0.15,0.15,0,0,0,0-.17,0.4,0.4,0,0,0-.25-0.06l-0.19,0-0.17.08L80,45.51l-0.13.14a0.25,0.25,0,0,1-.19.09h0a0.25,0.25,0,0,1-.19-0.09L79,45.06a0.25,0.25,0,0,1,0-.33,1.57,1.57,0,0,1,.26-0.22,2.41,2.41,0,0,1,.38-0.21,2.79,2.79,0,0,1,.47-0.16,2.5,2.5,0,0,1,.57-0.06,2.09,2.09,0,0,1,.62.09,1.45,1.45,0,0,1,.49.25,1.15,1.15,0,0,1,.32.41,1.21,1.21,0,0,1,.11.51,1.09,1.09,0,0,1-.1.48,1.39,1.39,0,0,1-.24.35,1.78,1.78,0,0,1-.3.25l-0.29.18-0.24.14-0.15.09h1.15a0.25,0.25,0,0,1,.25.25v0.73a0.25,0.25,0,0,1-.25.25H79.16Z" fill="#fff"/><path d="M80.7,44.33a1.84,1.84,0,0,1,.55.08,1.19,1.19,0,0,1,.4.21,0.89,0.89,0,0,1,.25.32,1,1,0,0,1,.09.41,0.85,0.85,0,0,1-.08.37,1.13,1.13,0,0,1-.2.29,1.54,1.54,0,0,1-.26.22l-0.27.17-0.25.14-0.27.17-0.25.19a0.89,0.89,0,0,0-.17.19h1.82v0.73H79.16a2.58,2.58,0,0,1,0-.49,1.33,1.33,0,0,1,.15-0.41,1.37,1.37,0,0,1,.29-0.35,2.63,2.63,0,0,1,.46-0.32L80.54,46l0.31-.18A0.77,0.77,0,0,0,81,45.67a0.32,0.32,0,0,0,.07-0.2A0.4,0.4,0,0,0,81,45.16,0.6,0.6,0,0,0,80.55,45a0.84,0.84,0,0,0-.26,0,1,1,0,0,0-.23.1l-0.19.15-0.16.17L79.2,44.9a1.34,1.34,0,0,1,.22-0.18,2.14,2.14,0,0,1,.34-0.19,2.54,2.54,0,0,1,.43-0.14,2.22,2.22,0,0,1,.51-0.06m0-.5a2.73,2.73,0,0,0-.62.07,3.06,3.06,0,0,0-.52.17,2.64,2.64,0,0,0-.42.23,1.79,1.79,0,0,0-.31.26,0.5,0.5,0,0,0,0,.67l0.52,0.59a0.5,0.5,0,0,0,.26.16,2.61,2.61,0,0,0-.29.22,1.88,1.88,0,0,0-.39.47,1.84,1.84,0,0,0-.2.56,3.05,3.05,0,0,0-.05.58,0.5,0.5,0,0,0,.5.5h2.89a0.5,0.5,0,0,0,.5-0.5V47.09a0.5,0.5,0,0,0-.5-0.5H81.81a2.06,2.06,0,0,0,.27-0.24,1.64,1.64,0,0,0,.29-0.41,1.34,1.34,0,0,0,.13-0.59,1.46,1.46,0,0,0-.13-0.62,1.39,1.39,0,0,0-.39-0.5,1.69,1.69,0,0,0-.57-0.3,2.34,2.34,0,0,0-.7-0.1h0Z"/><path d="M84.49,48.83a0.25,0.25,0,0,1-.25-0.25V47.93h-1.5a0.25,0.25,0,0,1-.25-0.25V47a0.25,0.25,0,0,1,.05-0.15l2-2.58a0.25,0.25,0,0,1,.2-0.1h0.55a0.25,0.25,0,0,1,.25.25v2.32h0.28a0.25,0.25,0,0,1,.25.25v0.72a0.25,0.25,0,0,1-.25.25H85.54v0.64a0.25,0.25,0,0,1-.25.25h-0.8Zm-0.16-2.11V46.35L84,46.71h0.28Z" fill="#fff"/><path d="M85.29,44.39V47h0.53v0.72H85.29v0.89h-0.8V47.68H82.74V47l2-2.58h0.55M83.54,47h1V45.61l-1,1.36m1.75-3.07H84.75a0.5,0.5,0,0,0-.39.19l-2,2.58a0.5,0.5,0,0,0-.11.31v0.71a0.5,0.5,0,0,0,.5.5H84v0.39a0.5,0.5,0,0,0,.5.5h0.8a0.5,0.5,0,0,0,.5-0.5V48.18h0a0.5,0.5,0,0,0,.5-0.5V47a0.5,0.5,0,0,0-.5-0.5h0V44.39a0.5,0.5,0,0,0-.5-0.5h0Z"/><path d="M4.58,14.23a0.25,0.25,0,0,1-.13,0l-2.53-1.5a0.25,0.25,0,0,1-.12-0.22V12.09a0.25,0.25,0,0,1,.12-0.21l2.53-1.53a0.25,0.25,0,0,1,.13,0,0.25,0.25,0,0,1,.25.25v0.85a0.25,0.25,0,0,1-.12.21l-1,.64,1,0.61a0.25,0.25,0,0,1,.12.21V14A0.25,0.25,0,0,1,4.58,14.23Z" fill="#fff"/><path d="M4.58,10.56v0.85l-1.36.85,1.36,0.82V14L2,12.48V12.09l2.53-1.53m0-.5a0.5,0.5,0,0,0-.26.07L1.78,11.66a0.5,0.5,0,0,0-.24.43v0.39a0.5,0.5,0,0,0,.25.43l2.53,1.5A0.5,0.5,0,0,0,5.08,14v-0.9a0.5,0.5,0,0,0-.24-0.43l-0.66-.4,0.67-.42a0.5,0.5,0,0,0,.23-0.42V10.56a0.5,0.5,0,0,0-.5-0.5h0Z"/><rect x="5.34" y="11.56" width="2.32" height="1.23" rx="0.25" ry="0.25" fill="#fff"/><path d="M7.41,11.81v0.73H5.59V11.81H7.41m0-.5H5.59a0.5,0.5,0,0,0-.5.5v0.73a0.5,0.5,0,0,0,.5.5H7.41a0.5,0.5,0,0,0,.5-0.5V11.81a0.5,0.5,0,0,0-.5-0.5h0Z"/><path d="M8.31,14.07a0.25,0.25,0,0,1-.25-0.25V13.09a0.25,0.25,0,0,1,.25-0.25h0.6V11.75l-0.07,0a2.09,2.09,0,0,1-.33.12,1.23,1.23,0,0,1-.33.05,0.25,0.25,0,0,1-.25-0.25V11a0.25,0.25,0,0,1,.25-0.25,0.45,0.45,0,0,0,.16,0l0.27-.15,0.23-.17,0.08-.08a0.24,0.24,0,0,1,.22-0.12H10a0.25,0.25,0,0,1,.25.25v2.45h0.51a0.25,0.25,0,0,1,.25.25v0.73a0.25,0.25,0,0,1-.25.25H8.31Z" fill="#fff"/><path d="M10,10.39v2.7h0.76v0.73H8.31V13.09H9.16V11.27a0.63,0.63,0,0,1-.17.15l-0.26.14-0.29.11a1,1,0,0,1-.26,0V11a0.68,0.68,0,0,0,.26-0.07l0.31-.17L9,10.54a0.62,0.62,0,0,0,.14-0.15H10m0-.5H9.16a0.5,0.5,0,0,0-.42.22l0,0-0.21.15-0.24.13-0.08,0a0.49,0.49,0,0,0-.49.5v0.75a0.5,0.5,0,0,0,.5.5,1.44,1.44,0,0,0,.4-0.06l0.07,0v0.46H8.31a0.5,0.5,0,0,0-.5.5v0.73a0.5,0.5,0,0,0,.5.5h2.44a0.5,0.5,0,0,0,.5-0.5V13.09a0.5,0.5,0,0,0-.5-0.5H10.48v-2.2a0.5,0.5,0,0,0-.5-0.5h0Z"/><path d="M12.76,15a2,2,0,0,1-1-.23,1.61,1.61,0,0,1-.66-0.64,0.25,0.25,0,0,1,0-.29l0.46-.48a0.25,0.25,0,0,1,.18-0.08h0a0.25,0.25,0,0,1,.19.1,1,1,0,0,0,.34.3,0.82,0.82,0,0,0,.4.11,0.5,0.5,0,0,0,.36-0.13,0.45,0.45,0,0,0-.31-0.78,0.54,0.54,0,0,0-.25.06,0.47,0.47,0,0,0-.18.16,0.25,0.25,0,0,1-.21.11h-0.7a0.25,0.25,0,0,1-.25-0.25,0.86,0.86,0,0,1,0-.19l0.47-2.4a0.25,0.25,0,0,1,.25-0.2h2.1a0.25,0.25,0,0,1,.25.25v0.73a0.25,0.25,0,0,1-.25.25H12.75l-0.05.3,0.23,0a1.8,1.8,0,0,1,.65.12,1.58,1.58,0,0,1,.53.33,1.55,1.55,0,0,1,.35.52,1.71,1.71,0,0,1,.12.65,1.69,1.69,0,0,1-.14.69,1.57,1.57,0,0,1-.39.54,1.77,1.77,0,0,1-.58.34A2.07,2.07,0,0,1,12.76,15Z" fill="#fff"/><path d="M14.06,10.39v0.73H12.54l-0.17,1a0.51,0.51,0,0,1,.21-0.13,1.09,1.09,0,0,1,.35,0,1.54,1.54,0,0,1,.56.1,1.32,1.32,0,0,1,.45.28,1.3,1.3,0,0,1,.29.43,1.45,1.45,0,0,1,.1.56,1.43,1.43,0,0,1-.12.59,1.32,1.32,0,0,1-.33.45,1.51,1.51,0,0,1-.5.29,1.81,1.81,0,0,1-.62.1,1.74,1.74,0,0,1-.84-0.2A1.36,1.36,0,0,1,11.36,14l0.46-.48a1.25,1.25,0,0,0,.42.37,1.07,1.07,0,0,0,.52.14,0.74,0.74,0,0,0,.53-0.19,0.7,0.7,0,0,0-.48-1.22,0.79,0.79,0,0,0-.37.09,0.72,0.72,0,0,0-.27.25h-0.7a1.2,1.2,0,0,1,0-.13l0.06-.3,0.08-.41,0.09-.46L12,10.39h2.1m0-.5H12a0.5,0.5,0,0,0-.49.41l-0.24,1.23L11.14,12l-0.08.4,0,0.24v0.06a1.05,1.05,0,0,0,0,.23,0.5,0.5,0,0,0,.27.45L11,13.62a0.5,0.5,0,0,0-.08.59,1.85,1.85,0,0,0,.76.74,2.24,2.24,0,0,0,1.07.26,2.31,2.31,0,0,0,.8-0.14,2,2,0,0,0,.66-0.39,1.82,1.82,0,0,0,.45-0.62,2,2,0,0,0,0-1.54,1.74,1.74,0,0,0-.82-0.9h0.2a0.5,0.5,0,0,0,.5-0.5V10.39a0.5,0.5,0,0,0-.5-0.5h0ZM12.4,13.37a0.5,0.5,0,0,0,.19-0.17,0.22,0.22,0,0,1,.09-0.07,0.29,0.29,0,0,1,.14,0,0.21,0.21,0,0,1,.14.35,0.25,0.25,0,0,1-.19.06,0.57,0.57,0,0,1-.28-0.08l-0.08-.05h0Z"/><path d="M115.57,14.23a0.25,0.25,0,0,1-.13,0l-2.53-1.5a0.25,0.25,0,0,1-.12-0.22V12.09a0.25,0.25,0,0,1,.12-0.21l2.53-1.53a0.25,0.25,0,0,1,.13,0,0.25,0.25,0,0,1,.25.25v0.85a0.25,0.25,0,0,1-.12.21l-1,.64,1,0.61a0.25,0.25,0,0,1,.12.21V14A0.25,0.25,0,0,1,115.57,14.23Z" fill="#fff"/><path d="M115.57,10.56v0.85l-1.36.85,1.36,0.82V14L113,12.48V12.09l2.53-1.53m0-.5a0.5,0.5,0,0,0-.26.07l-2.53,1.53a0.5,0.5,0,0,0-.24.43v0.39a0.5,0.5,0,0,0,.25.43l2.53,1.5a0.5,0.5,0,0,0,.75-0.43v-0.9a0.5,0.5,0,0,0-.24-0.43l-0.66-.4,0.67-.42a0.5,0.5,0,0,0,.23-0.42V10.56a0.5,0.5,0,0,0-.5-0.5h0Z"/><path d="M116.62,14.07a0.25,0.25,0,0,1-.25-0.25V13.09a0.25,0.25,0,0,1,.25-0.25h0.6V11.75l-0.07,0a2.09,2.09,0,0,1-.33.12,1.22,1.22,0,0,1-.33.05,0.25,0.25,0,0,1-.25-0.25V11a0.25,0.25,0,0,1,.25-0.25,0.43,0.43,0,0,0,.16,0l0.27-.15,0.23-.17,0.08-.08a0.24,0.24,0,0,1,.22-0.12h0.82a0.25,0.25,0,0,1,.25.25v2.45h0.51a0.25,0.25,0,0,1,.25.25v0.73a0.25,0.25,0,0,1-.25.25h-2.44Z" fill="#fff"/><path d="M118.29,10.39v2.7h0.76v0.73h-2.44V13.09h0.85V11.27a0.64,0.64,0,0,1-.17.15l-0.25.14-0.29.11a1,1,0,0,1-.26,0V11a0.68,0.68,0,0,0,.26-0.07,2.28,2.28,0,0,0,.31-0.17l0.26-.19a0.62,0.62,0,0,0,.14-0.15h0.82m0-.5h-0.82a0.5,0.5,0,0,0-.42.22l0,0-0.21.15-0.24.13-0.08,0a0.49,0.49,0,0,0-.49.5v0.75a0.5,0.5,0,0,0,.5.5,1.44,1.44,0,0,0,.4-0.06l0.07,0v0.46h-0.35a0.5,0.5,0,0,0-.5.5v0.73a0.5,0.5,0,0,0,.5.5h2.44a0.5,0.5,0,0,0,.5-0.5V13.09a0.5,0.5,0,0,0-.5-0.5h-0.26v-2.2a0.5,0.5,0,0,0-.5-0.5h0Z"/><path d="M121.06,14.95a2.32,2.32,0,0,1-.9-0.17,1.75,1.75,0,0,1-.68-0.5,0.25,0.25,0,0,1,0-.32l0.46-.57a0.25,0.25,0,0,1,.2-0.09h0a0.25,0.25,0,0,1,.2.1,0.81,0.81,0,0,0,.29.24,1,1,0,0,0,.43.08,0.7,0.7,0,0,0,.41-0.09,0.27,0.27,0,0,0,.09-0.24,0.31,0.31,0,0,0-.12-0.28,0.9,0.9,0,0,0-.52-0.12h-0.17a0.25,0.25,0,0,1-.25-0.25v-0.6a0.25,0.25,0,0,1,.25-0.25h0.19a0.66,0.66,0,0,0,.42-0.11,0.27,0.27,0,0,0,.11-0.23,0.17,0.17,0,0,0-.06-0.16,0.5,0.5,0,0,0-.29-0.07,0.72,0.72,0,0,0-.37.09,0.74,0.74,0,0,0-.27.27,0.25,0.25,0,0,1-.19.12h0A0.25,0.25,0,0,1,120,11.7l-0.5-.56a0.25,0.25,0,0,1,0-.3,1.24,1.24,0,0,1,.3-0.31,1.93,1.93,0,0,1,.39-0.22,2.4,2.4,0,0,1,.46-0.14,2.58,2.58,0,0,1,.51,0,2.14,2.14,0,0,1,.63.09,1.66,1.66,0,0,1,.51.25,1.23,1.23,0,0,1,.35.42,1.21,1.21,0,0,1,.13.55,1.38,1.38,0,0,1-.07.42,1.28,1.28,0,0,1-.2.37,1.25,1.25,0,0,1-.17.18,1.21,1.21,0,0,1,.22.21,1.35,1.35,0,0,1,.29.87,1.4,1.4,0,0,1-.14.62,1.35,1.35,0,0,1-.38.47,1.71,1.71,0,0,1-.57.29A2.5,2.5,0,0,1,121.06,14.95Z" fill="#fff"/><path d="M121.17,10.36a1.87,1.87,0,0,1,.56.08,1.41,1.41,0,0,1,.44.22,0.93,0.93,0,0,1,.38.77,1.1,1.1,0,0,1-.05.34,1,1,0,0,1-.16.29,1,1,0,0,1-.24.22,0.84,0.84,0,0,1-.31.12,1,1,0,0,1,.6.36,1.11,1.11,0,0,1,.23.71,1.15,1.15,0,0,1-.11.51,1.1,1.1,0,0,1-.31.39,1.46,1.46,0,0,1-.49.25,2.24,2.24,0,0,1-.65.09,2.07,2.07,0,0,1-.81-0.15,1.5,1.5,0,0,1-.58-0.43l0.46-.57a1.08,1.08,0,0,0,.37.31A1.2,1.2,0,0,0,121,14a0.92,0.92,0,0,0,.56-0.14,0.52,0.52,0,0,0,.19-0.44,0.57,0.57,0,0,0-.22-0.48,1.11,1.11,0,0,0-.67-0.17h-0.17v-0.6h0.19a0.89,0.89,0,0,0,.58-0.17,0.52,0.52,0,0,0,.2-0.42,0.42,0.42,0,0,0-.17-0.37,0.74,0.74,0,0,0-.44-0.12,1,1,0,0,0-.5.13,1,1,0,0,0-.36.35l-0.5-.56a1,1,0,0,1,.24-0.25,1.67,1.67,0,0,1,.34-0.19,2.13,2.13,0,0,1,.41-0.13,2.3,2.3,0,0,1,.46,0m0-.5a2.81,2.81,0,0,0-.56.05,2.64,2.64,0,0,0-.51.16,2.18,2.18,0,0,0-.44.25,1.49,1.49,0,0,0-.36.37,0.5,0.5,0,0,0,0,.61l0.5,0.56a0.5,0.5,0,0,0,.37.17h0a0.5,0.5,0,0,0,0,.09v0.6a0.5,0.5,0,0,0,.5.5h0.17a0.66,0.66,0,0,1,.37.07,0.08,0.08,0,0,1,0,.08,0.23,0.23,0,0,1,0,.06h0a0.84,0.84,0,0,1-.24,0,0.71,0.71,0,0,1-.32-0.06,0.58,0.58,0,0,1-.2-0.17,0.5,0.5,0,0,0-.39-0.19h0a0.5,0.5,0,0,0-.39.19l-0.46.57a0.5,0.5,0,0,0,0,.63,2,2,0,0,0,.78.57,2.57,2.57,0,0,0,1,.19,2.75,2.75,0,0,0,.79-0.11,2,2,0,0,0,.65-0.33A1.6,1.6,0,0,0,123,14.2a1.65,1.65,0,0,0,.16-0.73,1.6,1.6,0,0,0-.34-1l-0.06-.07h0a1.51,1.51,0,0,0,.24-0.44,1.61,1.61,0,0,0,.08-0.5,1.43,1.43,0,0,0-.58-1.17,1.91,1.91,0,0,0-.59-0.29,2.38,2.38,0,0,0-.7-0.1h0Zm-0.36,1.77h0a0.48,0.48,0,0,1,.25-0.06h0.09a0.43,0.43,0,0,1-.26.05h-0.1Z"/><path d="M45.67,14.07a0.25,0.25,0,0,1-.25-0.25V13.09a0.25,0.25,0,0,1,.25-0.25h0.6V11.75l-0.07,0a2.06,2.06,0,0,1-.33.12,1.2,1.2,0,0,1-.33.05,0.25,0.25,0,0,1-.25-0.25V11a0.25,0.25,0,0,1,.25-0.25,0.45,0.45,0,0,0,.16,0L46,10.52l0.24-.17,0.09-.08a0.28,0.28,0,0,1,.21-0.12h0.82a0.25,0.25,0,0,1,.25.25v2.45H48.1a0.25,0.25,0,0,1,.25.25v0.73a0.25,0.25,0,0,1-.25.25H45.67Z" fill="#fff"/><path d="M47.34,10.39v2.7H48.1v0.73H45.67V13.09h0.85V11.27a0.65,0.65,0,0,1-.17.15l-0.25.14-0.29.11a1,1,0,0,1-.26,0V11a0.68,0.68,0,0,0,.26-0.07,2.27,2.27,0,0,0,.31-0.17l0.26-.19a0.67,0.67,0,0,0,.14-0.15h0.82m0-.5H46.52a0.5,0.5,0,0,0-.43.25h0l0,0-0.21.15-0.24.13-0.08,0A0.49,0.49,0,0,0,45,11v0.75a0.5,0.5,0,0,0,.5.5,1.45,1.45,0,0,0,.4-0.06l0.08,0v0.46H45.67a0.5,0.5,0,0,0-.5.5v0.73a0.5,0.5,0,0,0,.5.5H48.1a0.5,0.5,0,0,0,.5-0.5V13.09a0.5,0.5,0,0,0-.5-0.5H47.84v-2.2a0.5,0.5,0,0,0-.5-0.5h0Z"/><path d="M83.33,14.12A2.05,2.05,0,0,1,82.64,14a1.76,1.76,0,0,1-.57-0.33,1.56,1.56,0,0,1-.39-0.51,1.47,1.47,0,0,1-.15-0.65,1.16,1.16,0,0,1,.08-0.42,1.35,1.35,0,0,1,.19-0.34A1.66,1.66,0,0,1,82,11.53a1.33,1.33,0,0,1-.15-0.17,1,1,0,0,1-.2-0.62,1.23,1.23,0,0,1,.16-0.63,1.48,1.48,0,0,1,.4-0.44,1.86,1.86,0,0,1,.53-0.26,1.91,1.91,0,0,1,.57-0.09,2,2,0,0,1,.57.08,1.71,1.71,0,0,1,.54.26,1.51,1.51,0,0,1,.4.44,1.21,1.21,0,0,1,.17.64,1,1,0,0,1-.06.33,1.11,1.11,0,0,1-.15.29,1.25,1.25,0,0,1-.16.18,1.54,1.54,0,0,1,.23.25,1.37,1.37,0,0,1,.19.35,1.24,1.24,0,0,1,.07.43,1.42,1.42,0,0,1-.15.65,1.54,1.54,0,0,1-.4.49A1.77,1.77,0,0,1,84,14,2.15,2.15,0,0,1,83.33,14.12Zm0-2a0.59,0.59,0,0,0-.2,0,0.44,0.44,0,0,0-.15.08,0.4,0.4,0,0,0-.1.12,0.32,0.32,0,0,0,0,.15,0.3,0.3,0,0,0,0,.14,0.42,0.42,0,0,0,.1.13,0.49,0.49,0,0,0,.16.09,0.58,0.58,0,0,0,.19,0,0.54,0.54,0,0,0,.19,0,0.52,0.52,0,0,0,.16-0.09,0.38,0.38,0,0,0,.1-0.12,0.3,0.3,0,0,0,0-.14,0.32,0.32,0,0,0,0-.15,0.36,0.36,0,0,0-.1-0.12,0.51,0.51,0,0,0-.16-0.08A0.63,0.63,0,0,0,83.33,12.12Zm0-1.6a0.42,0.42,0,0,0-.27.08,0.18,0.18,0,0,0-.08.16,0.28,0.28,0,0,0,.09.17L83.19,11l0.14,0,0.14,0,0.12-.06a0.3,0.3,0,0,0,.08-0.09,0.22,0.22,0,0,0-.06-0.25A0.45,0.45,0,0,0,83.33,10.52Z" fill="#fff"/><path d="M83.33,9.56a1.76,1.76,0,0,1,.5.07,1.47,1.47,0,0,1,.46.23,1.27,1.27,0,0,1,.34.37,1,1,0,0,1,.13.51,0.76,0.76,0,0,1,0,.25,0.86,0.86,0,0,1-.12.23,1,1,0,0,1-.39.33,1.34,1.34,0,0,1,.25.16,1.29,1.29,0,0,1,.22.23,1.11,1.11,0,0,1,.15.29,1,1,0,0,1,.06.34,1.16,1.16,0,0,1-.12.54,1.28,1.28,0,0,1-.34.41,1.52,1.52,0,0,1-.5.27,1.9,1.9,0,0,1-.6.09,1.8,1.8,0,0,1-.6-0.1,1.51,1.51,0,0,1-.49-0.28,1.3,1.3,0,0,1-.33-0.43,1.21,1.21,0,0,1-.12-0.54,0.9,0.9,0,0,1,.06-0.33A1.13,1.13,0,0,1,82,11.91a1.37,1.37,0,0,1,.21-0.22,1.28,1.28,0,0,1,.24-0.16,1,1,0,0,1-.38-0.32,0.79,0.79,0,0,1-.16-0.47A1,1,0,0,1,82,10.23a1.21,1.21,0,0,1,.34-0.37,1.6,1.6,0,0,1,.46-0.23,1.66,1.66,0,0,1,.5-0.08m0,1.71a0.71,0.71,0,0,0,.21,0,0.6,0.6,0,0,0,.2-0.1A0.54,0.54,0,0,0,83.88,11a0.43,0.43,0,0,0,.05-0.22,0.42,0.42,0,0,0-.18-0.35,0.7,0.7,0,0,0-.43-0.13,0.67,0.67,0,0,0-.42.13,0.46,0.46,0,0,0-.12.58,0.5,0.5,0,0,0,.14.16,0.65,0.65,0,0,0,.19.1,0.71,0.71,0,0,0,.21,0m0,1.88a0.8,0.8,0,0,0,.28,0A0.77,0.77,0,0,0,83.84,13a0.63,0.63,0,0,0,.16-0.2,0.55,0.55,0,0,0,.06-0.25A0.57,0.57,0,0,0,84,12.24a0.6,0.6,0,0,0-.17-0.2,0.75,0.75,0,0,0-.24-0.12,0.88,0.88,0,0,0-.27,0,0.85,0.85,0,0,0-.28,0,0.7,0.7,0,0,0-.23.13,0.65,0.65,0,0,0-.16.2,0.56,0.56,0,0,0-.06.26,0.54,0.54,0,0,0,.06.26,0.66,0.66,0,0,0,.17.2,0.75,0.75,0,0,0,.23.13,0.83,0.83,0,0,0,.27,0m0-4.09a2.16,2.16,0,0,0-.64.1,2.11,2.11,0,0,0-.6.3,1.72,1.72,0,0,0-.48.52,1.48,1.48,0,0,0-.2.76,1.28,1.28,0,0,0,.25.77h0l-0.07.09a1.64,1.64,0,0,0-.23.4,1.4,1.4,0,0,0-.09.51,1.72,1.72,0,0,0,.17.76,1.81,1.81,0,0,0,.46.59,2,2,0,0,0,.65.37,2.3,2.3,0,0,0,.76.13,2.41,2.41,0,0,0,.76-0.12,2,2,0,0,0,.66-0.36,1.78,1.78,0,0,0,.46-0.57,1.66,1.66,0,0,0,.18-0.77A1.49,1.49,0,0,0,85.29,12a1.62,1.62,0,0,0-.22-0.41L85,11.52v0a1.37,1.37,0,0,0,.19-0.36,1.25,1.25,0,0,0,.07-0.41A1.46,1.46,0,0,0,85,10a1.77,1.77,0,0,0-.47-0.51A2,2,0,0,0,84,9.15a2.27,2.27,0,0,0-.64-0.1h0Z"/><path d="M116.76,42.13H8.24A7.75,7.75,0,0,1,.5,34.39V22.89a7.75,7.75,0,0,1,7.74-7.74H116.76a7.75,7.75,0,0,1,7.74,7.74v11.5A7.75,7.75,0,0,1,116.76,42.13ZM8.24,16.52a6.37,6.37,0,0,0-6.37,6.37v11.5a6.37,6.37,0,0,0,6.37,6.37H116.76a6.37,6.37,0,0,0,6.37-6.37V22.89a6.37,6.37,0,0,0-6.37-6.37H8.24Z" fill="#fff"/><rect x="1.33" y="22" width="122.33" height="11" fill="#fff"/><g clip-path="url(#a)"><rect x="115.65" y="15.09" width="8.16" height="12.86" fill="#2dfd73"/><rect x="115.65" y="29.33" width="8.16" height="12.86" fill="#800600"/><rect x="107.49" y="29.33" width="7.96" height="12.86" fill="#992302"/><rect x="107.49" y="15.09" width="7.96" height="12.86" fill="#2dfea3"/><rect x="99.33" y="15.09" width="7.96" height="12.86" fill="#23fdd8"/><rect x="99.33" y="29.33" width="7.96" height="12.86" fill="#b63f02"/><rect x="91.17" y="29.33" width="7.96" height="12.86" fill="#d25702"/><rect x="91.17" y="15.09" width="7.96" height="12.86" fill="#1beffe"/><rect x="83.01" y="29.33" width="7.96" height="12.86" fill="#f47501"/><rect x="83.01" y="15.09" width="7.96" height="12.86" fill="#37b5fe"/><rect x="74.84" y="29.33" width="7.96" height="12.86" fill="#fd8f02"/><rect x="74.84" y="15.09" width="7.96" height="12.86" fill="#3a7efe"/><rect x="66.68" y="15.09" width="7.96" height="12.86" fill="#2f4bfe"/><rect x="66.68" y="29.33" width="7.96" height="12.86" fill="#ffae00"/><rect x="58.52" y="29.33" width="7.96" height="12.86" fill="#fec701"/><rect x="58.52" y="15.09" width="7.96" height="12.86" fill="#0c10fe"/><rect x="50.36" y="29.33" width="7.96" height="12.86" fill="#fee401"/><rect x="50.36" y="15.09" width="7.96" height="12.86" fill="#5302f9"/><rect x="42.2" y="15.09" width="7.96" height="12.86" fill="#8701fe"/><rect x="42.2" y="29.33" width="7.96" height="12.86" fill="#f9fd02"/><rect x="34.04" y="29.33" width="7.96" height="12.86" fill="#cafd02"/><rect x="34.04" y="15.09" width="7.96" height="12.86" fill="#b502fd"/><rect x="25.88" y="15.09" width="7.96" height="12.86" fill="#e501fe"/><rect x="25.88" y="29.33" width="7.96" height="12.86" fill="#9cfe01"/><rect x="17.71" y="29.33" width="7.96" height="12.86" fill="#69fe01"/><rect x="17.71" y="15.09" width="7.96" height="12.86" fill="#f3f"/><rect x="9.55" y="15.09" width="7.96" height="12.86" fill="#ff70ff"/><rect x="9.55" y="29.33" width="7.96" height="12.86" fill="#25fe01"/><rect x="1.19" y="15.09" width="8.16" height="12.86" fill="#ffb3ff"/><rect x="1.19" y="29.33" width="8.16" height="12.86" fill="#21ff3f"/></g></svg>